<?xml version="1.0" standalone="no"?><!DOCTYPE svg PUBLIC "-//W3C//DTD SVG 1.1//EN" "http://www.w3.org/Graphics/SVG/1.1/DTD/svg11.dtd"><svg width="100%" height="100%" viewBox="0 0 1382 155" version="1.1" xmlns="http://www.w3.org/2000/svg" xmlns:xlink="http://www.w3.org/1999/xlink" xml:space="preserve" style="fill-rule:evenodd;clip-rule:evenodd;stroke-linejoin:round;stroke-miterlimit:1.41421;"><path d="M193.45,0l-182.898,0c-5.828,0 -10.552,4.724 -10.552,10.552l0,133.656c0,5.828 4.724,10.552 10.552,10.552l182.898,0c5.828,0 10.552,-4.724 10.552,-10.552l0,-133.656c0,-5.828 -4.724,-10.552 -10.552,-10.552ZM175.864,7.034l3.517,0c1.943,0 3.518,1.576 3.518,3.518c0,1.942 -1.575,3.517 -3.518,3.517l-3.517,0c-1.943,0 -3.518,-1.575 -3.518,-3.517c0.001,-1.942 1.575,-3.518 3.518,-3.518ZM77.38,7.034l84.415,0c1.942,0 3.517,1.576 3.517,3.518c0,1.942 -1.575,3.517 -3.517,3.517l-84.415,0c-1.942,0 -3.517,-1.575 -3.517,-3.517c0,-1.942 1.575,-3.518 3.517,-3.518ZM59.794,7.034l3.517,0c1.943,0 3.518,1.576 3.518,3.518c0,1.942 -1.575,3.517 -3.518,3.517l-3.517,0c-1.943,0 -3.518,-1.575 -3.518,-3.517c0,-1.942 1.575,-3.518 3.518,-3.518ZM45.725,7.034l3.517,0c1.943,0 3.518,1.576 3.518,3.518c0,1.942 -1.575,3.517 -3.518,3.517l-3.517,0c-1.943,0 -3.518,-1.575 -3.518,-3.517c0,-1.942 1.575,-3.518 3.518,-3.518ZM31.655,7.034c1.943,0 3.518,1.576 3.518,3.518c0,1.942 -1.575,3.517 -3.518,3.517c-1.942,0 -3.517,-1.575 -3.517,-3.517c0,-1.942 1.575,-3.518 3.517,-3.518ZM21.104,7.034c1.942,0 3.517,1.576 3.517,3.518c0,1.942 -1.575,3.517 -3.517,3.517c-1.943,0 -3.518,-1.575 -3.518,-3.517c0,-1.942 1.575,-3.518 3.518,-3.518ZM10.552,7.034c1.942,0 3.517,1.576 3.517,3.518c0,1.942 -1.575,3.517 -3.517,3.517c-1.942,0 -3.518,-1.575 -3.518,-3.517c0,-1.942 1.576,-3.518 3.518,-3.518ZM196.968,42.207l0,102.001c0,1.943 -1.575,3.518 -3.518,3.518l-182.898,0c-1.942,0 -3.518,-1.575 -3.518,-3.518l0,-102.001l0,-17.586c0,-1.943 1.576,-3.518 3.518,-3.518l182.898,0c1.943,0 3.518,1.575 3.518,3.518l0,17.586ZM193.45,14.069l-3.517,0c-1.943,0 -3.518,-1.575 -3.518,-3.517c0,-1.943 1.575,-3.518 3.518,-3.518l3.517,0c1.943,0 3.518,1.575 3.518,3.518c0,1.942 -1.575,3.517 -3.518,3.517Z" style="fill:#d2dcf0;fill-rule:nonzero;"/><path d="M7.034,144.208c0,1.943 1.576,3.518 3.518,3.518l182.898,0c1.943,0 3.518,-1.575 3.518,-3.518l0,-102.001l-189.934,0l0,102.001ZM151.243,59.794l0,-3.518c0,-1.942 1.575,-3.517 3.517,-3.517l28.139,0c1.942,0 3.517,1.575 3.517,3.517l0,31.656c0,1.942 -1.575,3.517 -3.517,3.517l-28.139,0c-1.942,0 -3.517,-1.575 -3.517,-3.517l0,-28.138ZM105.518,59.794l0,-3.518c0,-1.942 1.575,-3.517 3.518,-3.517l28.138,0c1.943,0 3.518,1.575 3.518,3.517l0,31.656c0,1.942 -1.575,3.517 -3.518,3.517l-28.138,0c-1.943,0 -3.518,-1.575 -3.518,-3.517l0,-28.138ZM105.518,105.518c0,-1.942 1.575,-3.517 3.518,-3.517l73.863,0c1.942,0 3.517,1.575 3.517,3.517l0,28.139c0,1.942 -1.575,3.517 -3.517,3.517l-70.346,0l-3.518,0c-1.942,0 -3.517,-1.575 -3.517,-3.517l0,-28.139l0,0ZM17.586,56.276c0,-1.942 1.575,-3.517 3.518,-3.517l70.345,0c1.943,0 3.518,1.575 3.518,3.517l0,77.38c0,1.943 -1.575,3.518 -3.518,3.518l-4.081,0l-62.19,0l-4.074,0c-1.943,0 -3.518,-1.575 -3.518,-3.518l0,-77.38l0,0Z" style="fill:#fff;fill-rule:nonzero;"/><circle cx="10.552" cy="10.552" r="3.517" style="fill:#ff6469;"/><circle cx="21.104" cy="10.552" r="3.517" style="fill:#ffe169;"/><circle cx="31.655" cy="10.552" r="3.517" style="fill:#87e1aa;"/><path d="M45.725,14.069l3.517,0c1.943,0 3.518,-1.575 3.518,-3.517c0,-1.943 -1.575,-3.518 -3.518,-3.518l-3.517,0c-1.943,0 -3.518,1.575 -3.518,3.518c0,1.942 1.575,3.517 3.518,3.517Z" style="fill:#e4eaf6;fill-rule:nonzero;"/><path d="M59.794,14.069l3.517,0c1.943,0 3.518,-1.575 3.518,-3.517c0,-1.943 -1.575,-3.518 -3.518,-3.518l-3.517,0c-1.943,0 -3.518,1.575 -3.518,3.518c0,1.942 1.575,3.517 3.518,3.517Z" style="fill:#e4eaf6;fill-rule:nonzero;"/><path d="M175.864,14.069l3.517,0c1.943,0 3.518,-1.575 3.518,-3.517c0,-1.943 -1.575,-3.518 -3.518,-3.518l-3.517,0c-1.943,0 -3.518,1.575 -3.518,3.518c0.001,1.942 1.575,3.517 3.518,3.517Z" style="fill:#e4eaf6;fill-rule:nonzero;"/><path d="M193.45,7.034l-3.517,0c-1.943,0 -3.518,1.576 -3.518,3.518c0,1.942 1.575,3.517 3.518,3.517l3.517,0c1.943,0 3.518,-1.575 3.518,-3.517c0,-1.942 -1.575,-3.518 -3.518,-3.518Z" style="fill:#e4eaf6;fill-rule:nonzero;"/><path d="M77.38,14.069l84.415,0c1.942,0 3.517,-1.575 3.517,-3.517c0,-1.943 -1.575,-3.518 -3.517,-3.518l-84.415,0c-1.942,0 -3.517,1.575 -3.517,3.518c0,1.942 1.575,3.517 3.517,3.517Z" style="fill:#e4eaf6;fill-rule:nonzero;"/><g transform="matrix(4.62171,0,0,4.62171,-3796.81,-264.186)"><text x="872.891px" y="90.132px" style="font-family:Avenir;font-size:42.93px;font-weight:800;fill:#000;">on</text><text x="923.721px" y="90.132px" style="font-family:Avenir;font-size:42.93px;font-weight:300;fill:#000;">W<tspan x="965.277px 975.58px 989.103px 1012.97px " y="90.132px 90.132px 90.132px 90.132px ">iref</tspan>rame</text></g><path d="M193.45,21.104l-182.898,0c-1.942,0 -3.518,1.575 -3.518,3.517l0,17.587l189.934,0l0,-17.587c0,-1.943 -1.575,-3.517 -3.518,-3.517ZM45.725,35.173l-28.139,0c-1.942,0 -3.517,-1.575 -3.517,-3.518c0,-1.942 1.575,-3.517 3.517,-3.517l28.139,0c1.942,0 3.517,1.575 3.517,3.517c0,1.943 -1.575,3.518 -3.517,3.518ZM73.863,35.173l-14.069,0c-1.943,0 -3.518,-1.575 -3.518,-3.518c0,-1.942 1.575,-3.517 3.518,-3.517l14.069,0c1.942,0 3.517,1.575 3.517,3.517c0,1.943 -1.575,3.518 -3.517,3.518ZM102.001,35.173l-14.069,0c-1.942,0 -3.517,-1.575 -3.517,-3.518c0,-1.942 1.575,-3.517 3.517,-3.517l14.069,0c1.942,0 3.517,1.575 3.517,3.517c0,1.943 -1.575,3.518 -3.517,3.518ZM130.139,35.173l-14.069,0c-1.942,0 -3.517,-1.575 -3.517,-3.518c0,-1.942 1.575,-3.517 3.517,-3.517l14.069,0c1.943,0 3.518,1.575 3.518,3.517c0,1.943 -1.575,3.518 -3.518,3.518ZM158.277,35.173l-14.069,0c-1.942,0 -3.517,-1.575 -3.517,-3.518c0,-1.942 1.575,-3.517 3.517,-3.517l14.069,0c1.943,0 3.518,1.575 3.518,3.517c0,1.943 -1.575,3.518 -3.518,3.518ZM186.416,35.173l-14.069,0c-1.943,0 -3.518,-1.575 -3.518,-3.518c0,-1.942 1.575,-3.517 3.518,-3.517l14.069,0c1.942,0 3.517,1.575 3.517,3.517c0,1.943 -1.575,3.518 -3.517,3.518Z" style="fill:#ff6469;fill-rule:nonzero;"/><path d="M45.725,28.138l-28.139,0c-1.942,0 -3.517,1.575 -3.517,3.518c0,1.942 1.575,3.517 3.517,3.517l28.139,0c1.942,0 3.517,-1.575 3.517,-3.517c0,-1.943 -1.575,-3.518 -3.517,-3.518Z" style="fill:#ffdc69;fill-rule:nonzero;"/><path d="M73.863,28.138l-14.069,0c-1.943,0 -3.518,1.575 -3.518,3.518c0,1.942 1.575,3.517 3.518,3.517l14.069,0c1.942,0 3.517,-1.575 3.517,-3.517c0,-1.943 -1.575,-3.518 -3.517,-3.518Z" style="fill:#d2555f;fill-rule:nonzero;"/><path d="M102.001,28.138l-14.069,0c-1.942,0 -3.517,1.575 -3.517,3.518c0,1.942 1.575,3.517 3.517,3.517l14.069,0c1.942,0 3.517,-1.575 3.517,-3.517c0,-1.943 -1.575,-3.518 -3.517,-3.518Z" style="fill:#d2555f;fill-rule:nonzero;"/><path d="M130.139,28.138l-14.069,0c-1.942,0 -3.517,1.575 -3.517,3.518c0,1.942 1.575,3.517 3.517,3.517l14.069,0c1.943,0 3.518,-1.575 3.518,-3.517c0,-1.943 -1.575,-3.518 -3.518,-3.518Z" style="fill:#d2555f;fill-rule:nonzero;"/><path d="M158.277,28.138l-14.069,0c-1.942,0 -3.517,1.575 -3.517,3.518c0,1.942 1.575,3.517 3.517,3.517l14.069,0c1.943,0 3.518,-1.575 3.518,-3.517c0,-1.943 -1.575,-3.518 -3.518,-3.518Z" style="fill:#d2555f;fill-rule:nonzero;"/><path d="M186.416,28.138l-14.069,0c-1.943,0 -3.518,1.575 -3.518,3.518c0,1.942 1.575,3.517 3.518,3.517l14.069,0c1.942,0 3.517,-1.575 3.517,-3.517c0,-1.943 -1.575,-3.518 -3.517,-3.518Z" style="fill:#d2555f;fill-rule:nonzero;"/><path d="M109.035,91.449l28.139,0c1.942,0 3.517,-1.575 3.517,-3.517l0,-28.139c0,1.943 -1.575,3.518 -3.517,3.518l-28.139,0c-1.942,0 -3.517,-1.575 -3.517,-3.518l0,28.139c0,1.942 1.575,3.517 3.517,3.517Z" style="fill:#dee3ed;fill-rule:nonzero;"/><path d="M154.76,91.449l28.139,0c1.942,0 3.517,-1.575 3.517,-3.517l0,-28.139c0,1.943 -1.575,3.518 -3.517,3.518l-28.139,0c-1.942,0 -3.517,-1.575 -3.517,-3.518l0,28.139c0,1.942 1.575,3.517 3.517,3.517Z" style="fill:#dee3ed;fill-rule:nonzero;"/><path d="M109.035,63.311l28.139,0c1.942,0 3.517,-1.575 3.517,-3.517l0,-3.518c0,-1.942 -1.575,-3.517 -3.517,-3.517l-28.139,0c-1.942,0 -3.517,1.575 -3.517,3.517l0,3.518c0,1.942 1.575,3.517 3.517,3.517Z" style="fill:#ff969b;fill-rule:nonzero;"/><path d="M154.76,63.311l28.139,0c1.942,0 3.517,-1.575 3.517,-3.517l0,-3.518c0,-1.942 -1.575,-3.517 -3.517,-3.517l-28.139,0c-1.942,0 -3.517,1.575 -3.517,3.517l0,3.518c0,1.942 1.575,3.517 3.517,3.517Z" style="fill:#a0dcf0;fill-rule:nonzero;"/><path d="M116.07,105.518l0,28.139c0,1.942 -1.575,3.517 -3.517,3.517l70.345,0c1.943,0 3.518,-1.575 3.518,-3.517l0,-28.139c0,-1.942 -1.575,-3.517 -3.518,-3.517l-70.345,0c1.942,0 3.517,1.575 3.517,3.517Z" style="fill:#dee3ed;fill-rule:nonzero;"/><path d="M109.035,137.174l3.518,0c1.942,0 3.517,-1.575 3.517,-3.518l0,-28.138c0,-1.942 -1.575,-3.517 -3.517,-3.517l-3.518,0c-1.942,0 -3.517,1.575 -3.517,3.517l0,28.138c0,1.943 1.575,3.518 3.517,3.518Z" style="fill:#91e6be;fill-rule:nonzero;"/><path d="M21.104,137.174l4.075,0l0,-8.87c0,-6.039 4.456,-12.214 10.145,-14.056l8.414,-2.462c0,0 0.171,-6.068 0.178,-6.678c-3.571,-3.357 -5.82,-8.132 -5.82,-13.439l0,-1.716c-0.69,-1.648 -2.594,-6.694 -2.594,-12.201c0,-6.732 4.65,-12.006 10.587,-12.006c0.314,0 0.789,0.034 1.342,0.117c4.06,-3.907 9.924,-2.494 15.126,-1.207c3.204,0.792 6.52,1.612 8.343,0.855c1.05,-0.435 2.265,-0.129 2.99,0.751c2.162,2.628 5.332,12.533 0.549,21.638l0,1.602c0.009,0.14 0.014,0.273 0,0.413l0,1.754c0,5.312 -2.254,10.092 -5.831,13.449c0.012,0.624 0.179,6.66 0.179,6.66l8.365,2.448c5.76,1.865 10.216,8.04 10.216,14.078l0,8.87l4.082,0c1.942,0 3.517,-1.575 3.517,-3.517l0,-77.381c0,-1.942 -1.575,-3.517 -3.517,-3.517l-70.346,0c-1.943,0 -3.518,1.575 -3.518,3.517l0,77.38c0,1.943 1.575,3.518 3.518,3.518Z" style="fill:#ffdc69;fill-rule:nonzero;"/><path d="M77.151,114.225l-8.364,-2.447c0,0 -0.167,-6.036 -0.18,-6.66c3.577,-3.358 5.831,-8.137 5.831,-13.45l0,-1.753c0.014,-0.14 0.009,-0.274 0,-0.414l0,-1.601c4.783,-9.105 1.613,-19.011 -0.549,-21.638c-0.725,-0.881 -1.939,-1.187 -2.99,-0.751c-1.822,0.756 -5.139,-0.064 -8.342,-0.856c-5.203,-1.286 -11.067,-2.699 -15.127,1.208c-0.553,-0.083 -1.028,-0.117 -1.342,-0.117c-5.937,0 -10.587,5.274 -10.587,12.005c0,5.507 1.904,10.554 2.594,12.201l0,1.716c0,5.308 2.25,10.082 5.82,13.44c-0.007,0.609 -0.178,6.678 -0.178,6.678l-8.414,2.462c-5.689,1.842 -10.145,8.017 -10.145,14.055l0,8.87l62.189,0l0,-8.87c0.001,-6.038 -4.456,-12.213 -10.216,-14.078Z" style="fill:#ff6469;fill-rule:nonzero;"/></svg>