<?xml version="1.0" standalone="no"?>
<!DOCTYPE svg PUBLIC "-//W3C//DTD SVG 1.1//EN" "http://www.w3.org/Graphics/SVG/1.1/DTD/svg11.dtd">
<svg width="100%" height="100%" viewBox="0 0 2211 250" version="1.1" xmlns="http://www.w3.org/2000/svg" xmlns:xlink="http://www.w3.org/1999/xlink" xml:space="preserve" style="fill-rule:evenodd;clip-rule:evenodd;stroke-linejoin:round;stroke-miterlimit:1.41421;">
    <g transform="matrix(1.33333,0,0,1.33333,-8.33333,-8492.22)">
        <g transform="matrix(4.16667,0,0,4.16667,0,0)">
            <path d="M3,1573.6C2.173,1573.6 1.5,1572.93 1.5,1572.1L1.5,1530.1C1.5,1529.27 2.173,1528.6 3,1528.6L397.922,1528.6C398.749,1528.6 399.422,1529.27 399.422,1530.1L399.422,1572.1C399.422,1572.93 398.749,1573.6 397.922,1573.6L3,1573.6Z" style="fill:rgb(246,248,249);fill-rule:nonzero;"/>
        </g>
        <g transform="matrix(4.16667,0,0,4.16667,0,0)">
            <path d="M41.691,1551.1C41.691,1559.94 34.529,1567.1 25.691,1567.1C16.853,1567.1 9.691,1559.94 9.691,1551.1C9.691,1542.26 16.853,1535.1 25.691,1535.1C34.529,1535.1 41.691,1542.26 41.691,1551.1Z" style="fill:rgb(159,159,159);fill-rule:nonzero;"/>
        </g>
        <g transform="matrix(4.16667,0,0,4.16667,0,0)">
            <path d="M35.497,1546.87L32.826,1544.2L24.122,1552.91L20.556,1549.34L17.885,1552.01L24.076,1558.2L24.122,1558.16L24.167,1558.2L35.497,1546.87Z" style="fill:white;fill-rule:nonzero;"/>
        </g>
        <g transform="matrix(4.16667,0,0,4.16667,0,0)">
            <path d="M56.049,1554.73C56.625,1555.23 57.465,1555.49 58.545,1555.49C59.301,1555.49 59.913,1555.38 60.417,1555.17C60.921,1554.96 61.305,1554.65 61.581,1554.21C61.857,1553.78 61.989,1553.33 61.989,1552.83C61.989,1552.28 61.881,1551.83 61.653,1551.47C61.425,1551.09 61.101,1550.81 60.705,1550.59C60.297,1550.37 59.673,1550.17 58.833,1549.97C57.993,1549.77 57.465,1549.58 57.237,1549.39C57.069,1549.25 56.985,1549.08 56.985,1548.87C56.985,1548.65 57.081,1548.47 57.261,1548.33C57.537,1548.13 57.933,1548.02 58.437,1548.02C58.917,1548.02 59.277,1548.12 59.529,1548.31C59.769,1548.5 59.925,1548.83 59.997,1549.27L61.737,1549.21C61.713,1548.42 61.425,1547.77 60.885,1547.3C60.333,1546.82 59.529,1546.58 58.449,1546.58C57.801,1546.58 57.237,1546.68 56.769,1546.88C56.301,1547.09 55.953,1547.37 55.701,1547.76C55.449,1548.14 55.329,1548.55 55.329,1548.98C55.329,1549.67 55.593,1550.24 56.121,1550.72C56.493,1551.06 57.141,1551.35 58.065,1551.57C58.785,1551.75 59.253,1551.87 59.445,1551.95C59.745,1552.05 59.949,1552.17 60.069,1552.32C60.189,1552.46 60.249,1552.64 60.249,1552.83C60.249,1553.16 60.105,1553.43 59.829,1553.66C59.541,1553.9 59.121,1554.02 58.569,1554.02C58.041,1554.02 57.621,1553.89 57.309,1553.63C57.009,1553.36 56.793,1552.94 56.697,1552.38L55.005,1552.55C55.113,1553.51 55.461,1554.24 56.049,1554.73Z" style="fill:rgb(51,51,51);fill-rule:nonzero;"/>
        </g>
        <g transform="matrix(4.16667,0,0,4.16667,0,0)">
            <path d="M69.093,1555.33L69.093,1549.1L67.449,1549.1L67.449,1551.73C67.449,1552.63 67.413,1553.19 67.329,1553.42C67.245,1553.65 67.089,1553.84 66.861,1554C66.645,1554.15 66.393,1554.23 66.105,1554.23C65.865,1554.23 65.661,1554.17 65.493,1554.06C65.337,1553.94 65.229,1553.78 65.169,1553.58C65.109,1553.39 65.073,1552.85 65.073,1551.97L65.073,1549.1L63.429,1549.1L63.429,1553.05C63.429,1553.64 63.501,1554.11 63.657,1554.43C63.801,1554.77 64.041,1555.03 64.377,1555.21C64.713,1555.39 65.085,1555.49 65.505,1555.49C65.913,1555.49 66.309,1555.39 66.669,1555.19C67.041,1554.99 67.341,1554.73 67.569,1554.39L67.569,1555.33L69.093,1555.33Z" style="fill:rgb(51,51,51);fill-rule:nonzero;"/>
        </g>
        <g transform="matrix(4.16667,0,0,4.16667,0,0)">
            <path d="M75.249,1549.46C74.805,1549.14 74.193,1548.97 73.437,1548.97C72.513,1548.97 71.781,1549.26 71.241,1549.83C70.701,1550.4 70.425,1551.2 70.425,1552.23C70.425,1553.25 70.701,1554.05 71.241,1554.62C71.781,1555.2 72.501,1555.49 73.413,1555.49C74.217,1555.49 74.853,1555.29 75.321,1554.92C75.801,1554.54 76.125,1553.97 76.293,1553.23L74.673,1552.95C74.589,1553.39 74.445,1553.7 74.253,1553.88C74.049,1554.06 73.797,1554.14 73.485,1554.14C73.065,1554.14 72.741,1553.99 72.489,1553.69C72.237,1553.37 72.117,1552.86 72.117,1552.11C72.117,1551.45 72.237,1550.97 72.489,1550.69C72.729,1550.41 73.053,1550.27 73.461,1550.27C73.773,1550.27 74.025,1550.35 74.217,1550.51C74.409,1550.67 74.529,1550.91 74.589,1551.24L76.209,1550.95C76.017,1550.28 75.693,1549.79 75.249,1549.46Z" style="fill:rgb(51,51,51);fill-rule:nonzero;"/>
        </g>
        <g transform="matrix(4.16667,0,0,4.16667,0,0)">
            <path d="M81.921,1549.46C81.477,1549.14 80.865,1548.97 80.109,1548.97C79.185,1548.97 78.453,1549.26 77.913,1549.83C77.373,1550.4 77.097,1551.2 77.097,1552.23C77.097,1553.25 77.373,1554.05 77.913,1554.62C78.453,1555.2 79.173,1555.49 80.085,1555.49C80.889,1555.49 81.525,1555.29 81.993,1554.92C82.473,1554.54 82.797,1553.97 82.965,1553.23L81.345,1552.95C81.261,1553.39 81.117,1553.7 80.925,1553.88C80.721,1554.06 80.469,1554.14 80.157,1554.14C79.737,1554.14 79.413,1553.99 79.161,1553.69C78.909,1553.37 78.789,1552.86 78.789,1552.11C78.789,1551.45 78.909,1550.97 79.161,1550.69C79.401,1550.41 79.725,1550.27 80.133,1550.27C80.445,1550.27 80.697,1550.35 80.889,1550.51C81.081,1550.67 81.201,1550.91 81.261,1551.24L82.881,1550.95C82.689,1550.28 82.365,1549.79 81.921,1549.46Z" style="fill:rgb(51,51,51);fill-rule:nonzero;"/>
        </g>
        <g transform="matrix(4.16667,0,0,4.16667,0,0)">
            <path d="M87.333,1554.03C87.153,1554.18 86.937,1554.25 86.685,1554.25C86.301,1554.25 85.989,1554.12 85.737,1553.84C85.485,1553.57 85.353,1553.19 85.341,1552.7L89.457,1552.7C89.481,1551.44 89.229,1550.51 88.689,1549.89C88.161,1549.28 87.429,1548.97 86.505,1548.97C85.677,1548.97 84.993,1549.26 84.453,1549.85C83.913,1550.43 83.649,1551.24 83.649,1552.27C83.649,1553.13 83.853,1553.85 84.261,1554.42C84.789,1555.13 85.581,1555.49 86.661,1555.49C87.345,1555.49 87.921,1555.33 88.377,1555.02C88.833,1554.69 89.157,1554.24 89.373,1553.64L87.729,1553.36C87.645,1553.67 87.513,1553.9 87.333,1554.03ZM85.365,1551.69C85.365,1551.24 85.485,1550.89 85.713,1550.63C85.953,1550.36 86.241,1550.23 86.601,1550.23C86.937,1550.23 87.225,1550.35 87.453,1550.6C87.693,1550.85 87.813,1551.21 87.825,1551.69L85.365,1551.69Z" style="fill:rgb(51,51,51);fill-rule:nonzero;"/>
        </g>
        <g transform="matrix(4.16667,0,0,4.16667,0,0)">
            <path d="M91.185,1554.97C91.677,1555.32 92.349,1555.49 93.201,1555.49C94.137,1555.49 94.845,1555.28 95.313,1554.87C95.793,1554.45 96.033,1553.97 96.033,1553.4C96.033,1552.87 95.865,1552.46 95.517,1552.17C95.169,1551.89 94.557,1551.63 93.669,1551.44C92.793,1551.24 92.277,1551.08 92.133,1550.97C92.025,1550.89 91.965,1550.79 91.965,1550.67C91.965,1550.54 92.025,1550.42 92.157,1550.34C92.337,1550.22 92.649,1550.16 93.093,1550.16C93.441,1550.16 93.705,1550.22 93.885,1550.35C94.077,1550.48 94.197,1550.67 94.269,1550.91L95.817,1550.63C95.661,1550.07 95.373,1549.67 94.965,1549.39C94.545,1549.11 93.909,1548.97 93.057,1548.97C92.169,1548.97 91.509,1549.15 91.077,1549.52C90.657,1549.89 90.441,1550.35 90.441,1550.89C90.441,1551.49 90.693,1551.96 91.185,1552.29C91.533,1552.53 92.373,1552.8 93.705,1553.1C93.993,1553.16 94.173,1553.23 94.257,1553.31C94.341,1553.4 94.377,1553.49 94.377,1553.63C94.377,1553.81 94.305,1553.95 94.161,1554.06C93.945,1554.21 93.621,1554.3 93.201,1554.3C92.817,1554.3 92.517,1554.21 92.301,1554.05C92.085,1553.89 91.941,1553.65 91.869,1553.33L90.213,1553.58C90.369,1554.17 90.693,1554.63 91.185,1554.97Z" style="fill:rgb(51,51,51);fill-rule:nonzero;"/>
        </g>
        <g transform="matrix(4.16667,0,0,4.16667,0,0)">
            <path d="M97.857,1554.97C98.349,1555.32 99.021,1555.49 99.873,1555.49C100.809,1555.49 101.517,1555.28 101.985,1554.87C102.465,1554.45 102.705,1553.97 102.705,1553.4C102.705,1552.87 102.537,1552.46 102.189,1552.17C101.841,1551.89 101.229,1551.63 100.341,1551.44C99.465,1551.24 98.949,1551.08 98.805,1550.97C98.697,1550.89 98.637,1550.79 98.637,1550.67C98.637,1550.54 98.697,1550.42 98.829,1550.34C99.009,1550.22 99.321,1550.16 99.765,1550.16C100.113,1550.16 100.377,1550.22 100.557,1550.35C100.749,1550.48 100.869,1550.67 100.941,1550.91L102.489,1550.63C102.333,1550.07 102.045,1549.67 101.637,1549.39C101.217,1549.11 100.581,1548.97 99.729,1548.97C98.841,1548.97 98.181,1549.15 97.749,1549.52C97.329,1549.89 97.113,1550.35 97.113,1550.89C97.113,1551.49 97.365,1551.96 97.857,1552.29C98.205,1552.53 99.045,1552.8 100.377,1553.1C100.665,1553.16 100.845,1553.23 100.929,1553.31C101.013,1553.4 101.049,1553.49 101.049,1553.63C101.049,1553.81 100.977,1553.95 100.833,1554.06C100.617,1554.21 100.293,1554.3 99.873,1554.3C99.489,1554.3 99.189,1554.21 98.973,1554.05C98.757,1553.89 98.613,1553.65 98.541,1553.33L96.885,1553.58C97.041,1554.17 97.365,1554.63 97.857,1554.97Z" style="fill:rgb(51,51,51);fill-rule:nonzero;"/>
        </g>
        <g transform="matrix(4.16667,0,0,4.16667,0,0)">
            <path d="M105.705,1553.12L106.125,1548.75L106.125,1546.74L104.349,1546.74L104.349,1548.75L104.781,1553.12L105.705,1553.12ZM106.065,1555.33L106.065,1553.69L104.421,1553.69L104.421,1555.33L106.065,1555.33Z" style="fill:rgb(51,51,51);fill-rule:nonzero;"/>
        </g>
        <g transform="matrix(4.16667,0,0,4.16667,0,0)">
            <path d="M116.062,1555.33L116.062,1554.41L112.19,1554.41L112.19,1547.45L111.145,1547.45L111.145,1555.33L116.062,1555.33Z" style="fill:rgb(110,110,111);fill-rule:nonzero;"/>
        </g>
        <g transform="matrix(4.16667,0,0,4.16667,0,0)">
            <path d="M117.558,1554.68C118.053,1555.2 118.702,1555.45 119.494,1555.45C120,1555.45 120.451,1555.33 120.88,1555.1C121.298,1554.87 121.617,1554.55 121.837,1554.12C122.057,1553.7 122.167,1553.13 122.167,1552.39C122.167,1551.49 121.914,1550.79 121.419,1550.27C120.924,1549.75 120.286,1549.5 119.494,1549.5C118.79,1549.5 118.196,1549.71 117.701,1550.14C117.118,1550.64 116.821,1551.42 116.821,1552.47C116.821,1553.44 117.063,1554.17 117.558,1554.68ZM118.295,1550.84C118.614,1550.48 119.01,1550.3 119.494,1550.3C119.978,1550.3 120.374,1550.48 120.693,1550.84C121.012,1551.2 121.177,1551.74 121.177,1552.45C121.177,1553.2 121.012,1553.75 120.693,1554.11C120.374,1554.47 119.978,1554.66 119.494,1554.66C119.01,1554.66 118.614,1554.48 118.295,1554.12C117.976,1553.76 117.811,1553.21 117.811,1552.48C117.811,1551.76 117.976,1551.2 118.295,1550.84Z" style="fill:rgb(110,110,111);fill-rule:nonzero;"/>
        </g>
        <g transform="matrix(4.16667,0,0,4.16667,0,0)">
            <path d="M124.257,1555.33L124.257,1552.35C124.257,1551.94 124.312,1551.57 124.422,1551.22C124.488,1551 124.609,1550.82 124.774,1550.69C124.939,1550.57 125.137,1550.5 125.346,1550.5C125.577,1550.5 125.808,1550.57 126.05,1550.7L126.391,1549.81C126.05,1549.6 125.72,1549.5 125.401,1549.5C125.17,1549.5 124.961,1549.57 124.774,1549.7C124.587,1549.82 124.378,1550.09 124.158,1550.49L124.158,1549.62L123.289,1549.62L123.289,1555.33L124.257,1555.33Z" style="fill:rgb(110,110,111);fill-rule:nonzero;"/>
        </g>
        <g transform="matrix(4.16667,0,0,4.16667,0,0)">
            <path d="M130.263,1554.37C130.01,1554.56 129.713,1554.66 129.361,1554.66C128.877,1554.66 128.481,1554.49 128.162,1554.16C127.843,1553.82 127.667,1553.35 127.634,1552.72L131.891,1552.72C131.891,1552.61 131.891,1552.53 131.891,1552.47C131.891,1551.52 131.649,1550.8 131.165,1550.28C130.681,1549.76 130.065,1549.5 129.306,1549.5C128.514,1549.5 127.876,1549.76 127.381,1550.29C126.886,1550.82 126.644,1551.57 126.644,1552.53C126.644,1553.45 126.886,1554.16 127.381,1554.68C127.865,1555.2 128.525,1555.45 129.361,1555.45C130.021,1555.45 130.56,1555.29 130.989,1554.97C131.407,1554.65 131.704,1554.2 131.858,1553.61L130.857,1553.48C130.714,1553.89 130.516,1554.19 130.263,1554.37ZM128.195,1550.74C128.492,1550.45 128.866,1550.29 129.306,1550.29C129.801,1550.29 130.197,1550.48 130.505,1550.85C130.703,1551.1 130.824,1551.45 130.868,1551.93L127.689,1551.93C127.722,1551.44 127.887,1551.04 128.195,1550.74Z" style="fill:rgb(110,110,111);fill-rule:nonzero;"/>
        </g>
        <g transform="matrix(4.16667,0,0,4.16667,0,0)">
            <path d="M134.047,1555.33L134.047,1552.37C134.047,1551.85 134.102,1551.46 134.201,1551.18C134.311,1550.91 134.476,1550.7 134.707,1550.56C134.938,1550.41 135.191,1550.34 135.455,1550.34C135.818,1550.34 136.071,1550.45 136.225,1550.65C136.39,1550.88 136.467,1551.19 136.467,1551.62L136.467,1555.33L137.435,1555.33L137.435,1552.02C137.435,1551.42 137.567,1551.01 137.831,1550.73C138.095,1550.47 138.436,1550.34 138.832,1550.34C139.063,1550.34 139.25,1550.39 139.415,1550.49C139.58,1550.6 139.701,1550.73 139.756,1550.9C139.822,1551.07 139.855,1551.35 139.855,1551.73L139.855,1555.33L140.823,1555.33L140.823,1551.41C140.823,1550.77 140.669,1550.28 140.361,1549.97C140.053,1549.65 139.624,1549.5 139.052,1549.5C138.326,1549.5 137.732,1549.83 137.281,1550.5C137.171,1550.18 136.984,1549.94 136.709,1549.76C136.445,1549.59 136.093,1549.5 135.675,1549.5C135.29,1549.5 134.96,1549.59 134.663,1549.75C134.366,1549.93 134.124,1550.15 133.948,1550.42L133.948,1549.62L133.079,1549.62L133.079,1555.33L134.047,1555.33Z" style="fill:rgb(110,110,111);fill-rule:nonzero;"/>
        </g>
        <g transform="matrix(4.16667,0,0,4.16667,0,0)">
            <path d="M146.268,1548.55L146.268,1547.45L145.3,1547.45L145.3,1548.55L146.268,1548.55ZM146.268,1555.33L146.268,1549.62L145.3,1549.62L145.3,1555.33L146.268,1555.33Z" style="fill:rgb(110,110,111);fill-rule:nonzero;"/>
        </g>
        <g transform="matrix(4.16667,0,0,4.16667,0,0)">
            <path d="M148.71,1557.52L148.71,1554.74C148.875,1554.94 149.084,1555.11 149.337,1555.25C149.601,1555.38 149.887,1555.45 150.206,1555.45C150.646,1555.45 151.064,1555.33 151.471,1555.08C151.867,1554.84 152.164,1554.47 152.373,1554.01C152.582,1553.54 152.692,1553.02 152.692,1552.44C152.692,1551.89 152.593,1551.39 152.406,1550.93C152.219,1550.48 151.933,1550.13 151.57,1549.87C151.196,1549.62 150.767,1549.5 150.272,1549.5C149.909,1549.5 149.59,1549.58 149.326,1549.72C149.062,1549.86 148.831,1550.08 148.622,1550.37L148.622,1549.62L147.742,1549.62L147.742,1557.52L148.71,1557.52ZM149.095,1550.83C149.414,1550.45 149.777,1550.26 150.184,1550.26C150.602,1550.26 150.954,1550.43 151.251,1550.8C151.548,1551.16 151.702,1551.7 151.702,1552.43C151.702,1553.2 151.548,1553.76 151.24,1554.12C150.943,1554.48 150.569,1554.66 150.14,1554.66C149.722,1554.66 149.359,1554.48 149.062,1554.13C148.765,1553.78 148.622,1553.24 148.622,1552.51C148.622,1551.78 148.776,1551.22 149.095,1550.83Z" style="fill:rgb(110,110,111);fill-rule:nonzero;"/>
        </g>
        <g transform="matrix(4.16667,0,0,4.16667,0,0)">
            <path d="M154.221,1554.99C154.606,1555.3 155.167,1555.45 155.915,1555.45C156.366,1555.45 156.762,1555.37 157.114,1555.22C157.477,1555.07 157.741,1554.85 157.928,1554.56C158.115,1554.27 158.214,1553.98 158.214,1553.65C158.214,1553.32 158.137,1553.04 157.983,1552.82C157.829,1552.6 157.609,1552.44 157.345,1552.32C157.07,1552.21 156.597,1552.05 155.915,1551.87C155.442,1551.74 155.156,1551.66 155.057,1551.62C154.892,1551.56 154.771,1551.47 154.694,1551.37C154.617,1551.26 154.573,1551.15 154.573,1551.03C154.573,1550.83 154.672,1550.65 154.859,1550.51C155.046,1550.37 155.365,1550.29 155.805,1550.29C156.179,1550.29 156.465,1550.38 156.674,1550.55C156.883,1550.71 157.004,1550.94 157.048,1551.24L157.994,1551.11C157.928,1550.73 157.818,1550.43 157.664,1550.22C157.499,1550 157.246,1549.82 156.916,1549.7C156.575,1549.57 156.179,1549.5 155.739,1549.5C155.442,1549.5 155.156,1549.53 154.903,1549.61C154.639,1549.69 154.441,1549.79 154.287,1549.9C154.089,1550.04 153.924,1550.22 153.814,1550.43C153.693,1550.65 153.638,1550.89 153.638,1551.14C153.638,1551.41 153.704,1551.68 153.847,1551.91C153.99,1552.13 154.199,1552.32 154.474,1552.45C154.749,1552.58 155.233,1552.73 155.948,1552.91C156.465,1553.04 156.795,1553.15 156.938,1553.24C157.125,1553.36 157.224,1553.54 157.224,1553.76C157.224,1554 157.114,1554.21 156.905,1554.38C156.685,1554.57 156.355,1554.66 155.915,1554.66C155.464,1554.66 155.123,1554.56 154.881,1554.35C154.639,1554.15 154.485,1553.86 154.43,1553.47L153.473,1553.62C153.583,1554.23 153.825,1554.68 154.221,1554.99Z" style="fill:rgb(110,110,111);fill-rule:nonzero;"/>
        </g>
        <g transform="matrix(4.16667,0,0,4.16667,0,0)">
            <path d="M163.956,1555.33L163.956,1549.62L162.988,1549.62L162.988,1552.67C162.988,1553.16 162.933,1553.53 162.834,1553.79C162.724,1554.04 162.548,1554.24 162.295,1554.39C162.042,1554.54 161.767,1554.62 161.481,1554.62C161.184,1554.62 160.942,1554.54 160.744,1554.39C160.557,1554.25 160.425,1554.05 160.359,1553.8C160.326,1553.62 160.304,1553.28 160.304,1552.78L160.304,1549.62L159.336,1549.62L159.336,1553.15C159.336,1553.57 159.358,1553.87 159.391,1554.05C159.457,1554.34 159.556,1554.58 159.688,1554.77C159.831,1554.97 160.051,1555.13 160.337,1555.25C160.634,1555.38 160.942,1555.45 161.283,1555.45C162.042,1555.45 162.647,1555.13 163.087,1554.48L163.087,1555.33L163.956,1555.33Z" style="fill:rgb(110,110,111);fill-rule:nonzero;"/>
        </g>
        <g transform="matrix(4.16667,0,0,4.16667,0,0)">
            <path d="M166.442,1555.33L166.442,1552.37C166.442,1551.85 166.497,1551.46 166.596,1551.18C166.706,1550.91 166.871,1550.7 167.102,1550.56C167.333,1550.41 167.586,1550.34 167.85,1550.34C168.213,1550.34 168.466,1550.45 168.62,1550.65C168.785,1550.88 168.862,1551.19 168.862,1551.62L168.862,1555.33L169.83,1555.33L169.83,1552.02C169.83,1551.42 169.962,1551.01 170.226,1550.73C170.49,1550.47 170.831,1550.34 171.227,1550.34C171.458,1550.34 171.645,1550.39 171.81,1550.49C171.975,1550.6 172.096,1550.73 172.151,1550.9C172.217,1551.07 172.25,1551.35 172.25,1551.73L172.25,1555.33L173.218,1555.33L173.218,1551.41C173.218,1550.77 173.064,1550.28 172.756,1549.97C172.448,1549.65 172.019,1549.5 171.447,1549.5C170.721,1549.5 170.127,1549.83 169.676,1550.5C169.566,1550.18 169.379,1549.94 169.104,1549.76C168.84,1549.59 168.488,1549.5 168.07,1549.5C167.685,1549.5 167.355,1549.59 167.058,1549.75C166.761,1549.93 166.519,1550.15 166.343,1550.42L166.343,1549.62L165.474,1549.62L165.474,1555.33L166.442,1555.33Z" style="fill:rgb(110,110,111);fill-rule:nonzero;"/>
        </g>
        <g transform="matrix(4.16667,0,0,4.16667,0,0)">
            <path d="M182.282,1555.33L182.282,1547.45L181.314,1547.45L181.314,1550.29C181.149,1550.05 180.929,1549.86 180.654,1549.72C180.39,1549.58 180.082,1549.5 179.741,1549.5C179.268,1549.5 178.85,1549.62 178.465,1549.87C178.091,1550.12 177.805,1550.47 177.618,1550.93C177.431,1551.39 177.332,1551.91 177.332,1552.48C177.332,1553.06 177.442,1553.58 177.651,1554.03C177.86,1554.47 178.146,1554.82 178.531,1555.08C178.916,1555.33 179.334,1555.45 179.785,1555.45C180.489,1555.45 181.017,1555.16 181.38,1554.6L181.38,1555.33L182.282,1555.33ZM178.751,1550.83C179.048,1550.48 179.4,1550.3 179.84,1550.3C180.28,1550.3 180.643,1550.49 180.951,1550.85C181.248,1551.22 181.402,1551.79 181.402,1552.57C181.402,1553.27 181.259,1553.8 180.962,1554.14C180.665,1554.48 180.302,1554.66 179.873,1554.66C179.455,1554.66 179.092,1554.48 178.784,1554.12C178.476,1553.76 178.322,1553.21 178.322,1552.48C178.322,1551.73 178.465,1551.18 178.751,1550.83Z" style="fill:rgb(110,110,111);fill-rule:nonzero;"/>
        </g>
        <g transform="matrix(4.16667,0,0,4.16667,0,0)">
            <path d="M184.185,1554.68C184.68,1555.2 185.329,1555.45 186.121,1555.45C186.627,1555.45 187.078,1555.33 187.507,1555.1C187.925,1554.87 188.244,1554.55 188.464,1554.12C188.684,1553.7 188.794,1553.13 188.794,1552.39C188.794,1551.49 188.541,1550.79 188.046,1550.27C187.551,1549.75 186.913,1549.5 186.121,1549.5C185.417,1549.5 184.823,1549.71 184.328,1550.14C183.745,1550.64 183.448,1551.42 183.448,1552.47C183.448,1553.44 183.69,1554.17 184.185,1554.68ZM184.922,1550.84C185.241,1550.48 185.637,1550.3 186.121,1550.3C186.605,1550.3 187.001,1550.48 187.32,1550.84C187.639,1551.2 187.804,1551.74 187.804,1552.45C187.804,1553.2 187.639,1553.75 187.32,1554.11C187.001,1554.47 186.605,1554.66 186.121,1554.66C185.637,1554.66 185.241,1554.48 184.922,1554.12C184.603,1553.76 184.438,1553.21 184.438,1552.48C184.438,1551.76 184.603,1551.2 184.922,1550.84Z" style="fill:rgb(110,110,111);fill-rule:nonzero;"/>
        </g>
        <g transform="matrix(4.16667,0,0,4.16667,0,0)">
            <rect x="189.905" y="1547.45" width="0.968" height="7.876" style="fill:rgb(110,110,111);fill-rule:nonzero;"/>
        </g>
        <g transform="matrix(4.16667,0,0,4.16667,0,0)">
            <path d="M192.743,1554.68C193.238,1555.2 193.887,1555.45 194.679,1555.45C195.185,1555.45 195.636,1555.33 196.065,1555.1C196.483,1554.87 196.802,1554.55 197.022,1554.12C197.242,1553.7 197.352,1553.13 197.352,1552.39C197.352,1551.49 197.099,1550.79 196.604,1550.27C196.109,1549.75 195.471,1549.5 194.679,1549.5C193.975,1549.5 193.381,1549.71 192.886,1550.14C192.303,1550.64 192.006,1551.42 192.006,1552.47C192.006,1553.44 192.248,1554.17 192.743,1554.68ZM193.48,1550.84C193.799,1550.48 194.195,1550.3 194.679,1550.3C195.163,1550.3 195.559,1550.48 195.878,1550.84C196.197,1551.2 196.362,1551.74 196.362,1552.45C196.362,1553.2 196.197,1553.75 195.878,1554.11C195.559,1554.47 195.163,1554.66 194.679,1554.66C194.195,1554.66 193.799,1554.48 193.48,1554.12C193.161,1553.76 192.996,1553.21 192.996,1552.48C192.996,1551.76 193.161,1551.2 193.48,1550.84Z" style="fill:rgb(110,110,111);fill-rule:nonzero;"/>
        </g>
        <g transform="matrix(4.16667,0,0,4.16667,0,0)">
            <path d="M199.442,1555.33L199.442,1552.35C199.442,1551.94 199.497,1551.57 199.607,1551.22C199.673,1551 199.794,1550.82 199.959,1550.69C200.124,1550.57 200.322,1550.5 200.531,1550.5C200.762,1550.5 200.993,1550.57 201.235,1550.7L201.576,1549.81C201.235,1549.6 200.905,1549.5 200.586,1549.5C200.355,1549.5 200.146,1549.57 199.959,1549.7C199.772,1549.82 199.563,1550.09 199.343,1550.49L199.343,1549.62L198.474,1549.62L198.474,1555.33L199.442,1555.33Z" style="fill:rgb(110,110,111);fill-rule:nonzero;"/>
        </g>
        <g transform="matrix(4.16667,0,0,4.16667,0,0)">
            <path d="M205.569,1554.99C205.954,1555.3 206.515,1555.45 207.263,1555.45C207.714,1555.45 208.11,1555.37 208.462,1555.22C208.825,1555.07 209.089,1554.85 209.276,1554.56C209.463,1554.27 209.562,1553.98 209.562,1553.65C209.562,1553.32 209.485,1553.04 209.331,1552.82C209.177,1552.6 208.957,1552.44 208.693,1552.32C208.418,1552.21 207.945,1552.05 207.263,1551.87C206.79,1551.74 206.504,1551.66 206.405,1551.62C206.24,1551.56 206.119,1551.47 206.042,1551.37C205.965,1551.26 205.921,1551.15 205.921,1551.03C205.921,1550.83 206.02,1550.65 206.207,1550.51C206.394,1550.37 206.713,1550.29 207.153,1550.29C207.527,1550.29 207.813,1550.38 208.022,1550.55C208.231,1550.71 208.352,1550.94 208.396,1551.24L209.342,1551.11C209.276,1550.73 209.166,1550.43 209.012,1550.22C208.847,1550 208.594,1549.82 208.264,1549.7C207.923,1549.57 207.527,1549.5 207.087,1549.5C206.79,1549.5 206.504,1549.53 206.251,1549.61C205.987,1549.69 205.789,1549.79 205.635,1549.9C205.437,1550.04 205.272,1550.22 205.162,1550.43C205.041,1550.65 204.986,1550.89 204.986,1551.14C204.986,1551.41 205.052,1551.68 205.195,1551.91C205.338,1552.13 205.547,1552.32 205.822,1552.45C206.097,1552.58 206.581,1552.73 207.296,1552.91C207.813,1553.04 208.143,1553.15 208.286,1553.24C208.473,1553.36 208.572,1553.54 208.572,1553.76C208.572,1554 208.462,1554.21 208.253,1554.38C208.033,1554.57 207.703,1554.66 207.263,1554.66C206.812,1554.66 206.471,1554.56 206.229,1554.35C205.987,1554.15 205.833,1553.86 205.778,1553.47L204.821,1553.62C204.931,1554.23 205.173,1554.68 205.569,1554.99Z" style="fill:rgb(110,110,111);fill-rule:nonzero;"/>
        </g>
        <g transform="matrix(4.16667,0,0,4.16667,0,0)">
            <path d="M211.674,1548.55L211.674,1547.45L210.706,1547.45L210.706,1548.55L211.674,1548.55ZM211.674,1555.33L211.674,1549.62L210.706,1549.62L210.706,1555.33L211.674,1555.33Z" style="fill:rgb(110,110,111);fill-rule:nonzero;"/>
        </g>
        <g transform="matrix(4.16667,0,0,4.16667,0,0)">
            <path d="M214.831,1554.51C214.688,1554.51 214.578,1554.48 214.501,1554.44C214.424,1554.38 214.369,1554.33 214.336,1554.24C214.303,1554.16 214.281,1553.99 214.281,1553.71L214.281,1550.37L215.249,1550.37L215.249,1549.62L214.281,1549.62L214.281,1547.63L213.313,1548.21L213.313,1549.62L212.598,1549.62L212.598,1550.37L213.313,1550.37L213.313,1553.66C213.313,1554.24 213.357,1554.62 213.434,1554.8C213.511,1554.98 213.643,1555.13 213.841,1555.24C214.028,1555.35 214.303,1555.41 214.655,1555.41C214.864,1555.41 215.106,1555.37 215.381,1555.32L215.249,1554.47C215.073,1554.49 214.93,1554.51 214.831,1554.51Z" style="fill:rgb(110,110,111);fill-rule:nonzero;"/>
        </g>
        <g transform="matrix(4.16667,0,0,4.16667,0,0)">
            <path d="M223.18,1555.33L224.192,1555.33C224.071,1555.11 223.994,1554.88 223.95,1554.64C223.917,1554.41 223.895,1553.83 223.895,1552.94L223.895,1551.66C223.895,1551.23 223.884,1550.93 223.851,1550.77C223.785,1550.5 223.686,1550.28 223.543,1550.11C223.4,1549.93 223.18,1549.79 222.872,1549.68C222.564,1549.56 222.168,1549.5 221.684,1549.5C221.189,1549.5 220.76,1549.57 220.386,1549.7C220.012,1549.84 219.726,1550.03 219.528,1550.28C219.33,1550.52 219.187,1550.85 219.099,1551.26L220.045,1551.39C220.144,1550.99 220.309,1550.7 220.529,1550.55C220.749,1550.38 221.079,1550.3 221.541,1550.3C222.025,1550.3 222.399,1550.41 222.641,1550.63C222.828,1550.79 222.916,1551.06 222.916,1551.46C222.916,1551.49 222.916,1551.58 222.916,1551.71C222.542,1551.84 221.97,1551.95 221.178,1552.04C220.804,1552.09 220.518,1552.14 220.32,1552.18C220.067,1552.26 219.836,1552.36 219.627,1552.5C219.418,1552.65 219.253,1552.83 219.121,1553.06C219,1553.28 218.934,1553.55 218.934,1553.82C218.934,1554.3 219.099,1554.69 219.44,1554.99C219.781,1555.3 220.265,1555.45 220.892,1555.45C221.266,1555.45 221.629,1555.38 221.959,1555.26C222.289,1555.13 222.63,1554.92 222.993,1554.62C223.026,1554.89 223.081,1555.12 223.18,1555.33ZM222.916,1552.82C222.916,1553.25 222.861,1553.57 222.751,1553.78C222.619,1554.07 222.41,1554.29 222.113,1554.45C221.827,1554.62 221.497,1554.69 221.123,1554.69C220.738,1554.69 220.452,1554.6 220.265,1554.44C220.067,1554.26 219.968,1554.05 219.968,1553.79C219.968,1553.62 220.012,1553.47 220.1,1553.34C220.188,1553.2 220.32,1553.1 220.485,1553.02C220.65,1552.95 220.936,1552.89 221.332,1552.83C222.036,1552.73 222.564,1552.61 222.916,1552.47L222.916,1552.82Z" style="fill:rgb(110,110,111);fill-rule:nonzero;"/>
        </g>
        <g transform="matrix(4.16667,0,0,4.16667,0,0)">
            <path d="M226.348,1555.33L226.348,1552.37C226.348,1551.85 226.403,1551.46 226.502,1551.18C226.612,1550.91 226.777,1550.7 227.008,1550.56C227.239,1550.41 227.492,1550.34 227.756,1550.34C228.119,1550.34 228.372,1550.45 228.526,1550.65C228.691,1550.88 228.768,1551.19 228.768,1551.62L228.768,1555.33L229.736,1555.33L229.736,1552.02C229.736,1551.42 229.868,1551.01 230.132,1550.73C230.396,1550.47 230.737,1550.34 231.133,1550.34C231.364,1550.34 231.551,1550.39 231.716,1550.49C231.881,1550.6 232.002,1550.73 232.057,1550.9C232.123,1551.07 232.156,1551.35 232.156,1551.73L232.156,1555.33L233.124,1555.33L233.124,1551.41C233.124,1550.77 232.97,1550.28 232.662,1549.97C232.354,1549.65 231.925,1549.5 231.353,1549.5C230.627,1549.5 230.033,1549.83 229.582,1550.5C229.472,1550.18 229.285,1549.94 229.01,1549.76C228.746,1549.59 228.394,1549.5 227.976,1549.5C227.591,1549.5 227.261,1549.59 226.964,1549.75C226.667,1549.93 226.425,1550.15 226.249,1550.42L226.249,1549.62L225.38,1549.62L225.38,1555.33L226.348,1555.33Z" style="fill:rgb(110,110,111);fill-rule:nonzero;"/>
        </g>
        <g transform="matrix(4.16667,0,0,4.16667,0,0)">
            <path d="M237.843,1554.37C237.59,1554.56 237.293,1554.66 236.941,1554.66C236.457,1554.66 236.061,1554.49 235.742,1554.16C235.423,1553.82 235.247,1553.35 235.214,1552.72L239.471,1552.72C239.471,1552.61 239.471,1552.53 239.471,1552.47C239.471,1551.52 239.229,1550.8 238.745,1550.28C238.261,1549.76 237.645,1549.5 236.886,1549.5C236.094,1549.5 235.456,1549.76 234.961,1550.29C234.466,1550.82 234.224,1551.57 234.224,1552.53C234.224,1553.45 234.466,1554.16 234.961,1554.68C235.445,1555.2 236.105,1555.45 236.941,1555.45C237.601,1555.45 238.14,1555.29 238.569,1554.97C238.987,1554.65 239.284,1554.2 239.438,1553.61L238.437,1553.48C238.294,1553.89 238.096,1554.19 237.843,1554.37ZM235.775,1550.74C236.072,1550.45 236.446,1550.29 236.886,1550.29C237.381,1550.29 237.777,1550.48 238.085,1550.85C238.283,1551.1 238.404,1551.45 238.448,1551.93L235.269,1551.93C235.302,1551.44 235.467,1551.04 235.775,1550.74Z" style="fill:rgb(110,110,111);fill-rule:nonzero;"/>
        </g>
        <g transform="matrix(4.16667,0,0,4.16667,0,0)">
            <path d="M242.342,1554.51C242.199,1554.51 242.089,1554.48 242.012,1554.44C241.935,1554.38 241.88,1554.33 241.847,1554.24C241.814,1554.16 241.792,1553.99 241.792,1553.71L241.792,1550.37L242.76,1550.37L242.76,1549.62L241.792,1549.62L241.792,1547.63L240.824,1548.21L240.824,1549.62L240.109,1549.62L240.109,1550.37L240.824,1550.37L240.824,1553.66C240.824,1554.24 240.868,1554.62 240.945,1554.8C241.022,1554.98 241.154,1555.13 241.352,1555.24C241.539,1555.35 241.814,1555.41 242.166,1555.41C242.375,1555.41 242.617,1555.37 242.892,1555.32L242.76,1554.47C242.584,1554.49 242.441,1554.51 242.342,1554.51Z" style="fill:rgb(110,110,111);fill-rule:nonzero;"/>
        </g>
        <g transform="matrix(4.16667,0,0,4.16667,0,0)">
            <path d="M244.52,1555.33C244.509,1555.66 244.454,1555.9 244.355,1556.08C244.256,1556.25 244.113,1556.39 243.904,1556.47L244.168,1556.89C244.476,1556.76 244.707,1556.56 244.85,1556.31C244.993,1556.07 245.07,1555.74 245.07,1555.33L245.07,1554.23L243.97,1554.23L243.97,1555.33L244.52,1555.33Z" style="fill:rgb(110,110,111);fill-rule:nonzero;"/>
        </g>
        <g transform="matrix(4.16667,0,0,4.16667,0,0)">
            <path d="M253.078,1554.31C252.825,1554.54 252.506,1554.66 252.132,1554.66C251.659,1554.66 251.274,1554.48 250.977,1554.14C250.68,1553.79 250.537,1553.24 250.537,1552.47C250.537,1551.71 250.691,1551.16 250.999,1550.82C251.296,1550.47 251.692,1550.29 252.187,1550.29C252.506,1550.29 252.781,1550.39 253.012,1550.58C253.232,1550.78 253.397,1551.06 253.485,1551.45L254.42,1551.3C254.31,1550.73 254.057,1550.28 253.661,1549.97C253.265,1549.65 252.759,1549.5 252.143,1549.5C251.659,1549.5 251.197,1549.61 250.779,1549.84C250.372,1550.07 250.053,1550.42 249.855,1550.89C249.646,1551.35 249.547,1551.89 249.547,1552.49C249.547,1553.45 249.789,1554.17 250.262,1554.69C250.735,1555.2 251.362,1555.45 252.143,1555.45C252.759,1555.45 253.287,1555.26 253.716,1554.9C254.134,1554.53 254.409,1554.02 254.508,1553.37L253.562,1553.24C253.496,1553.72 253.331,1554.08 253.078,1554.31Z" style="fill:rgb(110,110,111);fill-rule:nonzero;"/>
        </g>
        <g transform="matrix(4.16667,0,0,4.16667,0,0)">
            <path d="M255.707,1554.68C256.202,1555.2 256.851,1555.45 257.643,1555.45C258.149,1555.45 258.6,1555.33 259.029,1555.1C259.447,1554.87 259.766,1554.55 259.986,1554.12C260.206,1553.7 260.316,1553.13 260.316,1552.39C260.316,1551.49 260.063,1550.79 259.568,1550.27C259.073,1549.75 258.435,1549.5 257.643,1549.5C256.939,1549.5 256.345,1549.71 255.85,1550.14C255.267,1550.64 254.97,1551.42 254.97,1552.47C254.97,1553.44 255.212,1554.17 255.707,1554.68ZM256.444,1550.84C256.763,1550.48 257.159,1550.3 257.643,1550.3C258.127,1550.3 258.523,1550.48 258.842,1550.84C259.161,1551.2 259.326,1551.74 259.326,1552.45C259.326,1553.2 259.161,1553.75 258.842,1554.11C258.523,1554.47 258.127,1554.66 257.643,1554.66C257.159,1554.66 256.763,1554.48 256.444,1554.12C256.125,1553.76 255.96,1553.21 255.96,1552.48C255.96,1551.76 256.125,1551.2 256.444,1550.84Z" style="fill:rgb(110,110,111);fill-rule:nonzero;"/>
        </g>
        <g transform="matrix(4.16667,0,0,4.16667,0,0)">
            <path d="M262.417,1555.33L262.417,1552.22C262.417,1551.48 262.571,1550.99 262.868,1550.73C263.165,1550.47 263.517,1550.34 263.924,1550.34C264.188,1550.34 264.408,1550.39 264.595,1550.51C264.793,1550.62 264.925,1550.79 265.002,1550.97C265.079,1551.17 265.112,1551.47 265.112,1551.87L265.112,1555.33L266.08,1555.33L266.08,1551.82C266.08,1551.38 266.058,1551.06 266.025,1550.89C265.97,1550.61 265.871,1550.37 265.728,1550.17C265.585,1549.97 265.365,1549.81 265.079,1549.69C264.793,1549.57 264.474,1549.5 264.133,1549.5C263.341,1549.5 262.736,1549.81 262.318,1550.43L262.318,1549.62L261.449,1549.62L261.449,1555.33L262.417,1555.33Z" style="fill:rgb(110,110,111);fill-rule:nonzero;"/>
        </g>
        <g transform="matrix(4.16667,0,0,4.16667,0,0)">
            <path d="M267.928,1554.99C268.313,1555.3 268.874,1555.45 269.622,1555.45C270.073,1555.45 270.469,1555.37 270.821,1555.22C271.184,1555.07 271.448,1554.85 271.635,1554.56C271.822,1554.27 271.921,1553.98 271.921,1553.65C271.921,1553.32 271.844,1553.04 271.69,1552.82C271.536,1552.6 271.316,1552.44 271.052,1552.32C270.777,1552.21 270.304,1552.05 269.622,1551.87C269.149,1551.74 268.863,1551.66 268.764,1551.62C268.599,1551.56 268.478,1551.47 268.401,1551.37C268.324,1551.26 268.28,1551.15 268.28,1551.03C268.28,1550.83 268.379,1550.65 268.566,1550.51C268.753,1550.37 269.072,1550.29 269.512,1550.29C269.886,1550.29 270.172,1550.38 270.381,1550.55C270.59,1550.71 270.711,1550.94 270.755,1551.24L271.701,1551.11C271.635,1550.73 271.525,1550.43 271.371,1550.22C271.206,1550 270.953,1549.82 270.623,1549.7C270.282,1549.57 269.886,1549.5 269.446,1549.5C269.149,1549.5 268.863,1549.53 268.61,1549.61C268.346,1549.69 268.148,1549.79 267.994,1549.9C267.796,1550.04 267.631,1550.22 267.521,1550.43C267.4,1550.65 267.345,1550.89 267.345,1551.14C267.345,1551.41 267.411,1551.68 267.554,1551.91C267.697,1552.13 267.906,1552.32 268.181,1552.45C268.456,1552.58 268.94,1552.73 269.655,1552.91C270.172,1553.04 270.502,1553.15 270.645,1553.24C270.832,1553.36 270.931,1553.54 270.931,1553.76C270.931,1554 270.821,1554.21 270.612,1554.38C270.392,1554.57 270.062,1554.66 269.622,1554.66C269.171,1554.66 268.83,1554.56 268.588,1554.35C268.346,1554.15 268.192,1553.86 268.137,1553.47L267.18,1553.62C267.29,1554.23 267.532,1554.68 267.928,1554.99Z" style="fill:rgb(110,110,111);fill-rule:nonzero;"/>
        </g>
        <g transform="matrix(4.16667,0,0,4.16667,0,0)">
            <path d="M276.365,1554.37C276.112,1554.56 275.815,1554.66 275.463,1554.66C274.979,1554.66 274.583,1554.49 274.264,1554.16C273.945,1553.82 273.769,1553.35 273.736,1552.72L277.993,1552.72C277.993,1552.61 277.993,1552.53 277.993,1552.47C277.993,1551.52 277.751,1550.8 277.267,1550.28C276.783,1549.76 276.167,1549.5 275.408,1549.5C274.616,1549.5 273.978,1549.76 273.483,1550.29C272.988,1550.82 272.746,1551.57 272.746,1552.53C272.746,1553.45 272.988,1554.16 273.483,1554.68C273.967,1555.2 274.627,1555.45 275.463,1555.45C276.123,1555.45 276.662,1555.29 277.091,1554.97C277.509,1554.65 277.806,1554.2 277.96,1553.61L276.959,1553.48C276.816,1553.89 276.618,1554.19 276.365,1554.37ZM274.297,1550.74C274.594,1550.45 274.968,1550.29 275.408,1550.29C275.903,1550.29 276.299,1550.48 276.607,1550.85C276.805,1551.1 276.926,1551.45 276.97,1551.93L273.791,1551.93C273.824,1551.44 273.989,1551.04 274.297,1550.74Z" style="fill:rgb(110,110,111);fill-rule:nonzero;"/>
        </g>
        <g transform="matrix(4.16667,0,0,4.16667,0,0)">
            <path d="M282.426,1554.31C282.173,1554.54 281.854,1554.66 281.48,1554.66C281.007,1554.66 280.622,1554.48 280.325,1554.14C280.028,1553.79 279.885,1553.24 279.885,1552.47C279.885,1551.71 280.039,1551.16 280.347,1550.82C280.644,1550.47 281.04,1550.29 281.535,1550.29C281.854,1550.29 282.129,1550.39 282.36,1550.58C282.58,1550.78 282.745,1551.06 282.833,1551.45L283.768,1551.3C283.658,1550.73 283.405,1550.28 283.009,1549.97C282.613,1549.65 282.107,1549.5 281.491,1549.5C281.007,1549.5 280.545,1549.61 280.127,1549.84C279.72,1550.07 279.401,1550.42 279.203,1550.89C278.994,1551.35 278.895,1551.89 278.895,1552.49C278.895,1553.45 279.137,1554.17 279.61,1554.69C280.083,1555.2 280.71,1555.45 281.491,1555.45C282.107,1555.45 282.635,1555.26 283.064,1554.9C283.482,1554.53 283.757,1554.02 283.856,1553.37L282.91,1553.24C282.844,1553.72 282.679,1554.08 282.426,1554.31Z" style="fill:rgb(110,110,111);fill-rule:nonzero;"/>
        </g>
        <g transform="matrix(4.16667,0,0,4.16667,0,0)">
            <path d="M286.364,1554.51C286.221,1554.51 286.111,1554.48 286.034,1554.44C285.957,1554.38 285.902,1554.33 285.869,1554.24C285.836,1554.16 285.814,1553.99 285.814,1553.71L285.814,1550.37L286.782,1550.37L286.782,1549.62L285.814,1549.62L285.814,1547.63L284.846,1548.21L284.846,1549.62L284.131,1549.62L284.131,1550.37L284.846,1550.37L284.846,1553.66C284.846,1554.24 284.89,1554.62 284.967,1554.8C285.044,1554.98 285.176,1555.13 285.374,1555.24C285.561,1555.35 285.836,1555.41 286.188,1555.41C286.397,1555.41 286.639,1555.37 286.914,1555.32L286.782,1554.47C286.606,1554.49 286.463,1554.51 286.364,1554.51Z" style="fill:rgb(110,110,111);fill-rule:nonzero;"/>
        </g>
        <g transform="matrix(4.16667,0,0,4.16667,0,0)">
            <path d="M291.039,1554.37C290.786,1554.56 290.489,1554.66 290.137,1554.66C289.653,1554.66 289.257,1554.49 288.938,1554.16C288.619,1553.82 288.443,1553.35 288.41,1552.72L292.667,1552.72C292.667,1552.61 292.667,1552.53 292.667,1552.47C292.667,1551.52 292.425,1550.8 291.941,1550.28C291.457,1549.76 290.841,1549.5 290.082,1549.5C289.29,1549.5 288.652,1549.76 288.157,1550.29C287.662,1550.82 287.42,1551.57 287.42,1552.53C287.42,1553.45 287.662,1554.16 288.157,1554.68C288.641,1555.2 289.301,1555.45 290.137,1555.45C290.797,1555.45 291.336,1555.29 291.765,1554.97C292.183,1554.65 292.48,1554.2 292.634,1553.61L291.633,1553.48C291.49,1553.89 291.292,1554.19 291.039,1554.37ZM288.971,1550.74C289.268,1550.45 289.642,1550.29 290.082,1550.29C290.577,1550.29 290.973,1550.48 291.281,1550.85C291.479,1551.1 291.6,1551.45 291.644,1551.93L288.465,1551.93C288.498,1551.44 288.663,1551.04 288.971,1550.74Z" style="fill:rgb(110,110,111);fill-rule:nonzero;"/>
        </g>
        <g transform="matrix(4.16667,0,0,4.16667,0,0)">
            <path d="M295.538,1554.51C295.395,1554.51 295.285,1554.48 295.208,1554.44C295.131,1554.38 295.076,1554.33 295.043,1554.24C295.01,1554.16 294.988,1553.99 294.988,1553.71L294.988,1550.37L295.956,1550.37L295.956,1549.62L294.988,1549.62L294.988,1547.63L294.02,1548.21L294.02,1549.62L293.305,1549.62L293.305,1550.37L294.02,1550.37L294.02,1553.66C294.02,1554.24 294.064,1554.62 294.141,1554.8C294.218,1554.98 294.35,1555.13 294.548,1555.24C294.735,1555.35 295.01,1555.41 295.362,1555.41C295.571,1555.41 295.813,1555.37 296.088,1555.32L295.956,1554.47C295.78,1554.49 295.637,1554.51 295.538,1554.51Z" style="fill:rgb(110,110,111);fill-rule:nonzero;"/>
        </g>
        <g transform="matrix(4.16667,0,0,4.16667,0,0)">
            <path d="M301.511,1555.33L301.511,1549.62L300.543,1549.62L300.543,1552.67C300.543,1553.16 300.488,1553.53 300.389,1553.79C300.279,1554.04 300.103,1554.24 299.85,1554.39C299.597,1554.54 299.322,1554.62 299.036,1554.62C298.739,1554.62 298.497,1554.54 298.299,1554.39C298.112,1554.25 297.98,1554.05 297.914,1553.8C297.881,1553.62 297.859,1553.28 297.859,1552.78L297.859,1549.62L296.891,1549.62L296.891,1553.15C296.891,1553.57 296.913,1553.87 296.946,1554.05C297.012,1554.34 297.111,1554.58 297.243,1554.77C297.386,1554.97 297.606,1555.13 297.892,1555.25C298.189,1555.38 298.497,1555.45 298.838,1555.45C299.597,1555.45 300.202,1555.13 300.642,1554.48L300.642,1555.33L301.511,1555.33Z" style="fill:rgb(110,110,111);fill-rule:nonzero;"/>
        </g>
        <g transform="matrix(4.16667,0,0,4.16667,0,0)">
            <path d="M303.986,1555.33L303.986,1552.35C303.986,1551.94 304.041,1551.57 304.151,1551.22C304.217,1551 304.338,1550.82 304.503,1550.69C304.668,1550.57 304.866,1550.5 305.075,1550.5C305.306,1550.5 305.537,1550.57 305.779,1550.7L306.12,1549.81C305.779,1549.6 305.449,1549.5 305.13,1549.5C304.899,1549.5 304.69,1549.57 304.503,1549.7C304.316,1549.82 304.107,1550.09 303.887,1550.49L303.887,1549.62L303.018,1549.62L303.018,1555.33L303.986,1555.33Z" style="fill:rgb(110,110,111);fill-rule:nonzero;"/>
        </g>
        <g transform="matrix(4.16667,0,0,4.16667,0,0)">
            <path d="M313.666,1555.33L314.678,1555.33C314.557,1555.11 314.48,1554.88 314.436,1554.64C314.403,1554.41 314.381,1553.83 314.381,1552.94L314.381,1551.66C314.381,1551.23 314.37,1550.93 314.337,1550.77C314.271,1550.5 314.172,1550.28 314.029,1550.11C313.886,1549.93 313.666,1549.79 313.358,1549.68C313.05,1549.56 312.654,1549.5 312.17,1549.5C311.675,1549.5 311.246,1549.57 310.872,1549.7C310.498,1549.84 310.212,1550.03 310.014,1550.28C309.816,1550.52 309.673,1550.85 309.585,1551.26L310.531,1551.39C310.63,1550.99 310.795,1550.7 311.015,1550.55C311.235,1550.38 311.565,1550.3 312.027,1550.3C312.511,1550.3 312.885,1550.41 313.127,1550.63C313.314,1550.79 313.402,1551.06 313.402,1551.46C313.402,1551.49 313.402,1551.58 313.402,1551.71C313.028,1551.84 312.456,1551.95 311.664,1552.04C311.29,1552.09 311.004,1552.14 310.806,1552.18C310.553,1552.26 310.322,1552.36 310.113,1552.5C309.904,1552.65 309.739,1552.83 309.607,1553.06C309.486,1553.28 309.42,1553.55 309.42,1553.82C309.42,1554.3 309.585,1554.69 309.926,1554.99C310.267,1555.3 310.751,1555.45 311.378,1555.45C311.752,1555.45 312.115,1555.38 312.445,1555.26C312.775,1555.13 313.116,1554.92 313.479,1554.62C313.512,1554.89 313.567,1555.12 313.666,1555.33ZM313.402,1552.82C313.402,1553.25 313.347,1553.57 313.237,1553.78C313.105,1554.07 312.896,1554.29 312.599,1554.45C312.313,1554.62 311.983,1554.69 311.609,1554.69C311.224,1554.69 310.938,1554.6 310.751,1554.44C310.553,1554.26 310.454,1554.05 310.454,1553.79C310.454,1553.62 310.498,1553.47 310.586,1553.34C310.674,1553.2 310.806,1553.1 310.971,1553.02C311.136,1552.95 311.422,1552.89 311.818,1552.83C312.522,1552.73 313.05,1552.61 313.402,1552.47L313.402,1552.82Z" style="fill:rgb(110,110,111);fill-rule:nonzero;"/>
        </g>
        <g transform="matrix(4.16667,0,0,4.16667,0,0)">
            <path d="M320.453,1555.33L320.453,1547.45L319.485,1547.45L319.485,1550.29C319.32,1550.05 319.1,1549.86 318.825,1549.72C318.561,1549.58 318.253,1549.5 317.912,1549.5C317.439,1549.5 317.021,1549.62 316.636,1549.87C316.262,1550.12 315.976,1550.47 315.789,1550.93C315.602,1551.39 315.503,1551.91 315.503,1552.48C315.503,1553.06 315.613,1553.58 315.822,1554.03C316.031,1554.47 316.317,1554.82 316.702,1555.08C317.087,1555.33 317.505,1555.45 317.956,1555.45C318.66,1555.45 319.188,1555.16 319.551,1554.6L319.551,1555.33L320.453,1555.33ZM316.922,1550.83C317.219,1550.48 317.571,1550.3 318.011,1550.3C318.451,1550.3 318.814,1550.49 319.122,1550.85C319.419,1551.22 319.573,1551.79 319.573,1552.57C319.573,1553.27 319.43,1553.8 319.133,1554.14C318.836,1554.48 318.473,1554.66 318.044,1554.66C317.626,1554.66 317.263,1554.48 316.955,1554.12C316.647,1553.76 316.493,1553.21 316.493,1552.48C316.493,1551.73 316.636,1551.18 316.922,1550.83Z" style="fill:rgb(110,110,111);fill-rule:nonzero;"/>
        </g>
        <g transform="matrix(4.16667,0,0,4.16667,0,0)">
            <path d="M322.95,1548.55L322.95,1547.45L321.982,1547.45L321.982,1548.55L322.95,1548.55ZM322.95,1555.33L322.95,1549.62L321.982,1549.62L321.982,1555.33L322.95,1555.33Z" style="fill:rgb(110,110,111);fill-rule:nonzero;"/>
        </g>
        <g transform="matrix(4.16667,0,0,4.16667,0,0)">
            <path d="M325.392,1557.52L325.392,1554.74C325.557,1554.94 325.766,1555.11 326.019,1555.25C326.283,1555.38 326.569,1555.45 326.888,1555.45C327.328,1555.45 327.746,1555.33 328.153,1555.08C328.549,1554.84 328.846,1554.47 329.055,1554.01C329.264,1553.54 329.374,1553.02 329.374,1552.44C329.374,1551.89 329.275,1551.39 329.088,1550.93C328.901,1550.48 328.615,1550.13 328.252,1549.87C327.878,1549.62 327.449,1549.5 326.954,1549.5C326.591,1549.5 326.272,1549.58 326.008,1549.72C325.744,1549.86 325.513,1550.08 325.304,1550.37L325.304,1549.62L324.424,1549.62L324.424,1557.52L325.392,1557.52ZM325.777,1550.83C326.096,1550.45 326.459,1550.26 326.866,1550.26C327.284,1550.26 327.636,1550.43 327.933,1550.8C328.23,1551.16 328.384,1551.7 328.384,1552.43C328.384,1553.2 328.23,1553.76 327.922,1554.12C327.625,1554.48 327.251,1554.66 326.822,1554.66C326.404,1554.66 326.041,1554.48 325.744,1554.13C325.447,1553.78 325.304,1553.24 325.304,1552.51C325.304,1551.78 325.458,1551.22 325.777,1550.83Z" style="fill:rgb(110,110,111);fill-rule:nonzero;"/>
        </g>
        <g transform="matrix(4.16667,0,0,4.16667,0,0)">
            <path d="M331.508,1548.55L331.508,1547.45L330.54,1547.45L330.54,1548.55L331.508,1548.55ZM331.508,1555.33L331.508,1549.62L330.54,1549.62L330.54,1555.33L331.508,1555.33Z" style="fill:rgb(110,110,111);fill-rule:nonzero;"/>
        </g>
        <g transform="matrix(4.16667,0,0,4.16667,0,0)">
            <path d="M333.345,1554.99C333.73,1555.3 334.291,1555.45 335.039,1555.45C335.49,1555.45 335.886,1555.37 336.238,1555.22C336.601,1555.07 336.865,1554.85 337.052,1554.56C337.239,1554.27 337.338,1553.98 337.338,1553.65C337.338,1553.32 337.261,1553.04 337.107,1552.82C336.953,1552.6 336.733,1552.44 336.469,1552.32C336.194,1552.21 335.721,1552.05 335.039,1551.87C334.566,1551.74 334.28,1551.66 334.181,1551.62C334.016,1551.56 333.895,1551.47 333.818,1551.37C333.741,1551.26 333.697,1551.15 333.697,1551.03C333.697,1550.83 333.796,1550.65 333.983,1550.51C334.17,1550.37 334.489,1550.29 334.929,1550.29C335.303,1550.29 335.589,1550.38 335.798,1550.55C336.007,1550.71 336.128,1550.94 336.172,1551.24L337.118,1551.11C337.052,1550.73 336.942,1550.43 336.788,1550.22C336.623,1550 336.37,1549.82 336.04,1549.7C335.699,1549.57 335.303,1549.5 334.863,1549.5C334.566,1549.5 334.28,1549.53 334.027,1549.61C333.763,1549.69 333.565,1549.79 333.411,1549.9C333.213,1550.04 333.048,1550.22 332.938,1550.43C332.817,1550.65 332.762,1550.89 332.762,1551.14C332.762,1551.41 332.828,1551.68 332.971,1551.91C333.114,1552.13 333.323,1552.32 333.598,1552.45C333.873,1552.58 334.357,1552.73 335.072,1552.91C335.589,1553.04 335.919,1553.15 336.062,1553.24C336.249,1553.36 336.348,1553.54 336.348,1553.76C336.348,1554 336.238,1554.21 336.029,1554.38C335.809,1554.57 335.479,1554.66 335.039,1554.66C334.588,1554.66 334.247,1554.56 334.005,1554.35C333.763,1554.15 333.609,1553.86 333.554,1553.47L332.597,1553.62C332.707,1554.23 332.949,1554.68 333.345,1554.99Z" style="fill:rgb(110,110,111);fill-rule:nonzero;"/>
        </g>
        <g transform="matrix(4.16667,0,0,4.16667,0,0)">
            <path d="M339.45,1548.55L339.45,1547.45L338.482,1547.45L338.482,1548.55L339.45,1548.55ZM339.45,1555.33L339.45,1549.62L338.482,1549.62L338.482,1555.33L339.45,1555.33Z" style="fill:rgb(110,110,111);fill-rule:nonzero;"/>
        </g>
        <g transform="matrix(4.16667,0,0,4.16667,0,0)">
            <path d="M344.169,1554.31C343.916,1554.54 343.597,1554.66 343.223,1554.66C342.75,1554.66 342.365,1554.48 342.068,1554.14C341.771,1553.79 341.628,1553.24 341.628,1552.47C341.628,1551.71 341.782,1551.16 342.09,1550.82C342.387,1550.47 342.783,1550.29 343.278,1550.29C343.597,1550.29 343.872,1550.39 344.103,1550.58C344.323,1550.78 344.488,1551.06 344.576,1551.45L345.511,1551.3C345.401,1550.73 345.148,1550.28 344.752,1549.97C344.356,1549.65 343.85,1549.5 343.234,1549.5C342.75,1549.5 342.288,1549.61 341.87,1549.84C341.463,1550.07 341.144,1550.42 340.946,1550.89C340.737,1551.35 340.638,1551.89 340.638,1552.49C340.638,1553.45 340.88,1554.17 341.353,1554.69C341.826,1555.2 342.453,1555.45 343.234,1555.45C343.85,1555.45 344.378,1555.26 344.807,1554.9C345.225,1554.53 345.5,1554.02 345.599,1553.37L344.653,1553.24C344.587,1553.72 344.422,1554.08 344.169,1554.31Z" style="fill:rgb(110,110,111);fill-rule:nonzero;"/>
        </g>
        <g transform="matrix(4.16667,0,0,4.16667,0,0)">
            <path d="M347.392,1548.55L347.392,1547.45L346.424,1547.45L346.424,1548.55L347.392,1548.55ZM347.392,1555.33L347.392,1549.62L346.424,1549.62L346.424,1555.33L347.392,1555.33Z" style="fill:rgb(110,110,111);fill-rule:nonzero;"/>
        </g>
        <g transform="matrix(4.16667,0,0,4.16667,0,0)">
            <path d="M349.834,1555.33L349.834,1552.22C349.834,1551.48 349.988,1550.99 350.285,1550.73C350.582,1550.47 350.934,1550.34 351.341,1550.34C351.605,1550.34 351.825,1550.39 352.012,1550.51C352.21,1550.62 352.342,1550.79 352.419,1550.97C352.496,1551.17 352.529,1551.47 352.529,1551.87L352.529,1555.33L353.497,1555.33L353.497,1551.82C353.497,1551.38 353.475,1551.06 353.442,1550.89C353.387,1550.61 353.288,1550.37 353.145,1550.17C353.002,1549.97 352.782,1549.81 352.496,1549.69C352.21,1549.57 351.891,1549.5 351.55,1549.5C350.758,1549.5 350.153,1549.81 349.735,1550.43L349.735,1549.62L348.866,1549.62L348.866,1555.33L349.834,1555.33Z" style="fill:rgb(110,110,111);fill-rule:nonzero;"/>
        </g>
        <g transform="matrix(4.16667,0,0,4.16667,0,0)">
            <path d="M355.411,1557.18C355.829,1557.49 356.379,1557.64 357.061,1557.64C357.633,1557.64 358.117,1557.53 358.502,1557.32C358.898,1557.1 359.184,1556.82 359.36,1556.44C359.547,1556.07 359.635,1555.44 359.635,1554.55L359.635,1549.62L358.744,1549.62L358.744,1550.33C358.304,1549.78 357.754,1549.5 357.072,1549.5C356.577,1549.5 356.137,1549.62 355.763,1549.87C355.389,1550.13 355.103,1550.48 354.905,1550.94C354.707,1551.4 354.608,1551.9 354.608,1552.45C354.608,1553.24 354.817,1553.91 355.246,1554.48C355.686,1555.04 356.291,1555.33 357.072,1555.33C357.699,1555.33 358.227,1555.08 358.656,1554.58C358.656,1555.21 358.634,1555.63 358.579,1555.81C358.502,1556.14 358.337,1556.39 358.084,1556.57C357.842,1556.75 357.501,1556.84 357.05,1556.84C356.632,1556.84 356.302,1556.75 356.071,1556.57C355.884,1556.44 355.774,1556.22 355.741,1555.93L354.806,1555.8C354.795,1556.42 354.993,1556.88 355.411,1557.18ZM356.049,1550.83C356.346,1550.48 356.709,1550.3 357.149,1550.3C357.578,1550.3 357.952,1550.48 358.271,1550.83C358.579,1551.18 358.733,1551.71 358.733,1552.41C358.733,1553.14 358.579,1553.67 358.282,1554.01C357.974,1554.35 357.6,1554.53 357.16,1554.53C356.709,1554.53 356.335,1554.35 356.038,1554.01C355.741,1553.67 355.598,1553.12 355.598,1552.38C355.598,1551.69 355.752,1551.17 356.049,1550.83Z" style="fill:rgb(110,110,111);fill-rule:nonzero;"/>
        </g>
        <g transform="matrix(4.16667,0,0,4.16667,0,0)">
            <path d="M367.456,1554.37C367.203,1554.56 366.906,1554.66 366.554,1554.66C366.07,1554.66 365.674,1554.49 365.355,1554.16C365.036,1553.82 364.86,1553.35 364.827,1552.72L369.084,1552.72C369.084,1552.61 369.084,1552.53 369.084,1552.47C369.084,1551.52 368.842,1550.8 368.358,1550.28C367.874,1549.76 367.258,1549.5 366.499,1549.5C365.707,1549.5 365.069,1549.76 364.574,1550.29C364.079,1550.82 363.837,1551.57 363.837,1552.53C363.837,1553.45 364.079,1554.16 364.574,1554.68C365.058,1555.2 365.718,1555.45 366.554,1555.45C367.214,1555.45 367.753,1555.29 368.182,1554.97C368.6,1554.65 368.897,1554.2 369.051,1553.61L368.05,1553.48C367.907,1553.89 367.709,1554.19 367.456,1554.37ZM365.388,1550.74C365.685,1550.45 366.059,1550.29 366.499,1550.29C366.994,1550.29 367.39,1550.48 367.698,1550.85C367.896,1551.1 368.017,1551.45 368.061,1551.93L364.882,1551.93C364.915,1551.44 365.08,1551.04 365.388,1550.74Z" style="fill:rgb(110,110,111);fill-rule:nonzero;"/>
        </g>
        <g transform="matrix(4.16667,0,0,4.16667,0,0)">
            <rect x="370.25" y="1547.45" width="0.968" height="7.876" style="fill:rgb(110,110,111);fill-rule:nonzero;"/>
        </g>
        <g transform="matrix(4.16667,0,0,4.16667,0,0)">
            <path d="M373.682,1548.55L373.682,1547.45L372.714,1547.45L372.714,1548.55L373.682,1548.55ZM373.682,1555.33L373.682,1549.62L372.714,1549.62L372.714,1555.33L373.682,1555.33Z" style="fill:rgb(110,110,111);fill-rule:nonzero;"/>
        </g>
        <g transform="matrix(4.16667,0,0,4.16667,0,0)">
            <path d="M376.839,1554.51C376.696,1554.51 376.586,1554.48 376.509,1554.44C376.432,1554.38 376.377,1554.33 376.344,1554.24C376.311,1554.16 376.289,1553.99 376.289,1553.71L376.289,1550.37L377.257,1550.37L377.257,1549.62L376.289,1549.62L376.289,1547.63L375.321,1548.21L375.321,1549.62L374.606,1549.62L374.606,1550.37L375.321,1550.37L375.321,1553.66C375.321,1554.24 375.365,1554.62 375.442,1554.8C375.519,1554.98 375.651,1555.13 375.849,1555.24C376.036,1555.35 376.311,1555.41 376.663,1555.41C376.872,1555.41 377.114,1555.37 377.389,1555.32L377.257,1554.47C377.081,1554.49 376.938,1554.51 376.839,1554.51Z" style="fill:rgb(110,110,111);fill-rule:nonzero;"/>
        </g>
        <g transform="matrix(4.16667,0,0,4.16667,0,0)">
            <rect x="378.489" y="1554.23" width="1.1" height="1.1" style="fill:rgb(110,110,111);fill-rule:nonzero;"/>
        </g>
    </g>
</svg>
