<?xml version="1.0" standalone="no"?>
<!DOCTYPE svg PUBLIC "-//W3C//DTD SVG 1.1//EN" "http://www.w3.org/Graphics/SVG/1.1/DTD/svg11.dtd">
<svg width="100%" height="100%" viewBox="0 0 2217 256" version="1.1" xmlns="http://www.w3.org/2000/svg" xmlns:xlink="http://www.w3.org/1999/xlink" xml:space="preserve" style="fill-rule:evenodd;clip-rule:evenodd;stroke-linejoin:round;stroke-miterlimit:1.41421;">
    <g transform="matrix(1.33333,0,0,1.33333,-5.55556,-8825)">
        <g transform="matrix(4.16667,0,0,4.16667,0,0)">
            <path d="M3,1634C2.173,1634 1.5,1633.33 1.5,1632.5L1.5,1590.5C1.5,1589.67 2.173,1589 3,1589L397.922,1589C398.749,1589 399.422,1589.67 399.422,1590.5L399.422,1632.5C399.422,1633.33 398.749,1634 397.922,1634L3,1634Z" style="fill:rgb(246,248,249);fill-rule:nonzero;"/>
        </g>
        <g transform="matrix(4.16667,0,0,4.16667,0,0)">
            <path d="M397.922,1588.5L3,1588.5C1.896,1588.5 1,1589.4 1,1590.5L1,1632.5C1,1633.61 1.896,1634.5 3,1634.5L397.922,1634.5C399.026,1634.5 399.922,1633.61 399.922,1632.5L399.922,1590.5C399.922,1589.4 399.026,1588.5 397.922,1588.5ZM397.922,1589.5C398.473,1589.5 398.922,1589.95 398.922,1590.5L398.922,1632.5C398.922,1633.05 398.473,1633.5 397.922,1633.5L3,1633.5C2.449,1633.5 2,1633.05 2,1632.5L2,1590.5C2,1589.95 2.449,1589.5 3,1589.5L397.922,1589.5Z" style="fill:rgb(229,229,229);fill-rule:nonzero;"/>
        </g>
        <g transform="matrix(4.16667,0,0,4.16667,0,0)">
            <path d="M41.691,1611.5C41.691,1620.34 34.529,1627.5 25.691,1627.5C16.853,1627.5 9.691,1620.34 9.691,1611.5C9.691,1602.67 16.853,1595.5 25.691,1595.5C34.529,1595.5 41.691,1602.67 41.691,1611.5Z" style="fill:rgb(159,159,159);fill-rule:nonzero;"/>
        </g>
        <g transform="matrix(4.16667,0,0,4.16667,0,0)">
            <path d="M24.01,1619.45L24.01,1608.8L27.828,1608.8L27.828,1619.45L24.01,1619.45ZM24.01,1607.36L24.01,1603.75L27.828,1603.75L27.828,1607.36L24.01,1607.36Z" style="fill:white;fill-rule:nonzero;"/>
        </g>
        <g transform="matrix(4.16667,0,0,4.16667,0,0)">
            <rect x="55.401" y="1607.14" width="1.74" height="8.592" style="fill:rgb(51,51,51);fill-rule:nonzero;"/>
        </g>
        <g transform="matrix(4.16667,0,0,4.16667,0,0)">
            <path d="M64.449,1611.87C64.449,1611.39 64.413,1611.01 64.353,1610.76C64.293,1610.5 64.185,1610.27 64.029,1610.07C63.873,1609.86 63.645,1609.69 63.345,1609.56C63.045,1609.43 62.709,1609.37 62.349,1609.37C61.521,1609.37 60.825,1609.72 60.285,1610.41L60.285,1609.5L58.761,1609.5L58.761,1615.73L60.405,1615.73L60.405,1612.91C60.405,1612.21 60.453,1611.75 60.537,1611.48C60.621,1611.23 60.777,1611.03 61.005,1610.87C61.233,1610.71 61.485,1610.63 61.773,1610.63C62.001,1610.63 62.193,1610.69 62.349,1610.8C62.517,1610.91 62.625,1611.06 62.697,1611.25C62.769,1611.45 62.805,1611.89 62.805,1612.56L62.805,1615.73L64.449,1615.73L64.449,1611.87Z" style="fill:rgb(51,51,51);fill-rule:nonzero;"/>
        </g>
        <g transform="matrix(4.16667,0,0,4.16667,0,0)">
            <path d="M65.397,1610.8L66.309,1610.8L66.309,1615.73L67.953,1615.73L67.953,1610.8L69.189,1610.8L69.189,1609.5L67.953,1609.5L67.953,1609.06C67.953,1608.73 68.001,1608.52 68.109,1608.41C68.217,1608.3 68.397,1608.24 68.637,1608.24C68.889,1608.24 69.141,1608.28 69.417,1608.34L69.621,1607.19C69.165,1607.05 68.709,1606.98 68.241,1606.98C67.773,1606.98 67.401,1607.07 67.101,1607.22C66.801,1607.39 66.585,1607.59 66.477,1607.86C66.369,1608.11 66.309,1608.51 66.309,1609.03L66.309,1609.5L65.397,1609.5L65.397,1610.8Z" style="fill:rgb(51,51,51);fill-rule:nonzero;"/>
        </g>
        <g transform="matrix(4.16667,0,0,4.16667,0,0)">
            <path d="M70.137,1614.36C70.401,1614.87 70.797,1615.24 71.313,1615.5C71.829,1615.75 72.369,1615.89 72.945,1615.89C73.869,1615.89 74.625,1615.57 75.237,1614.95C75.849,1614.34 76.149,1613.56 76.149,1612.61C76.149,1611.67 75.849,1610.91 75.249,1610.29C74.649,1609.68 73.869,1609.37 72.933,1609.37C72.321,1609.37 71.769,1609.5 71.277,1609.78C70.785,1610.04 70.401,1610.44 70.137,1610.95C69.861,1611.46 69.729,1611.99 69.729,1612.54C69.729,1613.26 69.861,1613.86 70.137,1614.36ZM71.865,1611.21C72.153,1610.88 72.513,1610.71 72.945,1610.71C73.365,1610.71 73.725,1610.88 74.025,1611.21C74.313,1611.54 74.457,1612.01 74.457,1612.62C74.457,1613.25 74.313,1613.71 74.025,1614.05C73.725,1614.37 73.365,1614.54 72.945,1614.54C72.513,1614.54 72.153,1614.37 71.865,1614.05C71.565,1613.71 71.421,1613.25 71.421,1612.62C71.421,1612.01 71.565,1611.54 71.865,1611.21Z" style="fill:rgb(51,51,51);fill-rule:nonzero;"/>
        </g>
        <g transform="matrix(4.16667,0,0,4.16667,0,0)">
            <path d="M85.353,1615.73L85.353,1614.81L81.481,1614.81L81.481,1607.85L80.436,1607.85L80.436,1615.73L85.353,1615.73Z" style="fill:rgb(110,110,111);fill-rule:nonzero;"/>
        </g>
        <g transform="matrix(4.16667,0,0,4.16667,0,0)">
            <path d="M86.849,1615.08C87.344,1615.6 87.993,1615.85 88.785,1615.85C89.291,1615.85 89.742,1615.73 90.171,1615.5C90.589,1615.27 90.908,1614.95 91.128,1614.52C91.348,1614.1 91.458,1613.53 91.458,1612.79C91.458,1611.89 91.205,1611.19 90.71,1610.67C90.215,1610.15 89.577,1609.9 88.785,1609.9C88.081,1609.9 87.487,1610.11 86.992,1610.54C86.409,1611.04 86.112,1611.83 86.112,1612.87C86.112,1613.84 86.354,1614.58 86.849,1615.08ZM87.586,1611.24C87.905,1610.88 88.301,1610.7 88.785,1610.7C89.269,1610.7 89.665,1610.88 89.984,1611.24C90.303,1611.61 90.468,1612.14 90.468,1612.85C90.468,1613.6 90.303,1614.15 89.984,1614.51C89.665,1614.87 89.269,1615.06 88.785,1615.06C88.301,1615.06 87.905,1614.88 87.586,1614.52C87.267,1614.16 87.102,1613.61 87.102,1612.88C87.102,1612.15 87.267,1611.61 87.586,1611.24Z" style="fill:rgb(110,110,111);fill-rule:nonzero;"/>
        </g>
        <g transform="matrix(4.16667,0,0,4.16667,0,0)">
            <path d="M93.548,1615.73L93.548,1612.75C93.548,1612.34 93.603,1611.97 93.713,1611.62C93.779,1611.4 93.9,1611.22 94.065,1611.09C94.23,1610.97 94.428,1610.9 94.637,1610.9C94.868,1610.9 95.099,1610.97 95.341,1611.1L95.682,1610.21C95.341,1610 95.011,1609.9 94.692,1609.9C94.461,1609.9 94.252,1609.97 94.065,1610.1C93.878,1610.22 93.669,1610.49 93.449,1610.89L93.449,1610.02L92.58,1610.02L92.58,1615.73L93.548,1615.73Z" style="fill:rgb(110,110,111);fill-rule:nonzero;"/>
        </g>
        <g transform="matrix(4.16667,0,0,4.16667,0,0)">
            <path d="M99.554,1614.77C99.301,1614.96 99.004,1615.06 98.652,1615.06C98.168,1615.06 97.772,1614.89 97.453,1614.56C97.134,1614.22 96.958,1613.75 96.925,1613.12L101.182,1613.12C101.182,1613.01 101.182,1612.92 101.182,1612.87C101.182,1611.92 100.94,1611.2 100.456,1610.68C99.972,1610.16 99.356,1609.9 98.597,1609.9C97.805,1609.9 97.167,1610.16 96.672,1610.69C96.177,1611.22 95.935,1611.97 95.935,1612.92C95.935,1613.85 96.177,1614.56 96.672,1615.08C97.156,1615.6 97.816,1615.85 98.652,1615.85C99.312,1615.85 99.851,1615.69 100.28,1615.37C100.698,1615.05 100.995,1614.6 101.149,1614.01L100.148,1613.88C100.005,1614.29 99.807,1614.59 99.554,1614.77ZM97.486,1611.14C97.783,1610.85 98.157,1610.69 98.597,1610.69C99.092,1610.69 99.488,1610.88 99.796,1611.25C99.994,1611.5 100.115,1611.85 100.159,1612.33L96.98,1612.33C97.013,1611.84 97.178,1611.44 97.486,1611.14Z" style="fill:rgb(110,110,111);fill-rule:nonzero;"/>
        </g>
        <g transform="matrix(4.16667,0,0,4.16667,0,0)">
            <path d="M103.338,1615.73L103.338,1612.77C103.338,1612.25 103.393,1611.86 103.492,1611.58C103.602,1611.31 103.767,1611.1 103.998,1610.96C104.229,1610.81 104.482,1610.74 104.746,1610.74C105.109,1610.74 105.362,1610.85 105.516,1611.06C105.681,1611.28 105.758,1611.59 105.758,1612.02L105.758,1615.73L106.726,1615.73L106.726,1612.42C106.726,1611.83 106.858,1611.41 107.122,1611.13C107.386,1610.87 107.727,1610.74 108.123,1610.74C108.354,1610.74 108.541,1610.79 108.706,1610.89C108.871,1611 108.992,1611.13 109.047,1611.3C109.113,1611.47 109.146,1611.75 109.146,1612.13L109.146,1615.73L110.114,1615.73L110.114,1611.81C110.114,1611.16 109.96,1610.68 109.652,1610.37C109.344,1610.05 108.915,1609.9 108.343,1609.9C107.617,1609.9 107.023,1610.23 106.572,1610.9C106.462,1610.58 106.275,1610.34 106,1610.16C105.736,1609.99 105.384,1609.9 104.966,1609.9C104.581,1609.9 104.251,1609.99 103.954,1610.15C103.657,1610.33 103.415,1610.55 103.239,1610.82L103.239,1610.02L102.37,1610.02L102.37,1615.73L103.338,1615.73Z" style="fill:rgb(110,110,111);fill-rule:nonzero;"/>
        </g>
        <g transform="matrix(4.16667,0,0,4.16667,0,0)">
            <path d="M115.559,1608.95L115.559,1607.85L114.591,1607.85L114.591,1608.95L115.559,1608.95ZM115.559,1615.73L115.559,1610.02L114.591,1610.02L114.591,1615.73L115.559,1615.73Z" style="fill:rgb(110,110,111);fill-rule:nonzero;"/>
        </g>
        <g transform="matrix(4.16667,0,0,4.16667,0,0)">
            <path d="M118.001,1617.92L118.001,1615.14C118.166,1615.35 118.375,1615.51 118.628,1615.65C118.892,1615.79 119.178,1615.85 119.497,1615.85C119.937,1615.85 120.355,1615.73 120.762,1615.48C121.158,1615.24 121.455,1614.87 121.664,1614.41C121.873,1613.94 121.983,1613.42 121.983,1612.84C121.983,1612.29 121.884,1611.79 121.697,1611.33C121.51,1610.88 121.224,1610.53 120.861,1610.27C120.487,1610.02 120.058,1609.9 119.563,1609.9C119.2,1609.9 118.881,1609.98 118.617,1610.12C118.353,1610.26 118.122,1610.48 117.913,1610.77L117.913,1610.02L117.033,1610.02L117.033,1617.92L118.001,1617.92ZM118.386,1611.23C118.705,1610.85 119.068,1610.66 119.475,1610.66C119.893,1610.66 120.245,1610.84 120.542,1611.2C120.839,1611.56 120.993,1612.1 120.993,1612.83C120.993,1613.6 120.839,1614.16 120.531,1614.52C120.234,1614.88 119.86,1615.06 119.431,1615.06C119.013,1615.06 118.65,1614.88 118.353,1614.53C118.056,1614.18 117.913,1613.64 117.913,1612.91C117.913,1612.18 118.067,1611.62 118.386,1611.23Z" style="fill:rgb(110,110,111);fill-rule:nonzero;"/>
        </g>
        <g transform="matrix(4.16667,0,0,4.16667,0,0)">
            <path d="M123.512,1615.39C123.897,1615.7 124.458,1615.85 125.206,1615.85C125.657,1615.85 126.053,1615.77 126.405,1615.62C126.768,1615.47 127.032,1615.25 127.219,1614.96C127.406,1614.67 127.505,1614.38 127.505,1614.05C127.505,1613.72 127.428,1613.44 127.274,1613.22C127.12,1613 126.9,1612.84 126.636,1612.72C126.361,1612.61 125.888,1612.45 125.206,1612.27C124.733,1612.14 124.447,1612.06 124.348,1612.02C124.183,1611.96 124.062,1611.87 123.985,1611.77C123.908,1611.66 123.864,1611.55 123.864,1611.43C123.864,1611.23 123.963,1611.06 124.15,1610.91C124.337,1610.77 124.656,1610.69 125.096,1610.69C125.47,1610.69 125.756,1610.78 125.965,1610.94C126.174,1611.11 126.295,1611.34 126.339,1611.64L127.285,1611.51C127.219,1611.13 127.109,1610.84 126.955,1610.62C126.79,1610.39 126.537,1610.22 126.207,1610.1C125.866,1609.97 125.47,1609.9 125.03,1609.9C124.733,1609.9 124.447,1609.93 124.194,1610.01C123.93,1610.09 123.732,1610.19 123.578,1610.3C123.38,1610.44 123.215,1610.62 123.105,1610.84C122.984,1611.06 122.929,1611.29 122.929,1611.54C122.929,1611.81 122.995,1612.08 123.138,1612.31C123.281,1612.53 123.49,1612.72 123.765,1612.85C124.04,1612.98 124.524,1613.13 125.239,1613.31C125.756,1613.44 126.086,1613.55 126.229,1613.64C126.416,1613.76 126.515,1613.94 126.515,1614.16C126.515,1614.4 126.405,1614.61 126.196,1614.78C125.976,1614.97 125.646,1615.06 125.206,1615.06C124.755,1615.06 124.414,1614.96 124.172,1614.75C123.93,1614.55 123.776,1614.26 123.721,1613.87L122.764,1614.03C122.874,1614.63 123.116,1615.08 123.512,1615.39Z" style="fill:rgb(110,110,111);fill-rule:nonzero;"/>
        </g>
        <g transform="matrix(4.16667,0,0,4.16667,0,0)">
            <path d="M133.247,1615.73L133.247,1610.02L132.279,1610.02L132.279,1613.07C132.279,1613.56 132.224,1613.93 132.125,1614.19C132.015,1614.44 131.839,1614.64 131.586,1614.8C131.333,1614.94 131.058,1615.02 130.772,1615.02C130.475,1615.02 130.233,1614.94 130.035,1614.8C129.848,1614.65 129.716,1614.45 129.65,1614.2C129.617,1614.03 129.595,1613.68 129.595,1613.18L129.595,1610.02L128.627,1610.02L128.627,1613.55C128.627,1613.97 128.649,1614.27 128.682,1614.45C128.748,1614.74 128.847,1614.98 128.979,1615.17C129.122,1615.37 129.342,1615.53 129.628,1615.65C129.925,1615.79 130.233,1615.85 130.574,1615.85C131.333,1615.85 131.938,1615.53 132.378,1614.88L132.378,1615.73L133.247,1615.73Z" style="fill:rgb(110,110,111);fill-rule:nonzero;"/>
        </g>
        <g transform="matrix(4.16667,0,0,4.16667,0,0)">
            <path d="M135.733,1615.73L135.733,1612.77C135.733,1612.25 135.788,1611.86 135.887,1611.58C135.997,1611.31 136.162,1611.1 136.393,1610.96C136.624,1610.81 136.877,1610.74 137.141,1610.74C137.504,1610.74 137.757,1610.85 137.911,1611.06C138.076,1611.28 138.153,1611.59 138.153,1612.02L138.153,1615.73L139.121,1615.73L139.121,1612.42C139.121,1611.83 139.253,1611.41 139.517,1611.13C139.781,1610.87 140.122,1610.74 140.518,1610.74C140.749,1610.74 140.936,1610.79 141.101,1610.89C141.266,1611 141.387,1611.13 141.442,1611.3C141.508,1611.47 141.541,1611.75 141.541,1612.13L141.541,1615.73L142.509,1615.73L142.509,1611.81C142.509,1611.16 142.355,1610.68 142.047,1610.37C141.739,1610.05 141.31,1609.9 140.738,1609.9C140.012,1609.9 139.418,1610.23 138.967,1610.9C138.857,1610.58 138.67,1610.34 138.395,1610.16C138.131,1609.99 137.779,1609.9 137.361,1609.9C136.976,1609.9 136.646,1609.99 136.349,1610.15C136.052,1610.33 135.81,1610.55 135.634,1610.82L135.634,1610.02L134.765,1610.02L134.765,1615.73L135.733,1615.73Z" style="fill:rgb(110,110,111);fill-rule:nonzero;"/>
        </g>
        <g transform="matrix(4.16667,0,0,4.16667,0,0)">
            <path d="M151.573,1615.73L151.573,1607.85L150.605,1607.85L150.605,1610.69C150.44,1610.45 150.22,1610.26 149.945,1610.12C149.681,1609.98 149.373,1609.9 149.032,1609.9C148.559,1609.9 148.141,1610.02 147.756,1610.27C147.382,1610.52 147.096,1610.87 146.909,1611.33C146.722,1611.79 146.623,1612.31 146.623,1612.88C146.623,1613.46 146.733,1613.98 146.942,1614.43C147.151,1614.87 147.437,1615.22 147.822,1615.48C148.207,1615.73 148.625,1615.85 149.076,1615.85C149.78,1615.85 150.308,1615.57 150.671,1615L150.671,1615.73L151.573,1615.73ZM148.042,1611.23C148.339,1610.88 148.691,1610.7 149.131,1610.7C149.571,1610.7 149.934,1610.89 150.242,1611.25C150.539,1611.62 150.693,1612.19 150.693,1612.97C150.693,1613.67 150.55,1614.2 150.253,1614.54C149.956,1614.88 149.593,1615.06 149.164,1615.06C148.746,1615.06 148.383,1614.88 148.075,1614.52C147.767,1614.16 147.613,1613.61 147.613,1612.88C147.613,1612.13 147.756,1611.58 148.042,1611.23Z" style="fill:rgb(110,110,111);fill-rule:nonzero;"/>
        </g>
        <g transform="matrix(4.16667,0,0,4.16667,0,0)">
            <path d="M153.476,1615.08C153.971,1615.6 154.62,1615.85 155.412,1615.85C155.918,1615.85 156.369,1615.73 156.798,1615.5C157.216,1615.27 157.535,1614.95 157.755,1614.52C157.975,1614.1 158.085,1613.53 158.085,1612.79C158.085,1611.89 157.832,1611.19 157.337,1610.67C156.842,1610.15 156.204,1609.9 155.412,1609.9C154.708,1609.9 154.114,1610.11 153.619,1610.54C153.036,1611.04 152.739,1611.83 152.739,1612.87C152.739,1613.84 152.981,1614.58 153.476,1615.08ZM154.213,1611.24C154.532,1610.88 154.928,1610.7 155.412,1610.7C155.896,1610.7 156.292,1610.88 156.611,1611.24C156.93,1611.61 157.095,1612.14 157.095,1612.85C157.095,1613.6 156.93,1614.15 156.611,1614.51C156.292,1614.87 155.896,1615.06 155.412,1615.06C154.928,1615.06 154.532,1614.88 154.213,1614.52C153.894,1614.16 153.729,1613.61 153.729,1612.88C153.729,1612.15 153.894,1611.61 154.213,1611.24Z" style="fill:rgb(110,110,111);fill-rule:nonzero;"/>
        </g>
        <g transform="matrix(4.16667,0,0,4.16667,0,0)">
            <rect x="159.196" y="1607.85" width="0.968" height="7.876" style="fill:rgb(110,110,111);fill-rule:nonzero;"/>
        </g>
        <g transform="matrix(4.16667,0,0,4.16667,0,0)">
            <path d="M162.034,1615.08C162.529,1615.6 163.178,1615.85 163.97,1615.85C164.476,1615.85 164.927,1615.73 165.356,1615.5C165.774,1615.27 166.093,1614.95 166.313,1614.52C166.533,1614.1 166.643,1613.53 166.643,1612.79C166.643,1611.89 166.39,1611.19 165.895,1610.67C165.4,1610.15 164.762,1609.9 163.97,1609.9C163.266,1609.9 162.672,1610.11 162.177,1610.54C161.594,1611.04 161.297,1611.83 161.297,1612.87C161.297,1613.84 161.539,1614.58 162.034,1615.08ZM162.771,1611.24C163.09,1610.88 163.486,1610.7 163.97,1610.7C164.454,1610.7 164.85,1610.88 165.169,1611.24C165.488,1611.61 165.653,1612.14 165.653,1612.85C165.653,1613.6 165.488,1614.15 165.169,1614.51C164.85,1614.87 164.454,1615.06 163.97,1615.06C163.486,1615.06 163.09,1614.88 162.771,1614.52C162.452,1614.16 162.287,1613.61 162.287,1612.88C162.287,1612.15 162.452,1611.61 162.771,1611.24Z" style="fill:rgb(110,110,111);fill-rule:nonzero;"/>
        </g>
        <g transform="matrix(4.16667,0,0,4.16667,0,0)">
            <path d="M168.733,1615.73L168.733,1612.75C168.733,1612.34 168.788,1611.97 168.898,1611.62C168.964,1611.4 169.085,1611.22 169.25,1611.09C169.415,1610.97 169.613,1610.9 169.822,1610.9C170.053,1610.9 170.284,1610.97 170.526,1611.1L170.867,1610.21C170.526,1610 170.196,1609.9 169.877,1609.9C169.646,1609.9 169.437,1609.97 169.25,1610.1C169.063,1610.22 168.854,1610.49 168.634,1610.89L168.634,1610.02L167.765,1610.02L167.765,1615.73L168.733,1615.73Z" style="fill:rgb(110,110,111);fill-rule:nonzero;"/>
        </g>
        <g transform="matrix(4.16667,0,0,4.16667,0,0)">
            <path d="M174.86,1615.39C175.245,1615.7 175.806,1615.85 176.554,1615.85C177.005,1615.85 177.401,1615.77 177.753,1615.62C178.116,1615.47 178.38,1615.25 178.567,1614.96C178.754,1614.67 178.853,1614.38 178.853,1614.05C178.853,1613.72 178.776,1613.44 178.622,1613.22C178.468,1613 178.248,1612.84 177.984,1612.72C177.709,1612.61 177.236,1612.45 176.554,1612.27C176.081,1612.14 175.795,1612.06 175.696,1612.02C175.531,1611.96 175.41,1611.87 175.333,1611.77C175.256,1611.66 175.212,1611.55 175.212,1611.43C175.212,1611.23 175.311,1611.06 175.498,1610.91C175.685,1610.77 176.004,1610.69 176.444,1610.69C176.818,1610.69 177.104,1610.78 177.313,1610.94C177.522,1611.11 177.643,1611.34 177.687,1611.64L178.633,1611.51C178.567,1611.13 178.457,1610.84 178.303,1610.62C178.138,1610.39 177.885,1610.22 177.555,1610.1C177.214,1609.97 176.818,1609.9 176.378,1609.9C176.081,1609.9 175.795,1609.93 175.542,1610.01C175.278,1610.09 175.08,1610.19 174.926,1610.3C174.728,1610.44 174.563,1610.62 174.453,1610.84C174.332,1611.06 174.277,1611.29 174.277,1611.54C174.277,1611.81 174.343,1612.08 174.486,1612.31C174.629,1612.53 174.838,1612.72 175.113,1612.85C175.388,1612.98 175.872,1613.13 176.587,1613.31C177.104,1613.44 177.434,1613.55 177.577,1613.64C177.764,1613.76 177.863,1613.94 177.863,1614.16C177.863,1614.4 177.753,1614.61 177.544,1614.78C177.324,1614.97 176.994,1615.06 176.554,1615.06C176.103,1615.06 175.762,1614.96 175.52,1614.75C175.278,1614.55 175.124,1614.26 175.069,1613.87L174.112,1614.03C174.222,1614.63 174.464,1615.08 174.86,1615.39Z" style="fill:rgb(110,110,111);fill-rule:nonzero;"/>
        </g>
        <g transform="matrix(4.16667,0,0,4.16667,0,0)">
            <path d="M180.965,1608.95L180.965,1607.85L179.997,1607.85L179.997,1608.95L180.965,1608.95ZM180.965,1615.73L180.965,1610.02L179.997,1610.02L179.997,1615.73L180.965,1615.73Z" style="fill:rgb(110,110,111);fill-rule:nonzero;"/>
        </g>
        <g transform="matrix(4.16667,0,0,4.16667,0,0)">
            <path d="M184.122,1614.9C183.979,1614.9 183.869,1614.88 183.792,1614.84C183.715,1614.78 183.66,1614.73 183.627,1614.64C183.594,1614.56 183.572,1614.39 183.572,1614.11L183.572,1610.77L184.54,1610.77L184.54,1610.02L183.572,1610.02L183.572,1608.03L182.604,1608.61L182.604,1610.02L181.889,1610.02L181.889,1610.77L182.604,1610.77L182.604,1614.06C182.604,1614.64 182.648,1615.02 182.725,1615.2C182.802,1615.38 182.934,1615.53 183.132,1615.64C183.319,1615.75 183.594,1615.81 183.946,1615.81C184.155,1615.81 184.397,1615.77 184.672,1615.72L184.54,1614.87C184.364,1614.89 184.221,1614.9 184.122,1614.9Z" style="fill:rgb(110,110,111);fill-rule:nonzero;"/>
        </g>
        <g transform="matrix(4.16667,0,0,4.16667,0,0)">
            <path d="M192.471,1615.73L193.483,1615.73C193.362,1615.51 193.285,1615.28 193.241,1615.04C193.208,1614.81 193.186,1614.23 193.186,1613.34L193.186,1612.06C193.186,1611.63 193.175,1611.33 193.142,1611.16C193.076,1610.9 192.977,1610.68 192.834,1610.51C192.691,1610.33 192.471,1610.19 192.163,1610.08C191.855,1609.95 191.459,1609.9 190.975,1609.9C190.48,1609.9 190.051,1609.97 189.677,1610.1C189.303,1610.24 189.017,1610.43 188.819,1610.68C188.621,1610.92 188.478,1611.25 188.39,1611.66L189.336,1611.79C189.435,1611.38 189.6,1611.1 189.82,1610.94C190.04,1610.78 190.37,1610.7 190.832,1610.7C191.316,1610.7 191.69,1610.81 191.932,1611.03C192.119,1611.19 192.207,1611.46 192.207,1611.86C192.207,1611.89 192.207,1611.98 192.207,1612.11C191.833,1612.24 191.261,1612.35 190.469,1612.44C190.095,1612.49 189.809,1612.54 189.611,1612.58C189.358,1612.66 189.127,1612.76 188.918,1612.9C188.709,1613.05 188.544,1613.23 188.412,1613.46C188.291,1613.68 188.225,1613.95 188.225,1614.22C188.225,1614.7 188.39,1615.09 188.731,1615.39C189.072,1615.7 189.556,1615.85 190.183,1615.85C190.557,1615.85 190.92,1615.79 191.25,1615.66C191.58,1615.53 191.921,1615.32 192.284,1615.02C192.317,1615.29 192.372,1615.52 192.471,1615.73ZM192.207,1613.22C192.207,1613.65 192.152,1613.97 192.042,1614.18C191.91,1614.47 191.701,1614.68 191.404,1614.85C191.118,1615.02 190.788,1615.09 190.414,1615.09C190.029,1615.09 189.743,1615 189.556,1614.84C189.358,1614.66 189.259,1614.45 189.259,1614.19C189.259,1614.03 189.303,1613.87 189.391,1613.74C189.479,1613.6 189.611,1613.5 189.776,1613.42C189.941,1613.35 190.227,1613.29 190.623,1613.23C191.327,1613.13 191.855,1613.01 192.207,1612.87L192.207,1613.22Z" style="fill:rgb(110,110,111);fill-rule:nonzero;"/>
        </g>
        <g transform="matrix(4.16667,0,0,4.16667,0,0)">
            <path d="M195.639,1615.73L195.639,1612.77C195.639,1612.25 195.694,1611.86 195.793,1611.58C195.903,1611.31 196.068,1611.1 196.299,1610.96C196.53,1610.81 196.783,1610.74 197.047,1610.74C197.41,1610.74 197.663,1610.85 197.817,1611.06C197.982,1611.28 198.059,1611.59 198.059,1612.02L198.059,1615.73L199.027,1615.73L199.027,1612.42C199.027,1611.83 199.159,1611.41 199.423,1611.13C199.687,1610.87 200.028,1610.74 200.424,1610.74C200.655,1610.74 200.842,1610.79 201.007,1610.89C201.172,1611 201.293,1611.13 201.348,1611.3C201.414,1611.47 201.447,1611.75 201.447,1612.13L201.447,1615.73L202.415,1615.73L202.415,1611.81C202.415,1611.16 202.261,1610.68 201.953,1610.37C201.645,1610.05 201.216,1609.9 200.644,1609.9C199.918,1609.9 199.324,1610.23 198.873,1610.9C198.763,1610.58 198.576,1610.34 198.301,1610.16C198.037,1609.99 197.685,1609.9 197.267,1609.9C196.882,1609.9 196.552,1609.99 196.255,1610.15C195.958,1610.33 195.716,1610.55 195.54,1610.82L195.54,1610.02L194.671,1610.02L194.671,1615.73L195.639,1615.73Z" style="fill:rgb(110,110,111);fill-rule:nonzero;"/>
        </g>
        <g transform="matrix(4.16667,0,0,4.16667,0,0)">
            <path d="M207.134,1614.77C206.881,1614.96 206.584,1615.06 206.232,1615.06C205.748,1615.06 205.352,1614.89 205.033,1614.56C204.714,1614.22 204.538,1613.75 204.505,1613.12L208.762,1613.12C208.762,1613.01 208.762,1612.92 208.762,1612.87C208.762,1611.92 208.52,1611.2 208.036,1610.68C207.552,1610.16 206.936,1609.9 206.177,1609.9C205.385,1609.9 204.747,1610.16 204.252,1610.69C203.757,1611.22 203.515,1611.97 203.515,1612.92C203.515,1613.85 203.757,1614.56 204.252,1615.08C204.736,1615.6 205.396,1615.85 206.232,1615.85C206.892,1615.85 207.431,1615.69 207.86,1615.37C208.278,1615.05 208.575,1614.6 208.729,1614.01L207.728,1613.88C207.585,1614.29 207.387,1614.59 207.134,1614.77ZM205.066,1611.14C205.363,1610.85 205.737,1610.69 206.177,1610.69C206.672,1610.69 207.068,1610.88 207.376,1611.25C207.574,1611.5 207.695,1611.85 207.739,1612.33L204.56,1612.33C204.593,1611.84 204.758,1611.44 205.066,1611.14Z" style="fill:rgb(110,110,111);fill-rule:nonzero;"/>
        </g>
        <g transform="matrix(4.16667,0,0,4.16667,0,0)">
            <path d="M211.633,1614.9C211.49,1614.9 211.38,1614.88 211.303,1614.84C211.226,1614.78 211.171,1614.73 211.138,1614.64C211.105,1614.56 211.083,1614.39 211.083,1614.11L211.083,1610.77L212.051,1610.77L212.051,1610.02L211.083,1610.02L211.083,1608.03L210.115,1608.61L210.115,1610.02L209.4,1610.02L209.4,1610.77L210.115,1610.77L210.115,1614.06C210.115,1614.64 210.159,1615.02 210.236,1615.2C210.313,1615.38 210.445,1615.53 210.643,1615.64C210.83,1615.75 211.105,1615.81 211.457,1615.81C211.666,1615.81 211.908,1615.77 212.183,1615.72L212.051,1614.87C211.875,1614.89 211.732,1614.9 211.633,1614.9Z" style="fill:rgb(110,110,111);fill-rule:nonzero;"/>
        </g>
        <g transform="matrix(4.16667,0,0,4.16667,0,0)">
            <path d="M213.811,1615.73C213.8,1616.06 213.745,1616.3 213.646,1616.48C213.547,1616.65 213.404,1616.79 213.195,1616.87L213.459,1617.29C213.767,1617.16 213.998,1616.96 214.141,1616.71C214.284,1616.47 214.361,1616.14 214.361,1615.73L214.361,1614.63L213.261,1614.63L213.261,1615.73L213.811,1615.73Z" style="fill:rgb(110,110,111);fill-rule:nonzero;"/>
        </g>
        <g transform="matrix(4.16667,0,0,4.16667,0,0)">
            <path d="M222.369,1614.71C222.116,1614.94 221.797,1615.06 221.423,1615.06C220.95,1615.06 220.565,1614.88 220.268,1614.54C219.971,1614.19 219.828,1613.64 219.828,1612.87C219.828,1612.11 219.982,1611.56 220.29,1611.22C220.587,1610.87 220.983,1610.69 221.478,1610.69C221.797,1610.69 222.072,1610.79 222.303,1610.98C222.523,1611.18 222.688,1611.46 222.776,1611.85L223.711,1611.7C223.601,1611.13 223.348,1610.68 222.952,1610.37C222.556,1610.05 222.05,1609.9 221.434,1609.9C220.95,1609.9 220.488,1610.01 220.07,1610.24C219.663,1610.47 219.344,1610.82 219.146,1611.29C218.937,1611.75 218.838,1612.29 218.838,1612.89C218.838,1613.85 219.08,1614.58 219.553,1615.09C220.026,1615.6 220.653,1615.85 221.434,1615.85C222.05,1615.85 222.578,1615.66 223.007,1615.3C223.425,1614.93 223.7,1614.42 223.799,1613.77L222.853,1613.64C222.787,1614.12 222.622,1614.48 222.369,1614.71Z" style="fill:rgb(110,110,111);fill-rule:nonzero;"/>
        </g>
        <g transform="matrix(4.16667,0,0,4.16667,0,0)">
            <path d="M224.998,1615.08C225.493,1615.6 226.142,1615.85 226.934,1615.85C227.44,1615.85 227.891,1615.73 228.32,1615.5C228.738,1615.27 229.057,1614.95 229.277,1614.52C229.497,1614.1 229.607,1613.53 229.607,1612.79C229.607,1611.89 229.354,1611.19 228.859,1610.67C228.364,1610.15 227.726,1609.9 226.934,1609.9C226.23,1609.9 225.636,1610.11 225.141,1610.54C224.558,1611.04 224.261,1611.83 224.261,1612.87C224.261,1613.84 224.503,1614.58 224.998,1615.08ZM225.735,1611.24C226.054,1610.88 226.45,1610.7 226.934,1610.7C227.418,1610.7 227.814,1610.88 228.133,1611.24C228.452,1611.61 228.617,1612.14 228.617,1612.85C228.617,1613.6 228.452,1614.15 228.133,1614.51C227.814,1614.87 227.418,1615.06 226.934,1615.06C226.45,1615.06 226.054,1614.88 225.735,1614.52C225.416,1614.16 225.251,1613.61 225.251,1612.88C225.251,1612.15 225.416,1611.61 225.735,1611.24Z" style="fill:rgb(110,110,111);fill-rule:nonzero;"/>
        </g>
        <g transform="matrix(4.16667,0,0,4.16667,0,0)">
            <path d="M231.708,1615.73L231.708,1612.62C231.708,1611.88 231.862,1611.38 232.159,1611.13C232.456,1610.87 232.808,1610.74 233.215,1610.74C233.479,1610.74 233.699,1610.79 233.886,1610.91C234.084,1611.02 234.216,1611.19 234.293,1611.37C234.37,1611.57 234.403,1611.87 234.403,1612.27L234.403,1615.73L235.371,1615.73L235.371,1612.22C235.371,1611.78 235.349,1611.46 235.316,1611.29C235.261,1611.01 235.162,1610.77 235.019,1610.57C234.876,1610.37 234.656,1610.21 234.37,1610.09C234.084,1609.97 233.765,1609.9 233.424,1609.9C232.632,1609.9 232.027,1610.21 231.609,1610.84L231.609,1610.02L230.74,1610.02L230.74,1615.73L231.708,1615.73Z" style="fill:rgb(110,110,111);fill-rule:nonzero;"/>
        </g>
        <g transform="matrix(4.16667,0,0,4.16667,0,0)">
            <path d="M237.219,1615.39C237.604,1615.7 238.165,1615.85 238.913,1615.85C239.364,1615.85 239.76,1615.77 240.112,1615.62C240.475,1615.47 240.739,1615.25 240.926,1614.96C241.113,1614.67 241.212,1614.38 241.212,1614.05C241.212,1613.72 241.135,1613.44 240.981,1613.22C240.827,1613 240.607,1612.84 240.343,1612.72C240.068,1612.61 239.595,1612.45 238.913,1612.27C238.44,1612.14 238.154,1612.06 238.055,1612.02C237.89,1611.96 237.769,1611.87 237.692,1611.77C237.615,1611.66 237.571,1611.55 237.571,1611.43C237.571,1611.23 237.67,1611.06 237.857,1610.91C238.044,1610.77 238.363,1610.69 238.803,1610.69C239.177,1610.69 239.463,1610.78 239.672,1610.94C239.881,1611.11 240.002,1611.34 240.046,1611.64L240.992,1611.51C240.926,1611.13 240.816,1610.84 240.662,1610.62C240.497,1610.39 240.244,1610.22 239.914,1610.1C239.573,1609.97 239.177,1609.9 238.737,1609.9C238.44,1609.9 238.154,1609.93 237.901,1610.01C237.637,1610.09 237.439,1610.19 237.285,1610.3C237.087,1610.44 236.922,1610.62 236.812,1610.84C236.691,1611.06 236.636,1611.29 236.636,1611.54C236.636,1611.81 236.702,1612.08 236.845,1612.31C236.988,1612.53 237.197,1612.72 237.472,1612.85C237.747,1612.98 238.231,1613.13 238.946,1613.31C239.463,1613.44 239.793,1613.55 239.936,1613.64C240.123,1613.76 240.222,1613.94 240.222,1614.16C240.222,1614.4 240.112,1614.61 239.903,1614.78C239.683,1614.97 239.353,1615.06 238.913,1615.06C238.462,1615.06 238.121,1614.96 237.879,1614.75C237.637,1614.55 237.483,1614.26 237.428,1613.87L236.471,1614.03C236.581,1614.63 236.823,1615.08 237.219,1615.39Z" style="fill:rgb(110,110,111);fill-rule:nonzero;"/>
        </g>
        <g transform="matrix(4.16667,0,0,4.16667,0,0)">
            <path d="M245.656,1614.77C245.403,1614.96 245.106,1615.06 244.754,1615.06C244.27,1615.06 243.874,1614.89 243.555,1614.56C243.236,1614.22 243.06,1613.75 243.027,1613.12L247.284,1613.12C247.284,1613.01 247.284,1612.92 247.284,1612.87C247.284,1611.92 247.042,1611.2 246.558,1610.68C246.074,1610.16 245.458,1609.9 244.699,1609.9C243.907,1609.9 243.269,1610.16 242.774,1610.69C242.279,1611.22 242.037,1611.97 242.037,1612.92C242.037,1613.85 242.279,1614.56 242.774,1615.08C243.258,1615.6 243.918,1615.85 244.754,1615.85C245.414,1615.85 245.953,1615.69 246.382,1615.37C246.8,1615.05 247.097,1614.6 247.251,1614.01L246.25,1613.88C246.107,1614.29 245.909,1614.59 245.656,1614.77ZM243.588,1611.14C243.885,1610.85 244.259,1610.69 244.699,1610.69C245.194,1610.69 245.59,1610.88 245.898,1611.25C246.096,1611.5 246.217,1611.85 246.261,1612.33L243.082,1612.33C243.115,1611.84 243.28,1611.44 243.588,1611.14Z" style="fill:rgb(110,110,111);fill-rule:nonzero;"/>
        </g>
        <g transform="matrix(4.16667,0,0,4.16667,0,0)">
            <path d="M251.717,1614.71C251.464,1614.94 251.145,1615.06 250.771,1615.06C250.298,1615.06 249.913,1614.88 249.616,1614.54C249.319,1614.19 249.176,1613.64 249.176,1612.87C249.176,1612.11 249.33,1611.56 249.638,1611.22C249.935,1610.87 250.331,1610.69 250.826,1610.69C251.145,1610.69 251.42,1610.79 251.651,1610.98C251.871,1611.18 252.036,1611.46 252.124,1611.85L253.059,1611.7C252.949,1611.13 252.696,1610.68 252.3,1610.37C251.904,1610.05 251.398,1609.9 250.782,1609.9C250.298,1609.9 249.836,1610.01 249.418,1610.24C249.011,1610.47 248.692,1610.82 248.494,1611.29C248.285,1611.75 248.186,1612.29 248.186,1612.89C248.186,1613.85 248.428,1614.58 248.901,1615.09C249.374,1615.6 250.001,1615.85 250.782,1615.85C251.398,1615.85 251.926,1615.66 252.355,1615.3C252.773,1614.93 253.048,1614.42 253.147,1613.77L252.201,1613.64C252.135,1614.12 251.97,1614.48 251.717,1614.71Z" style="fill:rgb(110,110,111);fill-rule:nonzero;"/>
        </g>
        <g transform="matrix(4.16667,0,0,4.16667,0,0)">
            <path d="M255.655,1614.9C255.512,1614.9 255.402,1614.88 255.325,1614.84C255.248,1614.78 255.193,1614.73 255.16,1614.64C255.127,1614.56 255.105,1614.39 255.105,1614.11L255.105,1610.77L256.073,1610.77L256.073,1610.02L255.105,1610.02L255.105,1608.03L254.137,1608.61L254.137,1610.02L253.422,1610.02L253.422,1610.77L254.137,1610.77L254.137,1614.06C254.137,1614.64 254.181,1615.02 254.258,1615.2C254.335,1615.38 254.467,1615.53 254.665,1615.64C254.852,1615.75 255.127,1615.81 255.479,1615.81C255.688,1615.81 255.93,1615.77 256.205,1615.72L256.073,1614.87C255.897,1614.89 255.754,1614.9 255.655,1614.9Z" style="fill:rgb(110,110,111);fill-rule:nonzero;"/>
        </g>
        <g transform="matrix(4.16667,0,0,4.16667,0,0)">
            <path d="M260.33,1614.77C260.077,1614.96 259.78,1615.06 259.428,1615.06C258.944,1615.06 258.548,1614.89 258.229,1614.56C257.91,1614.22 257.734,1613.75 257.701,1613.12L261.958,1613.12C261.958,1613.01 261.958,1612.92 261.958,1612.87C261.958,1611.92 261.716,1611.2 261.232,1610.68C260.748,1610.16 260.132,1609.9 259.373,1609.9C258.581,1609.9 257.943,1610.16 257.448,1610.69C256.953,1611.22 256.711,1611.97 256.711,1612.92C256.711,1613.85 256.953,1614.56 257.448,1615.08C257.932,1615.6 258.592,1615.85 259.428,1615.85C260.088,1615.85 260.627,1615.69 261.056,1615.37C261.474,1615.05 261.771,1614.6 261.925,1614.01L260.924,1613.88C260.781,1614.29 260.583,1614.59 260.33,1614.77ZM258.262,1611.14C258.559,1610.85 258.933,1610.69 259.373,1610.69C259.868,1610.69 260.264,1610.88 260.572,1611.25C260.77,1611.5 260.891,1611.85 260.935,1612.33L257.756,1612.33C257.789,1611.84 257.954,1611.44 258.262,1611.14Z" style="fill:rgb(110,110,111);fill-rule:nonzero;"/>
        </g>
        <g transform="matrix(4.16667,0,0,4.16667,0,0)">
            <path d="M264.829,1614.9C264.686,1614.9 264.576,1614.88 264.499,1614.84C264.422,1614.78 264.367,1614.73 264.334,1614.64C264.301,1614.56 264.279,1614.39 264.279,1614.11L264.279,1610.77L265.247,1610.77L265.247,1610.02L264.279,1610.02L264.279,1608.03L263.311,1608.61L263.311,1610.02L262.596,1610.02L262.596,1610.77L263.311,1610.77L263.311,1614.06C263.311,1614.64 263.355,1615.02 263.432,1615.2C263.509,1615.38 263.641,1615.53 263.839,1615.64C264.026,1615.75 264.301,1615.81 264.653,1615.81C264.862,1615.81 265.104,1615.77 265.379,1615.72L265.247,1614.87C265.071,1614.89 264.928,1614.9 264.829,1614.9Z" style="fill:rgb(110,110,111);fill-rule:nonzero;"/>
        </g>
        <g transform="matrix(4.16667,0,0,4.16667,0,0)">
            <path d="M270.802,1615.73L270.802,1610.02L269.834,1610.02L269.834,1613.07C269.834,1613.56 269.779,1613.93 269.68,1614.19C269.57,1614.44 269.394,1614.64 269.141,1614.8C268.888,1614.94 268.613,1615.02 268.327,1615.02C268.03,1615.02 267.788,1614.94 267.59,1614.8C267.403,1614.65 267.271,1614.45 267.205,1614.2C267.172,1614.03 267.15,1613.68 267.15,1613.18L267.15,1610.02L266.182,1610.02L266.182,1613.55C266.182,1613.97 266.204,1614.27 266.237,1614.45C266.303,1614.74 266.402,1614.98 266.534,1615.17C266.677,1615.37 266.897,1615.53 267.183,1615.65C267.48,1615.79 267.788,1615.85 268.129,1615.85C268.888,1615.85 269.493,1615.53 269.933,1614.88L269.933,1615.73L270.802,1615.73Z" style="fill:rgb(110,110,111);fill-rule:nonzero;"/>
        </g>
        <g transform="matrix(4.16667,0,0,4.16667,0,0)">
            <path d="M273.277,1615.73L273.277,1612.75C273.277,1612.34 273.332,1611.97 273.442,1611.62C273.508,1611.4 273.629,1611.22 273.794,1611.09C273.959,1610.97 274.157,1610.9 274.366,1610.9C274.597,1610.9 274.828,1610.97 275.07,1611.1L275.411,1610.21C275.07,1610 274.74,1609.9 274.421,1609.9C274.19,1609.9 273.981,1609.97 273.794,1610.1C273.607,1610.22 273.398,1610.49 273.178,1610.89L273.178,1610.02L272.309,1610.02L272.309,1615.73L273.277,1615.73Z" style="fill:rgb(110,110,111);fill-rule:nonzero;"/>
        </g>
        <g transform="matrix(4.16667,0,0,4.16667,0,0)">
            <path d="M282.957,1615.73L283.969,1615.73C283.848,1615.51 283.771,1615.28 283.727,1615.04C283.694,1614.81 283.672,1614.23 283.672,1613.34L283.672,1612.06C283.672,1611.63 283.661,1611.33 283.628,1611.16C283.562,1610.9 283.463,1610.68 283.32,1610.51C283.177,1610.33 282.957,1610.19 282.649,1610.08C282.341,1609.95 281.945,1609.9 281.461,1609.9C280.966,1609.9 280.537,1609.97 280.163,1610.1C279.789,1610.24 279.503,1610.43 279.305,1610.68C279.107,1610.92 278.964,1611.25 278.876,1611.66L279.822,1611.79C279.921,1611.38 280.086,1611.1 280.306,1610.94C280.526,1610.78 280.856,1610.7 281.318,1610.7C281.802,1610.7 282.176,1610.81 282.418,1611.03C282.605,1611.19 282.693,1611.46 282.693,1611.86C282.693,1611.89 282.693,1611.98 282.693,1612.11C282.319,1612.24 281.747,1612.35 280.955,1612.44C280.581,1612.49 280.295,1612.54 280.097,1612.58C279.844,1612.66 279.613,1612.76 279.404,1612.9C279.195,1613.05 279.03,1613.23 278.898,1613.46C278.777,1613.68 278.711,1613.95 278.711,1614.22C278.711,1614.7 278.876,1615.09 279.217,1615.39C279.558,1615.7 280.042,1615.85 280.669,1615.85C281.043,1615.85 281.406,1615.79 281.736,1615.66C282.066,1615.53 282.407,1615.32 282.77,1615.02C282.803,1615.29 282.858,1615.52 282.957,1615.73ZM282.693,1613.22C282.693,1613.65 282.638,1613.97 282.528,1614.18C282.396,1614.47 282.187,1614.68 281.89,1614.85C281.604,1615.02 281.274,1615.09 280.9,1615.09C280.515,1615.09 280.229,1615 280.042,1614.84C279.844,1614.66 279.745,1614.45 279.745,1614.19C279.745,1614.03 279.789,1613.87 279.877,1613.74C279.965,1613.6 280.097,1613.5 280.262,1613.42C280.427,1613.35 280.713,1613.29 281.109,1613.23C281.813,1613.13 282.341,1613.01 282.693,1612.87L282.693,1613.22Z" style="fill:rgb(110,110,111);fill-rule:nonzero;"/>
        </g>
        <g transform="matrix(4.16667,0,0,4.16667,0,0)">
            <path d="M289.744,1615.73L289.744,1607.85L288.776,1607.85L288.776,1610.69C288.611,1610.45 288.391,1610.26 288.116,1610.12C287.852,1609.98 287.544,1609.9 287.203,1609.9C286.73,1609.9 286.312,1610.02 285.927,1610.27C285.553,1610.52 285.267,1610.87 285.08,1611.33C284.893,1611.79 284.794,1612.31 284.794,1612.88C284.794,1613.46 284.904,1613.98 285.113,1614.43C285.322,1614.87 285.608,1615.22 285.993,1615.48C286.378,1615.73 286.796,1615.85 287.247,1615.85C287.951,1615.85 288.479,1615.57 288.842,1615L288.842,1615.73L289.744,1615.73ZM286.213,1611.23C286.51,1610.88 286.862,1610.7 287.302,1610.7C287.742,1610.7 288.105,1610.89 288.413,1611.25C288.71,1611.62 288.864,1612.19 288.864,1612.97C288.864,1613.67 288.721,1614.2 288.424,1614.54C288.127,1614.88 287.764,1615.06 287.335,1615.06C286.917,1615.06 286.554,1614.88 286.246,1614.52C285.938,1614.16 285.784,1613.61 285.784,1612.88C285.784,1612.13 285.927,1611.58 286.213,1611.23Z" style="fill:rgb(110,110,111);fill-rule:nonzero;"/>
        </g>
        <g transform="matrix(4.16667,0,0,4.16667,0,0)">
            <path d="M292.241,1608.95L292.241,1607.85L291.273,1607.85L291.273,1608.95L292.241,1608.95ZM292.241,1615.73L292.241,1610.02L291.273,1610.02L291.273,1615.73L292.241,1615.73Z" style="fill:rgb(110,110,111);fill-rule:nonzero;"/>
        </g>
        <g transform="matrix(4.16667,0,0,4.16667,0,0)">
            <path d="M294.683,1617.92L294.683,1615.14C294.848,1615.35 295.057,1615.51 295.31,1615.65C295.574,1615.79 295.86,1615.85 296.179,1615.85C296.619,1615.85 297.037,1615.73 297.444,1615.48C297.84,1615.24 298.137,1614.87 298.346,1614.41C298.555,1613.94 298.665,1613.42 298.665,1612.84C298.665,1612.29 298.566,1611.79 298.379,1611.33C298.192,1610.88 297.906,1610.53 297.543,1610.27C297.169,1610.02 296.74,1609.9 296.245,1609.9C295.882,1609.9 295.563,1609.98 295.299,1610.12C295.035,1610.26 294.804,1610.48 294.595,1610.77L294.595,1610.02L293.715,1610.02L293.715,1617.92L294.683,1617.92ZM295.068,1611.23C295.387,1610.85 295.75,1610.66 296.157,1610.66C296.575,1610.66 296.927,1610.84 297.224,1611.2C297.521,1611.56 297.675,1612.1 297.675,1612.83C297.675,1613.6 297.521,1614.16 297.213,1614.52C296.916,1614.88 296.542,1615.06 296.113,1615.06C295.695,1615.06 295.332,1614.88 295.035,1614.53C294.738,1614.18 294.595,1613.64 294.595,1612.91C294.595,1612.18 294.749,1611.62 295.068,1611.23Z" style="fill:rgb(110,110,111);fill-rule:nonzero;"/>
        </g>
        <g transform="matrix(4.16667,0,0,4.16667,0,0)">
            <path d="M300.799,1608.95L300.799,1607.85L299.831,1607.85L299.831,1608.95L300.799,1608.95ZM300.799,1615.73L300.799,1610.02L299.831,1610.02L299.831,1615.73L300.799,1615.73Z" style="fill:rgb(110,110,111);fill-rule:nonzero;"/>
        </g>
        <g transform="matrix(4.16667,0,0,4.16667,0,0)">
            <path d="M302.636,1615.39C303.021,1615.7 303.582,1615.85 304.33,1615.85C304.781,1615.85 305.177,1615.77 305.529,1615.62C305.892,1615.47 306.156,1615.25 306.343,1614.96C306.53,1614.67 306.629,1614.38 306.629,1614.05C306.629,1613.72 306.552,1613.44 306.398,1613.22C306.244,1613 306.024,1612.84 305.76,1612.72C305.485,1612.61 305.012,1612.45 304.33,1612.27C303.857,1612.14 303.571,1612.06 303.472,1612.02C303.307,1611.96 303.186,1611.87 303.109,1611.77C303.032,1611.66 302.988,1611.55 302.988,1611.43C302.988,1611.23 303.087,1611.06 303.274,1610.91C303.461,1610.77 303.78,1610.69 304.22,1610.69C304.594,1610.69 304.88,1610.78 305.089,1610.94C305.298,1611.11 305.419,1611.34 305.463,1611.64L306.409,1611.51C306.343,1611.13 306.233,1610.84 306.079,1610.62C305.914,1610.39 305.661,1610.22 305.331,1610.1C304.99,1609.97 304.594,1609.9 304.154,1609.9C303.857,1609.9 303.571,1609.93 303.318,1610.01C303.054,1610.09 302.856,1610.19 302.702,1610.3C302.504,1610.44 302.339,1610.62 302.229,1610.84C302.108,1611.06 302.053,1611.29 302.053,1611.54C302.053,1611.81 302.119,1612.08 302.262,1612.31C302.405,1612.53 302.614,1612.72 302.889,1612.85C303.164,1612.98 303.648,1613.13 304.363,1613.31C304.88,1613.44 305.21,1613.55 305.353,1613.64C305.54,1613.76 305.639,1613.94 305.639,1614.16C305.639,1614.4 305.529,1614.61 305.32,1614.78C305.1,1614.97 304.77,1615.06 304.33,1615.06C303.879,1615.06 303.538,1614.96 303.296,1614.75C303.054,1614.55 302.9,1614.26 302.845,1613.87L301.888,1614.03C301.998,1614.63 302.24,1615.08 302.636,1615.39Z" style="fill:rgb(110,110,111);fill-rule:nonzero;"/>
        </g>
        <g transform="matrix(4.16667,0,0,4.16667,0,0)">
            <path d="M308.741,1608.95L308.741,1607.85L307.773,1607.85L307.773,1608.95L308.741,1608.95ZM308.741,1615.73L308.741,1610.02L307.773,1610.02L307.773,1615.73L308.741,1615.73Z" style="fill:rgb(110,110,111);fill-rule:nonzero;"/>
        </g>
        <g transform="matrix(4.16667,0,0,4.16667,0,0)">
            <path d="M313.46,1614.71C313.207,1614.94 312.888,1615.06 312.514,1615.06C312.041,1615.06 311.656,1614.88 311.359,1614.54C311.062,1614.19 310.919,1613.64 310.919,1612.87C310.919,1612.11 311.073,1611.56 311.381,1611.22C311.678,1610.87 312.074,1610.69 312.569,1610.69C312.888,1610.69 313.163,1610.79 313.394,1610.98C313.614,1611.18 313.779,1611.46 313.867,1611.85L314.802,1611.7C314.692,1611.13 314.439,1610.68 314.043,1610.37C313.647,1610.05 313.141,1609.9 312.525,1609.9C312.041,1609.9 311.579,1610.01 311.161,1610.24C310.754,1610.47 310.435,1610.82 310.237,1611.29C310.028,1611.75 309.929,1612.29 309.929,1612.89C309.929,1613.85 310.171,1614.58 310.644,1615.09C311.117,1615.6 311.744,1615.85 312.525,1615.85C313.141,1615.85 313.669,1615.66 314.098,1615.3C314.516,1614.93 314.791,1614.42 314.89,1613.77L313.944,1613.64C313.878,1614.12 313.713,1614.48 313.46,1614.71Z" style="fill:rgb(110,110,111);fill-rule:nonzero;"/>
        </g>
        <g transform="matrix(4.16667,0,0,4.16667,0,0)">
            <path d="M316.683,1608.95L316.683,1607.85L315.715,1607.85L315.715,1608.95L316.683,1608.95ZM316.683,1615.73L316.683,1610.02L315.715,1610.02L315.715,1615.73L316.683,1615.73Z" style="fill:rgb(110,110,111);fill-rule:nonzero;"/>
        </g>
        <g transform="matrix(4.16667,0,0,4.16667,0,0)">
            <path d="M319.125,1615.73L319.125,1612.62C319.125,1611.88 319.279,1611.38 319.576,1611.13C319.873,1610.87 320.225,1610.74 320.632,1610.74C320.896,1610.74 321.116,1610.79 321.303,1610.91C321.501,1611.02 321.633,1611.19 321.71,1611.37C321.787,1611.57 321.82,1611.87 321.82,1612.27L321.82,1615.73L322.788,1615.73L322.788,1612.22C322.788,1611.78 322.766,1611.46 322.733,1611.29C322.678,1611.01 322.579,1610.77 322.436,1610.57C322.293,1610.37 322.073,1610.21 321.787,1610.09C321.501,1609.97 321.182,1609.9 320.841,1609.9C320.049,1609.9 319.444,1610.21 319.026,1610.84L319.026,1610.02L318.157,1610.02L318.157,1615.73L319.125,1615.73Z" style="fill:rgb(110,110,111);fill-rule:nonzero;"/>
        </g>
        <g transform="matrix(4.16667,0,0,4.16667,0,0)">
            <path d="M324.702,1617.58C325.12,1617.89 325.67,1618.04 326.352,1618.04C326.924,1618.04 327.408,1617.93 327.793,1617.72C328.189,1617.5 328.475,1617.22 328.651,1616.84C328.838,1616.47 328.926,1615.84 328.926,1614.95L328.926,1610.02L328.035,1610.02L328.035,1610.73C327.595,1610.17 327.045,1609.9 326.363,1609.9C325.868,1609.9 325.428,1610.02 325.054,1610.27C324.68,1610.53 324.394,1610.88 324.196,1611.34C323.998,1611.8 323.899,1612.3 323.899,1612.85C323.899,1613.64 324.108,1614.31 324.537,1614.88C324.977,1615.44 325.582,1615.73 326.363,1615.73C326.99,1615.73 327.518,1615.48 327.947,1614.98C327.947,1615.61 327.925,1616.03 327.87,1616.21C327.793,1616.54 327.628,1616.79 327.375,1616.97C327.133,1617.15 326.792,1617.24 326.341,1617.24C325.923,1617.24 325.593,1617.15 325.362,1616.97C325.175,1616.84 325.065,1616.62 325.032,1616.34L324.097,1616.2C324.086,1616.82 324.284,1617.28 324.702,1617.58ZM325.34,1611.23C325.637,1610.88 326,1610.7 326.44,1610.7C326.869,1610.7 327.243,1610.88 327.562,1611.23C327.87,1611.58 328.024,1612.11 328.024,1612.82C328.024,1613.54 327.87,1614.07 327.573,1614.41C327.265,1614.75 326.891,1614.93 326.451,1614.93C326,1614.93 325.626,1614.75 325.329,1614.41C325.032,1614.07 324.889,1613.52 324.889,1612.78C324.889,1612.09 325.043,1611.57 325.34,1611.23Z" style="fill:rgb(110,110,111);fill-rule:nonzero;"/>
        </g>
        <g transform="matrix(4.16667,0,0,4.16667,0,0)">
            <path d="M336.747,1614.77C336.494,1614.96 336.197,1615.06 335.845,1615.06C335.361,1615.06 334.965,1614.89 334.646,1614.56C334.327,1614.22 334.151,1613.75 334.118,1613.12L338.375,1613.12C338.375,1613.01 338.375,1612.92 338.375,1612.87C338.375,1611.92 338.133,1611.2 337.649,1610.68C337.165,1610.16 336.549,1609.9 335.79,1609.9C334.998,1609.9 334.36,1610.16 333.865,1610.69C333.37,1611.22 333.128,1611.97 333.128,1612.92C333.128,1613.85 333.37,1614.56 333.865,1615.08C334.349,1615.6 335.009,1615.85 335.845,1615.85C336.505,1615.85 337.044,1615.69 337.473,1615.37C337.891,1615.05 338.188,1614.6 338.342,1614.01L337.341,1613.88C337.198,1614.29 337,1614.59 336.747,1614.77ZM334.679,1611.14C334.976,1610.85 335.35,1610.69 335.79,1610.69C336.285,1610.69 336.681,1610.88 336.989,1611.25C337.187,1611.5 337.308,1611.85 337.352,1612.33L334.173,1612.33C334.206,1611.84 334.371,1611.44 334.679,1611.14Z" style="fill:rgb(110,110,111);fill-rule:nonzero;"/>
        </g>
        <g transform="matrix(4.16667,0,0,4.16667,0,0)">
            <rect x="339.541" y="1607.85" width="0.968" height="7.876" style="fill:rgb(110,110,111);fill-rule:nonzero;"/>
        </g>
        <g transform="matrix(4.16667,0,0,4.16667,0,0)">
            <path d="M342.973,1608.95L342.973,1607.85L342.005,1607.85L342.005,1608.95L342.973,1608.95ZM342.973,1615.73L342.973,1610.02L342.005,1610.02L342.005,1615.73L342.973,1615.73Z" style="fill:rgb(110,110,111);fill-rule:nonzero;"/>
        </g>
        <g transform="matrix(4.16667,0,0,4.16667,0,0)">
            <path d="M346.13,1614.9C345.987,1614.9 345.877,1614.88 345.8,1614.84C345.723,1614.78 345.668,1614.73 345.635,1614.64C345.602,1614.56 345.58,1614.39 345.58,1614.11L345.58,1610.77L346.548,1610.77L346.548,1610.02L345.58,1610.02L345.58,1608.03L344.612,1608.61L344.612,1610.02L343.897,1610.02L343.897,1610.77L344.612,1610.77L344.612,1614.06C344.612,1614.64 344.656,1615.02 344.733,1615.2C344.81,1615.38 344.942,1615.53 345.14,1615.64C345.327,1615.75 345.602,1615.81 345.954,1615.81C346.163,1615.81 346.405,1615.77 346.68,1615.72L346.548,1614.87C346.372,1614.89 346.229,1614.9 346.13,1614.9Z" style="fill:rgb(110,110,111);fill-rule:nonzero;"/>
        </g>
        <g transform="matrix(4.16667,0,0,4.16667,0,0)">
            <rect x="347.78" y="1614.63" width="1.1" height="1.1" style="fill:rgb(110,110,111);fill-rule:nonzero;"/>
        </g>
    </g>
</svg>
