<?xml version="1.0" standalone="no"?>
<!DOCTYPE svg PUBLIC "-//W3C//DTD SVG 1.1//EN" "http://www.w3.org/Graphics/SVG/1.1/DTD/svg11.dtd">
<svg width="100%" height="100%" viewBox="0 0 2217 256" version="1.1" xmlns="http://www.w3.org/2000/svg" xmlns:xlink="http://www.w3.org/1999/xlink" xml:space="preserve" style="fill-rule:evenodd;clip-rule:evenodd;stroke-linejoin:round;stroke-miterlimit:1.41421;">
    <g transform="matrix(1.33333,0,0,1.33333,-5.55556,-8157.67)">
        <g transform="matrix(4.16667,0,0,4.16667,0,0)">
            <path d="M3,1513.88C2.173,1513.88 1.5,1513.21 1.5,1512.38L1.5,1470.38C1.5,1469.56 2.173,1468.88 3,1468.88L397.922,1468.88C398.749,1468.88 399.422,1469.56 399.422,1470.38L399.422,1512.38C399.422,1513.21 398.749,1513.88 397.922,1513.88L3,1513.88Z" style="fill:rgb(246,248,249);fill-rule:nonzero;"/>
        </g>
        <g transform="matrix(4.16667,0,0,4.16667,0,0)">
            <path d="M397.922,1468.38L3,1468.38C1.896,1468.38 1,1469.28 1,1470.38L1,1512.38C1,1513.49 1.896,1514.38 3,1514.38L397.922,1514.38C399.026,1514.38 399.922,1513.49 399.922,1512.38L399.922,1470.38C399.922,1469.28 399.026,1468.38 397.922,1468.38ZM397.922,1469.38C398.473,1469.38 398.922,1469.83 398.922,1470.38L398.922,1512.38C398.922,1512.94 398.473,1513.38 397.922,1513.38L3,1513.38C2.449,1513.38 2,1512.94 2,1512.38L2,1470.38C2,1469.83 2.449,1469.38 3,1469.38L397.922,1469.38Z" style="fill:rgb(229,229,229);fill-rule:nonzero;"/>
        </g>
        <g transform="matrix(4.16667,0,0,4.16667,0,0)">
            <path d="M58.545,1495.61L60.261,1489.19L61.953,1495.61L63.813,1495.61L65.877,1487.02L64.137,1487.02L62.829,1493.02L61.317,1487.02L59.253,1487.02L57.693,1492.92L56.409,1487.02L54.621,1487.02L56.637,1495.61L58.545,1495.61Z" style="fill:rgb(51,51,51);fill-rule:nonzero;"/>
        </g>
        <g transform="matrix(4.16667,0,0,4.16667,0,0)">
            <path d="M67.949,1490.69C68.117,1490.57 68.345,1490.51 68.645,1490.51C69.077,1490.51 69.365,1490.58 69.521,1490.71C69.677,1490.85 69.761,1491.07 69.761,1491.4L69.761,1491.57C69.461,1491.69 68.933,1491.83 68.165,1491.97C67.589,1492.08 67.157,1492.2 66.857,1492.36C66.557,1492.5 66.317,1492.71 66.149,1492.98C65.981,1493.26 65.897,1493.57 65.897,1493.93C65.897,1494.46 66.077,1494.9 66.449,1495.25C66.821,1495.6 67.325,1495.77 67.961,1495.77C68.321,1495.77 68.657,1495.69 68.981,1495.56C69.305,1495.42 69.605,1495.21 69.881,1494.94C69.893,1494.97 69.917,1495.03 69.941,1495.13C70.001,1495.35 70.049,1495.5 70.097,1495.61L71.729,1495.61C71.585,1495.31 71.489,1495.03 71.441,1494.77C71.381,1494.52 71.357,1494.11 71.357,1493.57L71.381,1491.65C71.381,1490.93 71.309,1490.44 71.165,1490.17C71.009,1489.91 70.757,1489.68 70.397,1489.51C70.037,1489.33 69.497,1489.25 68.765,1489.25C67.949,1489.25 67.337,1489.39 66.929,1489.69C66.521,1489.98 66.233,1490.43 66.065,1491.04L67.553,1491.3C67.649,1491.01 67.793,1490.8 67.949,1490.69ZM69.761,1492.96C69.761,1493.35 69.737,1493.62 69.701,1493.76C69.629,1493.98 69.509,1494.16 69.305,1494.31C69.029,1494.51 68.753,1494.6 68.453,1494.6C68.189,1494.6 67.973,1494.52 67.793,1494.35C67.625,1494.18 67.541,1493.98 67.541,1493.75C67.541,1493.52 67.649,1493.33 67.865,1493.17C68.009,1493.08 68.297,1492.98 68.765,1492.89C69.221,1492.79 69.545,1492.71 69.761,1492.63L69.761,1492.96Z" style="fill:rgb(51,51,51);fill-rule:nonzero;"/>
        </g>
        <g transform="matrix(4.16667,0,0,4.16667,0,0)">
            <path d="M74.575,1493.69C74.575,1492.63 74.623,1491.94 74.707,1491.6C74.803,1491.28 74.935,1491.04 75.091,1490.92C75.247,1490.79 75.451,1490.73 75.679,1490.73C75.919,1490.73 76.171,1490.81 76.459,1490.99L76.963,1489.56C76.615,1489.36 76.255,1489.25 75.871,1489.25C75.607,1489.25 75.367,1489.31 75.163,1489.44C74.959,1489.57 74.719,1489.85 74.455,1490.27L74.455,1489.38L72.931,1489.38L72.931,1495.61L74.575,1495.61L74.575,1493.69Z" style="fill:rgb(51,51,51);fill-rule:nonzero;"/>
        </g>
        <g transform="matrix(4.16667,0,0,4.16667,0,0)">
            <path d="M83.337,1491.75C83.337,1491.27 83.301,1490.89 83.241,1490.64C83.181,1490.38 83.073,1490.15 82.917,1489.95C82.761,1489.74 82.533,1489.57 82.233,1489.44C81.933,1489.31 81.597,1489.25 81.237,1489.25C80.409,1489.25 79.713,1489.6 79.173,1490.29L79.173,1489.38L77.649,1489.38L77.649,1495.61L79.293,1495.61L79.293,1492.79C79.293,1492.09 79.341,1491.63 79.425,1491.36C79.509,1491.11 79.665,1490.91 79.893,1490.75C80.121,1490.59 80.373,1490.51 80.661,1490.51C80.889,1490.51 81.081,1490.57 81.237,1490.68C81.405,1490.79 81.513,1490.94 81.585,1491.13C81.657,1491.33 81.693,1491.77 81.693,1492.44L81.693,1495.61L83.337,1495.61L83.337,1491.75Z" style="fill:rgb(51,51,51);fill-rule:nonzero;"/>
        </g>
        <g transform="matrix(4.16667,0,0,4.16667,0,0)">
            <path d="M86.647,1488.54L86.647,1487.02L85.003,1487.02L85.003,1488.54L86.647,1488.54ZM86.647,1495.61L86.647,1489.38L85.003,1489.38L85.003,1495.61L86.647,1495.61Z" style="fill:rgb(51,51,51);fill-rule:nonzero;"/>
        </g>
        <g transform="matrix(4.16667,0,0,4.16667,0,0)">
            <path d="M94.001,1491.75C94.001,1491.27 93.965,1490.89 93.905,1490.64C93.845,1490.38 93.737,1490.15 93.581,1489.95C93.425,1489.74 93.197,1489.57 92.897,1489.44C92.597,1489.31 92.261,1489.25 91.901,1489.25C91.073,1489.25 90.377,1489.6 89.837,1490.29L89.837,1489.38L88.313,1489.38L88.313,1495.61L89.957,1495.61L89.957,1492.79C89.957,1492.09 90.005,1491.63 90.089,1491.36C90.173,1491.11 90.329,1490.91 90.557,1490.75C90.785,1490.59 91.037,1490.51 91.325,1490.51C91.553,1490.51 91.745,1490.57 91.901,1490.68C92.069,1490.79 92.177,1490.94 92.249,1491.13C92.321,1491.33 92.357,1491.77 92.357,1492.44L92.357,1495.61L94.001,1495.61L94.001,1491.75Z" style="fill:rgb(51,51,51);fill-rule:nonzero;"/>
        </g>
        <g transform="matrix(4.16667,0,0,4.16667,0,0)">
            <path d="M95.511,1496.21C95.511,1496.76 95.727,1497.22 96.171,1497.59C96.615,1497.95 97.359,1498.13 98.415,1498.13C98.967,1498.13 99.435,1498.07 99.795,1497.95C100.167,1497.84 100.455,1497.67 100.671,1497.47C100.899,1497.27 101.067,1496.98 101.187,1496.62C101.307,1496.25 101.367,1495.71 101.367,1494.96L101.367,1489.38L99.831,1489.38L99.831,1490.26C99.327,1489.59 98.691,1489.25 97.923,1489.25C97.179,1489.25 96.555,1489.53 96.051,1490.08C95.547,1490.63 95.295,1491.42 95.295,1492.47C95.295,1493.29 95.487,1493.99 95.871,1494.55C96.363,1495.26 97.023,1495.61 97.863,1495.61C98.607,1495.61 99.231,1495.27 99.735,1494.59L99.723,1495.5C99.723,1495.87 99.699,1496.13 99.651,1496.26C99.567,1496.45 99.459,1496.59 99.315,1496.68C99.099,1496.81 98.775,1496.87 98.355,1496.87C98.019,1496.87 97.767,1496.81 97.611,1496.69C97.503,1496.61 97.431,1496.45 97.395,1496.23L95.511,1496.01C95.511,1496.09 95.511,1496.15 95.511,1496.21ZM97.371,1490.97C97.623,1490.67 97.947,1490.51 98.343,1490.51C98.751,1490.51 99.087,1490.67 99.351,1490.98C99.615,1491.29 99.747,1491.77 99.747,1492.41C99.747,1493.03 99.603,1493.5 99.327,1493.81C99.051,1494.12 98.715,1494.28 98.319,1494.28C97.935,1494.28 97.623,1494.12 97.371,1493.82C97.119,1493.51 96.987,1493.03 96.987,1492.37C96.987,1491.75 97.119,1491.28 97.371,1490.97Z" style="fill:rgb(51,51,51);fill-rule:nonzero;"/>
        </g>
        <g transform="matrix(4.16667,0,0,4.16667,0,0)">
            <path d="M104.557,1493.4L104.977,1489.03L104.977,1487.02L103.201,1487.02L103.201,1489.03L103.633,1493.4L104.557,1493.4ZM104.917,1495.61L104.917,1493.97L103.273,1493.97L103.273,1495.61L104.917,1495.61Z" style="fill:rgb(51,51,51);fill-rule:nonzero;"/>
        </g>
        <g transform="matrix(4.16667,0,0,4.16667,0,0)">
            <path d="M114.908,1495.61L114.908,1494.69L111.036,1494.69L111.036,1487.73L109.991,1487.73L109.991,1495.61L114.908,1495.61Z" style="fill:rgb(110,110,111);fill-rule:nonzero;"/>
        </g>
        <g transform="matrix(4.16667,0,0,4.16667,0,0)">
            <path d="M116.404,1494.96C116.899,1495.48 117.548,1495.73 118.34,1495.73C118.846,1495.73 119.297,1495.61 119.726,1495.38C120.144,1495.15 120.463,1494.83 120.683,1494.4C120.903,1493.98 121.013,1493.41 121.013,1492.67C121.013,1491.77 120.76,1491.07 120.265,1490.55C119.77,1490.03 119.132,1489.78 118.34,1489.78C117.636,1489.78 117.042,1489.99 116.547,1490.42C115.964,1490.92 115.667,1491.7 115.667,1492.75C115.667,1493.72 115.909,1494.45 116.404,1494.96ZM117.141,1491.12C117.46,1490.76 117.856,1490.58 118.34,1490.58C118.824,1490.58 119.22,1490.76 119.539,1491.12C119.858,1491.49 120.023,1492.02 120.023,1492.73C120.023,1493.48 119.858,1494.03 119.539,1494.39C119.22,1494.75 118.824,1494.94 118.34,1494.94C117.856,1494.94 117.46,1494.76 117.141,1494.4C116.822,1494.04 116.657,1493.49 116.657,1492.76C116.657,1492.04 116.822,1491.49 117.141,1491.12Z" style="fill:rgb(110,110,111);fill-rule:nonzero;"/>
        </g>
        <g transform="matrix(4.16667,0,0,4.16667,0,0)">
            <path d="M123.103,1495.61L123.103,1492.63C123.103,1492.22 123.158,1491.85 123.268,1491.5C123.334,1491.28 123.455,1491.1 123.62,1490.97C123.785,1490.85 123.983,1490.78 124.192,1490.78C124.423,1490.78 124.654,1490.85 124.896,1490.98L125.237,1490.09C124.896,1489.88 124.566,1489.78 124.247,1489.78C124.016,1489.78 123.807,1489.85 123.62,1489.98C123.433,1490.1 123.224,1490.37 123.004,1490.77L123.004,1489.9L122.135,1489.9L122.135,1495.61L123.103,1495.61Z" style="fill:rgb(110,110,111);fill-rule:nonzero;"/>
        </g>
        <g transform="matrix(4.16667,0,0,4.16667,0,0)">
            <path d="M129.109,1494.65C128.856,1494.84 128.559,1494.94 128.207,1494.94C127.723,1494.94 127.327,1494.77 127.008,1494.44C126.689,1494.1 126.513,1493.63 126.48,1493L130.737,1493C130.737,1492.89 130.737,1492.81 130.737,1492.75C130.737,1491.8 130.495,1491.08 130.011,1490.56C129.527,1490.04 128.911,1489.78 128.152,1489.78C127.36,1489.78 126.722,1490.04 126.227,1490.57C125.732,1491.1 125.49,1491.85 125.49,1492.81C125.49,1493.73 125.732,1494.44 126.227,1494.96C126.711,1495.48 127.371,1495.73 128.207,1495.73C128.867,1495.73 129.406,1495.57 129.835,1495.25C130.253,1494.93 130.55,1494.48 130.704,1493.89L129.703,1493.76C129.56,1494.17 129.362,1494.47 129.109,1494.65ZM127.041,1491.02C127.338,1490.73 127.712,1490.57 128.152,1490.57C128.647,1490.57 129.043,1490.76 129.351,1491.13C129.549,1491.38 129.67,1491.73 129.714,1492.21L126.535,1492.21C126.568,1491.72 126.733,1491.32 127.041,1491.02Z" style="fill:rgb(110,110,111);fill-rule:nonzero;"/>
        </g>
        <g transform="matrix(4.16667,0,0,4.16667,0,0)">
            <path d="M132.893,1495.61L132.893,1492.65C132.893,1492.13 132.948,1491.74 133.047,1491.46C133.157,1491.19 133.322,1490.98 133.553,1490.84C133.784,1490.69 134.037,1490.62 134.301,1490.62C134.664,1490.62 134.917,1490.73 135.071,1490.93C135.236,1491.15 135.313,1491.47 135.313,1491.9L135.313,1495.61L136.281,1495.61L136.281,1492.3C136.281,1491.7 136.413,1491.29 136.677,1491.01C136.941,1490.75 137.282,1490.62 137.678,1490.62C137.909,1490.62 138.096,1490.67 138.261,1490.77C138.426,1490.88 138.547,1491.01 138.602,1491.18C138.668,1491.35 138.701,1491.63 138.701,1492.01L138.701,1495.61L139.669,1495.61L139.669,1491.69C139.669,1491.05 139.515,1490.56 139.207,1490.25C138.899,1489.93 138.47,1489.78 137.898,1489.78C137.172,1489.78 136.578,1490.11 136.127,1490.78C136.017,1490.46 135.83,1490.22 135.555,1490.04C135.291,1489.87 134.939,1489.78 134.521,1489.78C134.136,1489.78 133.806,1489.87 133.509,1490.03C133.212,1490.21 132.97,1490.43 132.794,1490.7L132.794,1489.9L131.925,1489.9L131.925,1495.61L132.893,1495.61Z" style="fill:rgb(110,110,111);fill-rule:nonzero;"/>
        </g>
        <g transform="matrix(4.16667,0,0,4.16667,0,0)">
            <path d="M145.114,1488.83L145.114,1487.73L144.146,1487.73L144.146,1488.83L145.114,1488.83ZM145.114,1495.61L145.114,1489.9L144.146,1489.9L144.146,1495.61L145.114,1495.61Z" style="fill:rgb(110,110,111);fill-rule:nonzero;"/>
        </g>
        <g transform="matrix(4.16667,0,0,4.16667,0,0)">
            <path d="M147.556,1497.8L147.556,1495.02C147.721,1495.23 147.93,1495.39 148.183,1495.53C148.447,1495.66 148.733,1495.73 149.052,1495.73C149.492,1495.73 149.91,1495.61 150.317,1495.36C150.713,1495.12 151.01,1494.75 151.219,1494.29C151.428,1493.82 151.538,1493.3 151.538,1492.72C151.538,1492.17 151.439,1491.67 151.252,1491.21C151.065,1490.76 150.779,1490.41 150.416,1490.15C150.042,1489.9 149.613,1489.78 149.118,1489.78C148.755,1489.78 148.436,1489.86 148.172,1490C147.908,1490.14 147.677,1490.36 147.468,1490.65L147.468,1489.9L146.588,1489.9L146.588,1497.8L147.556,1497.8ZM147.941,1491.11C148.26,1490.73 148.623,1490.54 149.03,1490.54C149.448,1490.54 149.8,1490.71 150.097,1491.08C150.394,1491.44 150.548,1491.98 150.548,1492.71C150.548,1493.48 150.394,1494.04 150.086,1494.4C149.789,1494.76 149.415,1494.94 148.986,1494.94C148.568,1494.94 148.205,1494.76 147.908,1494.41C147.611,1494.06 147.468,1493.52 147.468,1492.79C147.468,1492.06 147.622,1491.5 147.941,1491.11Z" style="fill:rgb(110,110,111);fill-rule:nonzero;"/>
        </g>
        <g transform="matrix(4.16667,0,0,4.16667,0,0)">
            <path d="M153.067,1495.27C153.452,1495.58 154.013,1495.73 154.761,1495.73C155.212,1495.73 155.608,1495.65 155.96,1495.5C156.323,1495.35 156.587,1495.13 156.774,1494.84C156.961,1494.55 157.06,1494.26 157.06,1493.93C157.06,1493.6 156.983,1493.32 156.829,1493.1C156.675,1492.88 156.455,1492.72 156.191,1492.6C155.916,1492.49 155.443,1492.33 154.761,1492.14C154.288,1492.02 154.002,1491.94 153.903,1491.9C153.738,1491.84 153.617,1491.75 153.54,1491.65C153.463,1491.54 153.419,1491.43 153.419,1491.31C153.419,1491.11 153.518,1490.93 153.705,1490.79C153.892,1490.65 154.211,1490.57 154.651,1490.57C155.025,1490.57 155.311,1490.66 155.52,1490.83C155.729,1490.99 155.85,1491.22 155.894,1491.52L156.84,1491.39C156.774,1491.01 156.664,1490.71 156.51,1490.5C156.345,1490.28 156.092,1490.1 155.762,1489.98C155.421,1489.85 155.025,1489.78 154.585,1489.78C154.288,1489.78 154.002,1489.81 153.749,1489.89C153.485,1489.97 153.287,1490.07 153.133,1490.18C152.935,1490.32 152.77,1490.5 152.66,1490.71C152.539,1490.93 152.484,1491.17 152.484,1491.42C152.484,1491.69 152.55,1491.96 152.693,1492.19C152.836,1492.41 153.045,1492.6 153.32,1492.73C153.595,1492.86 154.079,1493.01 154.794,1493.19C155.311,1493.32 155.641,1493.43 155.784,1493.52C155.971,1493.64 156.07,1493.82 156.07,1494.04C156.07,1494.28 155.96,1494.49 155.751,1494.66C155.531,1494.85 155.201,1494.94 154.761,1494.94C154.31,1494.94 153.969,1494.84 153.727,1494.63C153.485,1494.43 153.331,1494.14 153.276,1493.75L152.319,1493.9C152.429,1494.51 152.671,1494.96 153.067,1495.27Z" style="fill:rgb(110,110,111);fill-rule:nonzero;"/>
        </g>
        <g transform="matrix(4.16667,0,0,4.16667,0,0)">
            <path d="M162.802,1495.61L162.802,1489.9L161.834,1489.9L161.834,1492.95C161.834,1493.44 161.779,1493.81 161.68,1494.07C161.57,1494.32 161.394,1494.52 161.141,1494.67C160.888,1494.82 160.613,1494.89 160.327,1494.89C160.03,1494.89 159.788,1494.82 159.59,1494.67C159.403,1494.53 159.271,1494.33 159.205,1494.08C159.172,1493.9 159.15,1493.56 159.15,1493.06L159.15,1489.9L158.182,1489.9L158.182,1493.43C158.182,1493.85 158.204,1494.15 158.237,1494.33C158.303,1494.62 158.402,1494.86 158.534,1495.05C158.677,1495.25 158.897,1495.41 159.183,1495.53C159.48,1495.66 159.788,1495.73 160.129,1495.73C160.888,1495.73 161.493,1495.41 161.933,1494.76L161.933,1495.61L162.802,1495.61Z" style="fill:rgb(110,110,111);fill-rule:nonzero;"/>
        </g>
        <g transform="matrix(4.16667,0,0,4.16667,0,0)">
            <path d="M165.288,1495.61L165.288,1492.65C165.288,1492.13 165.343,1491.74 165.442,1491.46C165.552,1491.19 165.717,1490.98 165.948,1490.84C166.179,1490.69 166.432,1490.62 166.696,1490.62C167.059,1490.62 167.312,1490.73 167.466,1490.93C167.631,1491.15 167.708,1491.47 167.708,1491.9L167.708,1495.61L168.676,1495.61L168.676,1492.3C168.676,1491.7 168.808,1491.29 169.072,1491.01C169.336,1490.75 169.677,1490.62 170.073,1490.62C170.304,1490.62 170.491,1490.67 170.656,1490.77C170.821,1490.88 170.942,1491.01 170.997,1491.18C171.063,1491.35 171.096,1491.63 171.096,1492.01L171.096,1495.61L172.064,1495.61L172.064,1491.69C172.064,1491.05 171.91,1490.56 171.602,1490.25C171.294,1489.93 170.865,1489.78 170.293,1489.78C169.567,1489.78 168.973,1490.11 168.522,1490.78C168.412,1490.46 168.225,1490.22 167.95,1490.04C167.686,1489.87 167.334,1489.78 166.916,1489.78C166.531,1489.78 166.201,1489.87 165.904,1490.03C165.607,1490.21 165.365,1490.43 165.189,1490.7L165.189,1489.9L164.32,1489.9L164.32,1495.61L165.288,1495.61Z" style="fill:rgb(110,110,111);fill-rule:nonzero;"/>
        </g>
        <g transform="matrix(4.16667,0,0,4.16667,0,0)">
            <path d="M181.128,1495.61L181.128,1487.73L180.16,1487.73L180.16,1490.57C179.995,1490.33 179.775,1490.14 179.5,1490C179.236,1489.86 178.928,1489.78 178.587,1489.78C178.114,1489.78 177.696,1489.9 177.311,1490.15C176.937,1490.4 176.651,1490.75 176.464,1491.21C176.277,1491.67 176.178,1492.19 176.178,1492.76C176.178,1493.34 176.288,1493.86 176.497,1494.31C176.706,1494.75 176.992,1495.1 177.377,1495.36C177.762,1495.61 178.18,1495.73 178.631,1495.73C179.335,1495.73 179.863,1495.44 180.226,1494.88L180.226,1495.61L181.128,1495.61ZM177.597,1491.11C177.894,1490.76 178.246,1490.58 178.686,1490.58C179.126,1490.58 179.489,1490.77 179.797,1491.13C180.094,1491.5 180.248,1492.07 180.248,1492.85C180.248,1493.55 180.105,1494.08 179.808,1494.42C179.511,1494.76 179.148,1494.94 178.719,1494.94C178.301,1494.94 177.938,1494.76 177.63,1494.4C177.322,1494.04 177.168,1493.49 177.168,1492.76C177.168,1492.01 177.311,1491.46 177.597,1491.11Z" style="fill:rgb(110,110,111);fill-rule:nonzero;"/>
        </g>
        <g transform="matrix(4.16667,0,0,4.16667,0,0)">
            <path d="M183.031,1494.96C183.526,1495.48 184.175,1495.73 184.967,1495.73C185.473,1495.73 185.924,1495.61 186.353,1495.38C186.771,1495.15 187.09,1494.83 187.31,1494.4C187.53,1493.98 187.64,1493.41 187.64,1492.67C187.64,1491.77 187.387,1491.07 186.892,1490.55C186.397,1490.03 185.759,1489.78 184.967,1489.78C184.263,1489.78 183.669,1489.99 183.174,1490.42C182.591,1490.92 182.294,1491.7 182.294,1492.75C182.294,1493.72 182.536,1494.45 183.031,1494.96ZM183.768,1491.12C184.087,1490.76 184.483,1490.58 184.967,1490.58C185.451,1490.58 185.847,1490.76 186.166,1491.12C186.485,1491.49 186.65,1492.02 186.65,1492.73C186.65,1493.48 186.485,1494.03 186.166,1494.39C185.847,1494.75 185.451,1494.94 184.967,1494.94C184.483,1494.94 184.087,1494.76 183.768,1494.4C183.449,1494.04 183.284,1493.49 183.284,1492.76C183.284,1492.04 183.449,1491.49 183.768,1491.12Z" style="fill:rgb(110,110,111);fill-rule:nonzero;"/>
        </g>
        <g transform="matrix(4.16667,0,0,4.16667,0,0)">
            <rect x="188.751" y="1487.73" width="0.968" height="7.876" style="fill:rgb(110,110,111);fill-rule:nonzero;"/>
        </g>
        <g transform="matrix(4.16667,0,0,4.16667,0,0)">
            <path d="M191.589,1494.96C192.084,1495.48 192.733,1495.73 193.525,1495.73C194.031,1495.73 194.482,1495.61 194.911,1495.38C195.329,1495.15 195.648,1494.83 195.868,1494.4C196.088,1493.98 196.198,1493.41 196.198,1492.67C196.198,1491.77 195.945,1491.07 195.45,1490.55C194.955,1490.03 194.317,1489.78 193.525,1489.78C192.821,1489.78 192.227,1489.99 191.732,1490.42C191.149,1490.92 190.852,1491.7 190.852,1492.75C190.852,1493.72 191.094,1494.45 191.589,1494.96ZM192.326,1491.12C192.645,1490.76 193.041,1490.58 193.525,1490.58C194.009,1490.58 194.405,1490.76 194.724,1491.12C195.043,1491.49 195.208,1492.02 195.208,1492.73C195.208,1493.48 195.043,1494.03 194.724,1494.39C194.405,1494.75 194.009,1494.94 193.525,1494.94C193.041,1494.94 192.645,1494.76 192.326,1494.4C192.007,1494.04 191.842,1493.49 191.842,1492.76C191.842,1492.04 192.007,1491.49 192.326,1491.12Z" style="fill:rgb(110,110,111);fill-rule:nonzero;"/>
        </g>
        <g transform="matrix(4.16667,0,0,4.16667,0,0)">
            <path d="M198.288,1495.61L198.288,1492.63C198.288,1492.22 198.343,1491.85 198.453,1491.5C198.519,1491.28 198.64,1491.1 198.805,1490.97C198.97,1490.85 199.168,1490.78 199.377,1490.78C199.608,1490.78 199.839,1490.85 200.081,1490.98L200.422,1490.09C200.081,1489.88 199.751,1489.78 199.432,1489.78C199.201,1489.78 198.992,1489.85 198.805,1489.98C198.618,1490.1 198.409,1490.37 198.189,1490.77L198.189,1489.9L197.32,1489.9L197.32,1495.61L198.288,1495.61Z" style="fill:rgb(110,110,111);fill-rule:nonzero;"/>
        </g>
        <g transform="matrix(4.16667,0,0,4.16667,0,0)">
            <path d="M204.415,1495.27C204.8,1495.58 205.361,1495.73 206.109,1495.73C206.56,1495.73 206.956,1495.65 207.308,1495.5C207.671,1495.35 207.935,1495.13 208.122,1494.84C208.309,1494.55 208.408,1494.26 208.408,1493.93C208.408,1493.6 208.331,1493.32 208.177,1493.1C208.023,1492.88 207.803,1492.72 207.539,1492.6C207.264,1492.49 206.791,1492.33 206.109,1492.14C205.636,1492.02 205.35,1491.94 205.251,1491.9C205.086,1491.84 204.965,1491.75 204.888,1491.65C204.811,1491.54 204.767,1491.43 204.767,1491.31C204.767,1491.11 204.866,1490.93 205.053,1490.79C205.24,1490.65 205.559,1490.57 205.999,1490.57C206.373,1490.57 206.659,1490.66 206.868,1490.83C207.077,1490.99 207.198,1491.22 207.242,1491.52L208.188,1491.39C208.122,1491.01 208.012,1490.71 207.858,1490.5C207.693,1490.28 207.44,1490.1 207.11,1489.98C206.769,1489.85 206.373,1489.78 205.933,1489.78C205.636,1489.78 205.35,1489.81 205.097,1489.89C204.833,1489.97 204.635,1490.07 204.481,1490.18C204.283,1490.32 204.118,1490.5 204.008,1490.71C203.887,1490.93 203.832,1491.17 203.832,1491.42C203.832,1491.69 203.898,1491.96 204.041,1492.19C204.184,1492.41 204.393,1492.6 204.668,1492.73C204.943,1492.86 205.427,1493.01 206.142,1493.19C206.659,1493.32 206.989,1493.43 207.132,1493.52C207.319,1493.64 207.418,1493.82 207.418,1494.04C207.418,1494.28 207.308,1494.49 207.099,1494.66C206.879,1494.85 206.549,1494.94 206.109,1494.94C205.658,1494.94 205.317,1494.84 205.075,1494.63C204.833,1494.43 204.679,1494.14 204.624,1493.75L203.667,1493.9C203.777,1494.51 204.019,1494.96 204.415,1495.27Z" style="fill:rgb(110,110,111);fill-rule:nonzero;"/>
        </g>
        <g transform="matrix(4.16667,0,0,4.16667,0,0)">
            <path d="M210.52,1488.83L210.52,1487.73L209.552,1487.73L209.552,1488.83L210.52,1488.83ZM210.52,1495.61L210.52,1489.9L209.552,1489.9L209.552,1495.61L210.52,1495.61Z" style="fill:rgb(110,110,111);fill-rule:nonzero;"/>
        </g>
        <g transform="matrix(4.16667,0,0,4.16667,0,0)">
            <path d="M213.677,1494.79C213.534,1494.79 213.424,1494.76 213.347,1494.72C213.27,1494.66 213.215,1494.61 213.182,1494.52C213.149,1494.44 213.127,1494.27 213.127,1493.99L213.127,1490.65L214.095,1490.65L214.095,1489.9L213.127,1489.9L213.127,1487.91L212.159,1488.49L212.159,1489.9L211.444,1489.9L211.444,1490.65L212.159,1490.65L212.159,1493.94C212.159,1494.52 212.203,1494.89 212.28,1495.08C212.357,1495.26 212.489,1495.41 212.687,1495.52C212.874,1495.63 213.149,1495.69 213.501,1495.69C213.71,1495.69 213.952,1495.65 214.227,1495.6L214.095,1494.75C213.919,1494.77 213.776,1494.79 213.677,1494.79Z" style="fill:rgb(110,110,111);fill-rule:nonzero;"/>
        </g>
        <g transform="matrix(4.16667,0,0,4.16667,0,0)">
            <path d="M222.026,1495.61L223.038,1495.61C222.917,1495.39 222.84,1495.16 222.796,1494.92C222.763,1494.69 222.741,1494.11 222.741,1493.22L222.741,1491.94C222.741,1491.51 222.73,1491.21 222.697,1491.05C222.631,1490.78 222.532,1490.56 222.389,1490.38C222.246,1490.21 222.026,1490.07 221.718,1489.96C221.41,1489.84 221.014,1489.78 220.53,1489.78C220.035,1489.78 219.606,1489.85 219.232,1489.98C218.858,1490.12 218.572,1490.31 218.374,1490.56C218.176,1490.8 218.033,1491.13 217.945,1491.54L218.891,1491.67C218.99,1491.27 219.155,1490.98 219.375,1490.83C219.595,1490.66 219.925,1490.58 220.387,1490.58C220.871,1490.58 221.245,1490.69 221.487,1490.91C221.674,1491.07 221.762,1491.34 221.762,1491.74C221.762,1491.77 221.762,1491.86 221.762,1491.99C221.388,1492.12 220.816,1492.23 220.024,1492.32C219.65,1492.37 219.364,1492.42 219.166,1492.46C218.913,1492.54 218.682,1492.64 218.473,1492.78C218.264,1492.93 218.099,1493.11 217.967,1493.34C217.846,1493.56 217.78,1493.83 217.78,1494.1C217.78,1494.58 217.945,1494.97 218.286,1495.27C218.627,1495.58 219.111,1495.73 219.738,1495.73C220.112,1495.73 220.475,1495.66 220.805,1495.54C221.135,1495.41 221.476,1495.2 221.839,1494.89C221.872,1495.17 221.927,1495.4 222.026,1495.61ZM221.762,1493.1C221.762,1493.53 221.707,1493.85 221.597,1494.06C221.465,1494.35 221.256,1494.57 220.959,1494.73C220.673,1494.89 220.343,1494.97 219.969,1494.97C219.584,1494.97 219.298,1494.88 219.111,1494.72C218.913,1494.54 218.814,1494.33 218.814,1494.07C218.814,1493.9 218.858,1493.75 218.946,1493.62C219.034,1493.48 219.166,1493.38 219.331,1493.3C219.496,1493.23 219.782,1493.17 220.178,1493.11C220.882,1493.01 221.41,1492.89 221.762,1492.75L221.762,1493.1Z" style="fill:rgb(110,110,111);fill-rule:nonzero;"/>
        </g>
        <g transform="matrix(4.16667,0,0,4.16667,0,0)">
            <path d="M225.194,1495.61L225.194,1492.65C225.194,1492.13 225.249,1491.74 225.348,1491.46C225.458,1491.19 225.623,1490.98 225.854,1490.84C226.085,1490.69 226.338,1490.62 226.602,1490.62C226.965,1490.62 227.218,1490.73 227.372,1490.93C227.537,1491.15 227.614,1491.47 227.614,1491.9L227.614,1495.61L228.582,1495.61L228.582,1492.3C228.582,1491.7 228.714,1491.29 228.978,1491.01C229.242,1490.75 229.583,1490.62 229.979,1490.62C230.21,1490.62 230.397,1490.67 230.562,1490.77C230.727,1490.88 230.848,1491.01 230.903,1491.18C230.969,1491.35 231.002,1491.63 231.002,1492.01L231.002,1495.61L231.97,1495.61L231.97,1491.69C231.97,1491.05 231.816,1490.56 231.508,1490.25C231.2,1489.93 230.771,1489.78 230.199,1489.78C229.473,1489.78 228.879,1490.11 228.428,1490.78C228.318,1490.46 228.131,1490.22 227.856,1490.04C227.592,1489.87 227.24,1489.78 226.822,1489.78C226.437,1489.78 226.107,1489.87 225.81,1490.03C225.513,1490.21 225.271,1490.43 225.095,1490.7L225.095,1489.9L224.226,1489.9L224.226,1495.61L225.194,1495.61Z" style="fill:rgb(110,110,111);fill-rule:nonzero;"/>
        </g>
        <g transform="matrix(4.16667,0,0,4.16667,0,0)">
            <path d="M236.689,1494.65C236.436,1494.84 236.139,1494.94 235.787,1494.94C235.303,1494.94 234.907,1494.77 234.588,1494.44C234.269,1494.1 234.093,1493.63 234.06,1493L238.317,1493C238.317,1492.89 238.317,1492.81 238.317,1492.75C238.317,1491.8 238.075,1491.08 237.591,1490.56C237.107,1490.04 236.491,1489.78 235.732,1489.78C234.94,1489.78 234.302,1490.04 233.807,1490.57C233.312,1491.1 233.07,1491.85 233.07,1492.81C233.07,1493.73 233.312,1494.44 233.807,1494.96C234.291,1495.48 234.951,1495.73 235.787,1495.73C236.447,1495.73 236.986,1495.57 237.415,1495.25C237.833,1494.93 238.13,1494.48 238.284,1493.89L237.283,1493.76C237.14,1494.17 236.942,1494.47 236.689,1494.65ZM234.621,1491.02C234.918,1490.73 235.292,1490.57 235.732,1490.57C236.227,1490.57 236.623,1490.76 236.931,1491.13C237.129,1491.38 237.25,1491.73 237.294,1492.21L234.115,1492.21C234.148,1491.72 234.313,1491.32 234.621,1491.02Z" style="fill:rgb(110,110,111);fill-rule:nonzero;"/>
        </g>
        <g transform="matrix(4.16667,0,0,4.16667,0,0)">
            <path d="M241.188,1494.79C241.045,1494.79 240.935,1494.76 240.858,1494.72C240.781,1494.66 240.726,1494.61 240.693,1494.52C240.66,1494.44 240.638,1494.27 240.638,1493.99L240.638,1490.65L241.606,1490.65L241.606,1489.9L240.638,1489.9L240.638,1487.91L239.67,1488.49L239.67,1489.9L238.955,1489.9L238.955,1490.65L239.67,1490.65L239.67,1493.94C239.67,1494.52 239.714,1494.89 239.791,1495.08C239.868,1495.26 240,1495.41 240.198,1495.52C240.385,1495.63 240.66,1495.69 241.012,1495.69C241.221,1495.69 241.463,1495.65 241.738,1495.6L241.606,1494.75C241.43,1494.77 241.287,1494.79 241.188,1494.79Z" style="fill:rgb(110,110,111);fill-rule:nonzero;"/>
        </g>
        <g transform="matrix(4.16667,0,0,4.16667,0,0)">
            <path d="M243.366,1495.61C243.355,1495.94 243.3,1496.18 243.201,1496.36C243.102,1496.53 242.959,1496.67 242.75,1496.75L243.014,1497.17C243.322,1497.04 243.553,1496.84 243.696,1496.59C243.839,1496.35 243.916,1496.02 243.916,1495.61L243.916,1494.51L242.816,1494.51L242.816,1495.61L243.366,1495.61Z" style="fill:rgb(110,110,111);fill-rule:nonzero;"/>
        </g>
        <g transform="matrix(4.16667,0,0,4.16667,0,0)">
            <path d="M251.924,1494.59C251.671,1494.82 251.352,1494.94 250.978,1494.94C250.505,1494.94 250.12,1494.76 249.823,1494.42C249.526,1494.07 249.383,1493.52 249.383,1492.75C249.383,1491.99 249.537,1491.44 249.845,1491.1C250.142,1490.75 250.538,1490.57 251.033,1490.57C251.352,1490.57 251.627,1490.67 251.858,1490.86C252.078,1491.06 252.243,1491.34 252.331,1491.73L253.266,1491.58C253.156,1491.01 252.903,1490.56 252.507,1490.25C252.111,1489.93 251.605,1489.78 250.989,1489.78C250.505,1489.78 250.043,1489.89 249.625,1490.12C249.218,1490.35 248.899,1490.7 248.701,1491.17C248.492,1491.63 248.393,1492.17 248.393,1492.77C248.393,1493.73 248.635,1494.45 249.108,1494.97C249.581,1495.48 250.208,1495.73 250.989,1495.73C251.605,1495.73 252.133,1495.54 252.562,1495.18C252.98,1494.81 253.255,1494.3 253.354,1493.65L252.408,1493.52C252.342,1494 252.177,1494.36 251.924,1494.59Z" style="fill:rgb(110,110,111);fill-rule:nonzero;"/>
        </g>
        <g transform="matrix(4.16667,0,0,4.16667,0,0)">
            <path d="M254.553,1494.96C255.048,1495.48 255.697,1495.73 256.489,1495.73C256.995,1495.73 257.446,1495.61 257.875,1495.38C258.293,1495.15 258.612,1494.83 258.832,1494.4C259.052,1493.98 259.162,1493.41 259.162,1492.67C259.162,1491.77 258.909,1491.07 258.414,1490.55C257.919,1490.03 257.281,1489.78 256.489,1489.78C255.785,1489.78 255.191,1489.99 254.696,1490.42C254.113,1490.92 253.816,1491.7 253.816,1492.75C253.816,1493.72 254.058,1494.45 254.553,1494.96ZM255.29,1491.12C255.609,1490.76 256.005,1490.58 256.489,1490.58C256.973,1490.58 257.369,1490.76 257.688,1491.12C258.007,1491.49 258.172,1492.02 258.172,1492.73C258.172,1493.48 258.007,1494.03 257.688,1494.39C257.369,1494.75 256.973,1494.94 256.489,1494.94C256.005,1494.94 255.609,1494.76 255.29,1494.4C254.971,1494.04 254.806,1493.49 254.806,1492.76C254.806,1492.04 254.971,1491.49 255.29,1491.12Z" style="fill:rgb(110,110,111);fill-rule:nonzero;"/>
        </g>
        <g transform="matrix(4.16667,0,0,4.16667,0,0)">
            <path d="M261.263,1495.61L261.263,1492.5C261.263,1491.76 261.417,1491.27 261.714,1491.01C262.011,1490.75 262.363,1490.62 262.77,1490.62C263.034,1490.62 263.254,1490.67 263.441,1490.79C263.639,1490.9 263.771,1491.07 263.848,1491.25C263.925,1491.45 263.958,1491.75 263.958,1492.14L263.958,1495.61L264.926,1495.61L264.926,1492.1C264.926,1491.66 264.904,1491.34 264.871,1491.17C264.816,1490.89 264.717,1490.65 264.574,1490.45C264.431,1490.25 264.211,1490.09 263.925,1489.97C263.639,1489.85 263.32,1489.78 262.979,1489.78C262.187,1489.78 261.582,1490.09 261.164,1490.71L261.164,1489.9L260.295,1489.9L260.295,1495.61L261.263,1495.61Z" style="fill:rgb(110,110,111);fill-rule:nonzero;"/>
        </g>
        <g transform="matrix(4.16667,0,0,4.16667,0,0)">
            <path d="M266.774,1495.27C267.159,1495.58 267.72,1495.73 268.468,1495.73C268.919,1495.73 269.315,1495.65 269.667,1495.5C270.03,1495.35 270.294,1495.13 270.481,1494.84C270.668,1494.55 270.767,1494.26 270.767,1493.93C270.767,1493.6 270.69,1493.32 270.536,1493.1C270.382,1492.88 270.162,1492.72 269.898,1492.6C269.623,1492.49 269.15,1492.33 268.468,1492.14C267.995,1492.02 267.709,1491.94 267.61,1491.9C267.445,1491.84 267.324,1491.75 267.247,1491.65C267.17,1491.54 267.126,1491.43 267.126,1491.31C267.126,1491.11 267.225,1490.93 267.412,1490.79C267.599,1490.65 267.918,1490.57 268.358,1490.57C268.732,1490.57 269.018,1490.66 269.227,1490.83C269.436,1490.99 269.557,1491.22 269.601,1491.52L270.547,1491.39C270.481,1491.01 270.371,1490.71 270.217,1490.5C270.052,1490.28 269.799,1490.1 269.469,1489.98C269.128,1489.85 268.732,1489.78 268.292,1489.78C267.995,1489.78 267.709,1489.81 267.456,1489.89C267.192,1489.97 266.994,1490.07 266.84,1490.18C266.642,1490.32 266.477,1490.5 266.367,1490.71C266.246,1490.93 266.191,1491.17 266.191,1491.42C266.191,1491.69 266.257,1491.96 266.4,1492.19C266.543,1492.41 266.752,1492.6 267.027,1492.73C267.302,1492.86 267.786,1493.01 268.501,1493.19C269.018,1493.32 269.348,1493.43 269.491,1493.52C269.678,1493.64 269.777,1493.82 269.777,1494.04C269.777,1494.28 269.667,1494.49 269.458,1494.66C269.238,1494.85 268.908,1494.94 268.468,1494.94C268.017,1494.94 267.676,1494.84 267.434,1494.63C267.192,1494.43 267.038,1494.14 266.983,1493.75L266.026,1493.9C266.136,1494.51 266.378,1494.96 266.774,1495.27Z" style="fill:rgb(110,110,111);fill-rule:nonzero;"/>
        </g>
        <g transform="matrix(4.16667,0,0,4.16667,0,0)">
            <path d="M275.211,1494.65C274.958,1494.84 274.661,1494.94 274.309,1494.94C273.825,1494.94 273.429,1494.77 273.11,1494.44C272.791,1494.1 272.615,1493.63 272.582,1493L276.839,1493C276.839,1492.89 276.839,1492.81 276.839,1492.75C276.839,1491.8 276.597,1491.08 276.113,1490.56C275.629,1490.04 275.013,1489.78 274.254,1489.78C273.462,1489.78 272.824,1490.04 272.329,1490.57C271.834,1491.1 271.592,1491.85 271.592,1492.81C271.592,1493.73 271.834,1494.44 272.329,1494.96C272.813,1495.48 273.473,1495.73 274.309,1495.73C274.969,1495.73 275.508,1495.57 275.937,1495.25C276.355,1494.93 276.652,1494.48 276.806,1493.89L275.805,1493.76C275.662,1494.17 275.464,1494.47 275.211,1494.65ZM273.143,1491.02C273.44,1490.73 273.814,1490.57 274.254,1490.57C274.749,1490.57 275.145,1490.76 275.453,1491.13C275.651,1491.38 275.772,1491.73 275.816,1492.21L272.637,1492.21C272.67,1491.72 272.835,1491.32 273.143,1491.02Z" style="fill:rgb(110,110,111);fill-rule:nonzero;"/>
        </g>
        <g transform="matrix(4.16667,0,0,4.16667,0,0)">
            <path d="M281.272,1494.59C281.019,1494.82 280.7,1494.94 280.326,1494.94C279.853,1494.94 279.468,1494.76 279.171,1494.42C278.874,1494.07 278.731,1493.52 278.731,1492.75C278.731,1491.99 278.885,1491.44 279.193,1491.1C279.49,1490.75 279.886,1490.57 280.381,1490.57C280.7,1490.57 280.975,1490.67 281.206,1490.86C281.426,1491.06 281.591,1491.34 281.679,1491.73L282.614,1491.58C282.504,1491.01 282.251,1490.56 281.855,1490.25C281.459,1489.93 280.953,1489.78 280.337,1489.78C279.853,1489.78 279.391,1489.89 278.973,1490.12C278.566,1490.35 278.247,1490.7 278.049,1491.17C277.84,1491.63 277.741,1492.17 277.741,1492.77C277.741,1493.73 277.983,1494.45 278.456,1494.97C278.929,1495.48 279.556,1495.73 280.337,1495.73C280.953,1495.73 281.481,1495.54 281.91,1495.18C282.328,1494.81 282.603,1494.3 282.702,1493.65L281.756,1493.52C281.69,1494 281.525,1494.36 281.272,1494.59Z" style="fill:rgb(110,110,111);fill-rule:nonzero;"/>
        </g>
        <g transform="matrix(4.16667,0,0,4.16667,0,0)">
            <path d="M285.21,1494.79C285.067,1494.79 284.957,1494.76 284.88,1494.72C284.803,1494.66 284.748,1494.61 284.715,1494.52C284.682,1494.44 284.66,1494.27 284.66,1493.99L284.66,1490.65L285.628,1490.65L285.628,1489.9L284.66,1489.9L284.66,1487.91L283.692,1488.49L283.692,1489.9L282.977,1489.9L282.977,1490.65L283.692,1490.65L283.692,1493.94C283.692,1494.52 283.736,1494.89 283.813,1495.08C283.89,1495.26 284.022,1495.41 284.22,1495.52C284.407,1495.63 284.682,1495.69 285.034,1495.69C285.243,1495.69 285.485,1495.65 285.76,1495.6L285.628,1494.75C285.452,1494.77 285.309,1494.79 285.21,1494.79Z" style="fill:rgb(110,110,111);fill-rule:nonzero;"/>
        </g>
        <g transform="matrix(4.16667,0,0,4.16667,0,0)">
            <path d="M289.885,1494.65C289.632,1494.84 289.335,1494.94 288.983,1494.94C288.499,1494.94 288.103,1494.77 287.784,1494.44C287.465,1494.1 287.289,1493.63 287.256,1493L291.513,1493C291.513,1492.89 291.513,1492.81 291.513,1492.75C291.513,1491.8 291.271,1491.08 290.787,1490.56C290.303,1490.04 289.687,1489.78 288.928,1489.78C288.136,1489.78 287.498,1490.04 287.003,1490.57C286.508,1491.1 286.266,1491.85 286.266,1492.81C286.266,1493.73 286.508,1494.44 287.003,1494.96C287.487,1495.48 288.147,1495.73 288.983,1495.73C289.643,1495.73 290.182,1495.57 290.611,1495.25C291.029,1494.93 291.326,1494.48 291.48,1493.89L290.479,1493.76C290.336,1494.17 290.138,1494.47 289.885,1494.65ZM287.817,1491.02C288.114,1490.73 288.488,1490.57 288.928,1490.57C289.423,1490.57 289.819,1490.76 290.127,1491.13C290.325,1491.38 290.446,1491.73 290.49,1492.21L287.311,1492.21C287.344,1491.72 287.509,1491.32 287.817,1491.02Z" style="fill:rgb(110,110,111);fill-rule:nonzero;"/>
        </g>
        <g transform="matrix(4.16667,0,0,4.16667,0,0)">
            <path d="M294.384,1494.79C294.241,1494.79 294.131,1494.76 294.054,1494.72C293.977,1494.66 293.922,1494.61 293.889,1494.52C293.856,1494.44 293.834,1494.27 293.834,1493.99L293.834,1490.65L294.802,1490.65L294.802,1489.9L293.834,1489.9L293.834,1487.91L292.866,1488.49L292.866,1489.9L292.151,1489.9L292.151,1490.65L292.866,1490.65L292.866,1493.94C292.866,1494.52 292.91,1494.89 292.987,1495.08C293.064,1495.26 293.196,1495.41 293.394,1495.52C293.581,1495.63 293.856,1495.69 294.208,1495.69C294.417,1495.69 294.659,1495.65 294.934,1495.6L294.802,1494.75C294.626,1494.77 294.483,1494.79 294.384,1494.79Z" style="fill:rgb(110,110,111);fill-rule:nonzero;"/>
        </g>
        <g transform="matrix(4.16667,0,0,4.16667,0,0)">
            <path d="M300.357,1495.61L300.357,1489.9L299.389,1489.9L299.389,1492.95C299.389,1493.44 299.334,1493.81 299.235,1494.07C299.125,1494.32 298.949,1494.52 298.696,1494.67C298.443,1494.82 298.168,1494.89 297.882,1494.89C297.585,1494.89 297.343,1494.82 297.145,1494.67C296.958,1494.53 296.826,1494.33 296.76,1494.08C296.727,1493.9 296.705,1493.56 296.705,1493.06L296.705,1489.9L295.737,1489.9L295.737,1493.43C295.737,1493.85 295.759,1494.15 295.792,1494.33C295.858,1494.62 295.957,1494.86 296.089,1495.05C296.232,1495.25 296.452,1495.41 296.738,1495.53C297.035,1495.66 297.343,1495.73 297.684,1495.73C298.443,1495.73 299.048,1495.41 299.488,1494.76L299.488,1495.61L300.357,1495.61Z" style="fill:rgb(110,110,111);fill-rule:nonzero;"/>
        </g>
        <g transform="matrix(4.16667,0,0,4.16667,0,0)">
            <path d="M302.832,1495.61L302.832,1492.63C302.832,1492.22 302.887,1491.85 302.997,1491.5C303.063,1491.28 303.184,1491.1 303.349,1490.97C303.514,1490.85 303.712,1490.78 303.921,1490.78C304.152,1490.78 304.383,1490.85 304.625,1490.98L304.966,1490.09C304.625,1489.88 304.295,1489.78 303.976,1489.78C303.745,1489.78 303.536,1489.85 303.349,1489.98C303.162,1490.1 302.953,1490.37 302.733,1490.77L302.733,1489.9L301.864,1489.9L301.864,1495.61L302.832,1495.61Z" style="fill:rgb(110,110,111);fill-rule:nonzero;"/>
        </g>
        <g transform="matrix(4.16667,0,0,4.16667,0,0)">
            <path d="M312.512,1495.61L313.524,1495.61C313.403,1495.39 313.326,1495.16 313.282,1494.92C313.249,1494.69 313.227,1494.11 313.227,1493.22L313.227,1491.94C313.227,1491.51 313.216,1491.21 313.183,1491.05C313.117,1490.78 313.018,1490.56 312.875,1490.38C312.732,1490.21 312.512,1490.07 312.204,1489.96C311.896,1489.84 311.5,1489.78 311.016,1489.78C310.521,1489.78 310.092,1489.85 309.718,1489.98C309.344,1490.12 309.058,1490.31 308.86,1490.56C308.662,1490.8 308.519,1491.13 308.431,1491.54L309.377,1491.67C309.476,1491.27 309.641,1490.98 309.861,1490.83C310.081,1490.66 310.411,1490.58 310.873,1490.58C311.357,1490.58 311.731,1490.69 311.973,1490.91C312.16,1491.07 312.248,1491.34 312.248,1491.74C312.248,1491.77 312.248,1491.86 312.248,1491.99C311.874,1492.12 311.302,1492.23 310.51,1492.32C310.136,1492.37 309.85,1492.42 309.652,1492.46C309.399,1492.54 309.168,1492.64 308.959,1492.78C308.75,1492.93 308.585,1493.11 308.453,1493.34C308.332,1493.56 308.266,1493.83 308.266,1494.1C308.266,1494.58 308.431,1494.97 308.772,1495.27C309.113,1495.58 309.597,1495.73 310.224,1495.73C310.598,1495.73 310.961,1495.66 311.291,1495.54C311.621,1495.41 311.962,1495.2 312.325,1494.89C312.358,1495.17 312.413,1495.4 312.512,1495.61ZM312.248,1493.1C312.248,1493.53 312.193,1493.85 312.083,1494.06C311.951,1494.35 311.742,1494.57 311.445,1494.73C311.159,1494.89 310.829,1494.97 310.455,1494.97C310.07,1494.97 309.784,1494.88 309.597,1494.72C309.399,1494.54 309.3,1494.33 309.3,1494.07C309.3,1493.9 309.344,1493.75 309.432,1493.62C309.52,1493.48 309.652,1493.38 309.817,1493.3C309.982,1493.23 310.268,1493.17 310.664,1493.11C311.368,1493.01 311.896,1492.89 312.248,1492.75L312.248,1493.1Z" style="fill:rgb(110,110,111);fill-rule:nonzero;"/>
        </g>
        <g transform="matrix(4.16667,0,0,4.16667,0,0)">
            <path d="M319.299,1495.61L319.299,1487.73L318.331,1487.73L318.331,1490.57C318.166,1490.33 317.946,1490.14 317.671,1490C317.407,1489.86 317.099,1489.78 316.758,1489.78C316.285,1489.78 315.867,1489.9 315.482,1490.15C315.108,1490.4 314.822,1490.75 314.635,1491.21C314.448,1491.67 314.349,1492.19 314.349,1492.76C314.349,1493.34 314.459,1493.86 314.668,1494.31C314.877,1494.75 315.163,1495.1 315.548,1495.36C315.933,1495.61 316.351,1495.73 316.802,1495.73C317.506,1495.73 318.034,1495.44 318.397,1494.88L318.397,1495.61L319.299,1495.61ZM315.768,1491.11C316.065,1490.76 316.417,1490.58 316.857,1490.58C317.297,1490.58 317.66,1490.77 317.968,1491.13C318.265,1491.5 318.419,1492.07 318.419,1492.85C318.419,1493.55 318.276,1494.08 317.979,1494.42C317.682,1494.76 317.319,1494.94 316.89,1494.94C316.472,1494.94 316.109,1494.76 315.801,1494.4C315.493,1494.04 315.339,1493.49 315.339,1492.76C315.339,1492.01 315.482,1491.46 315.768,1491.11Z" style="fill:rgb(110,110,111);fill-rule:nonzero;"/>
        </g>
        <g transform="matrix(4.16667,0,0,4.16667,0,0)">
            <path d="M321.796,1488.83L321.796,1487.73L320.828,1487.73L320.828,1488.83L321.796,1488.83ZM321.796,1495.61L321.796,1489.9L320.828,1489.9L320.828,1495.61L321.796,1495.61Z" style="fill:rgb(110,110,111);fill-rule:nonzero;"/>
        </g>
        <g transform="matrix(4.16667,0,0,4.16667,0,0)">
            <path d="M324.238,1497.8L324.238,1495.02C324.403,1495.23 324.612,1495.39 324.865,1495.53C325.129,1495.66 325.415,1495.73 325.734,1495.73C326.174,1495.73 326.592,1495.61 326.999,1495.36C327.395,1495.12 327.692,1494.75 327.901,1494.29C328.11,1493.82 328.22,1493.3 328.22,1492.72C328.22,1492.17 328.121,1491.67 327.934,1491.21C327.747,1490.76 327.461,1490.41 327.098,1490.15C326.724,1489.9 326.295,1489.78 325.8,1489.78C325.437,1489.78 325.118,1489.86 324.854,1490C324.59,1490.14 324.359,1490.36 324.15,1490.65L324.15,1489.9L323.27,1489.9L323.27,1497.8L324.238,1497.8ZM324.623,1491.11C324.942,1490.73 325.305,1490.54 325.712,1490.54C326.13,1490.54 326.482,1490.71 326.779,1491.08C327.076,1491.44 327.23,1491.98 327.23,1492.71C327.23,1493.48 327.076,1494.04 326.768,1494.4C326.471,1494.76 326.097,1494.94 325.668,1494.94C325.25,1494.94 324.887,1494.76 324.59,1494.41C324.293,1494.06 324.15,1493.52 324.15,1492.79C324.15,1492.06 324.304,1491.5 324.623,1491.11Z" style="fill:rgb(110,110,111);fill-rule:nonzero;"/>
        </g>
        <g transform="matrix(4.16667,0,0,4.16667,0,0)">
            <path d="M330.354,1488.83L330.354,1487.73L329.386,1487.73L329.386,1488.83L330.354,1488.83ZM330.354,1495.61L330.354,1489.9L329.386,1489.9L329.386,1495.61L330.354,1495.61Z" style="fill:rgb(110,110,111);fill-rule:nonzero;"/>
        </g>
        <g transform="matrix(4.16667,0,0,4.16667,0,0)">
            <path d="M332.191,1495.27C332.576,1495.58 333.137,1495.73 333.885,1495.73C334.336,1495.73 334.732,1495.65 335.084,1495.5C335.447,1495.35 335.711,1495.13 335.898,1494.84C336.085,1494.55 336.184,1494.26 336.184,1493.93C336.184,1493.6 336.107,1493.32 335.953,1493.1C335.799,1492.88 335.579,1492.72 335.315,1492.6C335.04,1492.49 334.567,1492.33 333.885,1492.14C333.412,1492.02 333.126,1491.94 333.027,1491.9C332.862,1491.84 332.741,1491.75 332.664,1491.65C332.587,1491.54 332.543,1491.43 332.543,1491.31C332.543,1491.11 332.642,1490.93 332.829,1490.79C333.016,1490.65 333.335,1490.57 333.775,1490.57C334.149,1490.57 334.435,1490.66 334.644,1490.83C334.853,1490.99 334.974,1491.22 335.018,1491.52L335.964,1491.39C335.898,1491.01 335.788,1490.71 335.634,1490.5C335.469,1490.28 335.216,1490.1 334.886,1489.98C334.545,1489.85 334.149,1489.78 333.709,1489.78C333.412,1489.78 333.126,1489.81 332.873,1489.89C332.609,1489.97 332.411,1490.07 332.257,1490.18C332.059,1490.32 331.894,1490.5 331.784,1490.71C331.663,1490.93 331.608,1491.17 331.608,1491.42C331.608,1491.69 331.674,1491.96 331.817,1492.19C331.96,1492.41 332.169,1492.6 332.444,1492.73C332.719,1492.86 333.203,1493.01 333.918,1493.19C334.435,1493.32 334.765,1493.43 334.908,1493.52C335.095,1493.64 335.194,1493.82 335.194,1494.04C335.194,1494.28 335.084,1494.49 334.875,1494.66C334.655,1494.85 334.325,1494.94 333.885,1494.94C333.434,1494.94 333.093,1494.84 332.851,1494.63C332.609,1494.43 332.455,1494.14 332.4,1493.75L331.443,1493.9C331.553,1494.51 331.795,1494.96 332.191,1495.27Z" style="fill:rgb(110,110,111);fill-rule:nonzero;"/>
        </g>
        <g transform="matrix(4.16667,0,0,4.16667,0,0)">
            <path d="M338.296,1488.83L338.296,1487.73L337.328,1487.73L337.328,1488.83L338.296,1488.83ZM338.296,1495.61L338.296,1489.9L337.328,1489.9L337.328,1495.61L338.296,1495.61Z" style="fill:rgb(110,110,111);fill-rule:nonzero;"/>
        </g>
        <g transform="matrix(4.16667,0,0,4.16667,0,0)">
            <path d="M343.015,1494.59C342.762,1494.82 342.443,1494.94 342.069,1494.94C341.596,1494.94 341.211,1494.76 340.914,1494.42C340.617,1494.07 340.474,1493.52 340.474,1492.75C340.474,1491.99 340.628,1491.44 340.936,1491.1C341.233,1490.75 341.629,1490.57 342.124,1490.57C342.443,1490.57 342.718,1490.67 342.949,1490.86C343.169,1491.06 343.334,1491.34 343.422,1491.73L344.357,1491.58C344.247,1491.01 343.994,1490.56 343.598,1490.25C343.202,1489.93 342.696,1489.78 342.08,1489.78C341.596,1489.78 341.134,1489.89 340.716,1490.12C340.309,1490.35 339.99,1490.7 339.792,1491.17C339.583,1491.63 339.484,1492.17 339.484,1492.77C339.484,1493.73 339.726,1494.45 340.199,1494.97C340.672,1495.48 341.299,1495.73 342.08,1495.73C342.696,1495.73 343.224,1495.54 343.653,1495.18C344.071,1494.81 344.346,1494.3 344.445,1493.65L343.499,1493.52C343.433,1494 343.268,1494.36 343.015,1494.59Z" style="fill:rgb(110,110,111);fill-rule:nonzero;"/>
        </g>
        <g transform="matrix(4.16667,0,0,4.16667,0,0)">
            <path d="M346.238,1488.83L346.238,1487.73L345.27,1487.73L345.27,1488.83L346.238,1488.83ZM346.238,1495.61L346.238,1489.9L345.27,1489.9L345.27,1495.61L346.238,1495.61Z" style="fill:rgb(110,110,111);fill-rule:nonzero;"/>
        </g>
        <g transform="matrix(4.16667,0,0,4.16667,0,0)">
            <path d="M348.68,1495.61L348.68,1492.5C348.68,1491.76 348.834,1491.27 349.131,1491.01C349.428,1490.75 349.78,1490.62 350.187,1490.62C350.451,1490.62 350.671,1490.67 350.858,1490.79C351.056,1490.9 351.188,1491.07 351.265,1491.25C351.342,1491.45 351.375,1491.75 351.375,1492.14L351.375,1495.61L352.343,1495.61L352.343,1492.1C352.343,1491.66 352.321,1491.34 352.288,1491.17C352.233,1490.89 352.134,1490.65 351.991,1490.45C351.848,1490.25 351.628,1490.09 351.342,1489.97C351.056,1489.85 350.737,1489.78 350.396,1489.78C349.604,1489.78 348.999,1490.09 348.581,1490.71L348.581,1489.9L347.712,1489.9L347.712,1495.61L348.68,1495.61Z" style="fill:rgb(110,110,111);fill-rule:nonzero;"/>
        </g>
        <g transform="matrix(4.16667,0,0,4.16667,0,0)">
            <path d="M354.257,1497.46C354.675,1497.77 355.225,1497.92 355.907,1497.92C356.479,1497.92 356.963,1497.81 357.348,1497.6C357.744,1497.38 358.03,1497.1 358.206,1496.72C358.393,1496.35 358.481,1495.72 358.481,1494.83L358.481,1489.9L357.59,1489.9L357.59,1490.61C357.15,1490.06 356.6,1489.78 355.918,1489.78C355.423,1489.78 354.983,1489.9 354.609,1490.15C354.235,1490.41 353.949,1490.76 353.751,1491.22C353.553,1491.68 353.454,1492.18 353.454,1492.73C353.454,1493.52 353.663,1494.19 354.092,1494.76C354.532,1495.32 355.137,1495.61 355.918,1495.61C356.545,1495.61 357.073,1495.36 357.502,1494.86C357.502,1495.49 357.48,1495.91 357.425,1496.09C357.348,1496.42 357.183,1496.67 356.93,1496.85C356.688,1497.03 356.347,1497.12 355.896,1497.12C355.478,1497.12 355.148,1497.03 354.917,1496.85C354.73,1496.72 354.62,1496.5 354.587,1496.21L353.652,1496.08C353.641,1496.7 353.839,1497.16 354.257,1497.46ZM354.895,1491.11C355.192,1490.76 355.555,1490.58 355.995,1490.58C356.424,1490.58 356.798,1490.76 357.117,1491.11C357.425,1491.46 357.579,1491.99 357.579,1492.69C357.579,1493.42 357.425,1493.95 357.128,1494.29C356.82,1494.63 356.446,1494.81 356.006,1494.81C355.555,1494.81 355.181,1494.63 354.884,1494.29C354.587,1493.95 354.444,1493.4 354.444,1492.66C354.444,1491.97 354.598,1491.45 354.895,1491.11Z" style="fill:rgb(110,110,111);fill-rule:nonzero;"/>
        </g>
        <g transform="matrix(4.16667,0,0,4.16667,0,0)">
            <path d="M366.302,1494.65C366.049,1494.84 365.752,1494.94 365.4,1494.94C364.916,1494.94 364.52,1494.77 364.201,1494.44C363.882,1494.1 363.706,1493.63 363.673,1493L367.93,1493C367.93,1492.89 367.93,1492.81 367.93,1492.75C367.93,1491.8 367.688,1491.08 367.204,1490.56C366.72,1490.04 366.104,1489.78 365.345,1489.78C364.553,1489.78 363.915,1490.04 363.42,1490.57C362.925,1491.1 362.683,1491.85 362.683,1492.81C362.683,1493.73 362.925,1494.44 363.42,1494.96C363.904,1495.48 364.564,1495.73 365.4,1495.73C366.06,1495.73 366.599,1495.57 367.028,1495.25C367.446,1494.93 367.743,1494.48 367.897,1493.89L366.896,1493.76C366.753,1494.17 366.555,1494.47 366.302,1494.65ZM364.234,1491.02C364.531,1490.73 364.905,1490.57 365.345,1490.57C365.84,1490.57 366.236,1490.76 366.544,1491.13C366.742,1491.38 366.863,1491.73 366.907,1492.21L363.728,1492.21C363.761,1491.72 363.926,1491.32 364.234,1491.02Z" style="fill:rgb(110,110,111);fill-rule:nonzero;"/>
        </g>
        <g transform="matrix(4.16667,0,0,4.16667,0,0)">
            <rect x="369.096" y="1487.73" width="0.968" height="7.876" style="fill:rgb(110,110,111);fill-rule:nonzero;"/>
        </g>
        <g transform="matrix(4.16667,0,0,4.16667,0,0)">
            <path d="M372.528,1488.83L372.528,1487.73L371.56,1487.73L371.56,1488.83L372.528,1488.83ZM372.528,1495.61L372.528,1489.9L371.56,1489.9L371.56,1495.61L372.528,1495.61Z" style="fill:rgb(110,110,111);fill-rule:nonzero;"/>
        </g>
        <g transform="matrix(4.16667,0,0,4.16667,0,0)">
            <path d="M375.685,1494.79C375.542,1494.79 375.432,1494.76 375.355,1494.72C375.278,1494.66 375.223,1494.61 375.19,1494.52C375.157,1494.44 375.135,1494.27 375.135,1493.99L375.135,1490.65L376.103,1490.65L376.103,1489.9L375.135,1489.9L375.135,1487.91L374.167,1488.49L374.167,1489.9L373.452,1489.9L373.452,1490.65L374.167,1490.65L374.167,1493.94C374.167,1494.52 374.211,1494.89 374.288,1495.08C374.365,1495.26 374.497,1495.41 374.695,1495.52C374.882,1495.63 375.157,1495.69 375.509,1495.69C375.718,1495.69 375.96,1495.65 376.235,1495.6L376.103,1494.75C375.927,1494.77 375.784,1494.79 375.685,1494.79Z" style="fill:rgb(110,110,111);fill-rule:nonzero;"/>
        </g>
        <g transform="matrix(4.16667,0,0,4.16667,0,0)">
            <rect x="377.335" y="1494.51" width="1.1" height="1.1" style="fill:rgb(110,110,111);fill-rule:nonzero;"/>
        </g>
        <g transform="matrix(4.16667,0,0,4.16667,0,0)">
            <path d="M42.437,1503.22L27.401,1477.18C27.096,1476.65 26.531,1476.32 25.919,1476.32C25.309,1476.32 24.743,1476.65 24.438,1477.18L9.402,1503.22C9.097,1503.75 9.097,1504.4 9.402,1504.93C9.708,1505.46 10.273,1505.79 10.884,1505.79L40.956,1505.79C41.566,1505.79 42.132,1505.46 42.437,1504.93C42.743,1504.4 42.743,1503.75 42.437,1503.22Z" style="fill:rgb(159,159,159);fill-rule:nonzero;"/>
        </g>
        <g transform="matrix(4.16667,0,0,4.16667,0,0)">
            <path d="M23.852,1501.74L23.852,1498.55L27.987,1498.55L27.987,1501.74L23.852,1501.74ZM24.761,1497.38L23.691,1490.95L23.691,1487.04L28.148,1487.04L28.148,1490.95L27.078,1497.38L24.761,1497.38Z" style="fill:white;fill-rule:nonzero;"/>
        </g>
    </g>
</svg>
