<?xml version="1.0" standalone="no"?>
<!DOCTYPE svg PUBLIC "-//W3C//DTD SVG 1.1//EN" "http://www.w3.org/Graphics/SVG/1.1/DTD/svg11.dtd">
<svg width="100%" height="100%" viewBox="0 0 2217 256" version="1.1" xmlns="http://www.w3.org/2000/svg" xmlns:xlink="http://www.w3.org/1999/xlink" xml:space="preserve" style="fill-rule:evenodd;clip-rule:evenodd;stroke-linejoin:round;stroke-miterlimit:1.41421;">
    <g transform="matrix(1.33333,0,0,1.33333,-5.55556,-7825.94)">
        <g transform="matrix(4.16667,0,0,4.16667,0,0)">
            <path d="M3,1454.17C2.173,1454.17 1.5,1453.5 1.5,1452.67L1.5,1410.67C1.5,1409.84 2.173,1409.17 3,1409.17L397.922,1409.17C398.749,1409.17 399.422,1409.84 399.422,1410.67L399.422,1452.67C399.422,1453.5 398.749,1454.17 397.922,1454.17L3,1454.17Z" style="fill:rgb(246,248,249);fill-rule:nonzero;"/>
        </g>
        <g transform="matrix(4.16667,0,0,4.16667,0,0)">
            <path d="M397.922,1408.67L3,1408.67C1.896,1408.67 1,1409.56 1,1410.67L1,1452.67C1,1453.77 1.896,1454.67 3,1454.67L397.922,1454.67C399.026,1454.67 399.922,1453.77 399.922,1452.67L399.922,1410.67C399.922,1409.56 399.026,1408.67 397.922,1408.67ZM397.922,1409.67C398.473,1409.67 398.922,1410.12 398.922,1410.67L398.922,1452.67C398.922,1453.22 398.473,1453.67 397.922,1453.67L3,1453.67C2.449,1453.67 2,1453.22 2,1452.67L2,1410.67C2,1410.12 2.449,1409.67 3,1409.67L397.922,1409.67Z" style="fill:rgb(229,229,229);fill-rule:nonzero;"/>
        </g>
        <g transform="matrix(4.16667,0,0,4.16667,0,0)">
            <path d="M41.691,1431.67C41.691,1440.51 34.529,1447.67 25.691,1447.67C16.853,1447.67 9.691,1440.51 9.691,1431.67C9.691,1422.83 16.853,1415.67 25.691,1415.67C34.529,1415.67 41.691,1422.83 41.691,1431.67Z" style="fill:rgb(159,159,159);fill-rule:nonzero;"/>
        </g>
        <g transform="matrix(4.16667,0,0,4.16667,0,0)">
            <path d="M30.249,1438.77L18.919,1427.44L21.59,1424.77L32.919,1436.1L30.249,1438.77Z" style="fill:white;fill-rule:nonzero;"/>
        </g>
        <g transform="matrix(4.16667,0,0,4.16667,0,0)">
            <path d="M21.59,1438.77L18.919,1436.1L30.249,1424.77L32.919,1427.44L21.59,1438.77Z" style="fill:white;fill-rule:nonzero;"/>
        </g>
        <g transform="matrix(4.16667,0,0,4.16667,0,0)">
            <path d="M61.989,1435.9L61.989,1434.45L57.201,1434.45L57.201,1432.12L61.497,1432.12L61.497,1430.67L57.201,1430.67L57.201,1428.76L61.821,1428.76L61.821,1427.31L55.461,1427.31L55.461,1435.9L61.989,1435.9Z" style="fill:rgb(51,51,51);fill-rule:nonzero;"/>
        </g>
        <g transform="matrix(4.16667,0,0,4.16667,0,0)">
            <path d="M65.025,1433.98C65.025,1432.92 65.073,1432.23 65.157,1431.89C65.253,1431.57 65.385,1431.33 65.541,1431.21C65.697,1431.08 65.901,1431.02 66.129,1431.02C66.369,1431.02 66.621,1431.1 66.909,1431.28L67.413,1429.85C67.065,1429.65 66.705,1429.54 66.321,1429.54C66.057,1429.54 65.817,1429.6 65.613,1429.73C65.409,1429.86 65.169,1430.14 64.905,1430.56L64.905,1429.67L63.381,1429.67L63.381,1435.9L65.025,1435.9L65.025,1433.98Z" style="fill:rgb(51,51,51);fill-rule:nonzero;"/>
        </g>
        <g transform="matrix(4.16667,0,0,4.16667,0,0)">
            <path d="M69.693,1433.98C69.693,1432.92 69.741,1432.23 69.825,1431.89C69.921,1431.57 70.053,1431.33 70.209,1431.21C70.365,1431.08 70.569,1431.02 70.797,1431.02C71.037,1431.02 71.289,1431.1 71.577,1431.28L72.081,1429.85C71.733,1429.65 71.373,1429.54 70.989,1429.54C70.725,1429.54 70.485,1429.6 70.281,1429.73C70.077,1429.86 69.837,1430.14 69.573,1430.56L69.573,1429.67L68.049,1429.67L68.049,1435.9L69.693,1435.9L69.693,1433.98Z" style="fill:rgb(51,51,51);fill-rule:nonzero;"/>
        </g>
        <g transform="matrix(4.16667,0,0,4.16667,0,0)">
            <path d="M72.813,1434.53C73.077,1435.04 73.473,1435.41 73.989,1435.67C74.505,1435.92 75.045,1436.06 75.621,1436.06C76.545,1436.06 77.301,1435.74 77.913,1435.12C78.525,1434.51 78.825,1433.73 78.825,1432.78C78.825,1431.84 78.525,1431.08 77.925,1430.46C77.325,1429.85 76.545,1429.54 75.609,1429.54C74.997,1429.54 74.445,1429.67 73.953,1429.95C73.461,1430.21 73.077,1430.61 72.813,1431.12C72.537,1431.63 72.405,1432.16 72.405,1432.71C72.405,1433.43 72.537,1434.03 72.813,1434.53ZM74.541,1431.38C74.829,1431.05 75.189,1430.88 75.621,1430.88C76.041,1430.88 76.401,1431.05 76.701,1431.38C76.989,1431.71 77.133,1432.18 77.133,1432.79C77.133,1433.42 76.989,1433.88 76.701,1434.22C76.401,1434.54 76.041,1434.71 75.621,1434.71C75.189,1434.71 74.829,1434.54 74.541,1434.22C74.241,1433.88 74.097,1433.42 74.097,1432.79C74.097,1432.18 74.241,1431.71 74.541,1431.38Z" style="fill:rgb(51,51,51);fill-rule:nonzero;"/>
        </g>
        <g transform="matrix(4.16667,0,0,4.16667,0,0)">
            <path d="M81.693,1433.98C81.693,1432.92 81.741,1432.23 81.825,1431.89C81.921,1431.57 82.053,1431.33 82.209,1431.21C82.365,1431.08 82.569,1431.02 82.797,1431.02C83.037,1431.02 83.289,1431.1 83.577,1431.28L84.081,1429.85C83.733,1429.65 83.373,1429.54 82.989,1429.54C82.725,1429.54 82.485,1429.6 82.281,1429.73C82.077,1429.86 81.837,1430.14 81.573,1430.56L81.573,1429.67L80.049,1429.67L80.049,1435.9L81.693,1435.9L81.693,1433.98Z" style="fill:rgb(51,51,51);fill-rule:nonzero;"/>
        </g>
        <g transform="matrix(4.16667,0,0,4.16667,0,0)">
            <path d="M86.349,1433.69L86.769,1429.32L86.769,1427.31L84.993,1427.31L84.993,1429.32L85.425,1433.69L86.349,1433.69ZM86.709,1435.9L86.709,1434.26L85.065,1434.26L85.065,1435.9L86.709,1435.9Z" style="fill:rgb(51,51,51);fill-rule:nonzero;"/>
        </g>
        <g transform="matrix(4.16667,0,0,4.16667,0,0)">
            <path d="M96.702,1435.9L96.702,1434.98L92.83,1434.98L92.83,1428.02L91.785,1428.02L91.785,1435.9L96.702,1435.9Z" style="fill:rgb(110,110,111);fill-rule:nonzero;"/>
        </g>
        <g transform="matrix(4.16667,0,0,4.16667,0,0)">
            <path d="M98.198,1435.25C98.693,1435.77 99.342,1436.02 100.134,1436.02C100.64,1436.02 101.091,1435.9 101.52,1435.67C101.938,1435.44 102.257,1435.12 102.477,1434.69C102.697,1434.27 102.807,1433.7 102.807,1432.96C102.807,1432.06 102.554,1431.36 102.059,1430.84C101.564,1430.32 100.926,1430.07 100.134,1430.07C99.43,1430.07 98.836,1430.28 98.341,1430.71C97.758,1431.21 97.461,1432 97.461,1433.04C97.461,1434.01 97.703,1434.75 98.198,1435.25ZM98.935,1431.41C99.254,1431.05 99.65,1430.87 100.134,1430.87C100.618,1430.87 101.014,1431.05 101.333,1431.41C101.652,1431.78 101.817,1432.31 101.817,1433.02C101.817,1433.77 101.652,1434.32 101.333,1434.68C101.014,1435.04 100.618,1435.23 100.134,1435.23C99.65,1435.23 99.254,1435.05 98.935,1434.69C98.616,1434.33 98.451,1433.78 98.451,1433.05C98.451,1432.33 98.616,1431.78 98.935,1431.41Z" style="fill:rgb(110,110,111);fill-rule:nonzero;"/>
        </g>
        <g transform="matrix(4.16667,0,0,4.16667,0,0)">
            <path d="M104.897,1435.9L104.897,1432.92C104.897,1432.51 104.952,1432.14 105.062,1431.79C105.128,1431.57 105.249,1431.39 105.414,1431.26C105.579,1431.14 105.777,1431.07 105.986,1431.07C106.217,1431.07 106.448,1431.14 106.69,1431.27L107.031,1430.38C106.69,1430.17 106.36,1430.07 106.041,1430.07C105.81,1430.07 105.601,1430.14 105.414,1430.27C105.227,1430.39 105.018,1430.66 104.798,1431.06L104.798,1430.19L103.929,1430.19L103.929,1435.9L104.897,1435.9Z" style="fill:rgb(110,110,111);fill-rule:nonzero;"/>
        </g>
        <g transform="matrix(4.16667,0,0,4.16667,0,0)">
            <path d="M110.903,1434.94C110.65,1435.13 110.353,1435.23 110.001,1435.23C109.517,1435.23 109.121,1435.06 108.802,1434.73C108.483,1434.39 108.307,1433.92 108.274,1433.29L112.531,1433.29C112.531,1433.18 112.531,1433.1 112.531,1433.04C112.531,1432.09 112.289,1431.37 111.805,1430.85C111.321,1430.33 110.705,1430.07 109.946,1430.07C109.154,1430.07 108.516,1430.33 108.021,1430.86C107.526,1431.39 107.284,1432.14 107.284,1433.1C107.284,1434.02 107.526,1434.73 108.021,1435.25C108.505,1435.77 109.165,1436.02 110.001,1436.02C110.661,1436.02 111.2,1435.86 111.629,1435.54C112.047,1435.22 112.344,1434.77 112.498,1434.18L111.497,1434.05C111.354,1434.46 111.156,1434.76 110.903,1434.94ZM108.835,1431.31C109.132,1431.02 109.506,1430.86 109.946,1430.86C110.441,1430.86 110.837,1431.05 111.145,1431.42C111.343,1431.66 111.464,1432.02 111.508,1432.5L108.329,1432.5C108.362,1432.01 108.527,1431.61 108.835,1431.31Z" style="fill:rgb(110,110,111);fill-rule:nonzero;"/>
        </g>
        <g transform="matrix(4.16667,0,0,4.16667,0,0)">
            <path d="M114.687,1435.9L114.687,1432.94C114.687,1432.42 114.742,1432.03 114.841,1431.75C114.951,1431.48 115.116,1431.27 115.347,1431.13C115.578,1430.98 115.831,1430.91 116.095,1430.91C116.458,1430.91 116.711,1431.02 116.865,1431.23C117.03,1431.44 117.107,1431.76 117.107,1432.19L117.107,1435.9L118.075,1435.9L118.075,1432.59C118.075,1432 118.207,1431.58 118.471,1431.3C118.735,1431.04 119.076,1430.91 119.472,1430.91C119.703,1430.91 119.89,1430.96 120.055,1431.06C120.22,1431.17 120.341,1431.3 120.396,1431.47C120.462,1431.64 120.495,1431.92 120.495,1432.3L120.495,1435.9L121.463,1435.9L121.463,1431.98C121.463,1431.34 121.309,1430.85 121.001,1430.54C120.693,1430.22 120.264,1430.07 119.692,1430.07C118.966,1430.07 118.372,1430.4 117.921,1431.07C117.811,1430.75 117.624,1430.51 117.349,1430.33C117.085,1430.16 116.733,1430.07 116.315,1430.07C115.93,1430.07 115.6,1430.16 115.303,1430.32C115.006,1430.5 114.764,1430.72 114.588,1430.99L114.588,1430.19L113.719,1430.19L113.719,1435.9L114.687,1435.9Z" style="fill:rgb(110,110,111);fill-rule:nonzero;"/>
        </g>
        <g transform="matrix(4.16667,0,0,4.16667,0,0)">
            <path d="M126.908,1429.12L126.908,1428.02L125.94,1428.02L125.94,1429.12L126.908,1429.12ZM126.908,1435.9L126.908,1430.19L125.94,1430.19L125.94,1435.9L126.908,1435.9Z" style="fill:rgb(110,110,111);fill-rule:nonzero;"/>
        </g>
        <g transform="matrix(4.16667,0,0,4.16667,0,0)">
            <path d="M129.35,1438.09L129.35,1435.31C129.515,1435.52 129.724,1435.68 129.977,1435.82C130.241,1435.95 130.527,1436.02 130.846,1436.02C131.286,1436.02 131.704,1435.9 132.111,1435.65C132.507,1435.4 132.804,1435.04 133.013,1434.58C133.222,1434.11 133.332,1433.59 133.332,1433.01C133.332,1432.46 133.233,1431.96 133.046,1431.5C132.859,1431.05 132.573,1430.7 132.21,1430.44C131.836,1430.19 131.407,1430.07 130.912,1430.07C130.549,1430.07 130.23,1430.15 129.966,1430.29C129.702,1430.43 129.471,1430.65 129.262,1430.94L129.262,1430.19L128.382,1430.19L128.382,1438.09L129.35,1438.09ZM129.735,1431.4C130.054,1431.02 130.417,1430.83 130.824,1430.83C131.242,1430.83 131.594,1431.01 131.891,1431.37C132.188,1431.73 132.342,1432.27 132.342,1433C132.342,1433.77 132.188,1434.33 131.88,1434.69C131.583,1435.05 131.209,1435.23 130.78,1435.23C130.362,1435.23 129.999,1435.05 129.702,1434.7C129.405,1434.35 129.262,1433.81 129.262,1433.08C129.262,1432.35 129.416,1431.79 129.735,1431.4Z" style="fill:rgb(110,110,111);fill-rule:nonzero;"/>
        </g>
        <g transform="matrix(4.16667,0,0,4.16667,0,0)">
            <path d="M134.861,1435.56C135.246,1435.87 135.807,1436.02 136.555,1436.02C137.006,1436.02 137.402,1435.94 137.754,1435.79C138.117,1435.64 138.381,1435.42 138.568,1435.13C138.755,1434.84 138.854,1434.55 138.854,1434.22C138.854,1433.89 138.777,1433.61 138.623,1433.39C138.469,1433.17 138.249,1433.01 137.985,1432.89C137.71,1432.78 137.237,1432.62 136.555,1432.43C136.082,1432.31 135.796,1432.23 135.697,1432.19C135.532,1432.13 135.411,1432.04 135.334,1431.94C135.257,1431.83 135.213,1431.72 135.213,1431.6C135.213,1431.4 135.312,1431.23 135.499,1431.08C135.686,1430.94 136.005,1430.86 136.445,1430.86C136.819,1430.86 137.105,1430.95 137.314,1431.12C137.523,1431.28 137.644,1431.51 137.688,1431.81L138.634,1431.68C138.568,1431.3 138.458,1431.01 138.304,1430.79C138.139,1430.57 137.886,1430.39 137.556,1430.27C137.215,1430.14 136.819,1430.07 136.379,1430.07C136.082,1430.07 135.796,1430.1 135.543,1430.18C135.279,1430.26 135.081,1430.36 134.927,1430.47C134.729,1430.61 134.564,1430.79 134.454,1431.01C134.333,1431.23 134.278,1431.46 134.278,1431.71C134.278,1431.98 134.344,1432.25 134.487,1432.48C134.63,1432.7 134.839,1432.89 135.114,1433.02C135.389,1433.15 135.873,1433.3 136.588,1433.48C137.105,1433.61 137.435,1433.72 137.578,1433.81C137.765,1433.93 137.864,1434.11 137.864,1434.33C137.864,1434.57 137.754,1434.78 137.545,1434.95C137.325,1435.14 136.995,1435.23 136.555,1435.23C136.104,1435.23 135.763,1435.13 135.521,1434.92C135.279,1434.72 135.125,1434.43 135.07,1434.04L134.113,1434.19C134.223,1434.8 134.465,1435.25 134.861,1435.56Z" style="fill:rgb(110,110,111);fill-rule:nonzero;"/>
        </g>
        <g transform="matrix(4.16667,0,0,4.16667,0,0)">
            <path d="M144.596,1435.9L144.596,1430.19L143.628,1430.19L143.628,1433.24C143.628,1433.73 143.573,1434.1 143.474,1434.36C143.364,1434.61 143.188,1434.81 142.935,1434.96C142.682,1435.11 142.407,1435.18 142.121,1435.18C141.824,1435.18 141.582,1435.11 141.384,1434.96C141.197,1434.82 141.065,1434.62 140.999,1434.37C140.966,1434.19 140.944,1433.85 140.944,1433.35L140.944,1430.19L139.976,1430.19L139.976,1433.72C139.976,1434.14 139.998,1434.44 140.031,1434.62C140.097,1434.91 140.196,1435.15 140.328,1435.34C140.471,1435.54 140.691,1435.7 140.977,1435.82C141.274,1435.95 141.582,1436.02 141.923,1436.02C142.682,1436.02 143.287,1435.7 143.727,1435.05L143.727,1435.9L144.596,1435.9Z" style="fill:rgb(110,110,111);fill-rule:nonzero;"/>
        </g>
        <g transform="matrix(4.16667,0,0,4.16667,0,0)">
            <path d="M147.082,1435.9L147.082,1432.94C147.082,1432.42 147.137,1432.03 147.236,1431.75C147.346,1431.48 147.511,1431.27 147.742,1431.13C147.973,1430.98 148.226,1430.91 148.49,1430.91C148.853,1430.91 149.106,1431.02 149.26,1431.23C149.425,1431.44 149.502,1431.76 149.502,1432.19L149.502,1435.9L150.47,1435.9L150.47,1432.59C150.47,1432 150.602,1431.58 150.866,1431.3C151.13,1431.04 151.471,1430.91 151.867,1430.91C152.098,1430.91 152.285,1430.96 152.45,1431.06C152.615,1431.17 152.736,1431.3 152.791,1431.47C152.857,1431.64 152.89,1431.92 152.89,1432.3L152.89,1435.9L153.858,1435.9L153.858,1431.98C153.858,1431.34 153.704,1430.85 153.396,1430.54C153.088,1430.22 152.659,1430.07 152.087,1430.07C151.361,1430.07 150.767,1430.4 150.316,1431.07C150.206,1430.75 150.019,1430.51 149.744,1430.33C149.48,1430.16 149.128,1430.07 148.71,1430.07C148.325,1430.07 147.995,1430.16 147.698,1430.32C147.401,1430.5 147.159,1430.72 146.983,1430.99L146.983,1430.19L146.114,1430.19L146.114,1435.9L147.082,1435.9Z" style="fill:rgb(110,110,111);fill-rule:nonzero;"/>
        </g>
        <g transform="matrix(4.16667,0,0,4.16667,0,0)">
            <path d="M162.922,1435.9L162.922,1428.02L161.954,1428.02L161.954,1430.86C161.789,1430.62 161.569,1430.43 161.294,1430.29C161.03,1430.15 160.722,1430.07 160.381,1430.07C159.908,1430.07 159.49,1430.19 159.105,1430.44C158.731,1430.69 158.445,1431.04 158.258,1431.5C158.071,1431.96 157.972,1432.48 157.972,1433.05C157.972,1433.63 158.082,1434.15 158.291,1434.6C158.5,1435.04 158.786,1435.39 159.171,1435.65C159.556,1435.9 159.974,1436.02 160.425,1436.02C161.129,1436.02 161.657,1435.74 162.02,1435.17L162.02,1435.9L162.922,1435.9ZM159.391,1431.4C159.688,1431.05 160.04,1430.87 160.48,1430.87C160.92,1430.87 161.283,1431.06 161.591,1431.42C161.888,1431.79 162.042,1432.36 162.042,1433.14C162.042,1433.84 161.899,1434.37 161.602,1434.71C161.305,1435.05 160.942,1435.23 160.513,1435.23C160.095,1435.23 159.732,1435.05 159.424,1434.69C159.116,1434.33 158.962,1433.78 158.962,1433.05C158.962,1432.3 159.105,1431.75 159.391,1431.4Z" style="fill:rgb(110,110,111);fill-rule:nonzero;"/>
        </g>
        <g transform="matrix(4.16667,0,0,4.16667,0,0)">
            <path d="M164.825,1435.25C165.32,1435.77 165.969,1436.02 166.761,1436.02C167.267,1436.02 167.718,1435.9 168.147,1435.67C168.565,1435.44 168.884,1435.12 169.104,1434.69C169.324,1434.27 169.434,1433.7 169.434,1432.96C169.434,1432.06 169.181,1431.36 168.686,1430.84C168.191,1430.32 167.553,1430.07 166.761,1430.07C166.057,1430.07 165.463,1430.28 164.968,1430.71C164.385,1431.21 164.088,1432 164.088,1433.04C164.088,1434.01 164.33,1434.75 164.825,1435.25ZM165.562,1431.41C165.881,1431.05 166.277,1430.87 166.761,1430.87C167.245,1430.87 167.641,1431.05 167.96,1431.41C168.279,1431.78 168.444,1432.31 168.444,1433.02C168.444,1433.77 168.279,1434.32 167.96,1434.68C167.641,1435.04 167.245,1435.23 166.761,1435.23C166.277,1435.23 165.881,1435.05 165.562,1434.69C165.243,1434.33 165.078,1433.78 165.078,1433.05C165.078,1432.33 165.243,1431.78 165.562,1431.41Z" style="fill:rgb(110,110,111);fill-rule:nonzero;"/>
        </g>
        <g transform="matrix(4.16667,0,0,4.16667,0,0)">
            <rect x="170.545" y="1428.02" width="0.968" height="7.876" style="fill:rgb(110,110,111);fill-rule:nonzero;"/>
        </g>
        <g transform="matrix(4.16667,0,0,4.16667,0,0)">
            <path d="M173.383,1435.25C173.878,1435.77 174.527,1436.02 175.319,1436.02C175.825,1436.02 176.276,1435.9 176.705,1435.67C177.123,1435.44 177.442,1435.12 177.662,1434.69C177.882,1434.27 177.992,1433.7 177.992,1432.96C177.992,1432.06 177.739,1431.36 177.244,1430.84C176.749,1430.32 176.111,1430.07 175.319,1430.07C174.615,1430.07 174.021,1430.28 173.526,1430.71C172.943,1431.21 172.646,1432 172.646,1433.04C172.646,1434.01 172.888,1434.75 173.383,1435.25ZM174.12,1431.41C174.439,1431.05 174.835,1430.87 175.319,1430.87C175.803,1430.87 176.199,1431.05 176.518,1431.41C176.837,1431.78 177.002,1432.31 177.002,1433.02C177.002,1433.77 176.837,1434.32 176.518,1434.68C176.199,1435.04 175.803,1435.23 175.319,1435.23C174.835,1435.23 174.439,1435.05 174.12,1434.69C173.801,1434.33 173.636,1433.78 173.636,1433.05C173.636,1432.33 173.801,1431.78 174.12,1431.41Z" style="fill:rgb(110,110,111);fill-rule:nonzero;"/>
        </g>
        <g transform="matrix(4.16667,0,0,4.16667,0,0)">
            <path d="M180.082,1435.9L180.082,1432.92C180.082,1432.51 180.137,1432.14 180.247,1431.79C180.313,1431.57 180.434,1431.39 180.599,1431.26C180.764,1431.14 180.962,1431.07 181.171,1431.07C181.402,1431.07 181.633,1431.14 181.875,1431.27L182.216,1430.38C181.875,1430.17 181.545,1430.07 181.226,1430.07C180.995,1430.07 180.786,1430.14 180.599,1430.27C180.412,1430.39 180.203,1430.66 179.983,1431.06L179.983,1430.19L179.114,1430.19L179.114,1435.9L180.082,1435.9Z" style="fill:rgb(110,110,111);fill-rule:nonzero;"/>
        </g>
        <g transform="matrix(4.16667,0,0,4.16667,0,0)">
            <path d="M186.209,1435.56C186.594,1435.87 187.155,1436.02 187.903,1436.02C188.354,1436.02 188.75,1435.94 189.102,1435.79C189.465,1435.64 189.729,1435.42 189.916,1435.13C190.103,1434.84 190.202,1434.55 190.202,1434.22C190.202,1433.89 190.125,1433.61 189.971,1433.39C189.817,1433.17 189.597,1433.01 189.333,1432.89C189.058,1432.78 188.585,1432.62 187.903,1432.43C187.43,1432.31 187.144,1432.23 187.045,1432.19C186.88,1432.13 186.759,1432.04 186.682,1431.94C186.605,1431.83 186.561,1431.72 186.561,1431.6C186.561,1431.4 186.66,1431.23 186.847,1431.08C187.034,1430.94 187.353,1430.86 187.793,1430.86C188.167,1430.86 188.453,1430.95 188.662,1431.12C188.871,1431.28 188.992,1431.51 189.036,1431.81L189.982,1431.68C189.916,1431.3 189.806,1431.01 189.652,1430.79C189.487,1430.57 189.234,1430.39 188.904,1430.27C188.563,1430.14 188.167,1430.07 187.727,1430.07C187.43,1430.07 187.144,1430.1 186.891,1430.18C186.627,1430.26 186.429,1430.36 186.275,1430.47C186.077,1430.61 185.912,1430.79 185.802,1431.01C185.681,1431.23 185.626,1431.46 185.626,1431.71C185.626,1431.98 185.692,1432.25 185.835,1432.48C185.978,1432.7 186.187,1432.89 186.462,1433.02C186.737,1433.15 187.221,1433.3 187.936,1433.48C188.453,1433.61 188.783,1433.72 188.926,1433.81C189.113,1433.93 189.212,1434.11 189.212,1434.33C189.212,1434.57 189.102,1434.78 188.893,1434.95C188.673,1435.14 188.343,1435.23 187.903,1435.23C187.452,1435.23 187.111,1435.13 186.869,1434.92C186.627,1434.72 186.473,1434.43 186.418,1434.04L185.461,1434.19C185.571,1434.8 185.813,1435.25 186.209,1435.56Z" style="fill:rgb(110,110,111);fill-rule:nonzero;"/>
        </g>
        <g transform="matrix(4.16667,0,0,4.16667,0,0)">
            <path d="M192.314,1429.12L192.314,1428.02L191.346,1428.02L191.346,1429.12L192.314,1429.12ZM192.314,1435.9L192.314,1430.19L191.346,1430.19L191.346,1435.9L192.314,1435.9Z" style="fill:rgb(110,110,111);fill-rule:nonzero;"/>
        </g>
        <g transform="matrix(4.16667,0,0,4.16667,0,0)">
            <path d="M195.471,1435.08C195.328,1435.08 195.218,1435.05 195.141,1435.01C195.064,1434.95 195.009,1434.9 194.976,1434.81C194.943,1434.73 194.921,1434.56 194.921,1434.28L194.921,1430.94L195.889,1430.94L195.889,1430.19L194.921,1430.19L194.921,1428.2L193.953,1428.78L193.953,1430.19L193.238,1430.19L193.238,1430.94L193.953,1430.94L193.953,1434.23C193.953,1434.81 193.997,1435.18 194.074,1435.37C194.151,1435.55 194.283,1435.7 194.481,1435.81C194.668,1435.92 194.943,1435.98 195.295,1435.98C195.504,1435.98 195.746,1435.94 196.021,1435.89L195.889,1435.04C195.713,1435.06 195.57,1435.08 195.471,1435.08Z" style="fill:rgb(110,110,111);fill-rule:nonzero;"/>
        </g>
        <g transform="matrix(4.16667,0,0,4.16667,0,0)">
            <path d="M203.82,1435.9L204.832,1435.9C204.711,1435.68 204.634,1435.45 204.59,1435.21C204.557,1434.98 204.535,1434.4 204.535,1433.51L204.535,1432.23C204.535,1431.8 204.524,1431.5 204.491,1431.34C204.425,1431.07 204.326,1430.85 204.183,1430.67C204.04,1430.5 203.82,1430.36 203.512,1430.25C203.204,1430.12 202.808,1430.07 202.324,1430.07C201.829,1430.07 201.4,1430.14 201.026,1430.27C200.652,1430.41 200.366,1430.6 200.168,1430.85C199.97,1431.09 199.827,1431.42 199.739,1431.83L200.685,1431.96C200.784,1431.56 200.949,1431.27 201.169,1431.12C201.389,1430.95 201.719,1430.87 202.181,1430.87C202.665,1430.87 203.039,1430.98 203.281,1431.2C203.468,1431.36 203.556,1431.63 203.556,1432.03C203.556,1432.06 203.556,1432.15 203.556,1432.28C203.182,1432.41 202.61,1432.52 201.818,1432.61C201.444,1432.65 201.158,1432.71 200.96,1432.75C200.707,1432.83 200.476,1432.93 200.267,1433.07C200.058,1433.22 199.893,1433.4 199.761,1433.63C199.64,1433.85 199.574,1434.12 199.574,1434.39C199.574,1434.87 199.739,1435.26 200.08,1435.56C200.421,1435.87 200.905,1436.02 201.532,1436.02C201.906,1436.02 202.269,1435.95 202.599,1435.83C202.929,1435.7 203.27,1435.49 203.633,1435.18C203.666,1435.46 203.721,1435.69 203.82,1435.9ZM203.556,1433.39C203.556,1433.82 203.501,1434.14 203.391,1434.35C203.259,1434.63 203.05,1434.86 202.753,1435.02C202.467,1435.18 202.137,1435.26 201.763,1435.26C201.378,1435.26 201.092,1435.17 200.905,1435.01C200.707,1434.83 200.608,1434.62 200.608,1434.36C200.608,1434.19 200.652,1434.04 200.74,1433.91C200.828,1433.77 200.96,1433.67 201.125,1433.59C201.29,1433.52 201.576,1433.46 201.972,1433.4C202.676,1433.3 203.204,1433.18 203.556,1433.04L203.556,1433.39Z" style="fill:rgb(110,110,111);fill-rule:nonzero;"/>
        </g>
        <g transform="matrix(4.16667,0,0,4.16667,0,0)">
            <path d="M206.988,1435.9L206.988,1432.94C206.988,1432.42 207.043,1432.03 207.142,1431.75C207.252,1431.48 207.417,1431.27 207.648,1431.13C207.879,1430.98 208.132,1430.91 208.396,1430.91C208.759,1430.91 209.012,1431.02 209.166,1431.23C209.331,1431.44 209.408,1431.76 209.408,1432.19L209.408,1435.9L210.376,1435.9L210.376,1432.59C210.376,1432 210.508,1431.58 210.772,1431.3C211.036,1431.04 211.377,1430.91 211.773,1430.91C212.004,1430.91 212.191,1430.96 212.356,1431.06C212.521,1431.17 212.642,1431.3 212.697,1431.47C212.763,1431.64 212.796,1431.92 212.796,1432.3L212.796,1435.9L213.764,1435.9L213.764,1431.98C213.764,1431.34 213.61,1430.85 213.302,1430.54C212.994,1430.22 212.565,1430.07 211.993,1430.07C211.267,1430.07 210.673,1430.4 210.222,1431.07C210.112,1430.75 209.925,1430.51 209.65,1430.33C209.386,1430.16 209.034,1430.07 208.616,1430.07C208.231,1430.07 207.901,1430.16 207.604,1430.32C207.307,1430.5 207.065,1430.72 206.889,1430.99L206.889,1430.19L206.02,1430.19L206.02,1435.9L206.988,1435.9Z" style="fill:rgb(110,110,111);fill-rule:nonzero;"/>
        </g>
        <g transform="matrix(4.16667,0,0,4.16667,0,0)">
            <path d="M218.483,1434.94C218.23,1435.13 217.933,1435.23 217.581,1435.23C217.097,1435.23 216.701,1435.06 216.382,1434.73C216.063,1434.39 215.887,1433.92 215.854,1433.29L220.111,1433.29C220.111,1433.18 220.111,1433.1 220.111,1433.04C220.111,1432.09 219.869,1431.37 219.385,1430.85C218.901,1430.33 218.285,1430.07 217.526,1430.07C216.734,1430.07 216.096,1430.33 215.601,1430.86C215.106,1431.39 214.864,1432.14 214.864,1433.1C214.864,1434.02 215.106,1434.73 215.601,1435.25C216.085,1435.77 216.745,1436.02 217.581,1436.02C218.241,1436.02 218.78,1435.86 219.209,1435.54C219.627,1435.22 219.924,1434.77 220.078,1434.18L219.077,1434.05C218.934,1434.46 218.736,1434.76 218.483,1434.94ZM216.415,1431.31C216.712,1431.02 217.086,1430.86 217.526,1430.86C218.021,1430.86 218.417,1431.05 218.725,1431.42C218.923,1431.66 219.044,1432.02 219.088,1432.5L215.909,1432.5C215.942,1432.01 216.107,1431.61 216.415,1431.31Z" style="fill:rgb(110,110,111);fill-rule:nonzero;"/>
        </g>
        <g transform="matrix(4.16667,0,0,4.16667,0,0)">
            <path d="M222.982,1435.08C222.839,1435.08 222.729,1435.05 222.652,1435.01C222.575,1434.95 222.52,1434.9 222.487,1434.81C222.454,1434.73 222.432,1434.56 222.432,1434.28L222.432,1430.94L223.4,1430.94L223.4,1430.19L222.432,1430.19L222.432,1428.2L221.464,1428.78L221.464,1430.19L220.749,1430.19L220.749,1430.94L221.464,1430.94L221.464,1434.23C221.464,1434.81 221.508,1435.18 221.585,1435.37C221.662,1435.55 221.794,1435.7 221.992,1435.81C222.179,1435.92 222.454,1435.98 222.806,1435.98C223.015,1435.98 223.257,1435.94 223.532,1435.89L223.4,1435.04C223.224,1435.06 223.081,1435.08 222.982,1435.08Z" style="fill:rgb(110,110,111);fill-rule:nonzero;"/>
        </g>
        <g transform="matrix(4.16667,0,0,4.16667,0,0)">
            <path d="M225.16,1435.9C225.149,1436.23 225.094,1436.47 224.995,1436.65C224.896,1436.82 224.753,1436.96 224.544,1437.04L224.808,1437.46C225.116,1437.33 225.347,1437.13 225.49,1436.88C225.633,1436.64 225.71,1436.31 225.71,1435.9L225.71,1434.8L224.61,1434.8L224.61,1435.9L225.16,1435.9Z" style="fill:rgb(110,110,111);fill-rule:nonzero;"/>
        </g>
        <g transform="matrix(4.16667,0,0,4.16667,0,0)">
            <path d="M233.718,1434.88C233.465,1435.11 233.146,1435.23 232.772,1435.23C232.299,1435.23 231.914,1435.05 231.617,1434.71C231.32,1434.36 231.177,1433.81 231.177,1433.04C231.177,1432.28 231.331,1431.73 231.639,1431.39C231.936,1431.04 232.332,1430.86 232.827,1430.86C233.146,1430.86 233.421,1430.96 233.652,1431.15C233.872,1431.35 234.037,1431.63 234.125,1432.02L235.06,1431.87C234.95,1431.3 234.697,1430.85 234.301,1430.54C233.905,1430.22 233.399,1430.07 232.783,1430.07C232.299,1430.07 231.837,1430.18 231.419,1430.41C231.012,1430.64 230.693,1430.99 230.495,1431.46C230.286,1431.92 230.187,1432.46 230.187,1433.06C230.187,1434.02 230.429,1434.75 230.902,1435.26C231.375,1435.77 232.002,1436.02 232.783,1436.02C233.399,1436.02 233.927,1435.83 234.356,1435.47C234.774,1435.1 235.049,1434.59 235.148,1433.94L234.202,1433.81C234.136,1434.29 233.971,1434.65 233.718,1434.88Z" style="fill:rgb(110,110,111);fill-rule:nonzero;"/>
        </g>
        <g transform="matrix(4.16667,0,0,4.16667,0,0)">
            <path d="M236.347,1435.25C236.842,1435.77 237.491,1436.02 238.283,1436.02C238.789,1436.02 239.24,1435.9 239.669,1435.67C240.087,1435.44 240.406,1435.12 240.626,1434.69C240.846,1434.27 240.956,1433.7 240.956,1432.96C240.956,1432.06 240.703,1431.36 240.208,1430.84C239.713,1430.32 239.075,1430.07 238.283,1430.07C237.579,1430.07 236.985,1430.28 236.49,1430.71C235.907,1431.21 235.61,1432 235.61,1433.04C235.61,1434.01 235.852,1434.75 236.347,1435.25ZM237.084,1431.41C237.403,1431.05 237.799,1430.87 238.283,1430.87C238.767,1430.87 239.163,1431.05 239.482,1431.41C239.801,1431.78 239.966,1432.31 239.966,1433.02C239.966,1433.77 239.801,1434.32 239.482,1434.68C239.163,1435.04 238.767,1435.23 238.283,1435.23C237.799,1435.23 237.403,1435.05 237.084,1434.69C236.765,1434.33 236.6,1433.78 236.6,1433.05C236.6,1432.33 236.765,1431.78 237.084,1431.41Z" style="fill:rgb(110,110,111);fill-rule:nonzero;"/>
        </g>
        <g transform="matrix(4.16667,0,0,4.16667,0,0)">
            <path d="M243.057,1435.9L243.057,1432.79C243.057,1432.05 243.211,1431.56 243.508,1431.3C243.805,1431.04 244.157,1430.91 244.564,1430.91C244.828,1430.91 245.048,1430.96 245.235,1431.08C245.433,1431.19 245.565,1431.36 245.642,1431.54C245.719,1431.74 245.752,1432.04 245.752,1432.43L245.752,1435.9L246.72,1435.9L246.72,1432.39C246.72,1431.95 246.698,1431.63 246.665,1431.46C246.61,1431.18 246.511,1430.94 246.368,1430.74C246.225,1430.54 246.005,1430.38 245.719,1430.26C245.433,1430.14 245.114,1430.07 244.773,1430.07C243.981,1430.07 243.376,1430.38 242.958,1431.01L242.958,1430.19L242.089,1430.19L242.089,1435.9L243.057,1435.9Z" style="fill:rgb(110,110,111);fill-rule:nonzero;"/>
        </g>
        <g transform="matrix(4.16667,0,0,4.16667,0,0)">
            <path d="M248.568,1435.56C248.953,1435.87 249.514,1436.02 250.262,1436.02C250.713,1436.02 251.109,1435.94 251.461,1435.79C251.824,1435.64 252.088,1435.42 252.275,1435.13C252.462,1434.84 252.561,1434.55 252.561,1434.22C252.561,1433.89 252.484,1433.61 252.33,1433.39C252.176,1433.17 251.956,1433.01 251.692,1432.89C251.417,1432.78 250.944,1432.62 250.262,1432.43C249.789,1432.31 249.503,1432.23 249.404,1432.19C249.239,1432.13 249.118,1432.04 249.041,1431.94C248.964,1431.83 248.92,1431.72 248.92,1431.6C248.92,1431.4 249.019,1431.23 249.206,1431.08C249.393,1430.94 249.712,1430.86 250.152,1430.86C250.526,1430.86 250.812,1430.95 251.021,1431.12C251.23,1431.28 251.351,1431.51 251.395,1431.81L252.341,1431.68C252.275,1431.3 252.165,1431.01 252.011,1430.79C251.846,1430.57 251.593,1430.39 251.263,1430.27C250.922,1430.14 250.526,1430.07 250.086,1430.07C249.789,1430.07 249.503,1430.1 249.25,1430.18C248.986,1430.26 248.788,1430.36 248.634,1430.47C248.436,1430.61 248.271,1430.79 248.161,1431.01C248.04,1431.23 247.985,1431.46 247.985,1431.71C247.985,1431.98 248.051,1432.25 248.194,1432.48C248.337,1432.7 248.546,1432.89 248.821,1433.02C249.096,1433.15 249.58,1433.3 250.295,1433.48C250.812,1433.61 251.142,1433.72 251.285,1433.81C251.472,1433.93 251.571,1434.11 251.571,1434.33C251.571,1434.57 251.461,1434.78 251.252,1434.95C251.032,1435.14 250.702,1435.23 250.262,1435.23C249.811,1435.23 249.47,1435.13 249.228,1434.92C248.986,1434.72 248.832,1434.43 248.777,1434.04L247.82,1434.19C247.93,1434.8 248.172,1435.25 248.568,1435.56Z" style="fill:rgb(110,110,111);fill-rule:nonzero;"/>
        </g>
        <g transform="matrix(4.16667,0,0,4.16667,0,0)">
            <path d="M257.005,1434.94C256.752,1435.13 256.455,1435.23 256.103,1435.23C255.619,1435.23 255.223,1435.06 254.904,1434.73C254.585,1434.39 254.409,1433.92 254.376,1433.29L258.633,1433.29C258.633,1433.18 258.633,1433.1 258.633,1433.04C258.633,1432.09 258.391,1431.37 257.907,1430.85C257.423,1430.33 256.807,1430.07 256.048,1430.07C255.256,1430.07 254.618,1430.33 254.123,1430.86C253.628,1431.39 253.386,1432.14 253.386,1433.1C253.386,1434.02 253.628,1434.73 254.123,1435.25C254.607,1435.77 255.267,1436.02 256.103,1436.02C256.763,1436.02 257.302,1435.86 257.731,1435.54C258.149,1435.22 258.446,1434.77 258.6,1434.18L257.599,1434.05C257.456,1434.46 257.258,1434.76 257.005,1434.94ZM254.937,1431.31C255.234,1431.02 255.608,1430.86 256.048,1430.86C256.543,1430.86 256.939,1431.05 257.247,1431.42C257.445,1431.66 257.566,1432.02 257.61,1432.5L254.431,1432.5C254.464,1432.01 254.629,1431.61 254.937,1431.31Z" style="fill:rgb(110,110,111);fill-rule:nonzero;"/>
        </g>
        <g transform="matrix(4.16667,0,0,4.16667,0,0)">
            <path d="M263.066,1434.88C262.813,1435.11 262.494,1435.23 262.12,1435.23C261.647,1435.23 261.262,1435.05 260.965,1434.71C260.668,1434.36 260.525,1433.81 260.525,1433.04C260.525,1432.28 260.679,1431.73 260.987,1431.39C261.284,1431.04 261.68,1430.86 262.175,1430.86C262.494,1430.86 262.769,1430.96 263,1431.15C263.22,1431.35 263.385,1431.63 263.473,1432.02L264.408,1431.87C264.298,1431.3 264.045,1430.85 263.649,1430.54C263.253,1430.22 262.747,1430.07 262.131,1430.07C261.647,1430.07 261.185,1430.18 260.767,1430.41C260.36,1430.64 260.041,1430.99 259.843,1431.46C259.634,1431.92 259.535,1432.46 259.535,1433.06C259.535,1434.02 259.777,1434.75 260.25,1435.26C260.723,1435.77 261.35,1436.02 262.131,1436.02C262.747,1436.02 263.275,1435.83 263.704,1435.47C264.122,1435.1 264.397,1434.59 264.496,1433.94L263.55,1433.81C263.484,1434.29 263.319,1434.65 263.066,1434.88Z" style="fill:rgb(110,110,111);fill-rule:nonzero;"/>
        </g>
        <g transform="matrix(4.16667,0,0,4.16667,0,0)">
            <path d="M267.004,1435.08C266.861,1435.08 266.751,1435.05 266.674,1435.01C266.597,1434.95 266.542,1434.9 266.509,1434.81C266.476,1434.73 266.454,1434.56 266.454,1434.28L266.454,1430.94L267.422,1430.94L267.422,1430.19L266.454,1430.19L266.454,1428.2L265.486,1428.78L265.486,1430.19L264.771,1430.19L264.771,1430.94L265.486,1430.94L265.486,1434.23C265.486,1434.81 265.53,1435.18 265.607,1435.37C265.684,1435.55 265.816,1435.7 266.014,1435.81C266.201,1435.92 266.476,1435.98 266.828,1435.98C267.037,1435.98 267.279,1435.94 267.554,1435.89L267.422,1435.04C267.246,1435.06 267.103,1435.08 267.004,1435.08Z" style="fill:rgb(110,110,111);fill-rule:nonzero;"/>
        </g>
        <g transform="matrix(4.16667,0,0,4.16667,0,0)">
            <path d="M271.679,1434.94C271.426,1435.13 271.129,1435.23 270.777,1435.23C270.293,1435.23 269.897,1435.06 269.578,1434.73C269.259,1434.39 269.083,1433.92 269.05,1433.29L273.307,1433.29C273.307,1433.18 273.307,1433.1 273.307,1433.04C273.307,1432.09 273.065,1431.37 272.581,1430.85C272.097,1430.33 271.481,1430.07 270.722,1430.07C269.93,1430.07 269.292,1430.33 268.797,1430.86C268.302,1431.39 268.06,1432.14 268.06,1433.1C268.06,1434.02 268.302,1434.73 268.797,1435.25C269.281,1435.77 269.941,1436.02 270.777,1436.02C271.437,1436.02 271.976,1435.86 272.405,1435.54C272.823,1435.22 273.12,1434.77 273.274,1434.18L272.273,1434.05C272.13,1434.46 271.932,1434.76 271.679,1434.94ZM269.611,1431.31C269.908,1431.02 270.282,1430.86 270.722,1430.86C271.217,1430.86 271.613,1431.05 271.921,1431.42C272.119,1431.66 272.24,1432.02 272.284,1432.5L269.105,1432.5C269.138,1432.01 269.303,1431.61 269.611,1431.31Z" style="fill:rgb(110,110,111);fill-rule:nonzero;"/>
        </g>
        <g transform="matrix(4.16667,0,0,4.16667,0,0)">
            <path d="M276.178,1435.08C276.035,1435.08 275.925,1435.05 275.848,1435.01C275.771,1434.95 275.716,1434.9 275.683,1434.81C275.65,1434.73 275.628,1434.56 275.628,1434.28L275.628,1430.94L276.596,1430.94L276.596,1430.19L275.628,1430.19L275.628,1428.2L274.66,1428.78L274.66,1430.19L273.945,1430.19L273.945,1430.94L274.66,1430.94L274.66,1434.23C274.66,1434.81 274.704,1435.18 274.781,1435.37C274.858,1435.55 274.99,1435.7 275.188,1435.81C275.375,1435.92 275.65,1435.98 276.002,1435.98C276.211,1435.98 276.453,1435.94 276.728,1435.89L276.596,1435.04C276.42,1435.06 276.277,1435.08 276.178,1435.08Z" style="fill:rgb(110,110,111);fill-rule:nonzero;"/>
        </g>
        <g transform="matrix(4.16667,0,0,4.16667,0,0)">
            <path d="M282.151,1435.9L282.151,1430.19L281.183,1430.19L281.183,1433.24C281.183,1433.73 281.128,1434.1 281.029,1434.36C280.919,1434.61 280.743,1434.81 280.49,1434.96C280.237,1435.11 279.962,1435.18 279.676,1435.18C279.379,1435.18 279.137,1435.11 278.939,1434.96C278.752,1434.82 278.62,1434.62 278.554,1434.37C278.521,1434.19 278.499,1433.85 278.499,1433.35L278.499,1430.19L277.531,1430.19L277.531,1433.72C277.531,1434.14 277.553,1434.44 277.586,1434.62C277.652,1434.91 277.751,1435.15 277.883,1435.34C278.026,1435.54 278.246,1435.7 278.532,1435.82C278.829,1435.95 279.137,1436.02 279.478,1436.02C280.237,1436.02 280.842,1435.7 281.282,1435.05L281.282,1435.9L282.151,1435.9Z" style="fill:rgb(110,110,111);fill-rule:nonzero;"/>
        </g>
        <g transform="matrix(4.16667,0,0,4.16667,0,0)">
            <path d="M284.626,1435.9L284.626,1432.92C284.626,1432.51 284.681,1432.14 284.791,1431.79C284.857,1431.57 284.978,1431.39 285.143,1431.26C285.308,1431.14 285.506,1431.07 285.715,1431.07C285.946,1431.07 286.177,1431.14 286.419,1431.27L286.76,1430.38C286.419,1430.17 286.089,1430.07 285.77,1430.07C285.539,1430.07 285.33,1430.14 285.143,1430.27C284.956,1430.39 284.747,1430.66 284.527,1431.06L284.527,1430.19L283.658,1430.19L283.658,1435.9L284.626,1435.9Z" style="fill:rgb(110,110,111);fill-rule:nonzero;"/>
        </g>
        <g transform="matrix(4.16667,0,0,4.16667,0,0)">
            <path d="M294.306,1435.9L295.318,1435.9C295.197,1435.68 295.12,1435.45 295.076,1435.21C295.043,1434.98 295.021,1434.4 295.021,1433.51L295.021,1432.23C295.021,1431.8 295.01,1431.5 294.977,1431.34C294.911,1431.07 294.812,1430.85 294.669,1430.67C294.526,1430.5 294.306,1430.36 293.998,1430.25C293.69,1430.12 293.294,1430.07 292.81,1430.07C292.315,1430.07 291.886,1430.14 291.512,1430.27C291.138,1430.41 290.852,1430.6 290.654,1430.85C290.456,1431.09 290.313,1431.42 290.225,1431.83L291.171,1431.96C291.27,1431.56 291.435,1431.27 291.655,1431.12C291.875,1430.95 292.205,1430.87 292.667,1430.87C293.151,1430.87 293.525,1430.98 293.767,1431.2C293.954,1431.36 294.042,1431.63 294.042,1432.03C294.042,1432.06 294.042,1432.15 294.042,1432.28C293.668,1432.41 293.096,1432.52 292.304,1432.61C291.93,1432.65 291.644,1432.71 291.446,1432.75C291.193,1432.83 290.962,1432.93 290.753,1433.07C290.544,1433.22 290.379,1433.4 290.247,1433.63C290.126,1433.85 290.06,1434.12 290.06,1434.39C290.06,1434.87 290.225,1435.26 290.566,1435.56C290.907,1435.87 291.391,1436.02 292.018,1436.02C292.392,1436.02 292.755,1435.95 293.085,1435.83C293.415,1435.7 293.756,1435.49 294.119,1435.18C294.152,1435.46 294.207,1435.69 294.306,1435.9ZM294.042,1433.39C294.042,1433.82 293.987,1434.14 293.877,1434.35C293.745,1434.63 293.536,1434.86 293.239,1435.02C292.953,1435.18 292.623,1435.26 292.249,1435.26C291.864,1435.26 291.578,1435.17 291.391,1435.01C291.193,1434.83 291.094,1434.62 291.094,1434.36C291.094,1434.19 291.138,1434.04 291.226,1433.91C291.314,1433.77 291.446,1433.67 291.611,1433.59C291.776,1433.52 292.062,1433.46 292.458,1433.4C293.162,1433.3 293.69,1433.18 294.042,1433.04L294.042,1433.39Z" style="fill:rgb(110,110,111);fill-rule:nonzero;"/>
        </g>
        <g transform="matrix(4.16667,0,0,4.16667,0,0)">
            <path d="M301.093,1435.9L301.093,1428.02L300.125,1428.02L300.125,1430.86C299.96,1430.62 299.74,1430.43 299.465,1430.29C299.201,1430.15 298.893,1430.07 298.552,1430.07C298.079,1430.07 297.661,1430.19 297.276,1430.44C296.902,1430.69 296.616,1431.04 296.429,1431.5C296.242,1431.96 296.143,1432.48 296.143,1433.05C296.143,1433.63 296.253,1434.15 296.462,1434.6C296.671,1435.04 296.957,1435.39 297.342,1435.65C297.727,1435.9 298.145,1436.02 298.596,1436.02C299.3,1436.02 299.828,1435.74 300.191,1435.17L300.191,1435.9L301.093,1435.9ZM297.562,1431.4C297.859,1431.05 298.211,1430.87 298.651,1430.87C299.091,1430.87 299.454,1431.06 299.762,1431.42C300.059,1431.79 300.213,1432.36 300.213,1433.14C300.213,1433.84 300.07,1434.37 299.773,1434.71C299.476,1435.05 299.113,1435.23 298.684,1435.23C298.266,1435.23 297.903,1435.05 297.595,1434.69C297.287,1434.33 297.133,1433.78 297.133,1433.05C297.133,1432.3 297.276,1431.75 297.562,1431.4Z" style="fill:rgb(110,110,111);fill-rule:nonzero;"/>
        </g>
        <g transform="matrix(4.16667,0,0,4.16667,0,0)">
            <path d="M303.59,1429.12L303.59,1428.02L302.622,1428.02L302.622,1429.12L303.59,1429.12ZM303.59,1435.9L303.59,1430.19L302.622,1430.19L302.622,1435.9L303.59,1435.9Z" style="fill:rgb(110,110,111);fill-rule:nonzero;"/>
        </g>
        <g transform="matrix(4.16667,0,0,4.16667,0,0)">
            <path d="M306.032,1438.09L306.032,1435.31C306.197,1435.52 306.406,1435.68 306.659,1435.82C306.923,1435.95 307.209,1436.02 307.528,1436.02C307.968,1436.02 308.386,1435.9 308.793,1435.65C309.189,1435.4 309.486,1435.04 309.695,1434.58C309.904,1434.11 310.014,1433.59 310.014,1433.01C310.014,1432.46 309.915,1431.96 309.728,1431.5C309.541,1431.05 309.255,1430.7 308.892,1430.44C308.518,1430.19 308.089,1430.07 307.594,1430.07C307.231,1430.07 306.912,1430.15 306.648,1430.29C306.384,1430.43 306.153,1430.65 305.944,1430.94L305.944,1430.19L305.064,1430.19L305.064,1438.09L306.032,1438.09ZM306.417,1431.4C306.736,1431.02 307.099,1430.83 307.506,1430.83C307.924,1430.83 308.276,1431.01 308.573,1431.37C308.87,1431.73 309.024,1432.27 309.024,1433C309.024,1433.77 308.87,1434.33 308.562,1434.69C308.265,1435.05 307.891,1435.23 307.462,1435.23C307.044,1435.23 306.681,1435.05 306.384,1434.7C306.087,1434.35 305.944,1433.81 305.944,1433.08C305.944,1432.35 306.098,1431.79 306.417,1431.4Z" style="fill:rgb(110,110,111);fill-rule:nonzero;"/>
        </g>
        <g transform="matrix(4.16667,0,0,4.16667,0,0)">
            <path d="M312.148,1429.12L312.148,1428.02L311.18,1428.02L311.18,1429.12L312.148,1429.12ZM312.148,1435.9L312.148,1430.19L311.18,1430.19L311.18,1435.9L312.148,1435.9Z" style="fill:rgb(110,110,111);fill-rule:nonzero;"/>
        </g>
        <g transform="matrix(4.16667,0,0,4.16667,0,0)">
            <path d="M313.985,1435.56C314.37,1435.87 314.931,1436.02 315.679,1436.02C316.13,1436.02 316.526,1435.94 316.878,1435.79C317.241,1435.64 317.505,1435.42 317.692,1435.13C317.879,1434.84 317.978,1434.55 317.978,1434.22C317.978,1433.89 317.901,1433.61 317.747,1433.39C317.593,1433.17 317.373,1433.01 317.109,1432.89C316.834,1432.78 316.361,1432.62 315.679,1432.43C315.206,1432.31 314.92,1432.23 314.821,1432.19C314.656,1432.13 314.535,1432.04 314.458,1431.94C314.381,1431.83 314.337,1431.72 314.337,1431.6C314.337,1431.4 314.436,1431.23 314.623,1431.08C314.81,1430.94 315.129,1430.86 315.569,1430.86C315.943,1430.86 316.229,1430.95 316.438,1431.12C316.647,1431.28 316.768,1431.51 316.812,1431.81L317.758,1431.68C317.692,1431.3 317.582,1431.01 317.428,1430.79C317.263,1430.57 317.01,1430.39 316.68,1430.27C316.339,1430.14 315.943,1430.07 315.503,1430.07C315.206,1430.07 314.92,1430.1 314.667,1430.18C314.403,1430.26 314.205,1430.36 314.051,1430.47C313.853,1430.61 313.688,1430.79 313.578,1431.01C313.457,1431.23 313.402,1431.46 313.402,1431.71C313.402,1431.98 313.468,1432.25 313.611,1432.48C313.754,1432.7 313.963,1432.89 314.238,1433.02C314.513,1433.15 314.997,1433.3 315.712,1433.48C316.229,1433.61 316.559,1433.72 316.702,1433.81C316.889,1433.93 316.988,1434.11 316.988,1434.33C316.988,1434.57 316.878,1434.78 316.669,1434.95C316.449,1435.14 316.119,1435.23 315.679,1435.23C315.228,1435.23 314.887,1435.13 314.645,1434.92C314.403,1434.72 314.249,1434.43 314.194,1434.04L313.237,1434.19C313.347,1434.8 313.589,1435.25 313.985,1435.56Z" style="fill:rgb(110,110,111);fill-rule:nonzero;"/>
        </g>
        <g transform="matrix(4.16667,0,0,4.16667,0,0)">
            <path d="M320.09,1429.12L320.09,1428.02L319.122,1428.02L319.122,1429.12L320.09,1429.12ZM320.09,1435.9L320.09,1430.19L319.122,1430.19L319.122,1435.9L320.09,1435.9Z" style="fill:rgb(110,110,111);fill-rule:nonzero;"/>
        </g>
        <g transform="matrix(4.16667,0,0,4.16667,0,0)">
            <path d="M324.809,1434.88C324.556,1435.11 324.237,1435.23 323.863,1435.23C323.39,1435.23 323.005,1435.05 322.708,1434.71C322.411,1434.36 322.268,1433.81 322.268,1433.04C322.268,1432.28 322.422,1431.73 322.73,1431.39C323.027,1431.04 323.423,1430.86 323.918,1430.86C324.237,1430.86 324.512,1430.96 324.743,1431.15C324.963,1431.35 325.128,1431.63 325.216,1432.02L326.151,1431.87C326.041,1431.3 325.788,1430.85 325.392,1430.54C324.996,1430.22 324.49,1430.07 323.874,1430.07C323.39,1430.07 322.928,1430.18 322.51,1430.41C322.103,1430.64 321.784,1430.99 321.586,1431.46C321.377,1431.92 321.278,1432.46 321.278,1433.06C321.278,1434.02 321.52,1434.75 321.993,1435.26C322.466,1435.77 323.093,1436.02 323.874,1436.02C324.49,1436.02 325.018,1435.83 325.447,1435.47C325.865,1435.1 326.14,1434.59 326.239,1433.94L325.293,1433.81C325.227,1434.29 325.062,1434.65 324.809,1434.88Z" style="fill:rgb(110,110,111);fill-rule:nonzero;"/>
        </g>
        <g transform="matrix(4.16667,0,0,4.16667,0,0)">
            <path d="M328.032,1429.12L328.032,1428.02L327.064,1428.02L327.064,1429.12L328.032,1429.12ZM328.032,1435.9L328.032,1430.19L327.064,1430.19L327.064,1435.9L328.032,1435.9Z" style="fill:rgb(110,110,111);fill-rule:nonzero;"/>
        </g>
        <g transform="matrix(4.16667,0,0,4.16667,0,0)">
            <path d="M330.474,1435.9L330.474,1432.79C330.474,1432.05 330.628,1431.56 330.925,1431.3C331.222,1431.04 331.574,1430.91 331.981,1430.91C332.245,1430.91 332.465,1430.96 332.652,1431.08C332.85,1431.19 332.982,1431.36 333.059,1431.54C333.136,1431.74 333.169,1432.04 333.169,1432.43L333.169,1435.9L334.137,1435.9L334.137,1432.39C334.137,1431.95 334.115,1431.63 334.082,1431.46C334.027,1431.18 333.928,1430.94 333.785,1430.74C333.642,1430.54 333.422,1430.38 333.136,1430.26C332.85,1430.14 332.531,1430.07 332.19,1430.07C331.398,1430.07 330.793,1430.38 330.375,1431.01L330.375,1430.19L329.506,1430.19L329.506,1435.9L330.474,1435.9Z" style="fill:rgb(110,110,111);fill-rule:nonzero;"/>
        </g>
        <g transform="matrix(4.16667,0,0,4.16667,0,0)">
            <path d="M336.051,1437.75C336.469,1438.06 337.019,1438.21 337.701,1438.21C338.273,1438.21 338.757,1438.1 339.142,1437.89C339.538,1437.67 339.824,1437.38 340,1437.01C340.187,1436.64 340.275,1436.01 340.275,1435.12L340.275,1430.19L339.384,1430.19L339.384,1430.89C338.944,1430.35 338.394,1430.07 337.712,1430.07C337.217,1430.07 336.777,1430.19 336.403,1430.44C336.029,1430.7 335.743,1431.05 335.545,1431.51C335.347,1431.97 335.248,1432.47 335.248,1433.02C335.248,1433.81 335.457,1434.48 335.886,1435.05C336.326,1435.61 336.931,1435.9 337.712,1435.9C338.339,1435.9 338.867,1435.65 339.296,1435.15C339.296,1435.78 339.274,1436.2 339.219,1436.38C339.142,1436.71 338.977,1436.96 338.724,1437.14C338.482,1437.32 338.141,1437.41 337.69,1437.41C337.272,1437.41 336.942,1437.32 336.711,1437.14C336.524,1437.01 336.414,1436.79 336.381,1436.51L335.446,1436.37C335.435,1436.99 335.633,1437.45 336.051,1437.75ZM336.689,1431.4C336.986,1431.05 337.349,1430.87 337.789,1430.87C338.218,1430.87 338.592,1431.05 338.911,1431.4C339.219,1431.75 339.373,1432.28 339.373,1432.99C339.373,1433.71 339.219,1434.24 338.922,1434.58C338.614,1434.92 338.24,1435.1 337.8,1435.1C337.349,1435.1 336.975,1434.92 336.678,1434.58C336.381,1434.24 336.238,1433.69 336.238,1432.95C336.238,1432.26 336.392,1431.74 336.689,1431.4Z" style="fill:rgb(110,110,111);fill-rule:nonzero;"/>
        </g>
        <g transform="matrix(4.16667,0,0,4.16667,0,0)">
            <path d="M348.096,1434.94C347.843,1435.13 347.546,1435.23 347.194,1435.23C346.71,1435.23 346.314,1435.06 345.995,1434.73C345.676,1434.39 345.5,1433.92 345.467,1433.29L349.724,1433.29C349.724,1433.18 349.724,1433.1 349.724,1433.04C349.724,1432.09 349.482,1431.37 348.998,1430.85C348.514,1430.33 347.898,1430.07 347.139,1430.07C346.347,1430.07 345.709,1430.33 345.214,1430.86C344.719,1431.39 344.477,1432.14 344.477,1433.1C344.477,1434.02 344.719,1434.73 345.214,1435.25C345.698,1435.77 346.358,1436.02 347.194,1436.02C347.854,1436.02 348.393,1435.86 348.822,1435.54C349.24,1435.22 349.537,1434.77 349.691,1434.18L348.69,1434.05C348.547,1434.46 348.349,1434.76 348.096,1434.94ZM346.028,1431.31C346.325,1431.02 346.699,1430.86 347.139,1430.86C347.634,1430.86 348.03,1431.05 348.338,1431.42C348.536,1431.66 348.657,1432.02 348.701,1432.5L345.522,1432.5C345.555,1432.01 345.72,1431.61 346.028,1431.31Z" style="fill:rgb(110,110,111);fill-rule:nonzero;"/>
        </g>
        <g transform="matrix(4.16667,0,0,4.16667,0,0)">
            <rect x="350.89" y="1428.02" width="0.968" height="7.876" style="fill:rgb(110,110,111);fill-rule:nonzero;"/>
        </g>
        <g transform="matrix(4.16667,0,0,4.16667,0,0)">
            <path d="M354.322,1429.12L354.322,1428.02L353.354,1428.02L353.354,1429.12L354.322,1429.12ZM354.322,1435.9L354.322,1430.19L353.354,1430.19L353.354,1435.9L354.322,1435.9Z" style="fill:rgb(110,110,111);fill-rule:nonzero;"/>
        </g>
        <g transform="matrix(4.16667,0,0,4.16667,0,0)">
            <path d="M357.479,1435.08C357.336,1435.08 357.226,1435.05 357.149,1435.01C357.072,1434.95 357.017,1434.9 356.984,1434.81C356.951,1434.73 356.929,1434.56 356.929,1434.28L356.929,1430.94L357.897,1430.94L357.897,1430.19L356.929,1430.19L356.929,1428.2L355.961,1428.78L355.961,1430.19L355.246,1430.19L355.246,1430.94L355.961,1430.94L355.961,1434.23C355.961,1434.81 356.005,1435.18 356.082,1435.37C356.159,1435.55 356.291,1435.7 356.489,1435.81C356.676,1435.92 356.951,1435.98 357.303,1435.98C357.512,1435.98 357.754,1435.94 358.029,1435.89L357.897,1435.04C357.721,1435.06 357.578,1435.08 357.479,1435.08Z" style="fill:rgb(110,110,111);fill-rule:nonzero;"/>
        </g>
        <g transform="matrix(4.16667,0,0,4.16667,0,0)">
            <rect x="359.129" y="1434.8" width="1.1" height="1.1" style="fill:rgb(110,110,111);fill-rule:nonzero;"/>
        </g>
    </g>
</svg>
