<?xml version="1.0" standalone="no"?>
<!DOCTYPE svg PUBLIC "-//W3C//DTD SVG 1.1//EN" "http://www.w3.org/Graphics/SVG/1.1/DTD/svg11.dtd">
<svg width="100%" height="100%" viewBox="0 0 317 156" version="1.1" xmlns="http://www.w3.org/2000/svg" xmlns:xlink="http://www.w3.org/1999/xlink" xml:space="preserve" style="fill-rule:evenodd;clip-rule:evenodd;stroke-linejoin:round;stroke-miterlimit:1.41421;">
    <g transform="matrix(1.33333,0,0,1.33333,-662.106,-7121.33)">
        <g transform="matrix(4.16667,0,0,4.16667,0,0)">
            <path d="M121.179,1309.34C120.352,1309.34 119.679,1308.67 119.679,1307.84L119.679,1283.84C119.679,1283.01 120.352,1282.34 121.179,1282.34L174.098,1282.34C174.925,1282.34 175.598,1283.01 175.598,1283.84L175.598,1307.84C175.598,1308.67 174.925,1309.34 174.098,1309.34L121.179,1309.34Z" style="fill:url(#_Linear1);"/>
        </g>
        <g transform="matrix(4.16667,0,0,4.16667,0,0)">
            <path d="M174.098,1281.84L121.179,1281.84C120.073,1281.84 119.179,1282.74 119.179,1283.84L119.179,1307.84C119.179,1308.95 120.073,1309.84 121.179,1309.84L174.098,1309.84C175.201,1309.84 176.098,1308.95 176.098,1307.84L176.098,1283.84C176.098,1282.74 175.201,1281.84 174.098,1281.84ZM174.098,1282.84C174.649,1282.84 175.098,1283.29 175.098,1283.84L175.098,1307.84C175.098,1308.39 174.649,1308.84 174.098,1308.84L121.179,1308.84C120.627,1308.84 120.179,1308.39 120.179,1307.84L120.179,1283.84C120.179,1283.29 120.627,1282.84 121.179,1282.84L174.098,1282.84Z" style="fill:rgb(217,217,217);fill-rule:nonzero;"/>
        </g>
        <g transform="matrix(4.16667,0,0,4.16667,0,0)">
            <path d="M134.369,1302.08L128.274,1295.75L134.38,1289.6L135.8,1291.01L131.072,1295.77L135.811,1300.69L134.369,1302.08Z" style="fill:rgb(159,159,159);fill-rule:nonzero;"/>
        </g>
        <g transform="matrix(4.16667,0,0,4.16667,0,0)">
            <path d="M159.206,1302.08L165.3,1295.75L159.195,1289.6L157.775,1291.01L162.503,1295.77L157.765,1300.69L159.206,1302.08Z" style="fill:rgb(112,114,115);fill-rule:nonzero;"/>
        </g>
        <g transform="matrix(4.16667,0,0,4.16667,0,0)">
            <path d="M146.71,1281.84L146.71,1309.84L147.71,1309.84L147.71,1281.84" style="fill:rgb(217,217,217);fill-rule:nonzero;"/>
        </g>
        <g transform="matrix(4.16667,0,0,4.16667,0,0)">
            <path d="M147.726,1282.84L147.726,1308.83L148.726,1308.83L148.726,1282.84" style="fill:white;fill-rule:nonzero;"/>
        </g>
    </g>
    <defs>
        <linearGradient id="_Linear1" x1="0" y1="0" x2="1" y2="0" gradientUnits="userSpaceOnUse" gradientTransform="matrix(-1.16281e-06,26.6021,-26.6021,-1.16281e-06,147.638,1282.61)"><stop offset="0%" style="stop-color:rgb(246,248,249);stop-opacity:1"/><stop offset="100%" style="stop-color:rgb(243,243,244);stop-opacity:1"/></linearGradient>
    </defs>
</svg>
