<?xml version="1.0" standalone="no"?>
<!DOCTYPE svg PUBLIC "-//W3C//DTD SVG 1.1//EN" "http://www.w3.org/Graphics/SVG/1.1/DTD/svg11.dtd">
<svg width="100%" height="100%" viewBox="0 0 189 189" version="1.1" xmlns="http://www.w3.org/2000/svg" xmlns:xlink="http://www.w3.org/1999/xlink" xml:space="preserve" style="fill-rule:evenodd;clip-rule:evenodd;stroke-linejoin:round;stroke-miterlimit:1.41421;">
    <g transform="matrix(1.33333,0,0,1.33333,-4257.18,-9663.06)">
        <g transform="matrix(4.16667,0,0,4.16667,0,0)">
            <rect x="766.792" y="1739.85" width="33" height="33" style="fill:white;fill-rule:nonzero;"/>
        </g>
        <g transform="matrix(4.16667,0,0,4.16667,0,0)">
            <path d="M800.292,1739.35L799.292,1739.35L767.292,1739.35L766.292,1739.35L766.292,1773.35L800.292,1773.35L800.292,1772.35L800.292,1740.35L800.292,1739.35ZM799.292,1740.35L799.292,1772.35L767.292,1772.35L767.292,1740.35L799.292,1740.35Z" style="fill:rgb(203,203,203);fill-rule:nonzero;"/>
        </g>
        <g transform="matrix(4.16667,0,0,4.16667,0,0)">
            <rect x="768.292" y="1741.35" width="30" height="30" style="fill:rgb(209,209,210);fill-rule:nonzero;"/>
        </g>
        <g transform="matrix(4.16667,0,0,4.16667,0,0)">
            <path d="M793.512,1764.06C789.988,1762.58 786.933,1761.32 786.933,1761.32C786.933,1761.32 786.933,1759.76 786.933,1758.66C786.933,1757.56 788.735,1756.39 788.735,1751.85C788.735,1747.48 786.705,1745.07 783.486,1744.89L783.486,1744.87L783.292,1744.88L783.095,1744.87L783.095,1744.89C779.876,1745.07 777.846,1747.48 777.846,1751.85C777.846,1756.39 779.648,1757.56 779.648,1758.66C779.648,1759.76 779.648,1761.32 779.648,1761.32C779.648,1761.32 776.593,1762.58 773.069,1764.06C769.542,1765.55 768.292,1767.67 768.292,1768.84C768.292,1770.02 768.292,1771.27 768.292,1771.27L798.292,1771.27C798.292,1771.27 798.292,1770.02 798.292,1768.84C798.292,1767.67 797.036,1765.55 793.512,1764.06Z" style="fill:rgb(112,114,115);fill-rule:nonzero;"/>
        </g>
    </g>
</svg>
