<?xml version="1.0" standalone="no"?>
<!DOCTYPE svg PUBLIC "-//W3C//DTD SVG 1.1//EN" "http://www.w3.org/Graphics/SVG/1.1/DTD/svg11.dtd">
<svg width="100%" height="100%" viewBox="0 0 355 112" version="1.1" xmlns="http://www.w3.org/2000/svg" xmlns:xlink="http://www.w3.org/1999/xlink" xml:space="preserve" style="fill-rule:evenodd;clip-rule:evenodd;stroke-linejoin:round;stroke-miterlimit:1.41421;">
    <g transform="matrix(1.33333,0,0,1.33333,-654.3,-6933.11)">
        <g transform="matrix(4.16667,0,0,4.16667,0,0)">
            <path d="M119.678,1267.46C118.904,1267.46 118.274,1266.83 118.274,1266.05L118.274,1249.86C118.274,1249.09 118.904,1248.46 119.678,1248.46L179.668,1248.46C180.442,1248.46 181.073,1249.09 181.073,1249.86L181.073,1266.05C181.073,1266.83 180.442,1267.46 179.668,1267.46L119.678,1267.46Z" style="fill:url(#_Linear1);"/>
        </g>
        <g transform="matrix(4.16667,0,0,4.16667,0,0)">
            <path d="M179.668,1247.96L119.678,1247.96C118.626,1247.96 117.774,1248.81 117.774,1249.86L117.774,1266.05C117.774,1267.1 118.626,1267.96 119.678,1267.96L179.668,1267.96C180.72,1267.96 181.573,1267.1 181.573,1266.05L181.573,1249.86C181.573,1248.81 180.72,1247.96 179.668,1247.96ZM179.668,1248.96C180.167,1248.96 180.573,1249.36 180.573,1249.86L180.573,1266.05C180.573,1266.55 180.167,1266.96 179.668,1266.96L119.678,1266.96C119.18,1266.96 118.774,1266.55 118.774,1266.05L118.774,1249.86C118.774,1249.36 119.18,1248.96 119.678,1248.96L179.668,1248.96Z" style="fill:rgb(217,217,217);fill-rule:nonzero;"/>
        </g>
        <g transform="matrix(4.16667,0,0,4.16667,0,0)">
            <path d="M138.054,1261.06C138.747,1261.77 139.682,1262.13 140.848,1262.13C142.014,1262.13 142.938,1261.77 143.631,1261.06C144.324,1260.33 144.665,1259.34 144.665,1258.06C144.665,1256.78 144.313,1255.78 143.62,1255.05C142.927,1254.33 141.992,1253.97 140.837,1253.97C140.188,1253.97 139.627,1254.07 139.132,1254.28C138.769,1254.43 138.428,1254.67 138.109,1254.99C137.801,1255.31 137.559,1255.68 137.383,1256.07C137.141,1256.62 137.02,1257.29 137.02,1258.1C137.02,1259.36 137.361,1260.34 138.054,1261.06ZM139.264,1256.01C139.66,1255.56 140.199,1255.34 140.848,1255.34C141.508,1255.34 142.036,1255.56 142.432,1256.01C142.828,1256.45 143.026,1257.12 143.026,1258.03C143.026,1258.94 142.817,1259.62 142.41,1260.09C142.003,1260.54 141.486,1260.77 140.848,1260.77C140.21,1260.77 139.693,1260.54 139.275,1260.08C138.868,1259.61 138.659,1258.94 138.659,1258.05C138.659,1257.14 138.857,1256.46 139.264,1256.01Z" style="fill:rgb(159,159,159);fill-rule:nonzero;"/>
        </g>
        <g transform="matrix(4.16667,0,0,4.16667,0,0)">
            <path d="M147.523,1261.99L147.523,1259.6L148.799,1258.29L150.977,1261.99L153.034,1261.99L149.899,1257.18L152.88,1254.11L150.735,1254.11L147.523,1257.6L147.523,1254.11L145.928,1254.11L145.928,1261.99L147.523,1261.99Z" style="fill:rgb(159,159,159);fill-rule:nonzero;"/>
        </g>
        <g transform="matrix(4.16667,0,0,4.16667,0,0)">
            <path d="M165.777,1257.97C165.777,1260.17 163.986,1261.97 161.777,1261.97C159.567,1261.97 157.777,1260.17 157.777,1257.97C157.777,1255.76 159.567,1253.97 161.777,1253.97C163.986,1253.97 165.777,1255.76 165.777,1257.97Z" style="fill:rgb(159,159,159);fill-rule:nonzero;"/>
        </g>
        <g transform="matrix(4.16667,0,0,4.16667,0,0)">
            <path d="M164.354,1256.91L163.647,1256.2L161.324,1258.52L160.188,1257.39L159.481,1258.09L161.322,1259.93L161.353,1259.91L161.354,1259.91L164.354,1256.91Z" style="fill:white;fill-rule:nonzero;"/>
        </g>
    </g>
    <defs>
        <linearGradient id="_Linear1" x1="0" y1="0" x2="1" y2="0" gradientUnits="userSpaceOnUse" gradientTransform="matrix(-8.18277e-07,18.72,-18.72,-8.18277e-07,149.673,1248.65)"><stop offset="0%" style="stop-color:rgb(246,248,249);stop-opacity:1"/><stop offset="100%" style="stop-color:rgb(243,243,244);stop-opacity:1"/></linearGradient>
    </defs>
</svg>
