<?xml version="1.0" standalone="no"?>
<!DOCTYPE svg PUBLIC "-//W3C//DTD SVG 1.1//EN" "http://www.w3.org/Graphics/SVG/1.1/DTD/svg11.dtd">
<svg width="100%" height="100%" viewBox="0 0 316 112" version="1.1" xmlns="http://www.w3.org/2000/svg" xmlns:xlink="http://www.w3.org/1999/xlink" xml:space="preserve" style="fill-rule:evenodd;clip-rule:evenodd;stroke-linejoin:round;stroke-miterlimit:1.41421;">
    <g transform="matrix(1.33333,0,0,1.33333,-1838.27,-6933.11)">
        <g transform="matrix(4.16667,0,0,4.16667,0,0)">
            <path d="M339.866,1267.46C338.813,1267.46 337.881,1266.53 337.285,1265.75L331.511,1257.76L337.286,1250.16C338.434,1248.66 339.264,1248.46 339.991,1248.46L385.783,1248.46C386.557,1248.46 387.187,1249.08 387.187,1249.86L387.187,1266.05C387.187,1266.82 386.557,1267.46 385.783,1267.46L339.866,1267.46Z" style="fill:url(#_Linear1);"/>
        </g>
        <g transform="matrix(4.16667,0,0,4.16667,0,0)">
            <path d="M385.783,1247.96L339.991,1247.96C338.939,1247.96 338.008,1248.4 336.888,1249.86L330.888,1257.76L336.888,1266.05C337.784,1267.22 338.814,1267.96 339.866,1267.96L385.783,1267.96C386.834,1267.96 387.687,1267.1 387.687,1266.05L387.687,1249.86C387.687,1248.81 386.834,1247.96 385.783,1247.96ZM385.783,1248.96C386.281,1248.96 386.687,1249.36 386.687,1249.86L386.687,1266.05C386.687,1266.55 386.281,1266.96 385.783,1266.96L339.866,1266.96C339.204,1266.96 338.428,1266.42 337.698,1265.47L332.133,1257.77L337.683,1250.47C338.75,1249.07 339.434,1248.96 339.991,1248.96L385.783,1248.96Z" style="fill:rgb(217,217,217);fill-rule:nonzero;"/>
        </g>
        <g transform="matrix(4.16667,0,0,4.16667,0,0)">
            <path d="M352.97,1261.99L352.97,1258.78L354.994,1258.78C356.105,1258.78 356.875,1258.55 357.304,1258.09C357.733,1257.62 357.942,1257.05 357.942,1256.39C357.942,1256 357.865,1255.64 357.7,1255.31C357.546,1254.99 357.337,1254.74 357.073,1254.55C356.809,1254.38 356.49,1254.26 356.094,1254.19C355.819,1254.14 355.423,1254.11 354.895,1254.11L351.925,1254.11L351.925,1261.99L352.97,1261.99ZM352.97,1255.04L354.983,1255.04C355.456,1255.04 355.786,1255.06 355.951,1255.1C356.226,1255.18 356.446,1255.34 356.611,1255.58C356.776,1255.81 356.864,1256.09 356.864,1256.42C356.864,1256.88 356.721,1257.23 356.435,1257.48C356.16,1257.73 355.676,1257.85 355.005,1257.85L352.97,1257.85L352.97,1255.04Z" style="fill:rgb(159,159,159);fill-rule:nonzero;"/>
        </g>
        <g transform="matrix(4.16667,0,0,4.16667,0,0)">
            <path d="M360.098,1261.99L360.098,1259.01C360.098,1258.6 360.153,1258.23 360.263,1257.88C360.329,1257.66 360.45,1257.48 360.615,1257.35C360.78,1257.23 360.978,1257.16 361.187,1257.16C361.418,1257.16 361.649,1257.23 361.891,1257.36L362.232,1256.47C361.891,1256.26 361.561,1256.16 361.242,1256.16C361.011,1256.16 360.802,1256.23 360.615,1256.36C360.428,1256.48 360.219,1256.75 359.999,1257.15L359.999,1256.28L359.13,1256.28L359.13,1261.99L360.098,1261.99Z" style="fill:rgb(159,159,159);fill-rule:nonzero;"/>
        </g>
        <g transform="matrix(4.16667,0,0,4.16667,0,0)">
            <path d="M366.104,1261.03C365.851,1261.22 365.554,1261.32 365.202,1261.32C364.718,1261.32 364.322,1261.15 364.003,1260.82C363.684,1260.48 363.508,1260.01 363.475,1259.38L367.732,1259.38C367.732,1259.27 367.732,1259.18 367.732,1259.13C367.732,1258.18 367.49,1257.46 367.006,1256.94C366.522,1256.42 365.906,1256.16 365.147,1256.16C364.355,1256.16 363.717,1256.42 363.222,1256.95C362.727,1257.48 362.485,1258.23 362.485,1259.18C362.485,1260.11 362.727,1260.82 363.222,1261.34C363.706,1261.86 364.366,1262.11 365.202,1262.11C365.862,1262.11 366.401,1261.95 366.83,1261.63C367.248,1261.31 367.545,1260.86 367.699,1260.27L366.698,1260.14C366.555,1260.55 366.357,1260.85 366.104,1261.03ZM364.036,1257.4C364.333,1257.11 364.707,1256.95 365.147,1256.95C365.642,1256.95 366.038,1257.14 366.346,1257.51C366.544,1257.76 366.665,1258.11 366.709,1258.59L363.53,1258.59C363.563,1258.1 363.728,1257.7 364.036,1257.4Z" style="fill:rgb(159,159,159);fill-rule:nonzero;"/>
        </g>
        <g transform="matrix(4.16667,0,0,4.16667,0,0)">
            <path d="M371.406,1261.99L373.573,1256.28L372.583,1256.28L371.307,1259.77C371.153,1260.19 371.032,1260.55 370.955,1260.85C370.834,1260.45 370.713,1260.07 370.581,1259.7L369.36,1256.28L368.326,1256.28L370.482,1261.99L371.406,1261.99Z" style="fill:rgb(159,159,159);fill-rule:nonzero;"/>
        </g>
        <g transform="matrix(4.16667,0,0,4.16667,0,0)">
            <path d="M342.978,1260.74L340.167,1257.89L342.979,1255.07L343.688,1255.77L341.576,1257.89L343.69,1260.03L342.978,1260.74Z" style="fill:rgb(159,159,159);fill-rule:nonzero;"/>
        </g>
    </g>
    <defs>
        <linearGradient id="_Linear1" x1="0" y1="0" x2="1" y2="0" gradientUnits="userSpaceOnUse" gradientTransform="matrix(-8.18277e-07,18.72,-18.72,-8.18277e-07,359.349,1248.65)"><stop offset="0%" style="stop-color:rgb(246,248,249);stop-opacity:1"/><stop offset="100%" style="stop-color:rgb(243,243,244);stop-opacity:1"/></linearGradient>
    </defs>
</svg>
