<?xml version="1.0" standalone="no"?>
<!DOCTYPE svg PUBLIC "-//W3C//DTD SVG 1.1//EN" "http://www.w3.org/Graphics/SVG/1.1/DTD/svg11.dtd">
<svg width="100%" height="100%" viewBox="0 0 355 112" version="1.1" xmlns="http://www.w3.org/2000/svg" xmlns:xlink="http://www.w3.org/1999/xlink" xml:space="preserve" style="fill-rule:evenodd;clip-rule:evenodd;stroke-linejoin:round;stroke-miterlimit:1.41421;">
    <g transform="matrix(1.33333,0,0,1.33333,-1050.91,-6933.11)">
        <g transform="matrix(4.16667,0,0,4.16667,0,0)">
            <path d="M191.067,1267.46C190.293,1267.46 189.663,1266.82 189.663,1266.05L189.663,1249.86C189.663,1249.09 190.293,1248.46 191.067,1248.46L251.057,1248.46C251.832,1248.46 252.462,1249.09 252.462,1249.86L252.462,1266.05C252.462,1266.82 251.832,1267.46 251.057,1267.46L191.067,1267.46Z" style="fill:url(#_Linear1);"/>
        </g>
        <g transform="matrix(4.16667,0,0,4.16667,0,0)">
            <path d="M251.057,1247.96L191.067,1247.96C190.016,1247.96 189.163,1248.81 189.163,1249.86L189.163,1266.05C189.163,1267.1 190.016,1267.96 191.067,1267.96L251.057,1267.96C252.109,1267.96 252.962,1267.1 252.962,1266.05L252.962,1249.86C252.962,1248.81 252.109,1247.96 251.057,1247.96ZM251.057,1248.96C251.556,1248.96 251.962,1249.36 251.962,1249.86L251.962,1266.05C251.962,1266.55 251.556,1266.96 251.057,1266.96L191.067,1266.96C190.569,1266.96 190.163,1266.55 190.163,1266.05L190.163,1249.86C190.163,1249.36 190.569,1248.96 191.067,1248.96L251.057,1248.96Z" style="fill:rgb(217,217,217);fill-rule:nonzero;"/>
        </g>
        <g transform="matrix(4.16667,0,0,4.16667,0,0)">
            <path d="M213.496,1260.48C213.089,1260.82 212.594,1260.98 212.011,1260.98C211.538,1260.98 211.087,1260.86 210.68,1260.61C210.273,1260.37 209.965,1259.99 209.778,1259.5C209.58,1258.99 209.481,1258.41 209.481,1257.74C209.481,1257.22 209.558,1256.71 209.723,1256.23C209.888,1255.73 210.174,1255.35 210.581,1255.06C210.988,1254.77 211.494,1254.62 212.099,1254.62C212.627,1254.62 213.056,1254.76 213.408,1255.02C213.749,1255.27 214.013,1255.69 214.2,1256.26L215.223,1256.02C215.014,1255.29 214.64,1254.73 214.101,1254.34C213.562,1253.93 212.902,1253.73 212.121,1253.73C211.417,1253.73 210.79,1253.89 210.207,1254.2C209.635,1254.52 209.184,1254.99 208.876,1255.6C208.557,1256.21 208.403,1256.92 208.403,1257.75C208.403,1258.5 208.546,1259.2 208.821,1259.85C209.096,1260.51 209.503,1261 210.031,1261.36C210.559,1261.7 211.252,1261.87 212.099,1261.87C212.913,1261.87 213.606,1261.65 214.178,1261.2C214.739,1260.75 215.135,1260.1 215.355,1259.24L214.31,1258.98C214.167,1259.64 213.892,1260.14 213.496,1260.48Z" style="fill:rgb(159,159,159);fill-rule:nonzero;"/>
        </g>
        <g transform="matrix(4.16667,0,0,4.16667,0,0)">
            <path d="M220.437,1261.74L221.449,1261.74C221.328,1261.52 221.251,1261.29 221.207,1261.05C221.174,1260.82 221.152,1260.24 221.152,1259.35L221.152,1258.07C221.152,1257.64 221.141,1257.34 221.108,1257.17C221.042,1256.91 220.943,1256.69 220.8,1256.52C220.657,1256.34 220.437,1256.2 220.129,1256.09C219.821,1255.96 219.425,1255.91 218.941,1255.91C218.446,1255.91 218.017,1255.98 217.643,1256.11C217.269,1256.25 216.983,1256.44 216.785,1256.69C216.587,1256.93 216.444,1257.26 216.356,1257.67L217.302,1257.8C217.401,1257.39 217.566,1257.11 217.786,1256.95C218.006,1256.79 218.336,1256.71 218.798,1256.71C219.282,1256.71 219.656,1256.82 219.898,1257.04C220.085,1257.2 220.173,1257.47 220.173,1257.87C220.173,1257.9 220.173,1257.99 220.173,1258.12C219.799,1258.25 219.227,1258.36 218.435,1258.45C218.061,1258.5 217.775,1258.55 217.577,1258.59C217.324,1258.67 217.093,1258.77 216.884,1258.91C216.675,1259.06 216.51,1259.24 216.378,1259.47C216.257,1259.69 216.191,1259.96 216.191,1260.23C216.191,1260.71 216.356,1261.1 216.697,1261.4C217.038,1261.71 217.522,1261.86 218.149,1261.86C218.523,1261.86 218.886,1261.8 219.216,1261.67C219.546,1261.54 219.887,1261.33 220.25,1261.03C220.283,1261.3 220.338,1261.53 220.437,1261.74ZM220.173,1259.23C220.173,1259.66 220.118,1259.98 220.008,1260.19C219.876,1260.48 219.667,1260.69 219.37,1260.86C219.084,1261.03 218.754,1261.1 218.38,1261.1C217.995,1261.1 217.709,1261.01 217.522,1260.85C217.324,1260.67 217.225,1260.46 217.225,1260.2C217.225,1260.04 217.269,1259.88 217.357,1259.75C217.445,1259.61 217.577,1259.51 217.742,1259.43C217.907,1259.36 218.193,1259.3 218.589,1259.24C219.293,1259.14 219.821,1259.02 220.173,1258.88L220.173,1259.23Z" style="fill:rgb(159,159,159);fill-rule:nonzero;"/>
        </g>
        <g transform="matrix(4.16667,0,0,4.16667,0,0)">
            <path d="M223.605,1261.74L223.605,1258.63C223.605,1257.89 223.759,1257.39 224.056,1257.14C224.353,1256.88 224.705,1256.75 225.112,1256.75C225.376,1256.75 225.596,1256.8 225.783,1256.92C225.981,1257.03 226.113,1257.2 226.19,1257.38C226.267,1257.58 226.3,1257.88 226.3,1258.28L226.3,1261.74L227.268,1261.74L227.268,1258.23C227.268,1257.79 227.246,1257.47 227.213,1257.3C227.158,1257.02 227.059,1256.78 226.916,1256.58C226.773,1256.38 226.553,1256.22 226.267,1256.1C225.981,1255.98 225.662,1255.91 225.321,1255.91C224.529,1255.91 223.924,1256.22 223.506,1256.85L223.506,1256.03L222.637,1256.03L222.637,1261.74L223.605,1261.74Z" style="fill:rgb(159,159,159);fill-rule:nonzero;"/>
        </g>
        <g transform="matrix(4.16667,0,0,4.16667,0,0)">
            <path d="M231.998,1260.72C231.745,1260.95 231.426,1261.07 231.052,1261.07C230.579,1261.07 230.194,1260.89 229.897,1260.55C229.6,1260.2 229.457,1259.65 229.457,1258.88C229.457,1258.12 229.611,1257.57 229.919,1257.23C230.216,1256.88 230.612,1256.7 231.107,1256.7C231.426,1256.7 231.701,1256.8 231.932,1256.99C232.152,1257.19 232.317,1257.47 232.405,1257.86L233.34,1257.71C233.23,1257.14 232.977,1256.69 232.581,1256.38C232.185,1256.06 231.679,1255.91 231.063,1255.91C230.579,1255.91 230.117,1256.02 229.699,1256.25C229.292,1256.48 228.973,1256.83 228.775,1257.3C228.566,1257.76 228.467,1258.3 228.467,1258.9C228.467,1259.86 228.709,1260.59 229.182,1261.1C229.655,1261.61 230.282,1261.86 231.063,1261.86C231.679,1261.86 232.207,1261.67 232.636,1261.31C233.054,1260.94 233.329,1260.43 233.428,1259.78L232.482,1259.65C232.416,1260.13 232.251,1260.49 231.998,1260.72Z" style="fill:rgb(159,159,159);fill-rule:nonzero;"/>
        </g>
        <g transform="matrix(4.16667,0,0,4.16667,0,0)">
            <path d="M237.553,1260.78C237.3,1260.97 237.003,1261.07 236.651,1261.07C236.167,1261.07 235.771,1260.9 235.452,1260.57C235.133,1260.23 234.957,1259.76 234.924,1259.13L239.181,1259.13C239.181,1259.02 239.181,1258.93 239.181,1258.88C239.181,1257.93 238.939,1257.21 238.455,1256.69C237.971,1256.17 237.355,1255.91 236.596,1255.91C235.804,1255.91 235.166,1256.17 234.671,1256.7C234.176,1257.23 233.934,1257.98 233.934,1258.93C233.934,1259.86 234.176,1260.57 234.671,1261.09C235.155,1261.61 235.815,1261.86 236.651,1261.86C237.311,1261.86 237.85,1261.7 238.279,1261.38C238.697,1261.06 238.994,1260.61 239.148,1260.02L238.147,1259.89C238.004,1260.3 237.806,1260.6 237.553,1260.78ZM235.485,1257.15C235.782,1256.86 236.156,1256.7 236.596,1256.7C237.091,1256.7 237.487,1256.89 237.795,1257.26C237.993,1257.51 238.114,1257.86 238.158,1258.34L234.979,1258.34C235.012,1257.85 235.177,1257.45 235.485,1257.15Z" style="fill:rgb(159,159,159);fill-rule:nonzero;"/>
        </g>
        <g transform="matrix(4.16667,0,0,4.16667,0,0)">
            <rect x="240.347" y="1253.86" width="0.968" height="7.876" style="fill:rgb(159,159,159);fill-rule:nonzero;"/>
        </g>
        <g transform="matrix(4.16667,0,0,4.16667,0,0)">
            <path d="M203.917,1257.97C203.917,1260.17 202.126,1261.97 199.917,1261.97C197.708,1261.97 195.917,1260.17 195.917,1257.97C195.917,1255.76 197.708,1253.97 199.917,1253.97C202.126,1253.97 203.917,1255.76 203.917,1257.97Z" style="fill:rgb(159,159,159);fill-rule:nonzero;"/>
        </g>
        <g transform="matrix(4.16667,0,0,4.16667,0,0)">
            <path d="M201.121,1259.84L198.121,1256.84L198.828,1256.14L201.828,1259.14L201.121,1259.84Z" style="fill:white;fill-rule:nonzero;"/>
        </g>
        <g transform="matrix(4.16667,0,0,4.16667,0,0)">
            <path d="M198.828,1259.84L198.121,1259.14L201.121,1256.14L201.828,1256.84L198.828,1259.84Z" style="fill:white;fill-rule:nonzero;"/>
        </g>
    </g>
    <defs>
        <linearGradient id="_Linear1" x1="0" y1="0" x2="1" y2="0" gradientUnits="userSpaceOnUse" gradientTransform="matrix(-8.18277e-07,18.72,-18.72,-8.18277e-07,221.063,1248.65)"><stop offset="0%" style="stop-color:rgb(246,248,249);stop-opacity:1"/><stop offset="100%" style="stop-color:rgb(243,243,244);stop-opacity:1"/></linearGradient>
    </defs>
</svg>
