<?xml version="1.0" standalone="no"?>
<!DOCTYPE svg PUBLIC "-//W3C//DTD SVG 1.1//EN" "http://www.w3.org/Graphics/SVG/1.1/DTD/svg11.dtd">
<svg width="100%" height="100%" viewBox="0 0 451 240" version="1.1" xmlns="http://www.w3.org/2000/svg" xmlns:xlink="http://www.w3.org/1999/xlink" xml:space="preserve" style="fill-rule:evenodd;clip-rule:evenodd;stroke-linejoin:round;stroke-miterlimit:1.41421;">
    <g transform="matrix(1.33333,0,0,1.33333,-1133.21,-6214.39)">
        <g transform="matrix(4.16667,0,0,4.16667,0,0)">
            <path d="M205.977,1146.09C205.15,1146.09 204.477,1145.42 204.477,1144.59L204.477,1120.59C204.477,1119.76 205.15,1119.09 205.977,1119.09L283.143,1119.09C283.97,1119.09 284.643,1119.76 284.643,1120.59L284.643,1144.59C284.643,1145.42 283.97,1146.09 283.143,1146.09L205.977,1146.09Z" style="fill:url(#_Linear1);"/>
        </g>
        <g transform="matrix(4.16667,0,0,4.16667,0,0)">
            <path d="M283.143,1118.59L205.977,1118.59C204.873,1118.59 203.977,1119.49 203.977,1120.59L203.977,1144.59C203.977,1145.69 204.873,1146.59 205.977,1146.59L283.143,1146.59C284.248,1146.59 285.143,1145.69 285.143,1144.59L285.143,1120.59C285.143,1119.49 284.248,1118.59 283.143,1118.59ZM283.143,1119.59C283.694,1119.59 284.143,1120.04 284.143,1120.59L284.143,1144.59C284.143,1145.14 283.694,1145.59 283.143,1145.59L205.977,1145.59C205.426,1145.59 204.977,1145.14 204.977,1144.59L204.977,1120.59C204.977,1120.04 205.426,1119.59 205.977,1119.59L283.143,1119.59Z" style="fill:rgb(217,217,217);fill-rule:nonzero;"/>
        </g>
        <g transform="matrix(4.16667,0,0,4.16667,0,0)">
            <path d="M229.878,1136.12L229.878,1132.36L233.262,1132.36L233.262,1136.12L235.002,1136.12L235.002,1127.53L233.262,1127.53L233.262,1130.91L229.878,1130.91L229.878,1127.53L228.138,1127.53L228.138,1136.12L229.878,1136.12Z" style="fill:rgb(110,110,111);fill-rule:nonzero;"/>
        </g>
        <g transform="matrix(4.16667,0,0,4.16667,0,0)">
            <path d="M236.814,1134.75C237.078,1135.26 237.474,1135.63 237.99,1135.89C238.506,1136.14 239.046,1136.28 239.622,1136.28C240.546,1136.28 241.302,1135.96 241.914,1135.34C242.526,1134.73 242.826,1133.95 242.826,1133C242.826,1132.06 242.526,1131.3 241.926,1130.68C241.326,1130.07 240.546,1129.76 239.61,1129.76C238.998,1129.76 238.446,1129.89 237.954,1130.17C237.462,1130.43 237.078,1130.83 236.814,1131.34C236.538,1131.85 236.406,1132.38 236.406,1132.93C236.406,1133.65 236.538,1134.25 236.814,1134.75ZM238.542,1131.6C238.83,1131.27 239.19,1131.1 239.622,1131.1C240.042,1131.1 240.402,1131.27 240.702,1131.6C240.99,1131.93 241.134,1132.4 241.134,1133.01C241.134,1133.64 240.99,1134.1 240.702,1134.44C240.402,1134.76 240.042,1134.93 239.622,1134.93C239.19,1134.93 238.83,1134.76 238.542,1134.44C238.242,1134.1 238.098,1133.64 238.098,1133.01C238.098,1132.4 238.242,1131.93 238.542,1131.6Z" style="fill:rgb(110,110,111);fill-rule:nonzero;"/>
        </g>
        <g transform="matrix(4.16667,0,0,4.16667,0,0)">
            <path d="M247.314,1136.12L249.798,1129.89L248.106,1129.89L246.906,1133.07C246.846,1133.25 246.786,1133.42 246.738,1133.6C246.714,1133.68 246.654,1133.86 246.57,1134.13L246.222,1133.07L245.058,1129.89L243.33,1129.89L245.838,1136.12L247.314,1136.12Z" style="fill:rgb(110,110,111);fill-rule:nonzero;"/>
        </g>
        <g transform="matrix(4.16667,0,0,4.16667,0,0)">
            <path d="M253.998,1134.82C253.818,1134.97 253.602,1135.04 253.35,1135.04C252.966,1135.04 252.654,1134.91 252.402,1134.63C252.15,1134.36 252.018,1133.98 252.006,1133.49L256.122,1133.49C256.146,1132.23 255.894,1131.3 255.354,1130.68C254.826,1130.07 254.094,1129.76 253.17,1129.76C252.342,1129.76 251.658,1130.05 251.118,1130.64C250.578,1131.22 250.314,1132.03 250.314,1133.06C250.314,1133.92 250.518,1134.64 250.926,1135.21C251.454,1135.92 252.246,1136.28 253.326,1136.28C254.01,1136.28 254.586,1136.12 255.042,1135.81C255.498,1135.48 255.822,1135.03 256.038,1134.43L254.394,1134.15C254.31,1134.46 254.178,1134.69 253.998,1134.82ZM252.03,1132.48C252.03,1132.03 252.15,1131.68 252.378,1131.42C252.618,1131.15 252.906,1131.02 253.266,1131.02C253.602,1131.02 253.89,1131.14 254.118,1131.39C254.358,1131.64 254.478,1132 254.49,1132.48L252.03,1132.48Z" style="fill:rgb(110,110,111);fill-rule:nonzero;"/>
        </g>
        <g transform="matrix(4.16667,0,0,4.16667,0,0)">
            <path d="M259.038,1134.2C259.038,1133.14 259.086,1132.45 259.17,1132.11C259.266,1131.79 259.398,1131.55 259.554,1131.43C259.71,1131.3 259.914,1131.24 260.142,1131.24C260.382,1131.24 260.634,1131.32 260.922,1131.5L261.426,1130.07C261.078,1129.87 260.718,1129.76 260.334,1129.76C260.07,1129.76 259.83,1129.82 259.626,1129.95C259.422,1130.08 259.182,1130.36 258.918,1130.78L258.918,1129.89L257.394,1129.89L257.394,1136.12L259.038,1136.12L259.038,1134.2Z" style="fill:rgb(110,110,111);fill-rule:nonzero;"/>
        </g>
        <g transform="matrix(4.16667,0,0,4.16667,0,0)">
            <path d="M255.768,1153.57C255.423,1154.45 253.68,1158.9 253.33,1160.7L246.12,1160.7C245.68,1159.52 244.046,1155.49 240.768,1151.02L240.768,1149.72L240.768,1149.7L241.734,1149.7C242.012,1149.77 242.984,1150.6 243.784,1151.38L243.784,1151.75L244.784,1151.75L244.784,1140.68L246.784,1140.72L246.784,1149.72L247.784,1149.72L247.784,1145.72L249.284,1145.72C249.461,1145.72 249.799,1146.04 249.799,1146.25L249.799,1149.72L250.799,1149.72L250.799,1146.75L252.284,1146.75C252.427,1146.75 252.799,1146.83 252.799,1147.22L252.799,1150.73L253.799,1150.73L253.799,1147.72C254.48,1147.72 255.768,1149.03 255.768,1149.72L255.768,1153.57ZM253.799,1146.72L253.707,1146.72C253.486,1146.1 252.88,1145.75 252.284,1145.75L250.684,1145.75C250.444,1145.19 249.853,1144.72 249.284,1144.72L247.784,1144.72L247.784,1140.72C247.784,1140.09 247.385,1139.68 246.768,1139.68L244.784,1139.68C244.132,1139.68 243.788,1140.22 243.784,1140.75L243.784,1150C242.832,1149.14 242.159,1148.7 241.784,1148.7L240.745,1148.7C240.578,1148.7 240.283,1148.69 240.04,1148.93C239.857,1149.11 239.768,1149.37 239.768,1149.72L239.768,1151.35L239.866,1151.48C243.66,1156.62 245.279,1161.31 245.294,1161.36L245.41,1161.7L254.268,1161.7L254.268,1161.2C254.268,1160.37 255.78,1156.25 256.733,1153.85L256.768,1149.72C256.768,1148.49 255.02,1146.72 253.799,1146.72Z" style="fill:rgb(51,51,51);fill-rule:nonzero;"/>
        </g>
        <g transform="matrix(4.16667,0,0,4.16667,0,0)">
            <path d="M253.799,1147.72L253.799,1150.73L252.799,1150.73L252.799,1147.22C252.799,1146.83 252.427,1146.75 252.284,1146.75L250.799,1146.75L250.799,1149.72L249.799,1149.72L249.799,1146.25C249.799,1146.04 249.461,1145.72 249.284,1145.72L247.784,1145.72L247.784,1149.72L246.784,1149.72L246.784,1140.72L244.784,1140.68L244.784,1151.75L243.784,1151.75L243.784,1151.38C242.984,1150.6 242.012,1149.77 241.734,1149.7L240.768,1149.7L240.768,1151.02C244.046,1155.49 245.68,1159.52 246.12,1160.7L253.33,1160.7C253.68,1158.9 255.423,1154.45 255.768,1153.57L255.768,1149.72C255.768,1149.03 254.48,1147.72 253.799,1147.72Z" style="fill:url(#_Linear2);"/>
        </g>
    </g>
    <defs>
        <linearGradient id="_Linear1" x1="0" y1="0" x2="1" y2="0" gradientUnits="userSpaceOnUse" gradientTransform="matrix(-1.16281e-06,26.6021,-26.6021,-1.16281e-06,244.56,1119.36)"><stop offset="0%" style="stop-color:rgb(234,234,235);stop-opacity:1"/><stop offset="100%" style="stop-color:rgb(243,243,244);stop-opacity:1"/></linearGradient>
        <linearGradient id="_Linear2" x1="0" y1="0" x2="1" y2="0" gradientUnits="userSpaceOnUse" gradientTransform="matrix(-8.52908e-07,19.5123,-19.5123,-8.52908e-07,248.268,1141.28)"><stop offset="0%" style="stop-color:white;stop-opacity:1"/><stop offset="100%" style="stop-color:rgb(243,243,244);stop-opacity:1"/></linearGradient>
    </defs>
</svg>
