<?xml version="1.0" standalone="no"?>
<!DOCTYPE svg PUBLIC "-//W3C//DTD SVG 1.1//EN" "http://www.w3.org/Graphics/SVG/1.1/DTD/svg11.dtd">
<svg width="100%" height="100%" viewBox="0 0 542 179" version="1.1" xmlns="http://www.w3.org/2000/svg" xmlns:xlink="http://www.w3.org/1999/xlink" xml:space="preserve" style="fill-rule:evenodd;clip-rule:evenodd;stroke-linejoin:round;stroke-miterlimit:1.41421;">
    <g transform="matrix(1.33333,0,0,1.33333,-1893.82,-7098.61)">
        <g transform="matrix(4.16667,0,0,4.16667,0,0)">
            <path d="M342.888,1309.32C342.061,1309.32 341.388,1308.64 341.388,1307.82L341.388,1283.82C341.388,1282.99 342.061,1282.32 342.888,1282.32L432.054,1282.32C432.881,1282.32 433.554,1282.99 433.554,1283.82L433.554,1307.82C433.554,1308.64 432.881,1309.32 432.054,1309.32L342.888,1309.32Z" style="fill:url(#_Linear1);"/>
        </g>
        <g transform="matrix(4.16667,0,0,4.16667,0,0)">
            <path d="M432.054,1281.82L342.888,1281.82C341.784,1281.82 340.888,1282.71 340.888,1283.82L340.888,1307.82C340.888,1308.92 341.784,1309.82 342.888,1309.82L432.054,1309.82C433.159,1309.82 434.054,1308.92 434.054,1307.82L434.054,1283.82C434.054,1282.71 433.159,1281.82 432.054,1281.82ZM432.054,1282.82C432.606,1282.82 433.054,1283.26 433.054,1283.82L433.054,1307.82C433.054,1308.37 432.606,1308.82 432.054,1308.82L342.888,1308.82C342.337,1308.82 341.888,1308.37 341.888,1307.82L341.888,1283.82C341.888,1283.26 342.337,1282.82 342.888,1282.82L432.054,1282.82Z" style="fill:rgb(217,217,217);fill-rule:nonzero;"/>
        </g>
        <g transform="matrix(4.16667,0,0,4.16667,0,0)">
            <path d="M355.156,1299.35L355.156,1293.7L358.636,1299.35L360.376,1299.35L360.376,1290.76L358.768,1290.76L358.768,1296.52L355.228,1290.76L353.548,1290.76L353.548,1299.35L355.156,1299.35Z" style="fill:rgb(110,110,111);fill-rule:nonzero;"/>
        </g>
        <g transform="matrix(4.16667,0,0,4.16667,0,0)">
            <path d="M362.224,1297.98C362.488,1298.49 362.884,1298.86 363.4,1299.12C363.916,1299.37 364.456,1299.51 365.032,1299.51C365.956,1299.51 366.712,1299.19 367.324,1298.57C367.936,1297.96 368.236,1297.18 368.236,1296.23C368.236,1295.29 367.936,1294.53 367.336,1293.91C366.736,1293.3 365.956,1292.99 365.02,1292.99C364.408,1292.99 363.856,1293.12 363.364,1293.4C362.872,1293.66 362.488,1294.06 362.224,1294.57C361.948,1295.08 361.816,1295.61 361.816,1296.16C361.816,1296.88 361.948,1297.48 362.224,1297.98ZM363.952,1294.83C364.24,1294.5 364.6,1294.33 365.032,1294.33C365.452,1294.33 365.812,1294.5 366.112,1294.83C366.4,1295.16 366.544,1295.63 366.544,1296.24C366.544,1296.87 366.4,1297.33 366.112,1297.67C365.812,1297.99 365.452,1298.16 365.032,1298.16C364.6,1298.16 364.24,1297.99 363.952,1297.67C363.652,1297.33 363.508,1296.87 363.508,1296.24C363.508,1295.63 363.652,1295.16 363.952,1294.83Z" style="fill:rgb(110,110,111);fill-rule:nonzero;"/>
        </g>
        <g transform="matrix(4.16667,0,0,4.16667,0,0)">
            <path d="M371.248,1293.12L371.248,1290.91L369.604,1291.89L369.604,1293.12L368.848,1293.12L368.848,1294.43L369.604,1294.43L369.604,1297.15C369.604,1297.74 369.616,1298.13 369.652,1298.32C369.7,1298.59 369.772,1298.81 369.892,1298.97C370,1299.12 370.168,1299.25 370.408,1299.35C370.648,1299.46 370.912,1299.51 371.212,1299.51C371.692,1299.51 372.124,1299.42 372.508,1299.25L372.376,1297.98C372.076,1298.09 371.86,1298.14 371.704,1298.14C371.596,1298.14 371.5,1298.11 371.428,1298.05C371.356,1298.01 371.296,1297.93 371.284,1297.85C371.26,1297.77 371.248,1297.47 371.248,1296.95L371.248,1294.43L372.376,1294.43L372.376,1293.12L371.248,1293.12Z" style="fill:rgb(110,110,111);fill-rule:nonzero;"/>
        </g>
        <g transform="matrix(4.16667,0,0,4.16667,0,0)">
            <path d="M375.172,1292.28L375.172,1290.76L373.528,1290.76L373.528,1292.28L375.172,1292.28ZM375.172,1299.35L375.172,1293.12L373.528,1293.12L373.528,1299.35L375.172,1299.35Z" style="fill:rgb(110,110,111);fill-rule:nonzero;"/>
        </g>
        <g transform="matrix(4.16667,0,0,4.16667,0,0)">
            <path d="M376.144,1294.42L377.056,1294.42L377.056,1299.35L378.7,1299.35L378.7,1294.42L379.936,1294.42L379.936,1293.12L378.7,1293.12L378.7,1292.68C378.7,1292.35 378.748,1292.14 378.856,1292.03C378.964,1291.92 379.144,1291.86 379.384,1291.86C379.636,1291.86 379.888,1291.9 380.164,1291.96L380.368,1290.81C379.912,1290.67 379.456,1290.6 378.988,1290.6C378.52,1290.6 378.148,1290.69 377.848,1290.84C377.548,1291.01 377.332,1291.21 377.224,1291.48C377.116,1291.73 377.056,1292.13 377.056,1292.65L377.056,1293.12L376.144,1293.12L376.144,1294.42Z" style="fill:rgb(110,110,111);fill-rule:nonzero;"/>
        </g>
        <g transform="matrix(4.16667,0,0,4.16667,0,0)">
            <path d="M382.504,1292.28L382.504,1290.76L380.86,1290.76L380.86,1292.28L382.504,1292.28ZM382.504,1299.35L382.504,1293.12L380.86,1293.12L380.86,1299.35L382.504,1299.35Z" style="fill:rgb(110,110,111);fill-rule:nonzero;"/>
        </g>
        <g transform="matrix(4.16667,0,0,4.16667,0,0)">
            <path d="M388.66,1293.48C388.216,1293.16 387.604,1292.99 386.848,1292.99C385.924,1292.99 385.192,1293.28 384.652,1293.85C384.112,1294.42 383.836,1295.22 383.836,1296.25C383.836,1297.27 384.112,1298.07 384.652,1298.64C385.192,1299.22 385.912,1299.51 386.824,1299.51C387.628,1299.51 388.264,1299.31 388.732,1298.94C389.212,1298.56 389.536,1297.99 389.704,1297.25L388.084,1296.97C388,1297.41 387.856,1297.72 387.664,1297.9C387.46,1298.08 387.208,1298.16 386.896,1298.16C386.476,1298.16 386.152,1298.01 385.9,1297.71C385.648,1297.39 385.528,1296.88 385.528,1296.13C385.528,1295.47 385.648,1294.99 385.9,1294.71C386.14,1294.43 386.464,1294.29 386.872,1294.29C387.184,1294.29 387.436,1294.37 387.628,1294.53C387.82,1294.69 387.94,1294.93 388,1295.26L389.62,1294.97C389.428,1294.3 389.104,1293.81 388.66,1293.48Z" style="fill:rgb(110,110,111);fill-rule:nonzero;"/>
        </g>
        <g transform="matrix(4.16667,0,0,4.16667,0,0)">
            <path d="M392.488,1294.43C392.656,1294.31 392.884,1294.25 393.184,1294.25C393.616,1294.25 393.904,1294.32 394.06,1294.45C394.216,1294.59 394.3,1294.81 394.3,1295.14L394.3,1295.31C394,1295.43 393.472,1295.57 392.704,1295.71C392.128,1295.82 391.696,1295.94 391.396,1296.1C391.096,1296.24 390.856,1296.45 390.688,1296.72C390.52,1297 390.436,1297.31 390.436,1297.67C390.436,1298.2 390.616,1298.64 390.988,1298.99C391.36,1299.34 391.864,1299.51 392.5,1299.51C392.86,1299.51 393.196,1299.43 393.52,1299.3C393.844,1299.16 394.144,1298.95 394.42,1298.68C394.432,1298.71 394.456,1298.77 394.48,1298.87C394.54,1299.09 394.588,1299.24 394.636,1299.35L396.268,1299.35C396.124,1299.05 396.028,1298.77 395.98,1298.51C395.92,1298.26 395.896,1297.85 395.896,1297.31L395.92,1295.39C395.92,1294.67 395.848,1294.18 395.704,1293.91C395.548,1293.65 395.296,1293.42 394.936,1293.25C394.576,1293.07 394.036,1292.99 393.304,1292.99C392.488,1292.99 391.876,1293.13 391.468,1293.43C391.06,1293.72 390.772,1294.17 390.604,1294.78L392.092,1295.04C392.188,1294.75 392.332,1294.54 392.488,1294.43ZM394.3,1296.7C394.3,1297.09 394.276,1297.36 394.24,1297.5C394.168,1297.72 394.048,1297.9 393.844,1298.05C393.568,1298.25 393.292,1298.34 392.992,1298.34C392.728,1298.34 392.512,1298.26 392.332,1298.09C392.164,1297.92 392.08,1297.72 392.08,1297.49C392.08,1297.26 392.188,1297.07 392.404,1296.91C392.548,1296.82 392.836,1296.72 393.304,1296.63C393.76,1296.53 394.084,1296.45 394.3,1296.37L394.3,1296.7Z" style="fill:rgb(110,110,111);fill-rule:nonzero;"/>
        </g>
        <g transform="matrix(4.16667,0,0,4.16667,0,0)">
            <path d="M399.256,1293.12L399.256,1290.91L397.612,1291.89L397.612,1293.12L396.856,1293.12L396.856,1294.43L397.612,1294.43L397.612,1297.15C397.612,1297.74 397.624,1298.13 397.66,1298.32C397.708,1298.59 397.78,1298.81 397.9,1298.97C398.008,1299.12 398.176,1299.25 398.416,1299.35C398.656,1299.46 398.92,1299.51 399.22,1299.51C399.7,1299.51 400.132,1299.42 400.516,1299.25L400.384,1297.98C400.084,1298.09 399.868,1298.14 399.712,1298.14C399.604,1298.14 399.508,1298.11 399.436,1298.05C399.364,1298.01 399.304,1297.93 399.292,1297.85C399.268,1297.77 399.256,1297.47 399.256,1296.95L399.256,1294.43L400.384,1294.43L400.384,1293.12L399.256,1293.12Z" style="fill:rgb(110,110,111);fill-rule:nonzero;"/>
        </g>
        <g transform="matrix(4.16667,0,0,4.16667,0,0)">
            <path d="M403.18,1292.28L403.18,1290.76L401.536,1290.76L401.536,1292.28L403.18,1292.28ZM403.18,1299.35L403.18,1293.12L401.536,1293.12L401.536,1299.35L403.18,1299.35Z" style="fill:rgb(110,110,111);fill-rule:nonzero;"/>
        </g>
        <g transform="matrix(4.16667,0,0,4.16667,0,0)">
            <path d="M404.896,1297.98C405.16,1298.49 405.556,1298.86 406.072,1299.12C406.588,1299.37 407.128,1299.51 407.704,1299.51C408.628,1299.51 409.384,1299.19 409.996,1298.57C410.608,1297.96 410.908,1297.18 410.908,1296.23C410.908,1295.29 410.608,1294.53 410.008,1293.91C409.408,1293.3 408.628,1292.99 407.692,1292.99C407.08,1292.99 406.528,1293.12 406.036,1293.4C405.544,1293.66 405.16,1294.06 404.896,1294.57C404.62,1295.08 404.488,1295.61 404.488,1296.16C404.488,1296.88 404.62,1297.48 404.896,1297.98ZM406.624,1294.83C406.912,1294.5 407.272,1294.33 407.704,1294.33C408.124,1294.33 408.484,1294.5 408.784,1294.83C409.072,1295.16 409.216,1295.63 409.216,1296.24C409.216,1296.87 409.072,1297.33 408.784,1297.67C408.484,1297.99 408.124,1298.16 407.704,1298.16C407.272,1298.16 406.912,1297.99 406.624,1297.67C406.324,1297.33 406.18,1296.87 406.18,1296.24C406.18,1295.63 406.324,1295.16 406.624,1294.83Z" style="fill:rgb(110,110,111);fill-rule:nonzero;"/>
        </g>
        <g transform="matrix(4.16667,0,0,4.16667,0,0)">
            <path d="M417.868,1295.49C417.868,1295.01 417.832,1294.63 417.772,1294.38C417.712,1294.12 417.604,1293.89 417.448,1293.69C417.292,1293.48 417.064,1293.31 416.764,1293.18C416.464,1293.05 416.128,1292.99 415.768,1292.99C414.94,1292.99 414.244,1293.34 413.704,1294.03L413.704,1293.12L412.18,1293.12L412.18,1299.35L413.824,1299.35L413.824,1296.53C413.824,1295.83 413.872,1295.37 413.956,1295.1C414.04,1294.85 414.196,1294.65 414.424,1294.49C414.652,1294.33 414.904,1294.25 415.192,1294.25C415.42,1294.25 415.612,1294.31 415.768,1294.42C415.936,1294.53 416.044,1294.68 416.116,1294.87C416.188,1295.07 416.224,1295.51 416.224,1296.18L416.224,1299.35L417.868,1299.35L417.868,1295.49Z" style="fill:rgb(110,110,111);fill-rule:nonzero;"/>
        </g>
        <g transform="matrix(4.16667,0,0,4.16667,0,0)">
            <path d="M426.282,1291.25C425.499,1291.25 424.862,1290.62 424.862,1289.83L424.862,1279.67C424.862,1278.89 425.499,1278.25 426.282,1278.25L436.442,1278.25C437.225,1278.25 437.862,1278.89 437.862,1279.67L437.862,1289.83C437.862,1290.62 437.225,1291.25 436.442,1291.25L426.282,1291.25Z" style="fill:rgb(147,147,147);fill-rule:nonzero;"/>
        </g>
        <g transform="matrix(4.16667,0,0,4.16667,0,0)">
            <path d="M436.442,1277.75L426.282,1277.75C425.223,1277.75 424.362,1278.62 424.362,1279.67L424.362,1289.83C424.362,1290.89 425.223,1291.75 426.282,1291.75L436.442,1291.75C437.5,1291.75 438.362,1290.89 438.362,1289.83L438.362,1279.67C438.362,1278.62 437.5,1277.75 436.442,1277.75ZM436.442,1278.75C436.951,1278.75 437.362,1279.17 437.362,1279.67L437.362,1289.83C437.362,1290.34 436.951,1290.75 436.442,1290.75L426.282,1290.75C425.773,1290.75 425.362,1290.34 425.362,1289.83L425.362,1279.67C425.362,1279.17 425.773,1278.75 426.282,1278.75L436.442,1278.75Z" style="fill:rgb(110,110,111);fill-rule:nonzero;"/>
        </g>
        <g transform="matrix(4.16667,0,0,4.16667,0,0)">
            <path d="M429.008,1284.8C428.799,1285.16 428.689,1285.55 428.689,1285.98C428.689,1286.76 428.975,1287.36 429.536,1287.81C430.009,1288.19 430.603,1288.37 431.318,1288.37C432.088,1288.37 432.704,1288.14 433.166,1287.69C433.628,1287.23 433.859,1286.63 433.859,1285.91C433.859,1285.47 433.749,1285.08 433.518,1284.74C433.287,1284.4 432.957,1284.15 432.517,1283.97C432.858,1283.82 433.133,1283.6 433.32,1283.31C433.507,1283.04 433.606,1282.71 433.606,1282.35C433.606,1281.75 433.397,1281.27 432.99,1280.88C432.572,1280.5 431.989,1280.31 431.252,1280.31C430.493,1280.31 429.91,1280.5 429.503,1280.88C429.096,1281.27 428.887,1281.75 428.887,1282.35C428.887,1282.69 428.975,1283.01 429.151,1283.29C429.327,1283.58 429.613,1283.81 429.998,1283.97C429.547,1284.16 429.217,1284.45 429.008,1284.8ZM430.57,1281.77C430.746,1281.6 430.977,1281.51 431.263,1281.51C431.538,1281.51 431.769,1281.6 431.934,1281.76C432.099,1281.94 432.187,1282.16 432.187,1282.44C432.187,1282.75 432.099,1282.98 431.934,1283.16C431.758,1283.32 431.527,1283.41 431.252,1283.41C430.966,1283.41 430.735,1283.32 430.57,1283.16C430.405,1282.99 430.317,1282.75 430.317,1282.45C430.317,1282.17 430.405,1281.94 430.57,1281.77ZM430.449,1285C430.625,1284.74 430.9,1284.61 431.263,1284.61C431.582,1284.61 431.846,1284.72 432.055,1284.95C432.264,1285.17 432.363,1285.47 432.363,1285.84C432.363,1286.27 432.264,1286.6 432.055,1286.82C431.857,1287.05 431.593,1287.16 431.285,1287.16C430.966,1287.16 430.702,1287.04 430.493,1286.81C430.284,1286.58 430.174,1286.25 430.174,1285.83C430.174,1285.54 430.262,1285.25 430.449,1285Z" style="fill:white;fill-rule:nonzero;"/>
        </g>
    </g>
    <defs>
        <linearGradient id="_Linear1" x1="0" y1="0" x2="1" y2="0" gradientUnits="userSpaceOnUse" gradientTransform="matrix(-1.16281e-06,26.6021,-26.6021,-1.16281e-06,387.471,1282.59)"><stop offset="0%" style="stop-color:rgb(246,248,249);stop-opacity:1"/><stop offset="100%" style="stop-color:rgb(243,243,244);stop-opacity:1"/></linearGradient>
    </defs>
</svg>
