<?xml version="1.0" standalone="no"?>
<!DOCTYPE svg PUBLIC "-//W3C//DTD SVG 1.1//EN" "http://www.w3.org/Graphics/SVG/1.1/DTD/svg11.dtd">
<svg width="100%" height="100%" viewBox="0 0 349 112" version="1.1" xmlns="http://www.w3.org/2000/svg" xmlns:xlink="http://www.w3.org/1999/xlink" xml:space="preserve" style="fill-rule:evenodd;clip-rule:evenodd;stroke-linejoin:round;stroke-miterlimit:1.41421;">
    <g transform="matrix(1.33333,0,0,1.33333,-114.811,-12552.9)">
        <g transform="matrix(4.16667,0,0,4.16667,0,0)">
            <path d="M22.57,2279.03C21.796,2279.03 21.166,2278.4 21.166,2277.63L21.166,2261.44C21.166,2260.66 21.796,2260.03 22.57,2260.03L74.362,2260.03C75.089,2260.03 75.92,2260.24 77.068,2261.74L82.842,2269.34L77.06,2277.33C76.471,2278.1 75.54,2279.03 74.487,2279.03L22.57,2279.03Z" style="fill:url(#_Linear1);"/>
        </g>
        <g transform="matrix(4.16667,0,0,4.16667,0,0)">
            <path d="M74.362,2259.53L22.57,2259.53C21.519,2259.53 20.666,2260.39 20.666,2261.44L20.666,2277.63C20.666,2278.68 21.519,2279.53 22.57,2279.53L74.487,2279.53C75.538,2279.53 76.569,2278.8 77.465,2277.63L83.465,2269.33L77.465,2261.44C76.345,2259.97 75.413,2259.53 74.362,2259.53ZM74.362,2260.53C74.92,2260.53 75.604,2260.65 76.668,2262.04L82.22,2269.35L76.671,2277.02C75.924,2277.99 75.149,2278.53 74.487,2278.53L22.57,2278.53C22.072,2278.53 21.666,2278.13 21.666,2277.63L21.666,2261.44C21.666,2260.94 22.072,2260.53 22.57,2260.53L74.362,2260.53Z" style="fill:rgb(217,217,217);fill-rule:nonzero;"/>
        </g>
        <g transform="matrix(4.16667,0,0,4.16667,0,0)">
            <path d="M30.207,2272.45C30.482,2272.86 30.856,2273.18 31.34,2273.38C31.824,2273.59 32.418,2273.69 33.133,2273.69C33.694,2273.69 34.2,2273.59 34.64,2273.38C35.091,2273.18 35.443,2272.89 35.674,2272.53C35.916,2272.15 36.037,2271.76 36.037,2271.34C36.037,2270.92 35.927,2270.55 35.707,2270.22C35.487,2269.9 35.157,2269.63 34.695,2269.42C34.387,2269.28 33.804,2269.11 32.957,2268.92C32.11,2268.73 31.582,2268.54 31.384,2268.36C31.175,2268.17 31.076,2267.94 31.076,2267.65C31.076,2267.33 31.219,2267.06 31.505,2266.83C31.802,2266.6 32.253,2266.48 32.891,2266.48C33.496,2266.48 33.947,2266.61 34.255,2266.86C34.574,2267.11 34.75,2267.49 34.805,2267.98L35.806,2267.91C35.784,2267.44 35.663,2267.03 35.421,2266.66C35.179,2266.3 34.838,2266.03 34.387,2265.84C33.947,2265.65 33.43,2265.55 32.847,2265.55C32.319,2265.55 31.835,2265.64 31.406,2265.82C30.966,2266 30.636,2266.27 30.416,2266.61C30.185,2266.96 30.075,2267.32 30.075,2267.73C30.075,2268.09 30.163,2268.41 30.35,2268.71C30.537,2268.99 30.812,2269.25 31.186,2269.45C31.483,2269.6 31.989,2269.76 32.715,2269.93C33.43,2270.11 33.903,2270.24 34.112,2270.32C34.442,2270.45 34.673,2270.6 34.816,2270.78C34.959,2270.96 35.036,2271.18 35.036,2271.43C35.036,2271.67 34.959,2271.9 34.816,2272.1C34.662,2272.31 34.442,2272.47 34.134,2272.59C33.826,2272.71 33.474,2272.77 33.078,2272.77C32.638,2272.77 32.231,2272.69 31.879,2272.54C31.516,2272.37 31.252,2272.17 31.087,2271.92C30.911,2271.67 30.801,2271.34 30.757,2270.94L29.778,2271.03C29.789,2271.56 29.932,2272.03 30.207,2272.45Z" style="fill:rgb(159,159,159);fill-rule:nonzero;"/>
        </g>
        <g transform="matrix(4.16667,0,0,4.16667,0,0)">
            <path d="M41.933,2273.56L41.933,2267.85L40.965,2267.85L40.965,2270.9C40.965,2271.39 40.91,2271.76 40.811,2272.02C40.701,2272.27 40.525,2272.47 40.272,2272.62C40.019,2272.77 39.744,2272.85 39.458,2272.85C39.161,2272.85 38.919,2272.77 38.721,2272.62C38.534,2272.48 38.402,2272.28 38.336,2272.03C38.303,2271.86 38.281,2271.51 38.281,2271.01L38.281,2267.85L37.313,2267.85L37.313,2271.38C37.313,2271.8 37.335,2272.1 37.368,2272.28C37.434,2272.57 37.533,2272.81 37.665,2273C37.808,2273.2 38.028,2273.36 38.314,2273.48C38.611,2273.62 38.919,2273.68 39.26,2273.68C40.019,2273.68 40.624,2273.36 41.064,2272.71L41.064,2273.56L41.933,2273.56Z" style="fill:rgb(159,159,159);fill-rule:nonzero;"/>
        </g>
        <g transform="matrix(4.16667,0,0,4.16667,0,0)">
            <path d="M44.342,2272.85C44.727,2273.41 45.255,2273.68 45.926,2273.68C46.597,2273.68 47.18,2273.42 47.664,2272.88C48.148,2272.35 48.39,2271.59 48.39,2270.62C48.39,2270.2 48.335,2269.82 48.214,2269.46C48.104,2269.11 47.95,2268.8 47.741,2268.53C47.543,2268.28 47.279,2268.08 46.971,2267.94C46.652,2267.8 46.322,2267.73 45.97,2267.73C45.343,2267.73 44.815,2267.98 44.408,2268.5L44.408,2265.68L43.44,2265.68L43.44,2273.56L44.342,2273.56L44.342,2272.85ZM44.793,2269.07C45.101,2268.71 45.464,2268.52 45.882,2268.52C46.3,2268.52 46.663,2268.7 46.96,2269.05C47.257,2269.4 47.4,2269.95 47.4,2270.7C47.4,2271.43 47.246,2271.98 46.938,2272.34C46.63,2272.7 46.267,2272.89 45.849,2272.89C45.321,2272.89 44.914,2272.64 44.606,2272.14C44.419,2271.84 44.331,2271.35 44.331,2270.67C44.331,2269.97 44.485,2269.43 44.793,2269.07Z" style="fill:rgb(159,159,159);fill-rule:nonzero;"/>
        </g>
        <g transform="matrix(4.16667,0,0,4.16667,0,0)">
            <path d="M50.535,2273.56L50.535,2270.6C50.535,2270.08 50.59,2269.69 50.689,2269.41C50.799,2269.14 50.964,2268.93 51.195,2268.79C51.426,2268.64 51.679,2268.57 51.943,2268.57C52.306,2268.57 52.559,2268.68 52.713,2268.89C52.878,2269.11 52.955,2269.42 52.955,2269.85L52.955,2273.56L53.923,2273.56L53.923,2270.25C53.923,2269.66 54.055,2269.24 54.319,2268.96C54.583,2268.7 54.924,2268.57 55.32,2268.57C55.551,2268.57 55.738,2268.62 55.903,2268.72C56.068,2268.83 56.189,2268.96 56.244,2269.13C56.31,2269.3 56.343,2269.58 56.343,2269.96L56.343,2273.56L57.311,2273.56L57.311,2269.64C57.311,2268.99 57.157,2268.51 56.849,2268.2C56.541,2267.88 56.112,2267.73 55.54,2267.73C54.814,2267.73 54.22,2268.06 53.769,2268.73C53.659,2268.41 53.472,2268.17 53.197,2267.99C52.933,2267.82 52.581,2267.73 52.163,2267.73C51.778,2267.73 51.448,2267.82 51.151,2267.98C50.854,2268.16 50.612,2268.38 50.436,2268.65L50.436,2267.85L49.567,2267.85L49.567,2273.56L50.535,2273.56Z" style="fill:rgb(159,159,159);fill-rule:nonzero;"/>
        </g>
        <g transform="matrix(4.16667,0,0,4.16667,0,0)">
            <path d="M59.698,2266.78L59.698,2265.68L58.73,2265.68L58.73,2266.78L59.698,2266.78ZM59.698,2273.56L59.698,2267.85L58.73,2267.85L58.73,2273.56L59.698,2273.56Z" style="fill:rgb(159,159,159);fill-rule:nonzero;"/>
        </g>
        <g transform="matrix(4.16667,0,0,4.16667,0,0)">
            <path d="M62.855,2272.74C62.712,2272.74 62.602,2272.71 62.525,2272.67C62.448,2272.61 62.393,2272.56 62.36,2272.47C62.327,2272.39 62.305,2272.22 62.305,2271.94L62.305,2268.6L63.273,2268.6L63.273,2267.85L62.305,2267.85L62.305,2265.86L61.337,2266.44L61.337,2267.85L60.622,2267.85L60.622,2268.6L61.337,2268.6L61.337,2271.89C61.337,2272.47 61.381,2272.85 61.458,2273.03C61.535,2273.21 61.667,2273.36 61.865,2273.47C62.052,2273.58 62.327,2273.64 62.679,2273.64C62.888,2273.64 63.13,2273.6 63.405,2273.55L63.273,2272.7C63.097,2272.72 62.954,2272.74 62.855,2272.74Z" style="fill:rgb(159,159,159);fill-rule:nonzero;"/>
        </g>
        <g transform="matrix(4.16667,0,0,4.16667,0,0)">
            <path d="M71.584,2272.31L74.395,2269.47L71.582,2266.64L70.873,2267.35L72.986,2269.47L70.872,2271.61L71.584,2272.31Z" style="fill:rgb(159,159,159);fill-rule:nonzero;"/>
        </g>
    </g>
    <defs>
        <linearGradient id="_Linear1" x1="0" y1="0" x2="1" y2="0" gradientUnits="userSpaceOnUse" gradientTransform="matrix(-8.18277e-07,18.72,-18.72,-8.18277e-07,52.0049,2260.22)"><stop offset="0%" style="stop-color:rgb(246,248,249);stop-opacity:1"/><stop offset="100%" style="stop-color:rgb(243,243,244);stop-opacity:1"/></linearGradient>
    </defs>
</svg>
