<?xml version="1.0" standalone="no"?>
<!DOCTYPE svg PUBLIC "-//W3C//DTD SVG 1.1//EN" "http://www.w3.org/Graphics/SVG/1.1/DTD/svg11.dtd">
<svg width="100%" height="100%" viewBox="0 0 355 112" version="1.1" xmlns="http://www.w3.org/2000/svg" xmlns:xlink="http://www.w3.org/1999/xlink" xml:space="preserve" style="fill-rule:evenodd;clip-rule:evenodd;stroke-linejoin:round;stroke-miterlimit:1.41421;">
    <g transform="matrix(1.33333,0,0,1.33333,-654.3,-5966.44)">
        <g transform="matrix(4.16667,0,0,4.16667,0,0)">
            <path d="M119.678,1093.46C118.904,1093.46 118.274,1092.82 118.274,1092.05L118.274,1075.86C118.274,1075.09 118.904,1074.46 119.678,1074.46L179.668,1074.46C180.442,1074.46 181.073,1075.09 181.073,1075.86L181.073,1092.05C181.073,1092.82 180.442,1093.46 179.668,1093.46L119.678,1093.46Z" style="fill:url(#_Linear1);"/>
        </g>
        <g transform="matrix(4.16667,0,0,4.16667,0,0)">
            <path d="M179.668,1073.96L119.678,1073.96C118.626,1073.96 117.774,1074.81 117.774,1075.86L117.774,1092.05C117.774,1093.1 118.626,1093.96 119.678,1093.96L179.668,1093.96C180.72,1093.96 181.573,1093.1 181.573,1092.05L181.573,1075.86C181.573,1074.81 180.72,1073.96 179.668,1073.96ZM179.668,1074.96C180.167,1074.96 180.573,1075.36 180.573,1075.86L180.573,1092.05C180.573,1092.55 180.167,1092.96 179.668,1092.96L119.678,1092.96C119.18,1092.96 118.774,1092.55 118.774,1092.05L118.774,1075.86C118.774,1075.36 119.18,1074.96 119.678,1074.96L179.668,1074.96Z" style="fill:rgb(217,217,217);fill-rule:nonzero;"/>
        </g>
        <g transform="matrix(4.16667,0,0,4.16667,0,0)">
            <path d="M133.55,1087.99L133.55,1081.81L137.686,1087.99L138.753,1087.99L138.753,1080.11L137.752,1080.11L137.752,1086.3L133.616,1080.11L132.549,1080.11L132.549,1087.99L133.55,1087.99Z" style="fill:rgb(110,110,111);fill-rule:nonzero;"/>
        </g>
        <g transform="matrix(4.16667,0,0,4.16667,0,0)">
            <path d="M140.755,1087.34C141.25,1087.86 141.899,1088.11 142.691,1088.11C143.197,1088.11 143.648,1087.99 144.077,1087.76C144.495,1087.53 144.814,1087.21 145.034,1086.78C145.254,1086.36 145.364,1085.79 145.364,1085.05C145.364,1084.15 145.111,1083.45 144.616,1082.93C144.121,1082.41 143.483,1082.16 142.691,1082.16C141.987,1082.16 141.393,1082.37 140.898,1082.8C140.315,1083.3 140.018,1084.09 140.018,1085.13C140.018,1086.1 140.26,1086.84 140.755,1087.34ZM141.492,1083.5C141.811,1083.14 142.207,1082.96 142.691,1082.96C143.175,1082.96 143.571,1083.14 143.89,1083.5C144.209,1083.87 144.374,1084.4 144.374,1085.11C144.374,1085.86 144.209,1086.41 143.89,1086.77C143.571,1087.13 143.175,1087.32 142.691,1087.32C142.207,1087.32 141.811,1087.14 141.492,1086.78C141.173,1086.42 141.008,1085.87 141.008,1085.14C141.008,1084.41 141.173,1083.87 141.492,1083.5Z" style="fill:rgb(110,110,111);fill-rule:nonzero;"/>
        </g>
        <g transform="matrix(4.16667,0,0,4.16667,0,0)">
            <path d="M147.454,1087.99L147.454,1085.01C147.454,1084.6 147.509,1084.23 147.619,1083.88C147.685,1083.66 147.806,1083.48 147.971,1083.35C148.136,1083.23 148.334,1083.16 148.543,1083.16C148.774,1083.16 149.005,1083.23 149.247,1083.36L149.588,1082.47C149.247,1082.26 148.917,1082.16 148.598,1082.16C148.367,1082.16 148.158,1082.23 147.971,1082.36C147.784,1082.48 147.575,1082.75 147.355,1083.15L147.355,1082.28L146.486,1082.28L146.486,1087.99L147.454,1087.99Z" style="fill:rgb(110,110,111);fill-rule:nonzero;"/>
        </g>
        <g transform="matrix(4.16667,0,0,4.16667,0,0)">
            <path d="M151.128,1087.99L151.128,1085.03C151.128,1084.51 151.183,1084.12 151.282,1083.84C151.392,1083.57 151.557,1083.36 151.788,1083.22C152.019,1083.07 152.272,1083 152.536,1083C152.899,1083 153.152,1083.11 153.306,1083.32C153.471,1083.54 153.548,1083.85 153.548,1084.28L153.548,1087.99L154.516,1087.99L154.516,1084.68C154.516,1084.09 154.648,1083.67 154.912,1083.39C155.176,1083.13 155.517,1083 155.913,1083C156.144,1083 156.331,1083.05 156.496,1083.15C156.661,1083.26 156.782,1083.39 156.837,1083.56C156.903,1083.73 156.936,1084.01 156.936,1084.39L156.936,1087.99L157.904,1087.99L157.904,1084.07C157.904,1083.42 157.75,1082.94 157.442,1082.63C157.134,1082.31 156.705,1082.16 156.133,1082.16C155.407,1082.16 154.813,1082.49 154.362,1083.16C154.252,1082.84 154.065,1082.6 153.79,1082.42C153.526,1082.25 153.174,1082.16 152.756,1082.16C152.371,1082.16 152.041,1082.25 151.744,1082.41C151.447,1082.59 151.205,1082.81 151.029,1083.08L151.029,1082.28L150.16,1082.28L150.16,1087.99L151.128,1087.99Z" style="fill:rgb(110,110,111);fill-rule:nonzero;"/>
        </g>
        <g transform="matrix(4.16667,0,0,4.16667,0,0)">
            <path d="M163.239,1087.99L164.251,1087.99C164.13,1087.77 164.053,1087.54 164.009,1087.3C163.976,1087.07 163.954,1086.49 163.954,1085.6L163.954,1084.32C163.954,1083.89 163.943,1083.59 163.91,1083.42C163.844,1083.16 163.745,1082.94 163.602,1082.77C163.459,1082.59 163.239,1082.45 162.931,1082.34C162.623,1082.21 162.227,1082.16 161.743,1082.16C161.248,1082.16 160.819,1082.23 160.445,1082.36C160.071,1082.5 159.785,1082.69 159.587,1082.94C159.389,1083.18 159.246,1083.51 159.158,1083.92L160.104,1084.05C160.203,1083.64 160.368,1083.36 160.588,1083.2C160.808,1083.04 161.138,1082.96 161.6,1082.96C162.084,1082.96 162.458,1083.07 162.7,1083.29C162.887,1083.45 162.975,1083.72 162.975,1084.12C162.975,1084.15 162.975,1084.24 162.975,1084.37C162.601,1084.5 162.029,1084.61 161.237,1084.7C160.863,1084.75 160.577,1084.8 160.379,1084.84C160.126,1084.92 159.895,1085.02 159.686,1085.16C159.477,1085.31 159.312,1085.49 159.18,1085.72C159.059,1085.94 158.993,1086.21 158.993,1086.48C158.993,1086.96 159.158,1087.35 159.499,1087.65C159.84,1087.96 160.324,1088.11 160.951,1088.11C161.325,1088.11 161.688,1088.05 162.018,1087.92C162.348,1087.79 162.689,1087.58 163.052,1087.28C163.085,1087.55 163.14,1087.78 163.239,1087.99ZM162.975,1085.48C162.975,1085.91 162.92,1086.23 162.81,1086.44C162.678,1086.72 162.469,1086.94 162.172,1087.11C161.886,1087.28 161.556,1087.35 161.182,1087.35C160.797,1087.35 160.511,1087.26 160.324,1087.1C160.126,1086.92 160.027,1086.71 160.027,1086.45C160.027,1086.29 160.071,1086.13 160.159,1086C160.247,1085.86 160.379,1085.76 160.544,1085.68C160.709,1085.61 160.995,1085.55 161.391,1085.49C162.095,1085.39 162.623,1085.27 162.975,1085.13L162.975,1085.48Z" style="fill:rgb(110,110,111);fill-rule:nonzero;"/>
        </g>
        <g transform="matrix(4.16667,0,0,4.16667,0,0)">
            <rect x="165.417" y="1080.11" width="0.968" height="7.876" style="fill:rgb(110,110,111);fill-rule:nonzero;"/>
        </g>
    </g>
    <defs>
        <linearGradient id="_Linear1" x1="0" y1="0" x2="1" y2="0" gradientUnits="userSpaceOnUse" gradientTransform="matrix(-8.18277e-07,18.72,-18.72,-8.18277e-07,149.673,1074.65)"><stop offset="0%" style="stop-color:rgb(246,248,249);stop-opacity:1"/><stop offset="100%" style="stop-color:rgb(243,243,244);stop-opacity:1"/></linearGradient>
    </defs>
</svg>
