<?xml version="1.0" standalone="no"?>
<!DOCTYPE svg PUBLIC "-//W3C//DTD SVG 1.1//EN" "http://www.w3.org/Graphics/SVG/1.1/DTD/svg11.dtd">
<svg width="100%" height="100%" viewBox="0 0 451 156" version="1.1" xmlns="http://www.w3.org/2000/svg" xmlns:xlink="http://www.w3.org/1999/xlink" xml:space="preserve" style="fill-rule:evenodd;clip-rule:evenodd;stroke-linejoin:round;stroke-miterlimit:1.41421;">
    <g transform="matrix(1.33333,0,0,1.33333,-645.439,-6214.39)">
        <g transform="matrix(4.16667,0,0,4.16667,0,0)">
            <path d="M118.179,1146.09C117.352,1146.09 116.679,1145.42 116.679,1144.59L116.679,1120.59C116.679,1119.76 117.352,1119.09 118.179,1119.09L195.345,1119.09C196.172,1119.09 196.845,1119.76 196.845,1120.59L196.845,1144.59C196.845,1145.42 196.172,1146.09 195.345,1146.09L118.179,1146.09Z" style="fill:url(#_Linear1);"/>
        </g>
        <g transform="matrix(4.16667,0,0,4.16667,0,0)">
            <path d="M195.345,1118.59L118.179,1118.59C117.074,1118.59 116.179,1119.49 116.179,1120.59L116.179,1144.59C116.179,1145.69 117.074,1146.59 118.179,1146.59L195.345,1146.59C196.449,1146.59 197.345,1145.69 197.345,1144.59L197.345,1120.59C197.345,1119.49 196.449,1118.59 195.345,1118.59ZM195.345,1119.59C195.896,1119.59 196.345,1120.04 196.345,1120.59L196.345,1144.59C196.345,1145.14 195.896,1145.59 195.345,1145.59L118.179,1145.59C117.627,1145.59 117.179,1145.14 117.179,1144.59L117.179,1120.59C117.179,1120.04 117.627,1119.59 118.179,1119.59L195.345,1119.59Z" style="fill:rgb(217,217,217);fill-rule:nonzero;"/>
        </g>
        <g transform="matrix(4.16667,0,0,4.16667,0,0)">
            <path d="M137.947,1136.12L137.947,1130.47L141.427,1136.12L143.167,1136.12L143.167,1127.53L141.559,1127.53L141.559,1133.29L138.019,1127.53L136.339,1127.53L136.339,1136.12L137.947,1136.12Z" style="fill:rgb(110,110,111);fill-rule:nonzero;"/>
        </g>
        <g transform="matrix(4.16667,0,0,4.16667,0,0)">
            <path d="M145.015,1134.75C145.279,1135.26 145.675,1135.63 146.191,1135.89C146.707,1136.14 147.247,1136.28 147.823,1136.28C148.747,1136.28 149.503,1135.96 150.115,1135.34C150.727,1134.73 151.027,1133.95 151.027,1133C151.027,1132.06 150.727,1131.3 150.127,1130.68C149.527,1130.07 148.747,1129.76 147.811,1129.76C147.199,1129.76 146.647,1129.89 146.155,1130.17C145.663,1130.43 145.279,1130.83 145.015,1131.34C144.739,1131.85 144.607,1132.38 144.607,1132.93C144.607,1133.65 144.739,1134.25 145.015,1134.75ZM146.743,1131.6C147.031,1131.27 147.391,1131.1 147.823,1131.1C148.243,1131.1 148.603,1131.27 148.903,1131.6C149.191,1131.93 149.335,1132.4 149.335,1133.01C149.335,1133.64 149.191,1134.1 148.903,1134.44C148.603,1134.76 148.243,1134.93 147.823,1134.93C147.391,1134.93 147.031,1134.76 146.743,1134.44C146.443,1134.1 146.299,1133.64 146.299,1133.01C146.299,1132.4 146.443,1131.93 146.743,1131.6Z" style="fill:rgb(110,110,111);fill-rule:nonzero;"/>
        </g>
        <g transform="matrix(4.16667,0,0,4.16667,0,0)">
            <path d="M153.895,1134.2C153.895,1133.14 153.943,1132.45 154.027,1132.11C154.123,1131.79 154.255,1131.55 154.411,1131.43C154.567,1131.3 154.771,1131.24 154.999,1131.24C155.239,1131.24 155.491,1131.32 155.779,1131.5L156.283,1130.07C155.935,1129.87 155.575,1129.76 155.191,1129.76C154.927,1129.76 154.687,1129.82 154.483,1129.95C154.279,1130.08 154.039,1130.36 153.775,1130.78L153.775,1129.89L152.251,1129.89L152.251,1136.12L153.895,1136.12L153.895,1134.2Z" style="fill:rgb(110,110,111);fill-rule:nonzero;"/>
        </g>
        <g transform="matrix(4.16667,0,0,4.16667,0,0)">
            <path d="M156.871,1136.12L158.515,1136.12L158.515,1133.1C158.515,1132.5 158.563,1132.08 158.647,1131.81C158.731,1131.56 158.875,1131.36 159.079,1131.22C159.283,1131.09 159.511,1131.02 159.763,1131.02C159.979,1131.02 160.147,1131.07 160.267,1131.15C160.387,1131.24 160.483,1131.37 160.543,1131.54C160.603,1131.72 160.627,1132.11 160.627,1132.71L160.627,1136.12L162.271,1136.12L162.271,1133.13C162.271,1132.54 162.319,1132.12 162.403,1131.85C162.499,1131.57 162.643,1131.37 162.847,1131.24C163.051,1131.09 163.267,1131.02 163.495,1131.02C163.819,1131.02 164.047,1131.14 164.203,1131.37C164.311,1131.55 164.371,1131.94 164.371,1132.57L164.371,1136.12L166.015,1136.12L166.015,1132.15C166.015,1131.55 165.955,1131.12 165.847,1130.85C165.691,1130.49 165.451,1130.23 165.139,1130.04C164.815,1129.86 164.431,1129.76 163.975,1129.76C163.615,1129.76 163.279,1129.84 162.967,1130.01C162.643,1130.17 162.355,1130.42 162.079,1130.76C161.887,1130.42 161.647,1130.17 161.359,1130.01C161.059,1129.84 160.723,1129.76 160.327,1129.76C159.571,1129.76 158.923,1130.08 158.383,1130.74L158.383,1129.89L156.871,1129.89L156.871,1136.12Z" style="fill:rgb(110,110,111);fill-rule:nonzero;"/>
        </g>
        <g transform="matrix(4.16667,0,0,4.16667,0,0)">
            <path d="M169.279,1131.2C169.447,1131.08 169.675,1131.02 169.975,1131.02C170.407,1131.02 170.695,1131.09 170.851,1131.22C171.007,1131.36 171.091,1131.58 171.091,1131.91L171.091,1132.08C170.791,1132.2 170.263,1132.34 169.495,1132.48C168.919,1132.59 168.487,1132.71 168.187,1132.87C167.887,1133.01 167.647,1133.22 167.479,1133.49C167.311,1133.77 167.227,1134.08 167.227,1134.44C167.227,1134.97 167.407,1135.41 167.779,1135.76C168.151,1136.11 168.655,1136.28 169.291,1136.28C169.651,1136.28 169.987,1136.2 170.311,1136.07C170.635,1135.93 170.935,1135.72 171.211,1135.45C171.223,1135.48 171.247,1135.54 171.271,1135.64C171.331,1135.86 171.379,1136.01 171.427,1136.12L173.059,1136.12C172.915,1135.82 172.819,1135.54 172.771,1135.28C172.711,1135.03 172.687,1134.62 172.687,1134.08L172.711,1132.16C172.711,1131.44 172.639,1130.95 172.495,1130.68C172.339,1130.42 172.087,1130.19 171.727,1130.02C171.367,1129.84 170.827,1129.76 170.095,1129.76C169.279,1129.76 168.667,1129.9 168.259,1130.2C167.851,1130.49 167.563,1130.94 167.395,1131.55L168.883,1131.81C168.979,1131.52 169.123,1131.31 169.279,1131.2ZM171.091,1133.47C171.091,1133.86 171.067,1134.13 171.031,1134.27C170.959,1134.49 170.839,1134.67 170.635,1134.82C170.359,1135.02 170.083,1135.11 169.783,1135.11C169.519,1135.11 169.303,1135.03 169.123,1134.86C168.955,1134.69 168.871,1134.49 168.871,1134.26C168.871,1134.03 168.979,1133.84 169.195,1133.68C169.339,1133.59 169.627,1133.49 170.095,1133.4C170.551,1133.3 170.875,1133.22 171.091,1133.14L171.091,1133.47Z" style="fill:rgb(110,110,111);fill-rule:nonzero;"/>
        </g>
        <g transform="matrix(4.16667,0,0,4.16667,0,0)">
            <rect x="174.331" y="1127.53" width="1.644" height="8.592" style="fill:rgb(110,110,111);fill-rule:nonzero;"/>
        </g>
    </g>
    <defs>
        <linearGradient id="_Linear1" x1="0" y1="0" x2="1" y2="0" gradientUnits="userSpaceOnUse" gradientTransform="matrix(-1.16281e-06,26.6021,-26.6021,-1.16281e-06,156.762,1119.36)"><stop offset="0%" style="stop-color:rgb(246,248,249);stop-opacity:1"/><stop offset="100%" style="stop-color:rgb(243,243,244);stop-opacity:1"/></linearGradient>
    </defs>
</svg>
