<?xml version="1.0" standalone="no"?>
<!DOCTYPE svg PUBLIC "-//W3C//DTD SVG 1.1//EN" "http://www.w3.org/Graphics/SVG/1.1/DTD/svg11.dtd">
<svg width="100%" height="100%" viewBox="0 0 451 167" version="1.1" xmlns="http://www.w3.org/2000/svg" xmlns:xlink="http://www.w3.org/1999/xlink" xml:space="preserve" style="fill-rule:evenodd;clip-rule:evenodd;stroke-linejoin:round;stroke-miterlimit:1.41421;">
    <g transform="matrix(1.33333,0,0,1.33333,-1618.36,-6214.39)">
        <g transform="matrix(4.16667,0,0,4.16667,0,0)">
            <path d="M372.47,1146.59C372.47,1147.69 371.575,1148.59 370.47,1148.59L293.304,1148.59C292.2,1148.59 291.304,1147.69 291.304,1146.59L291.304,1122.59C291.304,1121.49 292.2,1120.59 293.304,1120.59L370.47,1120.59C371.575,1120.59 372.47,1121.49 372.47,1122.59L372.47,1146.59Z" style="fill:url(#_Linear1);"/>
        </g>
        <g transform="matrix(4.16667,0,0,4.16667,0,0)">
            <path d="M293.304,1146.09C292.477,1146.09 291.804,1145.42 291.804,1144.59L291.804,1120.59C291.804,1119.76 292.477,1119.09 293.304,1119.09L370.47,1119.09C371.297,1119.09 371.97,1119.76 371.97,1120.59L371.97,1144.59C371.97,1145.42 371.297,1146.09 370.47,1146.09L293.304,1146.09Z" style="fill:url(#_Linear2);"/>
        </g>
        <g transform="matrix(4.16667,0,0,4.16667,0,0)">
            <path d="M370.47,1118.59L293.304,1118.59C292.2,1118.59 291.304,1119.49 291.304,1120.59L291.304,1144.59C291.304,1145.69 292.2,1146.59 293.304,1146.59L370.47,1146.59C371.575,1146.59 372.47,1145.69 372.47,1144.59L372.47,1120.59C372.47,1119.49 371.575,1118.59 370.47,1118.59ZM370.47,1119.59C371.021,1119.59 371.47,1120.04 371.47,1120.59L371.47,1144.59C371.47,1145.14 371.021,1145.59 370.47,1145.59L293.304,1145.59C292.753,1145.59 292.304,1145.14 292.304,1144.59L292.304,1120.59C292.304,1120.04 292.753,1119.59 293.304,1119.59L370.47,1119.59Z" style="fill:rgb(203,203,203);fill-rule:nonzero;"/>
        </g>
        <g transform="matrix(4.16667,0,0,4.16667,0,0)">
            <path d="M319.761,1127.53L317.925,1127.53L314.589,1136.12L316.425,1136.12L317.145,1134.16L320.589,1134.16L321.333,1136.12L323.205,1136.12L319.761,1127.53ZM317.673,1132.71L318.837,1129.53L320.025,1132.71L317.673,1132.71Z" style="fill:rgb(51,51,51);fill-rule:nonzero;"/>
        </g>
        <g transform="matrix(4.16667,0,0,4.16667,0,0)">
            <path d="M328.581,1130.25C328.137,1129.93 327.525,1129.76 326.769,1129.76C325.845,1129.76 325.113,1130.05 324.573,1130.62C324.033,1131.19 323.757,1131.99 323.757,1133.02C323.757,1134.04 324.033,1134.84 324.573,1135.41C325.113,1135.99 325.833,1136.28 326.745,1136.28C327.549,1136.28 328.185,1136.08 328.653,1135.71C329.133,1135.33 329.457,1134.76 329.625,1134.02L328.005,1133.74C327.921,1134.18 327.777,1134.49 327.585,1134.67C327.381,1134.85 327.129,1134.93 326.817,1134.93C326.397,1134.93 326.073,1134.78 325.821,1134.48C325.569,1134.16 325.449,1133.65 325.449,1132.9C325.449,1132.24 325.569,1131.76 325.821,1131.48C326.061,1131.2 326.385,1131.06 326.793,1131.06C327.105,1131.06 327.357,1131.14 327.549,1131.3C327.741,1131.46 327.861,1131.7 327.921,1132.03L329.541,1131.74C329.349,1131.07 329.025,1130.58 328.581,1130.25Z" style="fill:rgb(51,51,51);fill-rule:nonzero;"/>
        </g>
        <g transform="matrix(4.16667,0,0,4.16667,0,0)">
            <path d="M332.505,1129.89L332.505,1127.68L330.861,1128.66L330.861,1129.89L330.105,1129.89L330.105,1131.2L330.861,1131.2L330.861,1133.92C330.861,1134.51 330.873,1134.9 330.909,1135.09C330.957,1135.36 331.029,1135.58 331.149,1135.74C331.257,1135.89 331.425,1136.02 331.665,1136.12C331.905,1136.23 332.169,1136.28 332.469,1136.28C332.949,1136.28 333.381,1136.19 333.765,1136.02L333.633,1134.75C333.333,1134.86 333.117,1134.91 332.961,1134.91C332.853,1134.91 332.757,1134.88 332.685,1134.82C332.613,1134.78 332.553,1134.7 332.541,1134.62C332.517,1134.54 332.505,1134.24 332.505,1133.72L332.505,1131.2L333.633,1131.2L333.633,1129.89L332.505,1129.89Z" style="fill:rgb(51,51,51);fill-rule:nonzero;"/>
        </g>
        <g transform="matrix(4.16667,0,0,4.16667,0,0)">
            <path d="M336.429,1129.05L336.429,1127.53L334.785,1127.53L334.785,1129.05L336.429,1129.05ZM336.429,1136.12L336.429,1129.89L334.785,1129.89L334.785,1136.12L336.429,1136.12Z" style="fill:rgb(51,51,51);fill-rule:nonzero;"/>
        </g>
        <g transform="matrix(4.16667,0,0,4.16667,0,0)">
            <path d="M341.313,1136.12L343.797,1129.89L342.105,1129.89L340.905,1133.07C340.845,1133.25 340.785,1133.42 340.737,1133.6C340.713,1133.68 340.653,1133.86 340.569,1134.13L340.221,1133.07L339.057,1129.89L337.329,1129.89L339.837,1136.12L341.313,1136.12Z" style="fill:rgb(51,51,51);fill-rule:nonzero;"/>
        </g>
        <g transform="matrix(4.16667,0,0,4.16667,0,0)">
            <path d="M347.997,1134.82C347.817,1134.97 347.601,1135.04 347.349,1135.04C346.965,1135.04 346.653,1134.91 346.401,1134.63C346.149,1134.36 346.017,1133.98 346.005,1133.49L350.121,1133.49C350.145,1132.23 349.893,1131.3 349.353,1130.68C348.825,1130.07 348.093,1129.76 347.169,1129.76C346.341,1129.76 345.657,1130.05 345.117,1130.64C344.577,1131.22 344.313,1132.03 344.313,1133.06C344.313,1133.92 344.517,1134.64 344.925,1135.21C345.453,1135.92 346.245,1136.28 347.325,1136.28C348.009,1136.28 348.585,1136.12 349.041,1135.81C349.497,1135.48 349.821,1135.03 350.037,1134.43L348.393,1134.15C348.309,1134.46 348.177,1134.69 347.997,1134.82ZM346.029,1132.48C346.029,1132.03 346.149,1131.68 346.377,1131.42C346.617,1131.15 346.905,1131.02 347.265,1131.02C347.601,1131.02 347.889,1131.14 348.117,1131.39C348.357,1131.64 348.477,1132 348.489,1132.48L346.029,1132.48Z" style="fill:rgb(51,51,51);fill-rule:nonzero;"/>
        </g>
    </g>
    <defs>
        <linearGradient id="_Linear1" x1="0" y1="0" x2="1" y2="0" gradientUnits="userSpaceOnUse" gradientTransform="matrix(-1.05656e-07,-2.41713,2.41713,-1.05656e-07,331.887,1148.42)"><stop offset="0%" style="stop-color:white;stop-opacity:1"/><stop offset="100%" style="stop-color:rgb(217,217,217);stop-opacity:1"/></linearGradient>
        <linearGradient id="_Linear2" x1="0" y1="0" x2="1" y2="0" gradientUnits="userSpaceOnUse" gradientTransform="matrix(-1.16281e-06,26.6021,-26.6021,-1.16281e-06,331.887,1119.36)"><stop offset="0%" style="stop-color:white;stop-opacity:1"/><stop offset="100%" style="stop-color:rgb(246,248,249);stop-opacity:1"/></linearGradient>
    </defs>
</svg>
