<?xml version="1.0" standalone="no"?>
<!DOCTYPE svg PUBLIC "-//W3C//DTD SVG 1.1//EN" "http://www.w3.org/Graphics/SVG/1.1/DTD/svg11.dtd">
<svg width="100%" height="100%" viewBox="0 0 451 156" version="1.1" xmlns="http://www.w3.org/2000/svg" xmlns:xlink="http://www.w3.org/1999/xlink" xml:space="preserve" style="fill-rule:evenodd;clip-rule:evenodd;stroke-linejoin:round;stroke-miterlimit:1.41421;">
    <g transform="matrix(1.33333,0,0,1.33333,-1030.41,-7121.28)">
        <g transform="matrix(4.16667,0,0,4.16667,0,0)">
            <path d="M187.473,1309.33C186.646,1309.33 185.973,1308.66 185.973,1307.83L185.973,1283.83C185.973,1283.01 186.646,1282.33 187.473,1282.33L254.995,1282.33C255.697,1282.33 256.426,1282.92 257.222,1284.11L266.014,1295.83L257.239,1307.54C256.383,1308.8 255.708,1309.33 254.965,1309.33L187.473,1309.33Z" style="fill:url(#_Linear1);"/>
        </g>
        <g transform="matrix(4.16667,0,0,4.16667,0,0)">
            <path d="M254.995,1281.83L187.473,1281.83C186.368,1281.83 185.473,1282.73 185.473,1283.83L185.473,1307.83C185.473,1308.94 186.368,1309.83 187.473,1309.83L254.965,1309.83C256.07,1309.83 256.898,1308.93 257.639,1307.83L266.639,1295.83L257.639,1283.83C256.989,1282.86 256.1,1281.83 254.995,1281.83ZM254.995,1282.83C255.349,1282.83 255.951,1283.1 256.807,1284.39L256.821,1284.41L256.838,1284.43L265.389,1295.83L256.838,1307.24L256.824,1307.25L256.81,1307.28C256.083,1308.35 255.514,1308.83 254.965,1308.83L187.473,1308.83C186.921,1308.83 186.473,1308.39 186.473,1307.83L186.473,1283.83C186.473,1283.28 186.921,1282.83 187.473,1282.83L254.995,1282.83Z" style="fill:rgb(217,217,217);fill-rule:nonzero;"/>
        </g>
        <g transform="matrix(4.16667,0,0,4.16667,0,0)">
            <path d="M212.851,1300.56L213.691,1300.56L213.907,1299.53C214.819,1299.53 215.551,1299.26 216.103,1298.73C216.667,1298.22 216.943,1297.57 216.943,1296.83C216.943,1296.29 216.787,1295.81 216.487,1295.39C216.187,1294.97 215.683,1294.62 214.999,1294.34L215.479,1292.01C215.791,1292.18 215.971,1292.48 216.043,1292.91L217.483,1292.84C217.435,1292.28 217.255,1291.82 216.955,1291.46C216.655,1291.1 216.247,1290.86 215.743,1290.73L215.875,1290.13L215.035,1290.13L214.927,1290.63L214.615,1290.63C214.243,1290.63 213.847,1290.74 213.427,1290.96C213.007,1291.19 212.683,1291.49 212.455,1291.88C212.227,1292.28 212.107,1292.69 212.107,1293.12C212.107,1293.59 212.251,1294.03 212.539,1294.46C212.827,1294.89 213.283,1295.25 213.907,1295.52L213.367,1298.11C212.923,1297.91 212.659,1297.47 212.587,1296.8L211.099,1296.87C211.147,1297.55 211.351,1298.11 211.711,1298.55C212.071,1299 212.527,1299.29 213.091,1299.43L212.851,1300.56ZM213.511,1292.94C213.511,1292.65 213.619,1292.4 213.847,1292.18C214.063,1291.97 214.339,1291.87 214.675,1291.87L214.231,1293.99C213.751,1293.73 213.511,1293.38 213.511,1292.94ZM215.395,1296.42C215.503,1296.57 215.563,1296.75 215.563,1296.97C215.563,1297.29 215.443,1297.58 215.203,1297.82C214.963,1298.06 214.615,1298.19 214.183,1298.23L214.675,1295.88C215.047,1296.08 215.287,1296.25 215.395,1296.42Z" style="fill:rgb(110,110,111);fill-rule:nonzero;"/>
        </g>
        <g transform="matrix(4.16667,0,0,4.16667,0,0)">
            <path d="M219.907,1294.05C220.363,1293.86 220.771,1293.66 221.119,1293.43L219.871,1299.37L221.575,1299.37L223.387,1290.74L222.355,1290.74C221.563,1291.58 220.435,1292.31 218.983,1292.95L218.671,1294.45C219.031,1294.37 219.439,1294.23 219.907,1294.05Z" style="fill:rgb(110,110,111);fill-rule:nonzero;"/>
        </g>
        <g transform="matrix(4.16667,0,0,4.16667,0,0)">
            <path d="M227.527,1292.36C227.731,1292.16 227.959,1292.06 228.223,1292.06C228.487,1292.06 228.703,1292.15 228.871,1292.33C229.039,1292.51 229.123,1292.75 229.123,1293.03C229.123,1293.21 229.075,1293.42 228.967,1293.63C228.871,1293.86 228.679,1294.13 228.415,1294.43C228.259,1294.59 227.899,1294.95 227.323,1295.52C226.555,1296.25 226.027,1296.78 225.739,1297.1C225.451,1297.43 225.211,1297.79 225.019,1298.17C224.827,1298.54 224.707,1298.95 224.647,1299.37L229.867,1299.37L230.179,1297.83L227.203,1297.83C227.359,1297.63 227.527,1297.45 227.695,1297.27C227.863,1297.09 228.211,1296.75 228.727,1296.27C229.255,1295.78 229.639,1295.41 229.867,1295.15C230.179,1294.77 230.419,1294.41 230.551,1294.07C230.695,1293.73 230.767,1293.38 230.767,1293.05C230.767,1292.37 230.539,1291.82 230.083,1291.39C229.627,1290.96 228.991,1290.74 228.199,1290.74C227.467,1290.74 226.855,1290.96 226.363,1291.38C225.883,1291.8 225.571,1292.41 225.439,1293.21L227.083,1293.45C227.179,1292.93 227.335,1292.57 227.527,1292.36Z" style="fill:rgb(110,110,111);fill-rule:nonzero;"/>
        </g>
        <g transform="matrix(4.16667,0,0,4.16667,0,0)">
            <path d="M231.091,1299.37L231.859,1299.37C231.787,1299.71 231.667,1299.96 231.511,1300.11C231.367,1300.28 231.139,1300.39 230.863,1300.45L230.695,1301.23C231.259,1301.22 231.715,1301.05 232.075,1300.73C232.435,1300.4 232.687,1299.86 232.843,1299.09L233.131,1297.75L231.439,1297.75L231.091,1299.37Z" style="fill:rgb(110,110,111);fill-rule:nonzero;"/>
        </g>
        <g transform="matrix(4.16667,0,0,4.16667,0,0)">
            <path d="M235.363,1298.77C235.807,1299.27 236.383,1299.53 237.079,1299.53C237.775,1299.53 238.399,1299.26 238.963,1298.75C239.515,1298.22 239.959,1297.47 240.283,1296.49C240.607,1295.51 240.775,1294.58 240.775,1293.69C240.775,1292.73 240.547,1292 240.103,1291.5C239.659,1290.99 239.083,1290.74 238.387,1290.74C237.691,1290.74 237.067,1291.01 236.503,1291.53C235.939,1292.06 235.483,1292.87 235.123,1293.95C234.823,1294.83 234.679,1295.71 234.679,1296.59C234.679,1297.53 234.907,1298.27 235.363,1298.77ZM236.647,1294.7C236.887,1293.66 237.187,1292.93 237.523,1292.52C237.763,1292.23 238.027,1292.09 238.327,1292.09C238.555,1292.09 238.747,1292.18 238.903,1292.37C239.059,1292.57 239.131,1292.87 239.131,1293.3C239.131,1293.83 239.035,1294.55 238.831,1295.46C238.579,1296.6 238.291,1297.35 237.967,1297.75C237.715,1298.04 237.439,1298.18 237.127,1298.18C236.887,1298.18 236.695,1298.09 236.551,1297.89C236.395,1297.71 236.323,1297.39 236.323,1296.92C236.323,1296.35 236.431,1295.61 236.647,1294.7Z" style="fill:rgb(110,110,111);fill-rule:nonzero;"/>
        </g>
        <g transform="matrix(4.16667,0,0,4.16667,0,0)">
            <path d="M242.035,1298.77C242.479,1299.27 243.055,1299.53 243.751,1299.53C244.447,1299.53 245.071,1299.26 245.635,1298.75C246.187,1298.22 246.631,1297.47 246.955,1296.49C247.279,1295.51 247.447,1294.58 247.447,1293.69C247.447,1292.73 247.219,1292 246.775,1291.5C246.331,1290.99 245.755,1290.74 245.059,1290.74C244.363,1290.74 243.739,1291.01 243.175,1291.53C242.611,1292.06 242.155,1292.87 241.795,1293.95C241.495,1294.83 241.351,1295.71 241.351,1296.59C241.351,1297.53 241.579,1298.27 242.035,1298.77ZM243.319,1294.7C243.559,1293.66 243.859,1292.93 244.195,1292.52C244.435,1292.23 244.699,1292.09 244.999,1292.09C245.227,1292.09 245.419,1292.18 245.575,1292.37C245.731,1292.57 245.803,1292.87 245.803,1293.3C245.803,1293.83 245.707,1294.55 245.503,1295.46C245.251,1296.6 244.963,1297.35 244.639,1297.75C244.387,1298.04 244.111,1298.18 243.799,1298.18C243.559,1298.18 243.367,1298.09 243.223,1297.89C243.067,1297.71 242.995,1297.39 242.995,1296.92C242.995,1296.35 243.103,1295.61 243.319,1294.7Z" style="fill:rgb(110,110,111);fill-rule:nonzero;"/>
        </g>
        <g transform="matrix(4.16667,0,0,4.16667,0,0)">
            <path d="M203.004,1294.37C202.452,1294.37 202.004,1293.92 202.004,1293.37C202.004,1292.81 202.452,1292.37 203.004,1292.37C203.557,1292.37 204.004,1292.81 204.004,1293.37C204.004,1293.92 203.557,1294.37 203.004,1294.37ZM205.713,1290.57L199.832,1290.57L193.511,1296.9C193.121,1297.29 193.121,1297.92 193.511,1298.31L198.015,1302.82C198.406,1303.21 199.039,1303.21 199.43,1302.82L205.757,1296.49L205.757,1290.62L205.713,1290.57Z" style="fill:rgb(110,110,111);fill-rule:nonzero;"/>
        </g>
    </g>
    <defs>
        <linearGradient id="_Linear1" x1="0" y1="0" x2="1" y2="0" gradientUnits="userSpaceOnUse" gradientTransform="matrix(-1.36741e-06,-31.2827,31.2827,-1.36741e-06,225.993,1310.58)"><stop offset="0%" style="stop-color:rgb(234,234,235);stop-opacity:1"/><stop offset="100%" style="stop-color:rgb(243,243,244);stop-opacity:1"/></linearGradient>
    </defs>
</svg>
