<?xml version="1.0" standalone="no"?>
<!DOCTYPE svg PUBLIC "-//W3C//DTD SVG 1.1//EN" "http://www.w3.org/Graphics/SVG/1.1/DTD/svg11.dtd">
<svg width="100%" height="100%" viewBox="0 0 316 112" version="1.1" xmlns="http://www.w3.org/2000/svg" xmlns:xlink="http://www.w3.org/1999/xlink" xml:space="preserve" style="fill-rule:evenodd;clip-rule:evenodd;stroke-linejoin:round;stroke-miterlimit:1.41421;">
    <g transform="matrix(1.33333,0,0,1.33333,-2177.16,-6933.11)">
        <g transform="matrix(4.16667,0,0,4.16667,0,0)">
            <path d="M393.792,1267.46C393.018,1267.46 392.388,1266.82 392.388,1266.05L392.388,1249.86C392.388,1249.08 393.018,1248.46 393.792,1248.46L439.584,1248.46C440.311,1248.46 441.141,1248.66 442.29,1250.16L448.065,1257.76L442.282,1265.76C441.694,1266.53 440.762,1267.46 439.709,1267.46L393.792,1267.46Z" style="fill:url(#_Linear1);"/>
        </g>
        <g transform="matrix(4.16667,0,0,4.16667,0,0)">
            <path d="M439.584,1247.96L393.792,1247.96C392.741,1247.96 391.888,1248.81 391.888,1249.86L391.888,1266.05C391.888,1267.1 392.741,1267.96 393.792,1267.96L439.709,1267.96C440.76,1267.96 441.792,1267.22 442.687,1266.05L448.687,1257.76L442.687,1249.86C441.567,1248.4 440.635,1247.96 439.584,1247.96ZM439.584,1248.96C440.141,1248.96 440.826,1249.07 441.891,1250.47L447.442,1257.77L441.893,1265.44C441.147,1266.42 440.372,1266.96 439.709,1266.96L393.792,1266.96C393.294,1266.96 392.888,1266.55 392.888,1266.05L392.888,1249.86C392.888,1249.36 393.294,1248.96 393.792,1248.96L439.584,1248.96Z" style="fill:rgb(217,217,217);fill-rule:nonzero;"/>
        </g>
        <g transform="matrix(4.16667,0,0,4.16667,0,0)">
            <path d="M407.332,1261.99L407.332,1255.81L411.468,1261.99L412.535,1261.99L412.535,1254.11L411.534,1254.11L411.534,1260.3L407.398,1254.11L406.331,1254.11L406.331,1261.99L407.332,1261.99Z" style="fill:rgb(159,159,159);fill-rule:nonzero;"/>
        </g>
        <g transform="matrix(4.16667,0,0,4.16667,0,0)">
            <path d="M417.463,1261.03C417.21,1261.22 416.913,1261.32 416.561,1261.32C416.077,1261.32 415.681,1261.15 415.362,1260.82C415.043,1260.48 414.867,1260.01 414.834,1259.38L419.091,1259.38C419.091,1259.27 419.091,1259.18 419.091,1259.13C419.091,1258.18 418.849,1257.46 418.365,1256.94C417.881,1256.42 417.265,1256.16 416.506,1256.16C415.714,1256.16 415.076,1256.42 414.581,1256.95C414.086,1257.48 413.844,1258.23 413.844,1259.18C413.844,1260.11 414.086,1260.82 414.581,1261.34C415.065,1261.86 415.725,1262.11 416.561,1262.11C417.221,1262.11 417.76,1261.95 418.189,1261.63C418.607,1261.31 418.904,1260.86 419.058,1260.27L418.057,1260.14C417.914,1260.55 417.716,1260.85 417.463,1261.03ZM415.395,1257.4C415.692,1257.11 416.066,1256.95 416.506,1256.95C417.001,1256.95 417.397,1257.14 417.705,1257.51C417.903,1257.76 418.024,1258.11 418.068,1258.59L414.889,1258.59C414.922,1258.1 415.087,1257.7 415.395,1257.4Z" style="fill:rgb(159,159,159);fill-rule:nonzero;"/>
        </g>
        <g transform="matrix(4.16667,0,0,4.16667,0,0)">
            <path d="M420.796,1261.99L422.325,1259.81L422.6,1260.23L423.777,1261.99L424.954,1261.99L422.886,1259.03L424.822,1256.28L423.645,1256.28L422.699,1257.62C422.567,1257.81 422.424,1258.02 422.259,1258.25C422.16,1258.09 422.028,1257.88 421.863,1257.63L420.961,1256.28L419.773,1256.28L421.709,1259.03L419.619,1261.99L420.796,1261.99Z" style="fill:rgb(159,159,159);fill-rule:nonzero;"/>
        </g>
        <g transform="matrix(4.16667,0,0,4.16667,0,0)">
            <path d="M427.462,1261.16C427.319,1261.16 427.209,1261.14 427.132,1261.1C427.055,1261.04 427,1260.99 426.967,1260.9C426.934,1260.82 426.912,1260.65 426.912,1260.37L426.912,1257.03L427.88,1257.03L427.88,1256.28L426.912,1256.28L426.912,1254.29L425.944,1254.87L425.944,1256.28L425.229,1256.28L425.229,1257.03L425.944,1257.03L425.944,1260.32C425.944,1260.9 425.988,1261.28 426.065,1261.46C426.142,1261.64 426.274,1261.79 426.472,1261.9C426.659,1262.01 426.934,1262.07 427.286,1262.07C427.495,1262.07 427.737,1262.03 428.012,1261.98L427.88,1261.13C427.704,1261.15 427.561,1261.16 427.462,1261.16Z" style="fill:rgb(159,159,159);fill-rule:nonzero;"/>
        </g>
        <g transform="matrix(4.16667,0,0,4.16667,0,0)">
            <path d="M436.806,1260.74L439.617,1257.89L436.804,1255.07L436.095,1255.77L438.208,1257.89L436.094,1260.03L436.806,1260.74Z" style="fill:rgb(159,159,159);fill-rule:nonzero;"/>
        </g>
    </g>
    <defs>
        <linearGradient id="_Linear1" x1="0" y1="0" x2="1" y2="0" gradientUnits="userSpaceOnUse" gradientTransform="matrix(-8.18277e-07,18.72,-18.72,-8.18277e-07,420.227,1248.65)"><stop offset="0%" style="stop-color:rgb(246,248,249);stop-opacity:1"/><stop offset="100%" style="stop-color:rgb(243,243,244);stop-opacity:1"/></linearGradient>
    </defs>
</svg>
