<?xml version="1.0" standalone="no"?>
<!DOCTYPE svg PUBLIC "-//W3C//DTD SVG 1.1//EN" "http://www.w3.org/Graphics/SVG/1.1/DTD/svg11.dtd">
<svg width="100%" height="100%" viewBox="0 0 355 112" version="1.1" xmlns="http://www.w3.org/2000/svg" xmlns:xlink="http://www.w3.org/1999/xlink" xml:space="preserve" style="fill-rule:evenodd;clip-rule:evenodd;stroke-linejoin:round;stroke-miterlimit:1.41421;">
    <g transform="matrix(1.33333,0,0,1.33333,-1441.14,-6933.11)">
        <g transform="matrix(4.16667,0,0,4.16667,0,0)">
            <path d="M261.308,1267.46C260.535,1267.46 259.905,1266.82 259.905,1266.05L259.905,1249.86C259.905,1249.09 260.535,1248.46 261.308,1248.46L321.299,1248.46C322.073,1248.46 322.704,1249.09 322.704,1249.86L322.704,1266.05C322.704,1266.82 322.073,1267.46 321.299,1267.46L261.308,1267.46Z" style="fill:url(#_Linear1);"/>
        </g>
        <g transform="matrix(4.16667,0,0,4.16667,0,0)">
            <path d="M321.299,1247.96L261.308,1247.96C260.256,1247.96 259.405,1248.81 259.405,1249.86L259.405,1266.05C259.405,1267.1 260.256,1267.96 261.308,1267.96L321.299,1267.96C322.351,1267.96 323.204,1267.1 323.204,1266.05L323.204,1249.86C323.204,1248.81 322.351,1247.96 321.299,1247.96ZM321.299,1248.96C321.798,1248.96 322.204,1249.36 322.204,1249.86L322.204,1266.05C322.204,1266.55 321.798,1266.96 321.299,1266.96L261.308,1266.96C260.811,1266.96 260.405,1266.55 260.405,1266.05L260.405,1249.86C260.405,1249.36 260.811,1248.96 261.308,1248.96L321.299,1248.96Z" style="fill:rgb(217,217,217);fill-rule:nonzero;"/>
        </g>
        <g transform="matrix(4.16667,0,0,4.16667,0,0)">
            <path d="M283.279,1260.88C283.554,1261.29 283.928,1261.61 284.412,1261.81C284.896,1262.02 285.49,1262.12 286.205,1262.12C286.766,1262.12 287.272,1262.02 287.712,1261.81C288.163,1261.61 288.515,1261.32 288.746,1260.96C288.988,1260.58 289.109,1260.19 289.109,1259.77C289.109,1259.35 288.999,1258.98 288.779,1258.65C288.559,1258.33 288.229,1258.06 287.767,1257.85C287.459,1257.71 286.876,1257.54 286.029,1257.35C285.182,1257.16 284.654,1256.97 284.456,1256.79C284.247,1256.6 284.148,1256.37 284.148,1256.08C284.148,1255.76 284.291,1255.49 284.577,1255.26C284.874,1255.03 285.325,1254.91 285.963,1254.91C286.568,1254.91 287.019,1255.04 287.327,1255.29C287.646,1255.54 287.822,1255.92 287.877,1256.41L288.878,1256.34C288.856,1255.87 288.735,1255.46 288.493,1255.09C288.251,1254.73 287.91,1254.45 287.459,1254.27C287.019,1254.08 286.502,1253.98 285.919,1253.98C285.391,1253.98 284.907,1254.07 284.478,1254.25C284.038,1254.43 283.708,1254.7 283.488,1255.04C283.257,1255.39 283.147,1255.75 283.147,1256.16C283.147,1256.52 283.235,1256.84 283.422,1257.14C283.609,1257.42 283.884,1257.68 284.258,1257.88C284.555,1258.03 285.061,1258.19 285.787,1258.36C286.502,1258.54 286.975,1258.67 287.184,1258.75C287.514,1258.88 287.745,1259.03 287.888,1259.21C288.031,1259.39 288.108,1259.61 288.108,1259.86C288.108,1260.1 288.031,1260.33 287.888,1260.53C287.734,1260.74 287.514,1260.9 287.206,1261.02C286.898,1261.14 286.546,1261.2 286.15,1261.2C285.71,1261.2 285.303,1261.12 284.951,1260.97C284.588,1260.8 284.324,1260.6 284.159,1260.35C283.983,1260.1 283.873,1259.77 283.829,1259.37L282.85,1259.46C282.861,1259.99 283.004,1260.46 283.279,1260.88Z" style="fill:rgb(159,159,159);fill-rule:nonzero;"/>
        </g>
        <g transform="matrix(4.16667,0,0,4.16667,0,0)">
            <path d="M294.323,1261.99L295.335,1261.99C295.214,1261.77 295.137,1261.54 295.093,1261.3C295.06,1261.07 295.038,1260.49 295.038,1259.6L295.038,1258.32C295.038,1257.89 295.027,1257.59 294.994,1257.42C294.928,1257.16 294.829,1256.94 294.686,1256.77C294.543,1256.59 294.323,1256.45 294.015,1256.34C293.707,1256.21 293.311,1256.16 292.827,1256.16C292.332,1256.16 291.903,1256.23 291.529,1256.36C291.155,1256.5 290.869,1256.69 290.671,1256.94C290.473,1257.18 290.33,1257.51 290.242,1257.92L291.188,1258.05C291.287,1257.64 291.452,1257.36 291.672,1257.2C291.892,1257.04 292.222,1256.96 292.684,1256.96C293.168,1256.96 293.542,1257.07 293.784,1257.29C293.971,1257.45 294.059,1257.72 294.059,1258.12C294.059,1258.15 294.059,1258.24 294.059,1258.37C293.685,1258.5 293.113,1258.61 292.321,1258.7C291.947,1258.75 291.661,1258.8 291.463,1258.84C291.21,1258.92 290.979,1259.02 290.77,1259.16C290.561,1259.31 290.396,1259.49 290.264,1259.72C290.143,1259.94 290.077,1260.21 290.077,1260.48C290.077,1260.96 290.242,1261.35 290.583,1261.65C290.924,1261.96 291.408,1262.11 292.035,1262.11C292.409,1262.11 292.772,1262.05 293.102,1261.92C293.432,1261.79 293.773,1261.58 294.136,1261.28C294.169,1261.55 294.224,1261.78 294.323,1261.99ZM294.059,1259.48C294.059,1259.91 294.004,1260.23 293.894,1260.44C293.762,1260.73 293.553,1260.94 293.256,1261.11C292.97,1261.28 292.64,1261.35 292.266,1261.35C291.881,1261.35 291.595,1261.26 291.408,1261.1C291.21,1260.92 291.111,1260.71 291.111,1260.45C291.111,1260.29 291.155,1260.13 291.243,1260C291.331,1259.86 291.463,1259.76 291.628,1259.68C291.793,1259.61 292.079,1259.55 292.475,1259.49C293.179,1259.39 293.707,1259.27 294.059,1259.13L294.059,1259.48Z" style="fill:rgb(159,159,159);fill-rule:nonzero;"/>
        </g>
        <g transform="matrix(4.16667,0,0,4.16667,0,0)">
            <path d="M299.009,1261.99L301.176,1256.28L300.186,1256.28L298.91,1259.77C298.756,1260.19 298.635,1260.55 298.558,1260.85C298.437,1260.45 298.316,1260.07 298.184,1259.7L296.963,1256.28L295.929,1256.28L298.085,1261.99L299.009,1261.99Z" style="fill:rgb(159,159,159);fill-rule:nonzero;"/>
        </g>
        <g transform="matrix(4.16667,0,0,4.16667,0,0)">
            <path d="M305.323,1261.03C305.07,1261.22 304.773,1261.32 304.421,1261.32C303.937,1261.32 303.541,1261.15 303.222,1260.82C302.903,1260.48 302.727,1260.01 302.694,1259.38L306.951,1259.38C306.951,1259.27 306.951,1259.18 306.951,1259.13C306.951,1258.18 306.709,1257.46 306.225,1256.94C305.741,1256.42 305.125,1256.16 304.366,1256.16C303.574,1256.16 302.936,1256.42 302.441,1256.95C301.946,1257.48 301.704,1258.23 301.704,1259.18C301.704,1260.11 301.946,1260.82 302.441,1261.34C302.925,1261.86 303.585,1262.11 304.421,1262.11C305.081,1262.11 305.62,1261.95 306.049,1261.63C306.467,1261.31 306.764,1260.86 306.918,1260.27L305.917,1260.14C305.774,1260.55 305.576,1260.85 305.323,1261.03ZM303.255,1257.4C303.552,1257.11 303.926,1256.95 304.366,1256.95C304.861,1256.95 305.257,1257.14 305.565,1257.51C305.763,1257.76 305.884,1258.11 305.928,1258.59L302.749,1258.59C302.782,1258.1 302.947,1257.7 303.255,1257.4Z" style="fill:rgb(159,159,159);fill-rule:nonzero;"/>
        </g>
        <g transform="matrix(4.16667,0,0,4.16667,0,0)">
            <path d="M275.138,1260.21L277.975,1256.83L276.248,1256.83L276.248,1254.54L274.027,1254.54L274.027,1256.83L272.301,1256.83L275.138,1260.21Z" style="fill:rgb(159,159,159);fill-rule:nonzero;"/>
        </g>
        <g transform="matrix(4.16667,0,0,4.16667,0,0)">
            <path d="M277.266,1259.05L276.763,1259.65L278.503,1259.65L278.503,1261.91L271.772,1261.91L271.772,1259.65L273.513,1259.65L273.01,1259.05L270.645,1259.05L270.645,1262.54L279.631,1262.54L279.631,1259.05L277.266,1259.05Z" style="fill:rgb(159,159,159);fill-rule:nonzero;"/>
        </g>
    </g>
    <defs>
        <linearGradient id="_Linear1" x1="0" y1="0" x2="1" y2="0" gradientUnits="userSpaceOnUse" gradientTransform="matrix(-8.18277e-07,18.72,-18.72,-8.18277e-07,291.304,1248.65)"><stop offset="0%" style="stop-color:rgb(246,248,249);stop-opacity:1"/><stop offset="100%" style="stop-color:rgb(243,243,244);stop-opacity:1"/></linearGradient>
    </defs>
</svg>
