<?xml version="1.0" standalone="no"?>
<!DOCTYPE svg PUBLIC "-//W3C//DTD SVG 1.1//EN" "http://www.w3.org/Graphics/SVG/1.1/DTD/svg11.dtd">
<svg width="100%" height="100%" viewBox="0 0 317 156" version="1.1" xmlns="http://www.w3.org/2000/svg" xmlns:xlink="http://www.w3.org/1999/xlink" xml:space="preserve" style="fill-rule:evenodd;clip-rule:evenodd;stroke-linejoin:round;stroke-miterlimit:1.41421;">
    <g transform="matrix(1.33333,0,0,1.33333,-1520.24,-7121.22)">
        <g transform="matrix(4.16667,0,0,4.16667,0,0)">
            <path d="M275.644,1309.32C274.817,1309.32 274.144,1308.64 274.144,1307.82L274.144,1283.82C274.144,1282.99 274.817,1282.32 275.644,1282.32L328.563,1282.32C329.39,1282.32 330.063,1282.99 330.063,1283.82L330.063,1307.82C330.063,1308.64 329.39,1309.32 328.563,1309.32L275.644,1309.32Z" style="fill:url(#_Linear1);"/>
        </g>
        <g transform="matrix(4.16667,0,0,4.16667,0,0)">
            <path d="M328.563,1281.82L275.644,1281.82C274.539,1281.82 273.644,1282.71 273.644,1283.82L273.644,1307.82C273.644,1308.92 274.539,1309.82 275.644,1309.82L328.563,1309.82C329.667,1309.82 330.563,1308.92 330.563,1307.82L330.563,1283.82C330.563,1282.71 329.667,1281.82 328.563,1281.82ZM328.563,1282.82C329.114,1282.82 329.563,1283.26 329.563,1283.82L329.563,1307.82C329.563,1308.37 329.114,1308.82 328.563,1308.82L275.644,1308.82C275.093,1308.82 274.644,1308.37 274.644,1307.82L274.644,1283.82C274.644,1283.26 275.093,1282.82 275.644,1282.82L328.563,1282.82Z" style="fill:rgb(217,217,217);fill-rule:nonzero;"/>
        </g>
        <g transform="matrix(4.16667,0,0,4.16667,0,0)">
            <path d="M318.199,1300.25L321.687,1304.26L325.204,1300.25L318.199,1300.25Z" style="fill:rgb(159,159,159);fill-rule:nonzero;"/>
        </g>
        <g transform="matrix(4.16667,0,0,4.16667,0,0)">
            <path d="M325.204,1291.38L321.715,1287.37L318.199,1291.38L325.204,1291.38Z" style="fill:rgb(110,110,111);fill-rule:nonzero;"/>
        </g>
        <g transform="matrix(4.16667,0,0,4.16667,0,0)">
            <path d="M312.356,1281.84L312.356,1309.84L313.356,1309.84L313.356,1281.84" style="fill:rgb(217,217,217);fill-rule:nonzero;"/>
        </g>
        <g transform="matrix(4.16667,0,0,4.16667,0,0)">
            <path d="M313.372,1282.84L313.372,1308.83L314.372,1308.83L314.372,1282.84" style="fill:white;fill-rule:nonzero;"/>
        </g>
        <g transform="matrix(4.16667,0,0,4.16667,0,0)">
            <path d="M312.856,1296.32L330.563,1296.32L330.563,1295.32L312.856,1295.32" style="fill:rgb(217,217,217);fill-rule:nonzero;"/>
        </g>
        <g transform="matrix(4.16667,0,0,4.16667,0,0)">
            <path d="M289.479,1299.24C289.599,1299.05 289.755,1298.86 289.935,1298.67C290.115,1298.49 290.523,1298.11 291.147,1297.59C291.915,1296.95 292.455,1296.45 292.779,1296.07C293.103,1295.7 293.343,1295.35 293.475,1295.03C293.619,1294.69 293.691,1294.36 293.691,1294.01C293.691,1293.34 293.451,1292.76 292.971,1292.31C292.491,1291.85 291.831,1291.62 291.015,1291.62C290.199,1291.62 289.539,1291.84 289.059,1292.26C288.567,1292.68 288.291,1293.3 288.219,1294.11L289.299,1294.21C289.299,1293.67 289.455,1293.25 289.767,1292.95C290.067,1292.65 290.475,1292.5 290.991,1292.5C291.471,1292.5 291.867,1292.64 292.167,1292.93C292.467,1293.22 292.611,1293.57 292.611,1293.99C292.611,1294.38 292.443,1294.81 292.119,1295.26C291.783,1295.7 291.147,1296.31 290.223,1297.08C289.623,1297.56 289.167,1297.99 288.843,1298.38C288.519,1298.75 288.291,1299.13 288.135,1299.52C288.051,1299.75 288.003,1300 288.015,1300.25L293.703,1300.25L293.703,1299.24L289.479,1299.24Z" style="fill:rgb(110,110,111);fill-rule:nonzero;"/>
        </g>
        <g transform="matrix(4.16667,0,0,4.16667,0,0)">
            <path d="M295.696,1299.72C296.2,1300.17 296.824,1300.39 297.58,1300.39C298.408,1300.39 299.104,1300.13 299.656,1299.61C300.196,1299.09 300.472,1298.45 300.472,1297.71C300.472,1297.14 300.328,1296.69 300.052,1296.31C299.776,1295.94 299.38,1295.7 298.864,1295.58C299.26,1295.4 299.548,1295.16 299.752,1294.86C299.956,1294.56 300.052,1294.21 300.052,1293.85C300.052,1293.46 299.944,1293.09 299.74,1292.75C299.524,1292.4 299.224,1292.13 298.828,1291.92C298.432,1291.72 298.012,1291.62 297.532,1291.62C296.86,1291.62 296.284,1291.81 295.828,1292.21C295.372,1292.59 295.084,1293.15 294.952,1293.85L296.008,1294.05C296.092,1293.53 296.26,1293.13 296.536,1292.87C296.812,1292.62 297.148,1292.49 297.568,1292.49C297.976,1292.49 298.312,1292.62 298.576,1292.87C298.84,1293.12 298.972,1293.43 298.972,1293.83C298.972,1294.31 298.792,1294.67 298.432,1294.91C298.072,1295.14 297.664,1295.26 297.22,1295.26C297.172,1295.26 297.112,1295.26 297.04,1295.25L296.932,1296.17C297.22,1296.09 297.472,1296.05 297.676,1296.05C298.156,1296.05 298.564,1296.21 298.876,1296.53C299.2,1296.84 299.356,1297.24 299.356,1297.72C299.356,1298.23 299.188,1298.65 298.84,1299C298.504,1299.35 298.084,1299.52 297.58,1299.52C297.16,1299.52 296.8,1299.39 296.512,1299.12C296.224,1298.86 296.02,1298.43 295.9,1297.83L294.844,1297.97C294.916,1298.69 295.204,1299.27 295.696,1299.72Z" style="fill:rgb(110,110,111);fill-rule:nonzero;"/>
        </g>
    </g>
    <defs>
        <linearGradient id="_Linear1" x1="0" y1="0" x2="1" y2="0" gradientUnits="userSpaceOnUse" gradientTransform="matrix(0.583346,0,0,0.583346,312.255,1295.82)"><stop offset="0%" style="stop-color:white;stop-opacity:1"/><stop offset="100%" style="stop-color:rgb(243,243,244);stop-opacity:1"/></linearGradient>
    </defs>
</svg>
