<?xml version="1.0" standalone="no"?>
<!DOCTYPE svg PUBLIC "-//W3C//DTD SVG 1.1//EN" "http://www.w3.org/Graphics/SVG/1.1/DTD/svg11.dtd">
<svg width="100%" height="100%" viewBox="0 0 84 84" version="1.1" xmlns="http://www.w3.org/2000/svg" xmlns:xlink="http://www.w3.org/1999/xlink" xml:space="preserve" style="fill-rule:evenodd;clip-rule:evenodd;stroke-linejoin:round;stroke-miterlimit:1.41421;">
    <g transform="matrix(1.33333,0,0,1.33333,-3925.87,-5980.33)">
        <g transform="matrix(4.16667,0,0,4.16667,0,0)">
            <path d="M721.156,1089.96C721.156,1090.51 720.708,1090.96 720.156,1090.96L708.156,1090.96C707.603,1090.96 707.156,1090.51 707.156,1089.96L707.156,1077.96C707.156,1077.4 707.603,1076.96 708.156,1076.96L720.156,1076.96C720.708,1076.96 721.156,1077.4 721.156,1077.96L721.156,1089.96Z" style="fill:url(#_Linear1);"/>
        </g>
        <g transform="matrix(4.16667,0,0,4.16667,0,0)">
            <path d="M721.156,1089.96L720.656,1089.96C720.655,1090.23 720.432,1090.46 720.156,1090.46L708.156,1090.46C707.88,1090.46 707.656,1090.23 707.656,1089.96L707.656,1077.96C707.656,1077.68 707.879,1077.46 708.156,1077.46L720.156,1077.46C720.432,1077.46 720.655,1077.68 720.656,1077.96L720.656,1089.96L721.656,1089.96L721.656,1077.96C721.656,1077.13 720.984,1076.46 720.156,1076.46L708.156,1076.46C707.327,1076.46 706.656,1077.13 706.656,1077.96L706.656,1089.96C706.656,1090.78 707.326,1091.46 708.156,1091.46L720.156,1091.46C720.985,1091.46 721.655,1090.78 721.656,1089.96L721.156,1089.96Z" style="fill:rgb(217,217,217);fill-rule:nonzero;"/>
        </g>
        <g transform="matrix(4.16667,0,0,4.16667,0,0)">
            <path d="M718.419,1081.92L717.182,1080.69L713.118,1084.75L711.129,1082.76L709.892,1084L713.115,1087.23L713.167,1087.17L713.169,1087.17L718.419,1081.92Z" style="fill:rgb(110,110,111);fill-rule:nonzero;"/>
        </g>
    </g>
    <defs>
        <linearGradient id="_Linear1" x1="0" y1="0" x2="1" y2="0" gradientUnits="userSpaceOnUse" gradientTransform="matrix(-5.68668e-07,-13.0096,13.0096,-5.68668e-07,714.156,1091.03)"><stop offset="0%" style="stop-color:rgb(246,248,249);stop-opacity:1"/><stop offset="100%" style="stop-color:rgb(243,243,244);stop-opacity:1"/></linearGradient>
    </defs>
</svg>
