<?xml version="1.0" standalone="no"?>
<!DOCTYPE svg PUBLIC "-//W3C//DTD SVG 1.1//EN" "http://www.w3.org/Graphics/SVG/1.1/DTD/svg11.dtd">
<svg width="100%" height="100%" viewBox="0 0 303 45" version="1.1" xmlns="http://www.w3.org/2000/svg" xmlns:xlink="http://www.w3.org/1999/xlink" xml:space="preserve" style="fill-rule:evenodd;clip-rule:evenodd;stroke-linejoin:round;stroke-miterlimit:1.41421;">
    <g transform="matrix(1.33333,0,0,1.33333,-2070.49,-11778)">
        <g transform="matrix(4.16667,0,0,4.16667,0,0)">
            <path d="M378.688,2124.04C378.688,2125.69 377.345,2127.04 375.688,2127.04C374.031,2127.04 372.688,2125.69 372.688,2124.04C372.688,2122.38 374.031,2121.04 375.688,2121.04C377.345,2121.04 378.688,2122.38 378.688,2124.04Z" style="fill:rgb(182,183,183);fill-rule:nonzero;"/>
        </g>
        <g transform="matrix(4.16667,0,0,4.16667,0,0)">
            <path d="M391.805,2124.04C391.805,2126.25 390.014,2128.04 387.805,2128.04C385.596,2128.04 383.805,2126.25 383.805,2124.04C383.805,2121.83 385.596,2120.04 387.805,2120.04C390.014,2120.04 391.805,2121.83 391.805,2124.04Z" style="fill:rgb(110,110,111);fill-rule:nonzero;"/>
        </g>
        <g transform="matrix(4.16667,0,0,4.16667,0,0)">
            <path d="M402.922,2124.04C402.922,2125.69 401.58,2127.04 399.922,2127.04C398.265,2127.04 396.922,2125.69 396.922,2124.04C396.922,2122.38 398.265,2121.04 399.922,2121.04C401.58,2121.04 402.922,2122.38 402.922,2124.04Z" style="fill:rgb(215,215,215);fill-rule:nonzero;"/>
        </g>
        <g transform="matrix(4.16667,0,0,4.16667,0,0)">
            <path d="M415.04,2124.04C415.04,2125.69 413.697,2127.04 412.04,2127.04C410.382,2127.04 409.04,2125.69 409.04,2124.04C409.04,2122.38 410.382,2121.04 412.04,2121.04C413.697,2121.04 415.04,2122.38 415.04,2124.04Z" style="fill:rgb(182,183,183);fill-rule:nonzero;"/>
        </g>
        <g transform="matrix(4.16667,0,0,4.16667,0,0)">
            <path d="M427.157,2124.04C427.157,2125.69 425.814,2127.04 424.157,2127.04C422.5,2127.04 421.157,2125.69 421.157,2124.04C421.157,2122.38 422.5,2121.04 424.157,2121.04C425.814,2121.04 427.157,2122.38 427.157,2124.04Z" style="fill:rgb(182,183,183);fill-rule:nonzero;"/>
        </g>
    </g>
</svg>
