<?xml version="1.0" standalone="no"?>
<!DOCTYPE svg PUBLIC "-//W3C//DTD SVG 1.1//EN" "http://www.w3.org/Graphics/SVG/1.1/DTD/svg11.dtd">
<svg width="100%" height="100%" viewBox="0 0 410 56" version="1.1" xmlns="http://www.w3.org/2000/svg" xmlns:xlink="http://www.w3.org/1999/xlink" xml:space="preserve" style="fill-rule:evenodd;clip-rule:evenodd;stroke-linejoin:round;stroke-miterlimit:1.41421;">
    <g transform="matrix(1.33333,0,0,1.33333,-2553.18,-11772.4)">
        <g transform="matrix(4.16667,0,0,4.16667,0,0)">
            <path d="M464.572,2128.54C462.09,2128.54 460.072,2126.52 460.072,2124.04C460.072,2121.56 462.09,2119.54 464.572,2119.54C467.053,2119.54 469.072,2121.56 469.072,2124.04C469.072,2126.52 467.053,2128.54 464.572,2128.54Z" style="fill:url(#_Linear1);"/>
        </g>
        <g transform="matrix(4.16667,0,0,4.16667,0,0)">
            <path d="M464.572,2119.04C461.81,2119.04 459.572,2121.28 459.572,2124.04C459.572,2126.8 461.81,2129.04 464.572,2129.04C467.333,2129.04 469.572,2126.8 469.572,2124.04C469.572,2121.28 467.333,2119.04 464.572,2119.04ZM464.572,2120.04C466.778,2120.04 468.572,2121.83 468.572,2124.04C468.572,2126.24 466.778,2128.04 464.572,2128.04C462.366,2128.04 460.572,2126.24 460.572,2124.04C460.572,2121.83 462.366,2120.04 464.572,2120.04Z" style="fill:rgb(217,217,217);fill-rule:nonzero;"/>
        </g>
        <g transform="matrix(4.16667,0,0,4.16667,0,0)">
            <path d="M480.509,2128.54C478.028,2128.54 476.009,2126.52 476.009,2124.04C476.009,2121.56 478.028,2119.54 480.509,2119.54C482.991,2119.54 485.009,2121.56 485.009,2124.04C485.009,2126.52 482.991,2128.54 480.509,2128.54Z" style="fill:url(#_Linear2);"/>
        </g>
        <g transform="matrix(4.16667,0,0,4.16667,0,0)">
            <path d="M480.509,2119.04C477.748,2119.04 475.509,2121.28 475.509,2124.04C475.509,2126.8 477.748,2129.04 480.509,2129.04C483.271,2129.04 485.509,2126.8 485.509,2124.04C485.509,2121.28 483.271,2119.04 480.509,2119.04ZM480.509,2120.04C482.715,2120.04 484.509,2121.83 484.509,2124.04C484.509,2126.24 482.715,2128.04 480.509,2128.04C478.303,2128.04 476.509,2126.24 476.509,2124.04C476.509,2121.83 478.303,2120.04 480.509,2120.04Z" style="fill:rgb(183,183,184);fill-rule:nonzero;"/>
        </g>
        <g transform="matrix(4.16667,0,0,4.16667,0,0)">
            <path d="M496.447,2128.54C493.965,2128.54 491.947,2126.52 491.947,2124.04C491.947,2121.56 493.965,2119.54 496.447,2119.54C498.928,2119.54 500.947,2121.56 500.947,2124.04C500.947,2126.52 498.928,2128.54 496.447,2128.54Z" style="fill:url(#_Linear3);"/>
        </g>
        <g transform="matrix(4.16667,0,0,4.16667,0,0)">
            <path d="M496.447,2119.04C493.685,2119.04 491.447,2121.28 491.447,2124.04C491.447,2126.8 493.685,2129.04 496.447,2129.04C499.208,2129.04 501.447,2126.8 501.447,2124.04C501.447,2121.28 499.208,2119.04 496.447,2119.04ZM496.447,2120.04C498.653,2120.04 500.447,2121.83 500.447,2124.04C500.447,2126.24 498.653,2128.04 496.447,2128.04C494.241,2128.04 492.447,2126.24 492.447,2124.04C492.447,2121.83 494.241,2120.04 496.447,2120.04Z" style="fill:rgb(217,217,217);fill-rule:nonzero;"/>
        </g>
        <g transform="matrix(4.16667,0,0,4.16667,0,0)">
            <path d="M512.383,2128.54C509.903,2128.54 507.884,2126.52 507.884,2124.04C507.884,2121.56 509.903,2119.54 512.383,2119.54C514.866,2119.54 516.883,2121.56 516.883,2124.04C516.883,2126.52 514.866,2128.54 512.383,2128.54Z" style="fill:url(#_Linear4);"/>
        </g>
        <g transform="matrix(4.16667,0,0,4.16667,0,0)">
            <path d="M512.383,2119.04C509.623,2119.04 507.384,2121.28 507.384,2124.04C507.384,2126.8 509.623,2129.04 512.383,2129.04C515.146,2129.04 517.383,2126.8 517.383,2124.04C517.383,2121.28 515.146,2119.04 512.383,2119.04ZM512.383,2120.04C514.59,2120.04 516.383,2121.83 516.383,2124.04C516.383,2126.24 514.59,2128.04 512.383,2128.04C510.178,2128.04 508.384,2126.24 508.384,2124.04C508.384,2121.83 510.178,2120.04 512.383,2120.04Z" style="fill:rgb(217,217,217);fill-rule:nonzero;"/>
        </g>
        <g transform="matrix(4.16667,0,0,4.16667,0,0)">
            <path d="M528.322,2128.54C525.84,2128.54 523.822,2126.52 523.822,2124.04C523.822,2121.56 525.84,2119.54 528.322,2119.54C530.803,2119.54 532.822,2121.56 532.822,2124.04C532.822,2126.52 530.803,2128.54 528.322,2128.54Z" style="fill:url(#_Linear5);"/>
        </g>
        <g transform="matrix(4.16667,0,0,4.16667,0,0)">
            <path d="M528.322,2119.04C525.56,2119.04 523.322,2121.28 523.322,2124.04C523.322,2126.8 525.56,2129.04 528.322,2129.04C531.083,2129.04 533.322,2126.8 533.322,2124.04C533.322,2121.28 531.083,2119.04 528.322,2119.04ZM528.322,2120.04C530.528,2120.04 532.322,2121.83 532.322,2124.04C532.322,2126.24 530.528,2128.04 528.322,2128.04C526.116,2128.04 524.322,2126.24 524.322,2124.04C524.322,2121.83 526.116,2120.04 528.322,2120.04Z" style="fill:rgb(217,217,217);fill-rule:nonzero;"/>
        </g>
    </g>
    <defs>
        <linearGradient id="_Linear1" x1="0" y1="0" x2="1" y2="0" gradientUnits="userSpaceOnUse" gradientTransform="matrix(-3.8634e-07,-8.83842,8.83842,-3.8634e-07,464.572,2128.4)"><stop offset="0%" style="stop-color:rgb(246,248,249);stop-opacity:1"/><stop offset="100%" style="stop-color:rgb(243,243,244);stop-opacity:1"/></linearGradient>
        <linearGradient id="_Linear2" x1="0" y1="0" x2="1" y2="0" gradientUnits="userSpaceOnUse" gradientTransform="matrix(-4.99835e-07,-11.4349,11.4349,-4.99835e-07,480.509,2126.89)"><stop offset="0%" style="stop-color:rgb(183,183,184);stop-opacity:1"/><stop offset="100%" style="stop-color:rgb(243,243,244);stop-opacity:1"/></linearGradient>
        <linearGradient id="_Linear3" x1="0" y1="0" x2="1" y2="0" gradientUnits="userSpaceOnUse" gradientTransform="matrix(-3.8634e-07,-8.83842,8.83842,-3.8634e-07,496.447,2128.4)"><stop offset="0%" style="stop-color:rgb(246,248,249);stop-opacity:1"/><stop offset="100%" style="stop-color:rgb(243,243,244);stop-opacity:1"/></linearGradient>
        <linearGradient id="_Linear4" x1="0" y1="0" x2="1" y2="0" gradientUnits="userSpaceOnUse" gradientTransform="matrix(-3.8634e-07,-8.83842,8.83842,-3.8634e-07,512.384,2128.4)"><stop offset="0%" style="stop-color:rgb(246,248,249);stop-opacity:1"/><stop offset="100%" style="stop-color:rgb(243,243,244);stop-opacity:1"/></linearGradient>
        <linearGradient id="_Linear5" x1="0" y1="0" x2="1" y2="0" gradientUnits="userSpaceOnUse" gradientTransform="matrix(-3.8634e-07,-8.83842,8.83842,-3.8634e-07,528.322,2128.4)"><stop offset="0%" style="stop-color:rgb(246,248,249);stop-opacity:1"/><stop offset="100%" style="stop-color:rgb(243,243,244);stop-opacity:1"/></linearGradient>
    </defs>
</svg>
