<?xml version="1.0" standalone="no"?>
<!DOCTYPE svg PUBLIC "-//W3C//DTD SVG 1.1//EN" "http://www.w3.org/Graphics/SVG/1.1/DTD/svg11.dtd">
<svg width="100%" height="100%" viewBox="0 0 1367 162" version="1.1" xmlns="http://www.w3.org/2000/svg" xmlns:xlink="http://www.w3.org/1999/xlink" xml:space="preserve" style="fill-rule:evenodd;clip-rule:evenodd;stroke-linejoin:round;stroke-miterlimit:1.41421;">
    <g transform="matrix(1.33333,0,0,1.33333,-2726.49,-6514.83)">
        <g transform="matrix(4.16667,0,0,4.16667,0,0)">
            <path d="M736.268,1199.17C736.268,1200.28 735.373,1201.17 734.268,1201.17L493.268,1201.17C492.164,1201.17 491.268,1200.28 491.268,1199.17L491.268,1175.17C491.268,1174.07 492.164,1173.17 493.268,1173.17L734.268,1173.17C735.373,1173.17 736.268,1174.07 736.268,1175.17L736.268,1199.17Z" style="fill:url(#_Linear1);"/>
        </g>
        <g transform="matrix(4.16667,0,0,4.16667,0,0)">
            <path d="M736.268,1199.17L735.768,1199.17C735.767,1200 735.096,1200.67 734.268,1200.67L493.268,1200.67C492.44,1200.67 491.77,1200 491.768,1199.17L491.768,1175.17C491.77,1174.35 492.44,1173.68 493.268,1173.67L734.268,1173.67C735.096,1173.68 735.767,1174.35 735.768,1175.17L735.768,1199.17L736.768,1199.17L736.768,1175.17C736.768,1173.79 735.649,1172.67 734.268,1172.67L493.268,1172.67C491.887,1172.67 490.768,1173.79 490.768,1175.17L490.768,1199.17C490.768,1200.55 491.887,1201.67 493.268,1201.67L734.268,1201.67C735.649,1201.67 736.768,1200.55 736.768,1199.17L736.268,1199.17Z" style="fill:rgb(217,217,217);fill-rule:nonzero;"/>
        </g>
        <g transform="matrix(4.16667,0,0,4.16667,0,0)">
            <path d="M720.559,1185.17L724.047,1189.18L727.564,1185.17L720.559,1185.17Z" style="fill:rgb(110,110,111);fill-rule:nonzero;"/>
        </g>
        <g transform="matrix(4.16667,0,0,4.16667,0,0)">
            <path d="M508.4,1190.99C508.928,1190.99 509.384,1190.94 509.78,1190.85C510.188,1190.75 510.524,1190.61 510.812,1190.41C511.1,1190.22 511.352,1189.96 511.592,1189.63C511.832,1189.3 512.024,1188.89 512.18,1188.39C512.336,1187.88 512.408,1187.29 512.408,1186.65C512.408,1185.88 512.3,1185.21 512.072,1184.61C511.844,1184.01 511.508,1183.51 511.052,1183.14C510.704,1182.84 510.284,1182.64 509.792,1182.52C509.444,1182.43 508.928,1182.4 508.268,1182.4L505.304,1182.4L505.304,1190.99L508.4,1190.99ZM506.444,1183.41L508.244,1183.41C508.916,1183.41 509.408,1183.47 509.72,1183.59C510.14,1183.74 510.5,1184.07 510.788,1184.56C511.088,1185.04 511.232,1185.73 511.232,1186.63C511.232,1187.28 511.16,1187.83 511.004,1188.29C510.86,1188.75 510.644,1189.11 510.38,1189.38C510.188,1189.57 509.924,1189.72 509.612,1189.83C509.288,1189.93 508.844,1189.98 508.28,1189.98L506.444,1189.98L506.444,1183.41Z" style="fill:rgb(110,110,111);fill-rule:nonzero;"/>
        </g>
        <g transform="matrix(4.16667,0,0,4.16667,0,0)">
            <path d="M514.88,1190.99L514.88,1187.74C514.88,1187.29 514.94,1186.89 515.06,1186.5C515.132,1186.26 515.264,1186.07 515.444,1185.93C515.624,1185.79 515.84,1185.72 516.068,1185.72C516.32,1185.72 516.572,1185.79 516.836,1185.94L517.208,1184.97C516.836,1184.74 516.476,1184.63 516.128,1184.63C515.876,1184.63 515.648,1184.7 515.444,1184.85C515.24,1184.98 515.012,1185.28 514.772,1185.71L514.772,1184.76L513.824,1184.76L513.824,1190.99L514.88,1190.99Z" style="fill:rgb(110,110,111);fill-rule:nonzero;"/>
        </g>
        <g transform="matrix(4.16667,0,0,4.16667,0,0)">
            <path d="M518.24,1190.28C518.78,1190.85 519.488,1191.12 520.352,1191.12C520.904,1191.12 521.396,1190.99 521.864,1190.74C522.32,1190.49 522.668,1190.14 522.908,1189.67C523.148,1189.21 523.268,1188.59 523.268,1187.79C523.268,1186.8 522.992,1186.03 522.452,1185.47C521.912,1184.91 521.216,1184.63 520.352,1184.63C519.584,1184.63 518.936,1184.86 518.396,1185.33C517.76,1185.88 517.436,1186.73 517.436,1187.87C517.436,1188.93 517.7,1189.73 518.24,1190.28ZM519.044,1186.09C519.392,1185.7 519.824,1185.51 520.352,1185.51C520.88,1185.51 521.312,1185.7 521.66,1186.09C522.008,1186.49 522.188,1187.08 522.188,1187.85C522.188,1188.66 522.008,1189.26 521.66,1189.66C521.312,1190.05 520.88,1190.26 520.352,1190.26C519.824,1190.26 519.392,1190.07 519.044,1189.67C518.696,1189.27 518.516,1188.67 518.516,1187.88C518.516,1187.09 518.696,1186.49 519.044,1186.09Z" style="fill:rgb(110,110,111);fill-rule:nonzero;"/>
        </g>
        <g transform="matrix(4.16667,0,0,4.16667,0,0)">
            <path d="M525.56,1193.38L525.56,1190.34C525.74,1190.57 525.968,1190.75 526.244,1190.91C526.532,1191.05 526.844,1191.12 527.192,1191.12C527.672,1191.12 528.128,1190.99 528.572,1190.71C529.004,1190.45 529.328,1190.05 529.556,1189.55C529.784,1189.03 529.904,1188.47 529.904,1187.83C529.904,1187.23 529.796,1186.69 529.592,1186.19C529.388,1185.7 529.076,1185.31 528.68,1185.04C528.272,1184.76 527.804,1184.63 527.264,1184.63C526.868,1184.63 526.52,1184.71 526.232,1184.87C525.944,1185.03 525.692,1185.27 525.464,1185.58L525.464,1184.76L524.504,1184.76L524.504,1193.38L525.56,1193.38ZM525.98,1186.08C526.328,1185.66 526.724,1185.46 527.168,1185.46C527.624,1185.46 528.008,1185.65 528.332,1186.05C528.656,1186.44 528.824,1187.03 528.824,1187.82C528.824,1188.66 528.656,1189.27 528.32,1189.67C527.996,1190.07 527.588,1190.26 527.12,1190.26C526.664,1190.26 526.268,1190.07 525.944,1189.68C525.62,1189.3 525.464,1188.71 525.464,1187.92C525.464,1187.11 525.632,1186.5 525.98,1186.08Z" style="fill:rgb(110,110,111);fill-rule:nonzero;"/>
        </g>
        <g transform="matrix(4.16667,0,0,4.16667,0,0)">
            <path d="M536.18,1190.99L536.18,1182.4L535.124,1182.4L535.124,1185.49C534.944,1185.23 534.704,1185.03 534.404,1184.87C534.116,1184.71 533.78,1184.63 533.408,1184.63C532.892,1184.63 532.436,1184.76 532.016,1185.04C531.608,1185.3 531.296,1185.69 531.092,1186.19C530.888,1186.69 530.78,1187.26 530.78,1187.88C530.78,1188.52 530.9,1189.08 531.128,1189.57C531.356,1190.05 531.668,1190.44 532.088,1190.71C532.508,1190.99 532.964,1191.12 533.456,1191.12C534.224,1191.12 534.8,1190.81 535.196,1190.2L535.196,1190.99L536.18,1190.99ZM532.328,1186.08C532.652,1185.7 533.036,1185.51 533.516,1185.51C533.996,1185.51 534.392,1185.71 534.728,1186.11C535.052,1186.5 535.22,1187.13 535.22,1187.98C535.22,1188.75 535.064,1189.32 534.74,1189.69C534.416,1190.07 534.02,1190.26 533.552,1190.26C533.096,1190.26 532.7,1190.07 532.364,1189.67C532.028,1189.27 531.86,1188.67 531.86,1187.88C531.86,1187.07 532.016,1186.47 532.328,1186.08Z" style="fill:rgb(110,110,111);fill-rule:nonzero;"/>
        </g>
        <g transform="matrix(4.16667,0,0,4.16667,0,0)">
            <path d="M538.256,1190.28C538.796,1190.85 539.504,1191.12 540.368,1191.12C540.92,1191.12 541.412,1190.99 541.88,1190.74C542.336,1190.49 542.684,1190.14 542.924,1189.67C543.164,1189.21 543.284,1188.59 543.284,1187.79C543.284,1186.8 543.008,1186.03 542.468,1185.47C541.928,1184.91 541.232,1184.63 540.368,1184.63C539.6,1184.63 538.952,1184.86 538.412,1185.33C537.776,1185.88 537.452,1186.73 537.452,1187.87C537.452,1188.93 537.716,1189.73 538.256,1190.28ZM539.06,1186.09C539.408,1185.7 539.84,1185.51 540.368,1185.51C540.896,1185.51 541.328,1185.7 541.676,1186.09C542.024,1186.49 542.204,1187.08 542.204,1187.85C542.204,1188.66 542.024,1189.26 541.676,1189.66C541.328,1190.05 540.896,1190.26 540.368,1190.26C539.84,1190.26 539.408,1190.07 539.06,1189.67C538.712,1189.27 538.532,1188.67 538.532,1187.88C538.532,1187.09 538.712,1186.49 539.06,1186.09Z" style="fill:rgb(110,110,111);fill-rule:nonzero;"/>
        </g>
        <g transform="matrix(4.16667,0,0,4.16667,0,0)">
            <path d="M546.764,1190.99L548.024,1186.2L548.264,1187.26L549.26,1190.99L550.352,1190.99L552.308,1184.76L551.276,1184.76L550.196,1188.36L549.848,1189.56L549.536,1188.37L548.6,1184.76L547.52,1184.76L546.536,1188.41C546.332,1189.2 546.224,1189.62 546.212,1189.69L545.852,1188.35L544.856,1184.76L543.764,1184.76L545.636,1190.99L546.764,1190.99Z" style="fill:rgb(110,110,111);fill-rule:nonzero;"/>
        </g>
        <g transform="matrix(4.16667,0,0,4.16667,0,0)">
            <path d="M554.24,1190.99L554.24,1187.59C554.24,1186.79 554.408,1186.25 554.732,1185.97C555.056,1185.69 555.44,1185.54 555.884,1185.54C556.172,1185.54 556.412,1185.6 556.616,1185.73C556.832,1185.85 556.976,1186.03 557.06,1186.24C557.144,1186.45 557.18,1186.78 557.18,1187.21L557.18,1190.99L558.236,1190.99L558.236,1187.16C558.236,1186.68 558.212,1186.33 558.176,1186.14C558.116,1185.84 558.008,1185.58 557.852,1185.36C557.696,1185.15 557.456,1184.97 557.144,1184.83C556.832,1184.7 556.484,1184.63 556.112,1184.63C555.248,1184.63 554.588,1184.97 554.132,1185.65L554.132,1184.76L553.184,1184.76L553.184,1190.99L554.24,1190.99Z" style="fill:rgb(110,110,111);fill-rule:nonzero;"/>
        </g>
    </g>
    <defs>
        <linearGradient id="_Linear1" x1="0" y1="0" x2="1" y2="0" gradientUnits="userSpaceOnUse" gradientTransform="matrix(-1.25517e-06,28.7148,-28.7148,-1.25517e-06,613.768,1173.51)"><stop offset="0%" style="stop-color:rgb(246,248,249);stop-opacity:1"/><stop offset="100%" style="stop-color:rgb(243,243,244);stop-opacity:1"/></linearGradient>
    </defs>
</svg>
