<?xml version="1.0" standalone="no"?>
<!DOCTYPE svg PUBLIC "-//W3C//DTD SVG 1.1//EN" "http://www.w3.org/Graphics/SVG/1.1/DTD/svg11.dtd">
<svg width="100%" height="100%" viewBox="0 0 628 550" version="1.1" xmlns="http://www.w3.org/2000/svg" xmlns:xlink="http://www.w3.org/1999/xlink" xml:space="preserve" style="fill-rule:evenodd;clip-rule:evenodd;stroke-linejoin:round;stroke-miterlimit:1.41421;">
    <g transform="matrix(1.33333,0,0,1.33333,-3430.12,-10022.4)">
        <g transform="matrix(4.16667,0,0,4.16667,0,0)">
            <rect x="617.922" y="1804.54" width="112" height="98" style="fill:white;fill-rule:nonzero;"/>
        </g>
        <g transform="matrix(4.16667,0,0,4.16667,0,0)">
            <path d="M729.922,1902.54L729.922,1902.04L618.422,1902.04L618.422,1805.04L729.422,1805.04L729.422,1902.54L729.922,1902.54L729.922,1902.04L729.922,1902.54L730.422,1902.54L730.422,1804.04L617.422,1804.04L617.422,1903.04L730.422,1903.04L730.422,1902.54L729.922,1902.54Z" style="fill:rgb(203,203,203);fill-rule:nonzero;"/>
        </g>
        <g transform="matrix(4.16667,0,0,4.16667,0,0)">
            <path d="M704.082,1819.09C712.593,1819.09 719.493,1825.99 719.493,1834.5C719.493,1843.01 712.593,1849.91 704.082,1849.91C695.571,1849.91 688.671,1843.01 688.671,1834.5C688.671,1825.99 695.571,1819.09 704.082,1819.09ZM645.297,1846.74C661.137,1846.74 663.609,1880.69 670.011,1880.69C676.415,1880.69 679.242,1860.4 688.294,1860.4C700.74,1860.4 706.964,1897.09 727.896,1897.09L727.979,1897.09L727.979,1806.27L619.733,1806.27L619.733,1890.44C623.468,1876.77 633.061,1846.74 645.297,1846.74Z" style="fill:url(#_Linear1);"/>
        </g>
        <g transform="matrix(4.16667,0,0,4.16667,0,0)">
            <path d="M727.979,1900.52L727.979,1897.09L727.896,1897.09C706.964,1897.09 700.74,1860.4 688.294,1860.4C679.242,1860.4 676.415,1880.69 670.011,1880.69C663.609,1880.69 661.137,1846.74 645.297,1846.74C633.061,1846.74 623.468,1876.77 619.733,1890.44L619.733,1900.52L727.979,1900.52Z" style="fill:rgb(209,209,210);fill-rule:nonzero;"/>
        </g>
        <g transform="matrix(4.16667,0,0,4.16667,0,0)">
            <path d="M704.082,1849.91C712.593,1849.91 719.493,1843.01 719.493,1834.5C719.493,1825.99 712.593,1819.09 704.082,1819.09C695.571,1819.09 688.671,1825.99 688.671,1834.5C688.671,1843.01 695.571,1849.91 704.082,1849.91Z" style="fill:rgb(209,209,210);fill-rule:nonzero;"/>
        </g>
    </g>
    <defs>
        <linearGradient id="_Linear1" x1="0" y1="0" x2="1" y2="0" gradientUnits="userSpaceOnUse" gradientTransform="matrix(-2.57189e-06,-58.8379,58.8379,-2.57189e-06,673.856,1875.03)"><stop offset="0%" style="stop-color:rgb(246,248,249);stop-opacity:1"/><stop offset="100%" style="stop-color:rgb(243,243,244);stop-opacity:1"/></linearGradient>
    </defs>
</svg>
