<?xml version="1.0" standalone="no"?>
<!DOCTYPE svg PUBLIC "-//W3C//DTD SVG 1.1//EN" "http://www.w3.org/Graphics/SVG/1.1/DTD/svg11.dtd">
<svg width="100%" height="100%" viewBox="0 0 184 184" version="1.1" xmlns="http://www.w3.org/2000/svg" xmlns:xlink="http://www.w3.org/1999/xlink" xml:space="preserve" style="fill-rule:evenodd;clip-rule:evenodd;stroke-linejoin:round;stroke-miterlimit:1.41421;">
    <g transform="matrix(1.33333,0,0,1.33333,-2052.93,-11470.3)">
        <g transform="matrix(4.16667,0,0,4.16667,0,0)">
            <path d="M402.029,2095.16C402.029,2096.26 401.132,2097.16 400.029,2097.16L372.028,2097.16C370.924,2097.16 370.028,2096.26 370.028,2095.16L370.028,2067.16C370.028,2066.05 370.924,2065.16 372.028,2065.16L400.029,2065.16C401.132,2065.16 402.029,2066.05 402.029,2067.16L402.029,2095.16Z" style="fill:url(#_Linear1);"/>
        </g>
        <g transform="matrix(4.16667,0,0,4.16667,0,0)">
            <path d="M402.029,2095.16L401.529,2095.16C401.527,2095.99 400.856,2096.66 400.029,2096.66L372.028,2096.66C371.2,2096.66 370.53,2095.99 370.528,2095.16L370.528,2067.16C370.53,2066.33 371.201,2065.66 372.028,2065.66L400.029,2065.66C400.855,2065.66 401.527,2066.33 401.529,2067.16L401.529,2095.16L402.529,2095.16L402.529,2067.16C402.528,2065.78 401.409,2064.66 400.029,2064.66L372.028,2064.66C370.647,2064.66 369.529,2065.78 369.528,2067.16L369.528,2095.16C369.529,2096.54 370.648,2097.66 372.028,2097.66L400.029,2097.66C401.408,2097.66 402.528,2096.54 402.529,2095.16L402.029,2095.16Z" style="fill:rgb(217,217,217);fill-rule:nonzero;"/>
        </g>
        <g transform="matrix(4.16667,0,0,4.16667,0,0)">
            <path d="M387.911,2087.4L381.817,2081.07L387.923,2074.92L389.343,2076.33L384.614,2081.09L389.353,2086.01L387.911,2087.4Z" style="fill:rgb(79,80,80);fill-rule:nonzero;"/>
        </g>
    </g>
    <defs>
        <linearGradient id="_Linear1" x1="0" y1="0" x2="1" y2="0" gradientUnits="userSpaceOnUse" gradientTransform="matrix(-1.37815e-06,31.5284,-31.5284,-1.37815e-06,386.028,2065.48)"><stop offset="0%" style="stop-color:rgb(246,248,249);stop-opacity:1"/><stop offset="100%" style="stop-color:rgb(243,243,244);stop-opacity:1"/></linearGradient>
    </defs>
</svg>
