<?xml version="1.0" standalone="no"?>
<!DOCTYPE svg PUBLIC "-//W3C//DTD SVG 1.1//EN" "http://www.w3.org/Graphics/SVG/1.1/DTD/svg11.dtd">
<svg width="100%" height="100%" viewBox="0 0 225 184" version="1.1" xmlns="http://www.w3.org/2000/svg" xmlns:xlink="http://www.w3.org/1999/xlink" xml:space="preserve" style="fill-rule:evenodd;clip-rule:evenodd;stroke-linejoin:round;stroke-miterlimit:1.41421;">
    <g transform="matrix(1.33333,0,0,1.33333,-3061.71,-11470.3)">
        <g transform="matrix(4.16667,0,0,4.16667,0,0)">
            <path d="M591.028,2095.16C591.028,2096.26 590.131,2097.16 589.028,2097.16L566.833,2097.16C565.729,2097.16 563.75,2096.21 563.028,2095.16L551.75,2081.04L563.028,2067.16C564.154,2066.03 564.896,2065.16 566,2065.16L589.028,2065.16C590.131,2065.16 591.028,2066.05 591.028,2067.16L591.028,2095.16Z" style="fill:url(#_Linear1);"/>
        </g>
        <g transform="matrix(4.16667,0,0,4.16667,0,0)">
            <path d="M591.028,2095.16L590.528,2095.16C590.526,2095.99 589.855,2096.66 589.028,2096.66L566.833,2096.66C566.417,2096.66 565.682,2096.45 565.014,2096.11C564.341,2095.77 563.718,2095.29 563.44,2094.87L563.43,2094.86L552.393,2081.05L563.416,2067.47L563.028,2067.16L563.381,2067.51C563.95,2066.94 564.412,2066.45 564.828,2066.13C565.25,2065.81 565.587,2065.66 566,2065.66L589.028,2065.66C589.854,2065.66 590.526,2066.33 590.528,2067.16L590.528,2095.16L591.528,2095.16L591.528,2067.16C591.527,2065.78 590.408,2064.66 589.028,2064.66L566,2064.66C565.31,2064.65 564.723,2064.94 564.216,2065.34C563.704,2065.74 563.231,2066.25 562.674,2066.8L562.656,2066.82L551.108,2081.04L562.637,2095.47L563.028,2095.16L562.615,2095.44C563.06,2096.08 563.787,2096.6 564.56,2097C565.339,2097.39 566.145,2097.65 566.833,2097.66L589.028,2097.66C590.407,2097.66 591.527,2096.54 591.528,2095.16L591.028,2095.16Z" style="fill:rgb(217,217,217);fill-rule:nonzero;"/>
        </g>
        <g transform="matrix(4.16667,0,0,4.16667,0,0)">
            <path d="M576.911,2087.4L570.817,2081.07L576.922,2074.92L578.342,2076.33L573.614,2081.09L578.352,2086.01L576.911,2087.4Z" style="fill:rgb(79,80,80);fill-rule:nonzero;"/>
        </g>
    </g>
    <defs>
        <linearGradient id="_Linear1" x1="0" y1="0" x2="1" y2="0" gradientUnits="userSpaceOnUse" gradientTransform="matrix(-1.37815e-06,31.5284,-31.5284,-1.37815e-06,571.389,2065.48)"><stop offset="0%" style="stop-color:rgb(246,248,249);stop-opacity:1"/><stop offset="100%" style="stop-color:rgb(243,243,244);stop-opacity:1"/></linearGradient>
    </defs>
</svg>
