<?xml version="1.0" standalone="no"?>
<!DOCTYPE svg PUBLIC "-//W3C//DTD SVG 1.1//EN" "http://www.w3.org/Graphics/SVG/1.1/DTD/svg11.dtd">
<svg width="100%" height="100%" viewBox="0 0 184 184" version="1.1" xmlns="http://www.w3.org/2000/svg" xmlns:xlink="http://www.w3.org/1999/xlink" xml:space="preserve" style="fill-rule:evenodd;clip-rule:evenodd;stroke-linejoin:round;stroke-miterlimit:1.41421;">
    <g transform="matrix(1.33333,0,0,1.33333,-2583.38,-11470.3)">
        <g transform="matrix(4.16667,0,0,4.16667,0,0)">
            <path d="M497.509,2081.16C497.509,2089.99 490.346,2097.16 481.509,2097.16C472.672,2097.16 465.509,2089.99 465.509,2081.16C465.509,2072.32 472.672,2065.16 481.509,2065.16C490.346,2065.16 497.509,2072.32 497.509,2081.16Z" style="fill:url(#_Linear1);"/>
        </g>
        <g transform="matrix(4.16667,0,0,4.16667,0,0)">
            <path d="M497.509,2081.16L497.009,2081.16C497.009,2085.44 495.275,2089.31 492.47,2092.12C489.663,2094.92 485.791,2096.66 481.509,2096.66C477.227,2096.66 473.355,2094.92 470.549,2092.12C467.743,2089.31 466.01,2085.44 466.009,2081.16C466.01,2076.87 467.743,2073 470.549,2070.2C473.355,2067.39 477.227,2065.66 481.509,2065.66C485.791,2065.66 489.663,2067.39 492.47,2070.2C495.275,2073 497.009,2076.87 497.009,2081.16L498.009,2081.16C498.009,2072.04 490.622,2064.66 481.509,2064.66C472.396,2064.66 465.01,2072.04 465.009,2081.16C465.01,2090.27 472.396,2097.66 481.509,2097.66C490.622,2097.66 498.009,2090.27 498.009,2081.16L497.509,2081.16Z" style="fill:rgb(217,217,217);fill-rule:nonzero;"/>
        </g>
        <g transform="matrix(4.16667,0,0,4.16667,0,0)">
            <path d="M482.834,2087.4L476.741,2081.07L482.846,2074.92L484.267,2076.33L479.538,2081.09L484.277,2086.01L482.834,2087.4Z" style="fill:rgb(79,80,80);fill-rule:nonzero;"/>
        </g>
    </g>
    <defs>
        <linearGradient id="_Linear1" x1="0" y1="0" x2="1" y2="0" gradientUnits="userSpaceOnUse" gradientTransform="matrix(-1.38421e-06,31.667,-31.667,-1.38421e-06,481.509,2065.49)"><stop offset="0%" style="stop-color:rgb(246,248,249);stop-opacity:1"/><stop offset="100%" style="stop-color:rgb(243,243,244);stop-opacity:1"/></linearGradient>
    </defs>
</svg>
