<?xml version="1.0" standalone="no"?>
<!DOCTYPE svg PUBLIC "-//W3C//DTD SVG 1.1//EN" "http://www.w3.org/Graphics/SVG/1.1/DTD/svg11.dtd">
<svg width="100%" height="100%" viewBox="0 0 2334 256" version="1.1" xmlns="http://www.w3.org/2000/svg" xmlns:xlink="http://www.w3.org/1999/xlink" xml:space="preserve" style="fill-rule:evenodd;clip-rule:evenodd;stroke-linejoin:round;stroke-miterlimit:1.41421;">
    <g transform="matrix(1.33333,0,0,1.33333,-6.76667,-473.782)">
        <g transform="matrix(4.16667,0,0,4.16667,0,0)">
            <path d="M3.218,130.781C2.391,130.781 1.718,130.108 1.718,129.281L1.718,87.281C1.718,86.454 2.391,85.781 3.218,85.781L419.288,85.781C420.115,85.781 420.788,86.454 420.788,87.281L420.788,129.281C420.788,130.108 420.115,130.781 419.288,130.781L3.218,130.781Z" style="fill:url(#_Linear1);"/>
        </g>
        <g transform="matrix(4.16667,0,0,4.16667,0,0)">
            <path d="M419.288,85.281L3.218,85.281C2.113,85.281 1.218,86.176 1.218,87.281L1.218,129.281C1.218,130.385 2.113,131.281 3.218,131.281L419.288,131.281C420.392,131.281 421.288,130.385 421.288,129.281L421.288,87.281C421.288,86.176 420.392,85.281 419.288,85.281ZM419.288,86.281C419.839,86.281 420.288,86.73 420.288,87.281L420.288,129.281C420.288,129.832 419.839,130.281 419.288,130.281L3.218,130.281C2.666,130.281 2.218,129.832 2.218,129.281L2.218,87.281C2.218,86.73 2.666,86.281 3.218,86.281L419.288,86.281Z" style="fill:rgb(217,217,217);fill-rule:nonzero;"/>
        </g>
        <g transform="matrix(4.16667,0,0,4.16667,0,0)">
            <rect x="137.479" y="86.297" width="95.906" height="43.984" style="fill:white;fill-rule:nonzero;"/>
        </g>
        <g transform="matrix(4.16667,0,0,4.16667,0,0)">
            <path d="M44.167,131.281L44.167,85.281L43.167,85.281L43.167,131.281" style="fill:rgb(217,217,217);fill-rule:nonzero;"/>
        </g>
        <g transform="matrix(4.16667,0,0,4.16667,0,0)">
            <path d="M45.136,130.281L45.136,86.297L44.136,86.297L44.136,130.281" style="fill:white;fill-rule:nonzero;"/>
        </g>
        <g transform="matrix(4.16667,0,0,4.16667,0,0)">
            <path d="M137.979,131.281L137.979,85.281L136.979,85.281L136.979,131.281" style="fill:rgb(217,217,217);fill-rule:nonzero;"/>
        </g>
        <g transform="matrix(4.16667,0,0,4.16667,0,0)">
            <path d="M138.948,130.281L138.948,86.297L137.948,86.297L137.948,130.281" style="fill:white;fill-rule:nonzero;"/>
        </g>
        <g transform="matrix(4.16667,0,0,4.16667,0,0)">
            <path d="M234.4,131.281L234.4,85.281L233.4,85.281L233.4,131.281" style="fill:rgb(217,217,217);fill-rule:nonzero;"/>
        </g>
        <g transform="matrix(4.16667,0,0,4.16667,0,0)">
            <path d="M235.369,130.281L235.369,86.297L234.369,86.297L234.369,130.281" style="fill:white;fill-rule:nonzero;"/>
        </g>
        <g transform="matrix(4.16667,0,0,4.16667,0,0)">
            <path d="M326.832,131.281L326.832,85.281L325.832,85.281L325.832,131.281" style="fill:rgb(217,217,217);fill-rule:nonzero;"/>
        </g>
        <g transform="matrix(4.16667,0,0,4.16667,0,0)">
            <path d="M327.8,130.281L327.8,86.297L326.8,86.297L326.8,130.281" style="fill:white;fill-rule:nonzero;"/>
        </g>
        <g transform="matrix(4.16667,0,0,4.16667,0,0)">
            <path d="M30.752,108.172L22.71,100.131L14.669,108.172L14.669,108.173L17.627,108.173L17.627,116.173L21.753,116.173L21.753,111.213L25.003,111.213L25.003,116.173L27.835,116.173L27.835,108.173L30.752,108.173L30.752,108.172Z" style="fill:rgb(159,159,159);fill-rule:nonzero;"/>
        </g>
        <g transform="matrix(4.16667,0,0,4.16667,0,0)">
            <path d="M22.71,116.214L22.752,116.173L22.669,116.173L22.71,116.214Z" style="fill:rgb(159,159,159);fill-rule:nonzero;"/>
        </g>
        <g transform="matrix(4.16667,0,0,4.16667,0,0)">
            <path d="M59.658,113.28L59.658,105.96L62.142,113.28L63.162,113.28L65.67,106.092L65.67,113.28L66.762,113.28L66.762,104.688L65.238,104.688L63.174,110.664C62.958,111.276 62.814,111.732 62.718,112.044C62.622,111.756 62.49,111.336 62.298,110.772L60.27,104.688L58.566,104.688L58.566,113.28L59.658,113.28Z" style="fill:rgb(159,159,159);fill-rule:nonzero;"/>
        </g>
        <g transform="matrix(4.16667,0,0,4.16667,0,0)">
            <path d="M72.054,112.236C71.778,112.44 71.454,112.548 71.07,112.548C70.542,112.548 70.11,112.368 69.762,112.008C69.414,111.636 69.222,111.12 69.186,110.436L73.83,110.436C73.83,110.316 73.83,110.22 73.83,110.16C73.83,109.128 73.566,108.336 73.038,107.772C72.51,107.208 71.838,106.92 71.01,106.92C70.146,106.92 69.45,107.208 68.91,107.784C68.37,108.36 68.106,109.176 68.106,110.22C68.106,111.228 68.37,112.008 68.91,112.572C69.438,113.136 70.158,113.412 71.07,113.412C71.79,113.412 72.378,113.232 72.846,112.884C73.302,112.536 73.626,112.044 73.794,111.408L72.702,111.264C72.546,111.708 72.33,112.032 72.054,112.236ZM69.798,108.276C70.122,107.952 70.53,107.784 71.01,107.784C71.55,107.784 71.982,107.988 72.318,108.396C72.534,108.66 72.666,109.044 72.714,109.572L69.246,109.572C69.282,109.032 69.462,108.6 69.798,108.276Z" style="fill:rgb(159,159,159);fill-rule:nonzero;"/>
        </g>
        <g transform="matrix(4.16667,0,0,4.16667,0,0)">
            <path d="M76.182,113.28L76.182,109.884C76.182,109.08 76.35,108.54 76.674,108.264C76.998,107.976 77.382,107.832 77.826,107.832C78.114,107.832 78.354,107.892 78.558,108.024C78.774,108.144 78.918,108.324 79.002,108.528C79.086,108.744 79.122,109.068 79.122,109.5L79.122,113.28L80.178,113.28L80.178,109.452C80.178,108.972 80.154,108.624 80.118,108.432C80.058,108.132 79.95,107.868 79.794,107.652C79.638,107.436 79.398,107.256 79.086,107.124C78.774,106.992 78.426,106.92 78.054,106.92C77.19,106.92 76.53,107.256 76.074,107.94L76.074,107.052L75.126,107.052L75.126,113.28L76.182,113.28Z" style="fill:rgb(159,159,159);fill-rule:nonzero;"/>
        </g>
        <g transform="matrix(4.16667,0,0,4.16667,0,0)">
            <path d="M86.814,113.28L86.814,107.052L85.758,107.052L85.758,110.376C85.758,110.916 85.698,111.312 85.59,111.6C85.47,111.876 85.278,112.092 85.002,112.26C84.726,112.416 84.426,112.5 84.114,112.5C83.79,112.5 83.526,112.416 83.31,112.26C83.106,112.104 82.962,111.888 82.89,111.612C82.854,111.42 82.83,111.048 82.83,110.496L82.83,107.052L81.774,107.052L81.774,110.904C81.774,111.36 81.798,111.684 81.834,111.888C81.906,112.2 82.014,112.464 82.158,112.668C82.314,112.884 82.554,113.064 82.866,113.196C83.19,113.34 83.526,113.412 83.898,113.412C84.726,113.412 85.386,113.064 85.866,112.356L85.866,113.28L86.814,113.28Z" style="fill:rgb(159,159,159);fill-rule:nonzero;"/>
        </g>
        <g transform="matrix(4.16667,0,0,4.16667,0,0)">
            <path d="M92.862,105.888L92.862,104.688L91.806,104.688L91.806,105.888L92.862,105.888ZM92.862,113.28L92.862,107.052L91.806,107.052L91.806,113.28L92.862,113.28Z" style="fill:rgb(159,159,159);fill-rule:nonzero;"/>
        </g>
        <g transform="matrix(4.16667,0,0,4.16667,0,0)">
            <path d="M96.306,112.38C96.15,112.38 96.03,112.356 95.946,112.308C95.862,112.248 95.802,112.188 95.766,112.092C95.73,112.008 95.706,111.816 95.706,111.516L95.706,107.868L96.762,107.868L96.762,107.052L95.706,107.052L95.706,104.88L94.65,105.516L94.65,107.052L93.87,107.052L93.87,107.868L94.65,107.868L94.65,111.456C94.65,112.092 94.698,112.5 94.782,112.704C94.866,112.896 95.01,113.064 95.226,113.184C95.43,113.304 95.73,113.364 96.114,113.364C96.342,113.364 96.606,113.328 96.906,113.268L96.762,112.344C96.57,112.368 96.414,112.38 96.306,112.38Z" style="fill:rgb(159,159,159);fill-rule:nonzero;"/>
        </g>
        <g transform="matrix(4.16667,0,0,4.16667,0,0)">
            <path d="M101.406,112.236C101.13,112.44 100.806,112.548 100.422,112.548C99.894,112.548 99.462,112.368 99.114,112.008C98.766,111.636 98.574,111.12 98.538,110.436L103.182,110.436C103.182,110.316 103.182,110.22 103.182,110.16C103.182,109.128 102.918,108.336 102.39,107.772C101.862,107.208 101.19,106.92 100.362,106.92C99.498,106.92 98.802,107.208 98.262,107.784C97.722,108.36 97.458,109.176 97.458,110.22C97.458,111.228 97.722,112.008 98.262,112.572C98.79,113.136 99.51,113.412 100.422,113.412C101.142,113.412 101.73,113.232 102.198,112.884C102.654,112.536 102.978,112.044 103.146,111.408L102.054,111.264C101.898,111.708 101.682,112.032 101.406,112.236ZM99.15,108.276C99.474,107.952 99.882,107.784 100.362,107.784C100.902,107.784 101.334,107.988 101.67,108.396C101.886,108.66 102.018,109.044 102.066,109.572L98.598,109.572C98.634,109.032 98.814,108.6 99.15,108.276Z" style="fill:rgb(159,159,159);fill-rule:nonzero;"/>
        </g>
        <g transform="matrix(4.16667,0,0,4.16667,0,0)">
            <path d="M105.534,113.28L105.534,110.052C105.534,109.488 105.594,109.056 105.702,108.756C105.822,108.456 106.002,108.228 106.254,108.072C106.506,107.916 106.782,107.832 107.07,107.832C107.466,107.832 107.742,107.952 107.91,108.18C108.09,108.42 108.174,108.768 108.174,109.236L108.174,113.28L109.23,113.28L109.23,109.668C109.23,109.02 109.374,108.564 109.662,108.264C109.95,107.976 110.322,107.832 110.754,107.832C111.006,107.832 111.21,107.892 111.39,108C111.57,108.12 111.702,108.264 111.762,108.444C111.834,108.636 111.87,108.936 111.87,109.356L111.87,113.28L112.926,113.28L112.926,109.008C112.926,108.3 112.758,107.772 112.422,107.436C112.086,107.088 111.618,106.92 110.994,106.92C110.202,106.92 109.554,107.28 109.062,108.012C108.942,107.664 108.738,107.4 108.438,107.208C108.15,107.016 107.766,106.92 107.31,106.92C106.89,106.92 106.53,107.016 106.206,107.196C105.882,107.388 105.618,107.628 105.426,107.928L105.426,107.052L104.478,107.052L104.478,113.28L105.534,113.28Z" style="fill:rgb(159,159,159);fill-rule:nonzero;"/>
        </g>
        <g transform="matrix(4.16667,0,0,4.16667,0,0)">
            <path d="M121.482,104.652L120.798,104.652C120.618,105.024 120.306,105.408 119.862,105.804C119.418,106.2 118.902,106.536 118.314,106.812L118.314,107.832C118.638,107.712 119.01,107.52 119.43,107.28C119.838,107.04 120.174,106.8 120.426,106.56L120.426,113.28L121.482,113.28L121.482,104.652Z" style="fill:rgb(159,159,159);fill-rule:nonzero;"/>
        </g>
        <g transform="matrix(4.16667,0,0,4.16667,0,0)">
            <path d="M154.793,113.28L154.805,106.512L156.485,113.28L158.153,113.28L159.857,106.512L159.857,113.28L161.465,113.28L161.465,104.688L158.849,104.688L157.337,110.544L155.789,104.688L153.185,104.688L153.185,113.28L154.793,113.28Z" style="fill:rgb(110,110,111);fill-rule:nonzero;"/>
        </g>
        <g transform="matrix(4.16667,0,0,4.16667,0,0)">
            <path d="M166.397,111.984C166.217,112.128 166.001,112.2 165.749,112.2C165.365,112.2 165.053,112.068 164.801,111.792C164.549,111.516 164.417,111.144 164.405,110.652L168.521,110.652C168.545,109.392 168.293,108.456 167.753,107.844C167.225,107.232 166.493,106.92 165.569,106.92C164.741,106.92 164.057,107.208 163.517,107.796C162.977,108.384 162.713,109.188 162.713,110.22C162.713,111.084 162.917,111.804 163.325,112.368C163.853,113.076 164.645,113.436 165.725,113.436C166.409,113.436 166.985,113.28 167.441,112.968C167.897,112.644 168.221,112.188 168.437,111.588L166.793,111.312C166.709,111.624 166.577,111.852 166.397,111.984ZM164.429,109.644C164.429,109.188 164.549,108.84 164.777,108.576C165.017,108.312 165.305,108.18 165.665,108.18C166.001,108.18 166.289,108.3 166.517,108.552C166.757,108.804 166.877,109.164 166.889,109.644L164.429,109.644Z" style="fill:rgb(110,110,111);fill-rule:nonzero;"/>
        </g>
        <g transform="matrix(4.16667,0,0,4.16667,0,0)">
            <path d="M175.529,109.416C175.529,108.936 175.493,108.564 175.433,108.312C175.373,108.048 175.265,107.82 175.109,107.616C174.953,107.412 174.725,107.244 174.425,107.112C174.125,106.98 173.789,106.92 173.429,106.92C172.601,106.92 171.905,107.268 171.365,107.964L171.365,107.052L169.841,107.052L169.841,113.28L171.485,113.28L171.485,110.46C171.485,109.764 171.533,109.296 171.617,109.032C171.701,108.78 171.857,108.576 172.085,108.42C172.313,108.264 172.565,108.18 172.853,108.18C173.081,108.18 173.273,108.24 173.429,108.348C173.597,108.456 173.705,108.612 173.777,108.804C173.849,108.996 173.885,109.44 173.885,110.112L173.885,113.28L175.529,113.28L175.529,109.416Z" style="fill:rgb(110,110,111);fill-rule:nonzero;"/>
        </g>
        <g transform="matrix(4.16667,0,0,4.16667,0,0)">
            <path d="M182.837,113.28L182.837,107.052L181.193,107.052L181.193,109.68C181.193,110.58 181.157,111.144 181.073,111.372C180.989,111.6 180.833,111.792 180.605,111.948C180.389,112.104 180.137,112.176 179.849,112.176C179.609,112.176 179.405,112.116 179.237,112.008C179.081,111.888 178.973,111.732 178.913,111.528C178.853,111.336 178.817,110.796 178.817,109.92L178.817,107.052L177.173,107.052L177.173,111C177.173,111.588 177.245,112.056 177.401,112.38C177.545,112.716 177.785,112.98 178.121,113.16C178.457,113.34 178.829,113.436 179.249,113.436C179.657,113.436 180.053,113.34 180.413,113.136C180.785,112.944 181.085,112.68 181.313,112.344L181.313,113.28L182.837,113.28Z" style="fill:rgb(110,110,111);fill-rule:nonzero;"/>
        </g>
        <g transform="matrix(4.16667,0,0,4.16667,0,0)">
            <path d="M189.509,106.212L189.509,104.688L187.865,104.688L187.865,106.212L189.509,106.212ZM189.509,113.28L189.509,107.052L187.865,107.052L187.865,113.28L189.509,113.28Z" style="fill:rgb(110,110,111);fill-rule:nonzero;"/>
        </g>
        <g transform="matrix(4.16667,0,0,4.16667,0,0)">
            <path d="M192.917,107.052L192.917,104.844L191.273,105.816L191.273,107.052L190.517,107.052L190.517,108.36L191.273,108.36L191.273,111.084C191.273,111.672 191.285,112.056 191.321,112.248C191.369,112.524 191.441,112.74 191.561,112.896C191.669,113.052 191.837,113.184 192.077,113.28C192.317,113.388 192.581,113.436 192.881,113.436C193.361,113.436 193.793,113.352 194.177,113.184L194.045,111.912C193.745,112.02 193.529,112.068 193.373,112.068C193.265,112.068 193.169,112.044 193.097,111.984C193.025,111.936 192.965,111.864 192.953,111.78C192.929,111.696 192.917,111.396 192.917,110.88L192.917,108.36L194.045,108.36L194.045,107.052L192.917,107.052Z" style="fill:rgb(110,110,111);fill-rule:nonzero;"/>
        </g>
        <g transform="matrix(4.16667,0,0,4.16667,0,0)">
            <path d="M198.401,111.984C198.221,112.128 198.005,112.2 197.753,112.2C197.369,112.2 197.057,112.068 196.805,111.792C196.553,111.516 196.421,111.144 196.409,110.652L200.525,110.652C200.549,109.392 200.297,108.456 199.757,107.844C199.229,107.232 198.497,106.92 197.573,106.92C196.745,106.92 196.061,107.208 195.521,107.796C194.981,108.384 194.717,109.188 194.717,110.22C194.717,111.084 194.921,111.804 195.329,112.368C195.857,113.076 196.649,113.436 197.729,113.436C198.413,113.436 198.989,113.28 199.445,112.968C199.901,112.644 200.225,112.188 200.441,111.588L198.797,111.312C198.713,111.624 198.581,111.852 198.401,111.984ZM196.433,109.644C196.433,109.188 196.553,108.84 196.781,108.576C197.021,108.312 197.309,108.18 197.669,108.18C198.005,108.18 198.293,108.3 198.521,108.552C198.761,108.804 198.881,109.164 198.893,109.644L196.433,109.644Z" style="fill:rgb(110,110,111);fill-rule:nonzero;"/>
        </g>
        <g transform="matrix(4.16667,0,0,4.16667,0,0)">
            <path d="M201.749,113.28L203.393,113.28L203.393,110.256C203.393,109.656 203.441,109.236 203.525,108.972C203.609,108.72 203.753,108.516 203.957,108.384C204.161,108.252 204.389,108.18 204.641,108.18C204.857,108.18 205.025,108.228 205.145,108.312C205.265,108.396 205.361,108.528 205.421,108.696C205.481,108.876 205.505,109.272 205.505,109.872L205.505,113.28L207.149,113.28L207.149,110.292C207.149,109.704 207.197,109.284 207.281,109.008C207.377,108.732 207.521,108.528 207.725,108.396C207.929,108.252 208.145,108.18 208.373,108.18C208.697,108.18 208.925,108.3 209.081,108.528C209.189,108.708 209.249,109.104 209.249,109.728L209.249,113.28L210.893,113.28L210.893,109.308C210.893,108.708 210.833,108.276 210.725,108.012C210.569,107.652 210.329,107.388 210.017,107.196C209.693,107.016 209.309,106.92 208.853,106.92C208.493,106.92 208.157,107.004 207.845,107.172C207.521,107.328 207.233,107.58 206.957,107.916C206.765,107.58 206.525,107.328 206.237,107.172C205.937,107.004 205.601,106.92 205.205,106.92C204.449,106.92 203.801,107.244 203.261,107.904L203.261,107.052L201.749,107.052L201.749,113.28Z" style="fill:rgb(110,110,111);fill-rule:nonzero;"/>
        </g>
        <g transform="matrix(4.16667,0,0,4.16667,0,0)">
            <path d="M217.805,111.756C217.889,111.612 218.009,111.456 218.141,111.3C218.285,111.144 218.609,110.82 219.137,110.34C219.653,109.872 220.013,109.5 220.217,109.248C220.517,108.864 220.733,108.492 220.877,108.144C221.009,107.796 221.081,107.424 221.081,107.04C221.081,106.356 220.841,105.78 220.349,105.324C219.869,104.868 219.209,104.64 218.357,104.64C217.577,104.64 216.941,104.832 216.425,105.228C215.909,105.624 215.597,106.284 215.501,107.184L217.145,107.352C217.181,106.872 217.289,106.524 217.493,106.32C217.697,106.116 217.973,106.008 218.309,106.008C218.657,106.008 218.933,106.104 219.125,106.308C219.329,106.5 219.425,106.788 219.425,107.148C219.425,107.484 219.317,107.82 219.089,108.156C218.921,108.408 218.465,108.876 217.721,109.572C216.797,110.424 216.185,111.12 215.873,111.636C215.561,112.152 215.369,112.704 215.309,113.28L221.081,113.28L221.081,111.756L217.805,111.756Z" style="fill:rgb(110,110,111);fill-rule:nonzero;"/>
        </g>
        <g transform="matrix(4.16667,0,0,4.16667,0,0)">
            <path d="M249.991,113.28L249.991,105.96L252.475,113.28L253.495,113.28L256.003,106.092L256.003,113.28L257.095,113.28L257.095,104.688L255.571,104.688L253.507,110.664C253.291,111.276 253.147,111.732 253.051,112.044C252.955,111.756 252.823,111.336 252.631,110.772L250.603,104.688L248.899,104.688L248.899,113.28L249.991,113.28Z" style="fill:rgb(159,159,159);fill-rule:nonzero;"/>
        </g>
        <g transform="matrix(4.16667,0,0,4.16667,0,0)">
            <path d="M262.387,112.236C262.111,112.44 261.787,112.548 261.403,112.548C260.875,112.548 260.443,112.368 260.095,112.008C259.747,111.636 259.555,111.12 259.519,110.436L264.163,110.436C264.163,110.316 264.163,110.22 264.163,110.16C264.163,109.128 263.899,108.336 263.371,107.772C262.843,107.208 262.171,106.92 261.343,106.92C260.479,106.92 259.783,107.208 259.243,107.784C258.703,108.36 258.439,109.176 258.439,110.22C258.439,111.228 258.703,112.008 259.243,112.572C259.771,113.136 260.491,113.412 261.403,113.412C262.123,113.412 262.711,113.232 263.179,112.884C263.635,112.536 263.959,112.044 264.127,111.408L263.035,111.264C262.879,111.708 262.663,112.032 262.387,112.236ZM260.131,108.276C260.455,107.952 260.863,107.784 261.343,107.784C261.883,107.784 262.315,107.988 262.651,108.396C262.867,108.66 262.999,109.044 263.047,109.572L259.579,109.572C259.615,109.032 259.795,108.6 260.131,108.276Z" style="fill:rgb(159,159,159);fill-rule:nonzero;"/>
        </g>
        <g transform="matrix(4.16667,0,0,4.16667,0,0)">
            <path d="M266.515,113.28L266.515,109.884C266.515,109.08 266.683,108.54 267.007,108.264C267.331,107.976 267.715,107.832 268.159,107.832C268.447,107.832 268.687,107.892 268.891,108.024C269.107,108.144 269.251,108.324 269.335,108.528C269.419,108.744 269.455,109.068 269.455,109.5L269.455,113.28L270.511,113.28L270.511,109.452C270.511,108.972 270.487,108.624 270.451,108.432C270.391,108.132 270.283,107.868 270.127,107.652C269.971,107.436 269.731,107.256 269.419,107.124C269.107,106.992 268.759,106.92 268.387,106.92C267.523,106.92 266.863,107.256 266.407,107.94L266.407,107.052L265.459,107.052L265.459,113.28L266.515,113.28Z" style="fill:rgb(159,159,159);fill-rule:nonzero;"/>
        </g>
        <g transform="matrix(4.16667,0,0,4.16667,0,0)">
            <path d="M277.147,113.28L277.147,107.052L276.091,107.052L276.091,110.376C276.091,110.916 276.031,111.312 275.923,111.6C275.803,111.876 275.611,112.092 275.335,112.26C275.059,112.416 274.759,112.5 274.447,112.5C274.123,112.5 273.859,112.416 273.643,112.26C273.439,112.104 273.295,111.888 273.223,111.612C273.187,111.42 273.163,111.048 273.163,110.496L273.163,107.052L272.107,107.052L272.107,110.904C272.107,111.36 272.131,111.684 272.167,111.888C272.239,112.2 272.347,112.464 272.491,112.668C272.647,112.884 272.887,113.064 273.199,113.196C273.523,113.34 273.859,113.412 274.231,113.412C275.059,113.412 275.719,113.064 276.199,112.356L276.199,113.28L277.147,113.28Z" style="fill:rgb(159,159,159);fill-rule:nonzero;"/>
        </g>
        <g transform="matrix(4.16667,0,0,4.16667,0,0)">
            <path d="M283.195,105.888L283.195,104.688L282.139,104.688L282.139,105.888L283.195,105.888ZM283.195,113.28L283.195,107.052L282.139,107.052L282.139,113.28L283.195,113.28Z" style="fill:rgb(159,159,159);fill-rule:nonzero;"/>
        </g>
        <g transform="matrix(4.16667,0,0,4.16667,0,0)">
            <path d="M286.639,112.38C286.483,112.38 286.363,112.356 286.279,112.308C286.195,112.248 286.135,112.188 286.099,112.092C286.063,112.008 286.039,111.816 286.039,111.516L286.039,107.868L287.095,107.868L287.095,107.052L286.039,107.052L286.039,104.88L284.983,105.516L284.983,107.052L284.203,107.052L284.203,107.868L284.983,107.868L284.983,111.456C284.983,112.092 285.031,112.5 285.115,112.704C285.199,112.896 285.343,113.064 285.559,113.184C285.763,113.304 286.063,113.364 286.447,113.364C286.675,113.364 286.939,113.328 287.239,113.268L287.095,112.344C286.903,112.368 286.747,112.38 286.639,112.38Z" style="fill:rgb(159,159,159);fill-rule:nonzero;"/>
        </g>
        <g transform="matrix(4.16667,0,0,4.16667,0,0)">
            <path d="M291.739,112.236C291.463,112.44 291.139,112.548 290.755,112.548C290.227,112.548 289.795,112.368 289.447,112.008C289.099,111.636 288.907,111.12 288.871,110.436L293.515,110.436C293.515,110.316 293.515,110.22 293.515,110.16C293.515,109.128 293.251,108.336 292.723,107.772C292.195,107.208 291.523,106.92 290.695,106.92C289.831,106.92 289.135,107.208 288.595,107.784C288.055,108.36 287.791,109.176 287.791,110.22C287.791,111.228 288.055,112.008 288.595,112.572C289.123,113.136 289.843,113.412 290.755,113.412C291.475,113.412 292.063,113.232 292.531,112.884C292.987,112.536 293.311,112.044 293.479,111.408L292.387,111.264C292.231,111.708 292.015,112.032 291.739,112.236ZM289.483,108.276C289.807,107.952 290.215,107.784 290.695,107.784C291.235,107.784 291.667,107.988 292.003,108.396C292.219,108.66 292.351,109.044 292.399,109.572L288.931,109.572C288.967,109.032 289.147,108.6 289.483,108.276Z" style="fill:rgb(159,159,159);fill-rule:nonzero;"/>
        </g>
        <g transform="matrix(4.16667,0,0,4.16667,0,0)">
            <path d="M295.867,113.28L295.867,110.052C295.867,109.488 295.927,109.056 296.035,108.756C296.155,108.456 296.335,108.228 296.587,108.072C296.839,107.916 297.115,107.832 297.403,107.832C297.799,107.832 298.075,107.952 298.243,108.18C298.423,108.42 298.507,108.768 298.507,109.236L298.507,113.28L299.563,113.28L299.563,109.668C299.563,109.02 299.707,108.564 299.995,108.264C300.283,107.976 300.655,107.832 301.087,107.832C301.339,107.832 301.543,107.892 301.723,108C301.903,108.12 302.035,108.264 302.095,108.444C302.167,108.636 302.203,108.936 302.203,109.356L302.203,113.28L303.259,113.28L303.259,109.008C303.259,108.3 303.091,107.772 302.755,107.436C302.419,107.088 301.951,106.92 301.327,106.92C300.535,106.92 299.887,107.28 299.395,108.012C299.275,107.664 299.071,107.4 298.771,107.208C298.483,107.016 298.099,106.92 297.643,106.92C297.223,106.92 296.863,107.016 296.539,107.196C296.215,107.388 295.951,107.628 295.759,107.928L295.759,107.052L294.811,107.052L294.811,113.28L295.867,113.28Z" style="fill:rgb(159,159,159);fill-rule:nonzero;"/>
        </g>
        <g transform="matrix(4.16667,0,0,4.16667,0,0)">
            <path d="M308.707,112.752C309.211,113.196 309.835,113.424 310.591,113.424C311.419,113.424 312.115,113.16 312.667,112.644C313.207,112.116 313.483,111.48 313.483,110.736C313.483,110.172 313.339,109.716 313.063,109.344C312.787,108.972 312.391,108.732 311.875,108.612C312.271,108.432 312.559,108.192 312.763,107.892C312.967,107.592 313.063,107.244 313.063,106.884C313.063,106.488 312.955,106.116 312.751,105.78C312.535,105.432 312.235,105.156 311.839,104.952C311.443,104.748 311.023,104.652 310.543,104.652C309.871,104.652 309.295,104.844 308.839,105.24C308.383,105.624 308.095,106.176 307.963,106.884L309.019,107.076C309.103,106.56 309.271,106.164 309.547,105.9C309.823,105.648 310.159,105.516 310.579,105.516C310.987,105.516 311.323,105.648 311.587,105.9C311.851,106.152 311.983,106.464 311.983,106.86C311.983,107.34 311.803,107.7 311.443,107.94C311.083,108.168 310.675,108.288 310.231,108.288C310.183,108.288 310.123,108.288 310.051,108.276L309.943,109.2C310.231,109.116 310.483,109.08 310.687,109.08C311.167,109.08 311.575,109.236 311.887,109.56C312.211,109.872 312.367,110.268 312.367,110.748C312.367,111.264 312.199,111.684 311.851,112.032C311.515,112.38 311.095,112.548 310.591,112.548C310.171,112.548 309.811,112.416 309.523,112.152C309.235,111.888 309.031,111.456 308.911,110.856L307.855,111C307.927,111.72 308.215,112.296 308.707,112.752Z" style="fill:rgb(159,159,159);fill-rule:nonzero;"/>
        </g>
        <g transform="matrix(4.16667,0,0,4.16667,0,0)">
            <path d="M340.658,113.28L340.658,105.96L343.142,113.28L344.162,113.28L346.67,106.092L346.67,113.28L347.762,113.28L347.762,104.688L346.238,104.688L344.174,110.664C343.958,111.276 343.814,111.732 343.718,112.044C343.622,111.756 343.49,111.336 343.298,110.772L341.27,104.688L339.566,104.688L339.566,113.28L340.658,113.28Z" style="fill:rgb(159,159,159);fill-rule:nonzero;"/>
        </g>
        <g transform="matrix(4.16667,0,0,4.16667,0,0)">
            <path d="M353.054,112.236C352.778,112.44 352.454,112.548 352.07,112.548C351.542,112.548 351.11,112.368 350.762,112.008C350.414,111.636 350.222,111.12 350.186,110.436L354.83,110.436C354.83,110.316 354.83,110.22 354.83,110.16C354.83,109.128 354.566,108.336 354.038,107.772C353.51,107.208 352.838,106.92 352.01,106.92C351.146,106.92 350.45,107.208 349.91,107.784C349.37,108.36 349.106,109.176 349.106,110.22C349.106,111.228 349.37,112.008 349.91,112.572C350.438,113.136 351.158,113.412 352.07,113.412C352.79,113.412 353.378,113.232 353.846,112.884C354.302,112.536 354.626,112.044 354.794,111.408L353.702,111.264C353.546,111.708 353.33,112.032 353.054,112.236ZM350.798,108.276C351.122,107.952 351.53,107.784 352.01,107.784C352.55,107.784 352.982,107.988 353.318,108.396C353.534,108.66 353.666,109.044 353.714,109.572L350.246,109.572C350.282,109.032 350.462,108.6 350.798,108.276Z" style="fill:rgb(159,159,159);fill-rule:nonzero;"/>
        </g>
        <g transform="matrix(4.16667,0,0,4.16667,0,0)">
            <path d="M357.182,113.28L357.182,109.884C357.182,109.08 357.35,108.54 357.674,108.264C357.998,107.976 358.382,107.832 358.826,107.832C359.114,107.832 359.354,107.892 359.558,108.024C359.774,108.144 359.918,108.324 360.002,108.528C360.086,108.744 360.122,109.068 360.122,109.5L360.122,113.28L361.178,113.28L361.178,109.452C361.178,108.972 361.154,108.624 361.118,108.432C361.058,108.132 360.95,107.868 360.794,107.652C360.638,107.436 360.398,107.256 360.086,107.124C359.774,106.992 359.426,106.92 359.054,106.92C358.19,106.92 357.53,107.256 357.074,107.94L357.074,107.052L356.126,107.052L356.126,113.28L357.182,113.28Z" style="fill:rgb(159,159,159);fill-rule:nonzero;"/>
        </g>
        <g transform="matrix(4.16667,0,0,4.16667,0,0)">
            <path d="M367.814,113.28L367.814,107.052L366.758,107.052L366.758,110.376C366.758,110.916 366.698,111.312 366.59,111.6C366.47,111.876 366.278,112.092 366.002,112.26C365.726,112.416 365.426,112.5 365.114,112.5C364.79,112.5 364.526,112.416 364.31,112.26C364.106,112.104 363.962,111.888 363.89,111.612C363.854,111.42 363.83,111.048 363.83,110.496L363.83,107.052L362.774,107.052L362.774,110.904C362.774,111.36 362.798,111.684 362.834,111.888C362.906,112.2 363.014,112.464 363.158,112.668C363.314,112.884 363.554,113.064 363.866,113.196C364.19,113.34 364.526,113.412 364.898,113.412C365.726,113.412 366.386,113.064 366.866,112.356L366.866,113.28L367.814,113.28Z" style="fill:rgb(159,159,159);fill-rule:nonzero;"/>
        </g>
        <g transform="matrix(4.16667,0,0,4.16667,0,0)">
            <path d="M373.862,105.888L373.862,104.688L372.806,104.688L372.806,105.888L373.862,105.888ZM373.862,113.28L373.862,107.052L372.806,107.052L372.806,113.28L373.862,113.28Z" style="fill:rgb(159,159,159);fill-rule:nonzero;"/>
        </g>
        <g transform="matrix(4.16667,0,0,4.16667,0,0)">
            <path d="M377.306,112.38C377.15,112.38 377.03,112.356 376.946,112.308C376.862,112.248 376.802,112.188 376.766,112.092C376.73,112.008 376.706,111.816 376.706,111.516L376.706,107.868L377.762,107.868L377.762,107.052L376.706,107.052L376.706,104.88L375.65,105.516L375.65,107.052L374.87,107.052L374.87,107.868L375.65,107.868L375.65,111.456C375.65,112.092 375.698,112.5 375.782,112.704C375.866,112.896 376.01,113.064 376.226,113.184C376.43,113.304 376.73,113.364 377.114,113.364C377.342,113.364 377.606,113.328 377.906,113.268L377.762,112.344C377.57,112.368 377.414,112.38 377.306,112.38Z" style="fill:rgb(159,159,159);fill-rule:nonzero;"/>
        </g>
        <g transform="matrix(4.16667,0,0,4.16667,0,0)">
            <path d="M382.406,112.236C382.13,112.44 381.806,112.548 381.422,112.548C380.894,112.548 380.462,112.368 380.114,112.008C379.766,111.636 379.574,111.12 379.538,110.436L384.182,110.436C384.182,110.316 384.182,110.22 384.182,110.16C384.182,109.128 383.918,108.336 383.39,107.772C382.862,107.208 382.19,106.92 381.362,106.92C380.498,106.92 379.802,107.208 379.262,107.784C378.722,108.36 378.458,109.176 378.458,110.22C378.458,111.228 378.722,112.008 379.262,112.572C379.79,113.136 380.51,113.412 381.422,113.412C382.142,113.412 382.73,113.232 383.198,112.884C383.654,112.536 383.978,112.044 384.146,111.408L383.054,111.264C382.898,111.708 382.682,112.032 382.406,112.236ZM380.15,108.276C380.474,107.952 380.882,107.784 381.362,107.784C381.902,107.784 382.334,107.988 382.67,108.396C382.886,108.66 383.018,109.044 383.066,109.572L379.598,109.572C379.634,109.032 379.814,108.6 380.15,108.276Z" style="fill:rgb(159,159,159);fill-rule:nonzero;"/>
        </g>
        <g transform="matrix(4.16667,0,0,4.16667,0,0)">
            <path d="M386.534,113.28L386.534,110.052C386.534,109.488 386.594,109.056 386.702,108.756C386.822,108.456 387.002,108.228 387.254,108.072C387.506,107.916 387.782,107.832 388.07,107.832C388.466,107.832 388.742,107.952 388.91,108.18C389.09,108.42 389.174,108.768 389.174,109.236L389.174,113.28L390.23,113.28L390.23,109.668C390.23,109.02 390.374,108.564 390.662,108.264C390.95,107.976 391.322,107.832 391.754,107.832C392.006,107.832 392.21,107.892 392.39,108C392.57,108.12 392.702,108.264 392.762,108.444C392.834,108.636 392.87,108.936 392.87,109.356L392.87,113.28L393.926,113.28L393.926,109.008C393.926,108.3 393.758,107.772 393.422,107.436C393.086,107.088 392.618,106.92 391.994,106.92C391.202,106.92 390.554,107.28 390.062,108.012C389.942,107.664 389.738,107.4 389.438,107.208C389.15,107.016 388.766,106.92 388.31,106.92C387.89,106.92 387.53,107.016 387.206,107.196C386.882,107.388 386.618,107.628 386.426,107.928L386.426,107.052L385.478,107.052L385.478,113.28L386.534,113.28Z" style="fill:rgb(159,159,159);fill-rule:nonzero;"/>
        </g>
        <g transform="matrix(4.16667,0,0,4.16667,0,0)">
            <path d="M402.95,113.28L402.95,111.228L404.114,111.228L404.114,110.256L402.95,110.256L402.95,104.688L402.086,104.688L398.162,110.256L398.162,111.228L401.894,111.228L401.894,113.28L402.95,113.28ZM399.194,110.256L401.894,106.392L401.894,110.256L399.194,110.256Z" style="fill:rgb(159,159,159);fill-rule:nonzero;"/>
        </g>
    </g>
    <defs>
        <linearGradient id="_Linear1" x1="0" y1="0" x2="1" y2="0" gradientUnits="userSpaceOnUse" gradientTransform="matrix(-1.97118e-06,45.0954,-45.0954,-1.97118e-06,211.253,85.7805)"><stop offset="0%" style="stop-color:rgb(246,248,249);stop-opacity:1"/><stop offset="100%" style="stop-color:rgb(243,243,244);stop-opacity:1"/></linearGradient>
    </defs>
</svg>
