<?xml version="1.0" standalone="no"?>
<!DOCTYPE svg PUBLIC "-//W3C//DTD SVG 1.1//EN" "http://www.w3.org/Graphics/SVG/1.1/DTD/svg11.dtd">
<svg width="100%" height="100%" viewBox="0 0 1153 112" version="1.1" xmlns="http://www.w3.org/2000/svg" xmlns:xlink="http://www.w3.org/1999/xlink" xml:space="preserve" style="fill-rule:evenodd;clip-rule:evenodd;stroke-linejoin:round;stroke-miterlimit:1.41421;">
    <g transform="matrix(1.33333,0,0,1.33333,-1876.28,-5966.44)">
        <g transform="matrix(4.16667,0,0,4.16667,0,0)">
            <path d="M370.217,1093.46C369.391,1093.46 368.717,1092.78 368.717,1091.96L368.717,1075.96C368.717,1075.13 369.391,1074.46 370.217,1074.46L386.217,1074.46C387.045,1074.46 387.717,1075.13 387.717,1075.96L387.717,1091.96C387.717,1092.78 387.045,1093.46 386.217,1093.46L370.217,1093.46Z" style="fill:white;fill-rule:nonzero;"/>
        </g>
        <g transform="matrix(4.16667,0,0,4.16667,0,0)">
            <path d="M386.217,1073.96L370.217,1073.96C369.114,1073.96 368.217,1074.85 368.217,1075.96L368.217,1091.96C368.217,1093.06 369.114,1093.96 370.217,1093.96L386.217,1093.96C387.323,1093.96 388.217,1093.06 388.217,1091.96L388.217,1075.96C388.217,1074.85 387.323,1073.96 386.217,1073.96ZM386.217,1074.96C386.77,1074.96 387.217,1075.41 387.217,1075.96L387.217,1091.96C387.217,1092.51 386.77,1092.96 386.217,1092.96L370.217,1092.96C369.667,1092.96 369.217,1092.51 369.217,1091.96L369.217,1075.96C369.217,1075.41 369.667,1074.96 370.217,1074.96L386.217,1074.96Z" style="fill:rgb(217,217,217);fill-rule:nonzero;"/>
        </g>
        <g transform="matrix(4.16667,0,0,4.16667,0,0)">
            <path d="M395.815,1093.46C394.989,1093.46 394.315,1092.78 394.315,1091.96L394.315,1075.96C394.315,1075.13 394.989,1074.46 395.815,1074.46L411.815,1074.46C412.643,1074.46 413.315,1075.13 413.315,1075.96L413.315,1091.96C413.315,1092.78 412.643,1093.46 411.815,1093.46L395.815,1093.46Z" style="fill:url(#_Linear1);"/>
        </g>
        <g transform="matrix(4.16667,0,0,4.16667,0,0)">
            <path d="M411.815,1073.96L395.815,1073.96C394.711,1073.96 393.815,1074.85 393.815,1075.96L393.815,1091.96C393.815,1093.06 394.711,1093.96 395.815,1093.96L411.815,1093.96C412.92,1093.96 413.815,1093.06 413.815,1091.96L413.815,1075.96C413.815,1074.85 412.92,1073.96 411.815,1073.96ZM411.815,1074.96C412.367,1074.96 412.815,1075.4 412.815,1075.96L412.815,1091.96C412.815,1092.51 412.367,1092.96 411.815,1092.96L395.815,1092.96C395.264,1092.96 394.815,1092.51 394.815,1091.96L394.815,1075.96C394.815,1075.4 395.264,1074.96 395.815,1074.96L411.815,1074.96Z" style="fill:rgb(217,217,217);fill-rule:nonzero;"/>
        </g>
        <g transform="matrix(4.16667,0,0,4.16667,0,0)">
            <path d="M421.413,1093.46C420.586,1093.46 419.913,1092.78 419.913,1091.96L419.913,1075.96C419.913,1075.13 420.586,1074.46 421.413,1074.46L437.413,1074.46C438.241,1074.46 438.913,1075.13 438.913,1075.96L438.913,1091.96C438.913,1092.78 438.241,1093.46 437.413,1093.46L421.413,1093.46Z" style="fill:white;fill-rule:nonzero;"/>
        </g>
        <g transform="matrix(4.16667,0,0,4.16667,0,0)">
            <path d="M437.413,1073.96L421.413,1073.96C420.309,1073.96 419.413,1074.85 419.413,1075.96L419.413,1091.96C419.413,1093.06 420.309,1093.96 421.413,1093.96L437.413,1093.96C438.518,1093.96 439.413,1093.06 439.413,1091.96L439.413,1075.96C439.413,1074.85 438.518,1073.96 437.413,1073.96ZM437.413,1074.96C437.965,1074.96 438.413,1075.41 438.413,1075.96L438.413,1091.96C438.413,1092.51 437.965,1092.96 437.413,1092.96L421.413,1092.96C420.862,1092.96 420.413,1092.51 420.413,1091.96L420.413,1075.96C420.413,1075.41 420.862,1074.96 421.413,1074.96L437.413,1074.96Z" style="fill:rgb(217,217,217);fill-rule:nonzero;"/>
        </g>
        <g transform="matrix(4.16667,0,0,4.16667,0,0)">
            <path d="M447.01,1093.46C446.184,1093.46 445.51,1092.78 445.51,1091.96L445.51,1075.96C445.51,1075.13 446.184,1074.46 447.01,1074.46L463.01,1074.46C463.838,1074.46 464.51,1075.13 464.51,1075.96L464.51,1091.96C464.51,1092.78 463.838,1093.46 463.01,1093.46L447.01,1093.46Z" style="fill:white;fill-rule:nonzero;"/>
        </g>
        <g transform="matrix(4.16667,0,0,4.16667,0,0)">
            <path d="M463.01,1073.96L447.01,1073.96C445.907,1073.96 445.01,1074.85 445.01,1075.96L445.01,1091.96C445.01,1093.06 445.907,1093.96 447.01,1093.96L463.01,1093.96C464.116,1093.96 465.01,1093.06 465.01,1091.96L465.01,1075.96C465.01,1074.85 464.116,1073.96 463.01,1073.96ZM463.01,1074.96C463.563,1074.96 464.01,1075.41 464.01,1075.96L464.01,1091.96C464.01,1092.51 463.563,1092.96 463.01,1092.96L447.01,1092.96C446.459,1092.96 446.01,1092.51 446.01,1091.96L446.01,1075.96C446.01,1075.41 446.459,1074.96 447.01,1074.96L463.01,1074.96Z" style="fill:rgb(217,217,217);fill-rule:nonzero;"/>
        </g>
        <g transform="matrix(4.16667,0,0,4.16667,0,0)">
            <path d="M472.608,1093.46C471.782,1093.46 471.108,1092.78 471.108,1091.96L471.108,1075.96C471.108,1075.13 471.782,1074.46 472.608,1074.46L488.608,1074.46C489.436,1074.46 490.108,1075.13 490.108,1075.96L490.108,1091.96C490.108,1092.78 489.436,1093.46 488.608,1093.46L472.608,1093.46Z" style="fill:white;fill-rule:nonzero;"/>
        </g>
        <g transform="matrix(4.16667,0,0,4.16667,0,0)">
            <path d="M488.608,1073.96L472.608,1073.96C471.504,1073.96 470.608,1074.85 470.608,1075.96L470.608,1091.96C470.608,1093.06 471.504,1093.96 472.608,1093.96L488.608,1093.96C489.713,1093.96 490.608,1093.06 490.608,1091.96L490.608,1075.96C490.608,1074.85 489.713,1073.96 488.608,1073.96ZM488.608,1074.96C489.161,1074.96 489.608,1075.41 489.608,1075.96L489.608,1091.96C489.608,1092.51 489.161,1092.96 488.608,1092.96L472.608,1092.96C472.057,1092.96 471.608,1092.51 471.608,1091.96L471.608,1075.96C471.608,1075.41 472.057,1074.96 472.608,1074.96L488.608,1074.96Z" style="fill:rgb(217,217,217);fill-rule:nonzero;"/>
        </g>
        <g transform="matrix(4.16667,0,0,4.16667,0,0)">
            <path d="M498.206,1093.46C497.379,1093.46 496.706,1092.78 496.706,1091.96L496.706,1075.96C496.706,1075.13 497.379,1074.46 498.206,1074.46L514.206,1074.46C515.034,1074.46 515.706,1075.13 515.706,1075.96L515.706,1091.96C515.706,1092.78 515.034,1093.46 514.206,1093.46L498.206,1093.46Z" style="fill:white;fill-rule:nonzero;"/>
        </g>
        <g transform="matrix(4.16667,0,0,4.16667,0,0)">
            <path d="M514.206,1073.96L498.206,1073.96C497.102,1073.96 496.206,1074.85 496.206,1075.96L496.206,1091.96C496.206,1093.06 497.102,1093.96 498.206,1093.96L514.206,1093.96C515.31,1093.96 516.206,1093.06 516.206,1091.96L516.206,1075.96C516.206,1074.85 515.31,1073.96 514.206,1073.96ZM514.206,1074.96C514.758,1074.96 515.206,1075.41 515.206,1075.96L515.206,1091.96C515.206,1092.51 514.758,1092.96 514.206,1092.96L498.206,1092.96C497.655,1092.96 497.206,1092.51 497.206,1091.96L497.206,1075.96C497.206,1075.41 497.655,1074.96 498.206,1074.96L514.206,1074.96Z" style="fill:rgb(217,217,217);fill-rule:nonzero;"/>
        </g>
        <g transform="matrix(4.16667,0,0,4.16667,0,0)">
            <path d="M378.787,1080.04L378.16,1080.04C377.995,1080.38 377.709,1080.73 377.302,1081.1C376.895,1081.46 376.422,1081.77 375.883,1082.02L375.883,1082.96C376.18,1082.85 376.521,1082.67 376.906,1082.45C377.28,1082.23 377.588,1082.01 377.819,1081.79L377.819,1087.95L378.787,1087.95L378.787,1080.04Z" style="fill:rgb(159,159,159);fill-rule:nonzero;"/>
        </g>
        <g transform="matrix(4.16667,0,0,4.16667,0,0)">
            <path d="M427.605,1087.47C428.067,1087.87 428.639,1088.08 429.332,1088.08C430.091,1088.08 430.729,1087.84 431.235,1087.37C431.73,1086.88 431.983,1086.3 431.983,1085.62C431.983,1085.1 431.851,1084.68 431.598,1084.34C431.345,1084 430.982,1083.78 430.509,1083.67C430.872,1083.51 431.136,1083.29 431.323,1083.01C431.51,1082.74 431.598,1082.42 431.598,1082.09C431.598,1081.72 431.499,1081.38 431.312,1081.08C431.114,1080.76 430.839,1080.5 430.476,1080.32C430.113,1080.13 429.728,1080.04 429.288,1080.04C428.672,1080.04 428.144,1080.22 427.726,1080.58C427.308,1080.93 427.044,1081.44 426.923,1082.09L427.891,1082.26C427.968,1081.79 428.122,1081.43 428.375,1081.18C428.628,1080.95 428.936,1080.83 429.321,1080.83C429.695,1080.83 430.003,1080.95 430.245,1081.18C430.487,1081.42 430.608,1081.7 430.608,1082.07C430.608,1082.51 430.443,1082.84 430.113,1083.06C429.783,1083.26 429.409,1083.37 429.002,1083.37C428.958,1083.37 428.903,1083.37 428.837,1083.36L428.738,1084.21C429.002,1084.13 429.233,1084.1 429.42,1084.1C429.86,1084.1 430.234,1084.24 430.52,1084.54C430.817,1084.83 430.96,1085.19 430.96,1085.63C430.96,1086.1 430.806,1086.49 430.487,1086.81C430.179,1087.12 429.794,1087.28 429.332,1087.28C428.947,1087.28 428.617,1087.16 428.353,1086.92C428.089,1086.67 427.902,1086.28 427.792,1085.73L426.824,1085.86C426.89,1086.52 427.154,1087.05 427.605,1087.47Z" style="fill:rgb(159,159,159);fill-rule:nonzero;"/>
        </g>
        <g transform="matrix(4.16667,0,0,4.16667,0,0)">
            <path d="M456.332,1087.95L456.332,1086.07L457.399,1086.07L457.399,1085.18L456.332,1085.18L456.332,1080.07L455.54,1080.07L451.943,1085.18L451.943,1086.07L455.364,1086.07L455.364,1087.95L456.332,1087.95ZM452.889,1085.18L455.364,1081.64L455.364,1085.18L452.889,1085.18Z" style="fill:rgb(159,159,159);fill-rule:nonzero;"/>
        </g>
        <g transform="matrix(4.16667,0,0,4.16667,0,0)">
            <path d="M478.543,1087.48C479.005,1087.88 479.588,1088.08 480.303,1088.08C481.172,1088.08 481.865,1087.76 482.36,1087.12C482.778,1086.61 482.987,1085.99 482.987,1085.28C482.987,1084.53 482.756,1083.91 482.283,1083.44C481.81,1082.97 481.227,1082.72 480.545,1082.72C480.028,1082.72 479.533,1082.89 479.06,1083.22L479.478,1081.1L482.613,1081.1L482.613,1080.17L478.708,1080.17L477.949,1084.22L478.862,1084.35C479.005,1084.12 479.203,1083.93 479.445,1083.79C479.698,1083.65 479.973,1083.58 480.292,1083.58C480.798,1083.58 481.205,1083.74 481.502,1084.06C481.81,1084.38 481.964,1084.82 481.964,1085.37C481.964,1085.95 481.799,1086.41 481.48,1086.76C481.161,1087.11 480.765,1087.29 480.303,1087.29C479.907,1087.29 479.577,1087.17 479.302,1086.92C479.038,1086.67 478.862,1086.3 478.785,1085.81L477.773,1085.88C477.839,1086.54 478.092,1087.08 478.543,1087.48Z" style="fill:rgb(159,159,159);fill-rule:nonzero;"/>
        </g>
        <g transform="matrix(4.16667,0,0,4.16667,0,0)">
            <rect x="502.145" y="1086.85" width="1.1" height="1.1" style="fill:rgb(159,159,159);fill-rule:nonzero;"/>
        </g>
        <g transform="matrix(4.16667,0,0,4.16667,0,0)">
            <rect x="505.203" y="1086.85" width="1.1" height="1.1" style="fill:rgb(159,159,159);fill-rule:nonzero;"/>
        </g>
        <g transform="matrix(4.16667,0,0,4.16667,0,0)">
            <rect x="508.261" y="1086.85" width="1.1" height="1.1" style="fill:rgb(159,159,159);fill-rule:nonzero;"/>
        </g>
        <g transform="matrix(4.16667,0,0,4.16667,0,0)">
            <path d="M403.491,1086.43C403.575,1086.28 403.695,1086.13 403.827,1085.97C403.971,1085.81 404.295,1085.49 404.823,1085.01C405.339,1084.54 405.699,1084.17 405.903,1083.92C406.203,1083.53 406.419,1083.16 406.563,1082.81C406.695,1082.47 406.767,1082.09 406.767,1081.71C406.767,1081.03 406.527,1080.45 406.035,1079.99C405.555,1079.54 404.895,1079.31 404.043,1079.31C403.263,1079.31 402.627,1079.5 402.111,1079.9C401.595,1080.29 401.283,1080.95 401.187,1081.85L402.831,1082.02C402.867,1081.54 402.975,1081.19 403.179,1080.99C403.383,1080.79 403.659,1080.68 403.995,1080.68C404.343,1080.68 404.619,1080.77 404.811,1080.98C405.015,1081.17 405.111,1081.46 405.111,1081.82C405.111,1082.15 405.003,1082.49 404.775,1082.83C404.607,1083.08 404.151,1083.55 403.407,1084.24C402.483,1085.09 401.871,1085.79 401.559,1086.31C401.247,1086.82 401.055,1087.37 400.995,1087.95L406.767,1087.95L406.767,1086.43L403.491,1086.43Z" style="fill:rgb(3,4,4);fill-rule:nonzero;"/>
        </g>
        <g transform="matrix(4.16667,0,0,4.16667,0,0)">
            <path d="M339.731,1093.46C338.905,1093.46 338.231,1092.78 338.231,1091.96L338.231,1075.96C338.231,1075.13 338.905,1074.46 339.731,1074.46L355.731,1074.46C356.559,1074.46 357.231,1075.13 357.231,1075.96L357.231,1091.96C357.231,1092.78 356.559,1093.46 355.731,1093.46L339.731,1093.46Z" style="fill:url(#_Linear2);"/>
        </g>
        <g transform="matrix(4.16667,0,0,4.16667,0,0)">
            <path d="M355.731,1073.96L339.731,1073.96C338.627,1073.96 337.731,1074.85 337.731,1075.96L337.731,1091.96C337.731,1093.06 338.627,1093.96 339.731,1093.96L355.731,1093.96C356.836,1093.96 357.731,1093.06 357.731,1091.96L357.731,1075.96C357.731,1074.85 356.836,1073.96 355.731,1073.96ZM355.731,1074.96C356.283,1074.96 356.731,1075.4 356.731,1075.96L356.731,1091.96C356.731,1092.51 356.283,1092.96 355.731,1092.96L339.731,1092.96C339.18,1092.96 338.731,1092.51 338.731,1091.96L338.731,1075.96C338.731,1075.4 339.18,1074.96 339.731,1074.96L355.731,1074.96Z" style="fill:rgb(217,217,217);fill-rule:nonzero;"/>
        </g>
        <g transform="matrix(4.16667,0,0,4.16667,0,0)">
            <path d="M348.405,1086.79L345.594,1083.94L348.407,1081.12L349.116,1081.82L347.002,1083.95L349.117,1086.09L348.405,1086.79Z" style="fill:rgb(159,159,159);fill-rule:nonzero;"/>
        </g>
        <g transform="matrix(4.16667,0,0,4.16667,0,0)">
            <path d="M527.243,1093.46C526.415,1093.46 525.743,1092.78 525.743,1091.96L525.743,1075.96C525.743,1075.13 526.415,1074.46 527.243,1074.46L543.243,1074.46C544.069,1074.46 544.743,1075.13 544.743,1075.96L544.743,1091.96C544.743,1092.78 544.069,1093.46 543.243,1093.46L527.243,1093.46Z" style="fill:url(#_Linear3);"/>
        </g>
        <g transform="matrix(4.16667,0,0,4.16667,0,0)">
            <path d="M543.243,1073.96L527.243,1073.96C526.137,1073.96 525.243,1074.85 525.243,1075.96L525.243,1091.96C525.243,1093.06 526.137,1093.96 527.243,1093.96L543.243,1093.96C544.346,1093.96 545.243,1093.06 545.243,1091.96L545.243,1075.96C545.243,1074.85 544.346,1073.96 543.243,1073.96ZM543.243,1074.96C543.793,1074.96 544.243,1075.4 544.243,1075.96L544.243,1091.96C544.243,1092.51 543.793,1092.96 543.243,1092.96L527.243,1092.96C526.69,1092.96 526.243,1092.51 526.243,1091.96L526.243,1075.96C526.243,1075.4 526.69,1074.96 527.243,1074.96L543.243,1074.96Z" style="fill:rgb(217,217,217);fill-rule:nonzero;"/>
        </g>
        <g transform="matrix(4.16667,0,0,4.16667,0,0)">
            <path d="M534.569,1086.79L537.379,1083.94L534.567,1081.12L533.858,1081.82L535.971,1083.95L533.858,1086.09L534.569,1086.79Z" style="fill:rgb(159,159,159);fill-rule:nonzero;"/>
        </g>
    </g>
    <defs>
        <linearGradient id="_Linear1" x1="0" y1="0" x2="1" y2="0" gradientUnits="userSpaceOnUse" gradientTransform="matrix(-8.09871e-07,18.5277,-18.5277,-8.09871e-07,403.815,1074.61)"><stop offset="0%" style="stop-color:rgb(234,234,235);stop-opacity:1"/><stop offset="100%" style="stop-color:rgb(243,243,244);stop-opacity:1"/></linearGradient>
        <linearGradient id="_Linear2" x1="0" y1="0" x2="1" y2="0" gradientUnits="userSpaceOnUse" gradientTransform="matrix(-7.31601e-07,16.7371,-16.7371,-7.31601e-07,347.731,1076.75)"><stop offset="0%" style="stop-color:rgb(246,248,249);stop-opacity:1"/><stop offset="100%" style="stop-color:rgb(243,243,244);stop-opacity:1"/></linearGradient>
        <linearGradient id="_Linear3" x1="0" y1="0" x2="1" y2="0" gradientUnits="userSpaceOnUse" gradientTransform="matrix(-7.31601e-07,16.7371,-16.7371,-7.31601e-07,535.243,1076.75)"><stop offset="0%" style="stop-color:rgb(246,248,249);stop-opacity:1"/><stop offset="100%" style="stop-color:rgb(243,243,244);stop-opacity:1"/></linearGradient>
    </defs>
</svg>
