<?xml version="1.0" standalone="no"?>
<!DOCTYPE svg PUBLIC "-//W3C//DTD SVG 1.1//EN" "http://www.w3.org/Graphics/SVG/1.1/DTD/svg11.dtd">
<svg width="100%" height="100%" viewBox="0 0 1327 49" version="1.1" xmlns="http://www.w3.org/2000/svg" xmlns:xlink="http://www.w3.org/1999/xlink" xml:space="preserve" style="fill-rule:evenodd;clip-rule:evenodd;stroke-linejoin:round;stroke-miterlimit:1.41421;">
    <g transform="matrix(1.33333,0,0,1.33333,-3121.86,-13022.7)">
        <g transform="matrix(4.16667,0,0,4.16667,0,0)">
            <path d="M800.292,2348.47C800.292,2350.61 798.554,2352.35 796.411,2352.35L566.315,2352.35C564.171,2352.35 562.434,2350.61 562.434,2348.47C562.434,2346.32 564.171,2344.59 566.315,2344.59L796.411,2344.59C798.554,2344.59 800.292,2346.32 800.292,2348.47Z" style="fill:url(#_Linear1);"/>
        </g>
        <g transform="matrix(4.16667,0,0,4.16667,0,0)">
            <path d="M800.292,2348.47L799.791,2348.47C799.788,2350.33 798.278,2351.84 796.411,2351.85L566.315,2351.85C564.448,2351.84 562.937,2350.33 562.934,2348.47C562.937,2346.6 564.448,2345.09 566.315,2345.09L796.411,2345.09C798.278,2345.09 799.788,2346.6 799.792,2348.47L800.791,2348.47C800.791,2346.05 798.83,2344.09 796.411,2344.09L566.315,2344.09C563.895,2344.09 561.934,2346.05 561.934,2348.47C561.934,2350.89 563.895,2352.85 566.315,2352.85L796.411,2352.85C798.83,2352.85 800.791,2350.89 800.792,2348.47L800.292,2348.47Z" style="fill:rgb(225,225,225);fill-rule:nonzero;"/>
        </g>
        <g transform="matrix(4.16667,0,0,4.16667,0,0)">
            <path d="M566.315,2351.85C564.451,2351.85 562.934,2350.33 562.934,2348.47C562.934,2346.6 564.451,2345.09 566.315,2345.09L660.601,2345.09C662.465,2345.09 663.982,2346.6 663.982,2348.47C663.982,2350.33 662.465,2351.85 660.601,2351.85L566.315,2351.85Z" style="fill:url(#_Linear2);"/>
        </g>
        <g transform="matrix(4.16667,0,0,4.16667,0,0)">
            <path d="M660.601,2344.59L566.315,2344.59C564.171,2344.59 562.434,2346.32 562.434,2348.47C562.434,2350.61 564.171,2352.35 566.315,2352.35L660.601,2352.35C662.745,2352.35 664.482,2350.61 664.482,2348.47C664.482,2346.32 662.745,2344.59 660.601,2344.59ZM660.601,2345.59C662.19,2345.59 663.482,2346.88 663.482,2348.47C663.482,2350.06 662.19,2351.35 660.601,2351.35L566.315,2351.35C564.726,2351.35 563.434,2350.06 563.434,2348.47C563.434,2346.88 564.726,2345.59 566.315,2345.59L660.601,2345.59Z" style="fill:rgb(110,110,111);fill-rule:nonzero;"/>
        </g>
    </g>
    <defs>
        <linearGradient id="_Linear1" x1="0" y1="0" x2="1" y2="0" gradientUnits="userSpaceOnUse" gradientTransform="matrix(-5.5294e-07,-12.6498,12.6498,-5.5294e-07,681.363,2351.84)"><stop offset="0%" style="stop-color:rgb(246,248,249);stop-opacity:1"/><stop offset="100%" style="stop-color:rgb(233,234,234);stop-opacity:1"/></linearGradient>
        <linearGradient id="_Linear2" x1="0" y1="0" x2="1" y2="0" gradientUnits="userSpaceOnUse" gradientTransform="matrix(-2.77295e-07,-6.34377,6.34377,-2.77295e-07,613.458,2351.62)"><stop offset="0%" style="stop-color:rgb(110,110,111);stop-opacity:1"/><stop offset="100%" style="stop-color:rgb(133,131,133);stop-opacity:1"/></linearGradient>
    </defs>
</svg>
