<?xml version="1.0" standalone="no"?>
<!DOCTYPE svg PUBLIC "-//W3C//DTD SVG 1.1//EN" "http://www.w3.org/Graphics/SVG/1.1/DTD/svg11.dtd">
<svg width="100%" height="100%" viewBox="0 0 1359 106" version="1.1" xmlns="http://www.w3.org/2000/svg" xmlns:xlink="http://www.w3.org/1999/xlink" xml:space="preserve" style="fill-rule:evenodd;clip-rule:evenodd;stroke-linejoin:round;stroke-miterlimit:1.41421;">
    <g transform="matrix(1.33333,0,0,1.33333,-1678.58,-12999.8)">
        <g transform="matrix(4.16667,0,0,4.16667,0,0)">
            <path d="M304.144,2358.46C303.316,2358.46 302.644,2357.79 302.644,2356.96L302.644,2341.96C302.644,2341.13 303.316,2340.46 304.144,2340.46L544.706,2340.46C545.533,2340.46 546.206,2341.13 546.206,2341.96L546.206,2356.96C546.206,2357.79 545.533,2358.46 544.706,2358.46L304.144,2358.46Z" style="fill:url(#_Linear1);"/>
        </g>
        <g transform="matrix(4.16667,0,0,4.16667,0,0)">
            <path d="M544.706,2339.96L304.144,2339.96C303.038,2339.96 302.144,2340.86 302.144,2341.96L302.144,2356.96C302.144,2358.06 303.038,2358.96 304.144,2358.96L544.706,2358.96C545.811,2358.96 546.706,2358.06 546.706,2356.96L546.706,2341.96C546.706,2340.86 545.811,2339.96 544.706,2339.96ZM544.706,2340.96C545.257,2340.96 545.706,2341.41 545.706,2341.96L545.706,2356.96C545.706,2357.51 545.257,2357.96 544.706,2357.96L304.144,2357.96C303.592,2357.96 303.144,2357.51 303.144,2356.96L303.144,2341.96C303.144,2341.41 303.592,2340.96 304.144,2340.96L544.706,2340.96Z" style="fill:rgb(225,225,225);fill-rule:nonzero;"/>
        </g>
        <g transform="matrix(4.16667,0,0,4.16667,0,0)">
            <path d="M304.144,2358.46C303.316,2358.46 302.644,2357.79 302.644,2356.96L302.644,2341.96C302.644,2341.13 303.316,2340.46 304.144,2340.46L408.345,2340.46C409.172,2340.46 409.845,2341.13 409.845,2341.96L409.845,2356.96C409.845,2357.79 409.172,2358.46 408.345,2358.46L304.144,2358.46Z" style="fill:url(#_Linear2);"/>
        </g>
        <g transform="matrix(4.16667,0,0,4.16667,0,0)">
            <path d="M408.345,2339.96L304.144,2339.96C303.038,2339.96 302.144,2340.86 302.144,2341.96L302.144,2356.96C302.144,2358.06 303.038,2358.96 304.144,2358.96L408.345,2358.96C409.451,2358.96 410.345,2358.06 410.345,2356.96L410.345,2341.96C410.345,2340.86 409.451,2339.96 408.345,2339.96ZM408.345,2340.96C408.897,2340.96 409.345,2341.41 409.345,2341.96L409.345,2356.96C409.345,2357.51 408.897,2357.96 408.345,2357.96L304.144,2357.96C303.592,2357.96 303.144,2357.51 303.144,2356.96L303.144,2341.96C303.144,2341.41 303.592,2340.96 304.144,2340.96L408.345,2340.96Z" style="fill:rgb(225,225,225);fill-rule:nonzero;"/>
        </g>
    </g>
    <defs>
        <linearGradient id="_Linear1" x1="0" y1="0" x2="1" y2="0" gradientUnits="userSpaceOnUse" gradientTransform="matrix(-1.28247e-06,-29.3395,29.3395,-1.28247e-06,424.424,2357.28)"><stop offset="0%" style="stop-color:rgb(246,248,249);stop-opacity:1"/><stop offset="100%" style="stop-color:rgb(233,234,234);stop-opacity:1"/></linearGradient>
        <linearGradient id="_Linear2" x1="0" y1="0" x2="1" y2="0" gradientUnits="userSpaceOnUse" gradientTransform="matrix(-8.57615e-07,19.6199,-19.6199,-8.57615e-07,356.244,2339.73)"><stop offset="0%" style="stop-color:white;stop-opacity:1"/><stop offset="100%" style="stop-color:rgb(233,234,234);stop-opacity:1"/></linearGradient>
    </defs>
</svg>
