<?xml version="1.0" standalone="no"?>
<!DOCTYPE svg PUBLIC "-//W3C//DTD SVG 1.1//EN" "http://www.w3.org/Graphics/SVG/1.1/DTD/svg11.dtd">
<svg width="100%" height="100%" viewBox="0 0 73 73" version="1.1" xmlns="http://www.w3.org/2000/svg" xmlns:xlink="http://www.w3.org/1999/xlink" xml:space="preserve" style="fill-rule:evenodd;clip-rule:evenodd;stroke-linejoin:round;stroke-miterlimit:1.41421;">
    <g transform="matrix(1.33333,0,0,1.33333,-4087.37,-5985.89)">
        <g transform="matrix(4.16667,0,0,4.16667,0,0)">
            <path d="M748.226,1083.96C748.226,1087.27 745.54,1089.96 742.226,1089.96C738.913,1089.96 736.226,1087.27 736.226,1083.96C736.226,1080.64 738.913,1077.96 742.226,1077.96C745.54,1077.96 748.226,1080.64 748.226,1083.96Z" style="fill:url(#_Linear1);"/>
        </g>
        <g transform="matrix(4.16667,0,0,4.16667,0,0)">
            <path d="M748.226,1083.96L747.726,1083.96C747.726,1085.48 747.111,1086.85 746.115,1087.84C745.118,1088.84 743.746,1089.46 742.226,1089.46C740.706,1089.46 739.334,1088.84 738.337,1087.84C737.341,1086.85 736.726,1085.48 736.726,1083.96C736.726,1082.43 737.341,1081.06 738.337,1080.07C739.334,1079.07 740.706,1078.46 742.226,1078.46C743.746,1078.46 745.118,1079.07 746.115,1080.07C747.111,1081.06 747.726,1082.43 747.726,1083.96L748.726,1083.96C748.726,1080.37 745.816,1077.46 742.226,1077.46C738.636,1077.46 735.726,1080.37 735.726,1083.96C735.726,1087.54 738.636,1090.46 742.226,1090.46C745.816,1090.46 748.726,1087.54 748.726,1083.96L748.226,1083.96Z" style="fill:rgb(217,217,217);fill-rule:nonzero;"/>
        </g>
    </g>
    <defs>
        <linearGradient id="_Linear1" x1="0" y1="0" x2="1" y2="0" gradientUnits="userSpaceOnUse" gradientTransform="matrix(-3.43354e-07,-7.85503,7.85503,-3.43354e-07,742.226,1088.95)"><stop offset="0%" style="stop-color:rgb(246,248,249);stop-opacity:1"/><stop offset="100%" style="stop-color:rgb(243,243,244);stop-opacity:1"/></linearGradient>
    </defs>
</svg>
