<?xml version="1.0" standalone="no"?>
<!DOCTYPE svg PUBLIC "-//W3C//DTD SVG 1.1//EN" "http://www.w3.org/Graphics/SVG/1.1/DTD/svg11.dtd">
<svg width="100%" height="100%" viewBox="0 0 362 59" version="1.1" xmlns="http://www.w3.org/2000/svg" xmlns:xlink="http://www.w3.org/1999/xlink" xml:space="preserve" style="fill-rule:evenodd;clip-rule:evenodd;stroke-linejoin:round;stroke-miterlimit:1.41421;">
    <g transform="matrix(1.33333,0,0,1.33333,-1169.84,-7437.67)">
        <g transform="matrix(4.16667,0,0,4.16667,0,0)">
            <path d="M272.334,1338.78C271.14,1338.78 270.109,1339.44 269.554,1340.41C268.998,1339.44 267.967,1338.78 266.773,1338.78C264.995,1338.78 263.553,1340.22 263.553,1342L263.57,1342.17L263.565,1342.24C263.565,1342.51 263.638,1342.8 263.762,1343.11C263.815,1343.26 263.881,1343.39 263.953,1343.52L263.971,1343.56L264.126,1343.83C265.617,1346.29 269.566,1349.25 269.566,1349.25C269.566,1349.25 274.169,1345.86 275.295,1343.26L275.306,1343.24C275.455,1342.89 275.542,1342.55 275.542,1342.24L275.529,1342.24L275.553,1342C275.553,1340.22 274.112,1338.78 272.334,1338.78ZM272.334,1339.78C273.558,1339.78 274.553,1340.78 274.549,1342.01L274.533,1342.16L274.512,1342.47C274.488,1342.57 274.447,1342.7 274.377,1342.87C273.657,1344.53 271.053,1346.82 269.573,1347.99C268.446,1347.08 266.022,1345.03 264.981,1343.31L264.963,1343.28L264.949,1343.26L264.899,1343.17L264.85,1343.08L264.84,1343.06L264.833,1343.05C264.783,1342.96 264.737,1342.86 264.69,1342.74C264.597,1342.51 264.57,1342.36 264.566,1342.27L264.568,1342.24L264.569,1342.21L264.571,1342.16L264.569,1342.12L264.554,1341.97C264.573,1340.76 265.561,1339.78 266.773,1339.78C267.567,1339.78 268.282,1340.2 268.687,1340.91L269.554,1342.41L270.421,1340.91C270.825,1340.2 271.54,1339.78 272.334,1339.78Z" style="fill:rgb(194,194,194);fill-rule:nonzero;"/>
        </g>
        <g transform="matrix(4.16667,0,0,4.16667,0,0)">
            <path d="M259.088,1338.78C257.894,1338.78 256.863,1339.44 256.308,1340.41C255.752,1339.44 254.722,1338.78 253.527,1338.78C251.749,1338.78 250.308,1340.22 250.308,1342L250.325,1342.17L250.319,1342.24C250.319,1342.51 250.393,1342.8 250.517,1343.11C250.57,1343.26 250.635,1343.39 250.707,1343.52L250.726,1343.56L250.88,1343.83C252.372,1346.29 256.32,1349.25 256.32,1349.25C256.32,1349.25 260.924,1345.86 262.049,1343.26L262.06,1343.24C262.209,1342.89 262.296,1342.55 262.296,1342.24L262.284,1342.24L262.308,1342C262.308,1340.22 260.867,1338.78 259.088,1338.78ZM259.088,1339.78C260.312,1339.78 261.308,1340.78 261.303,1342.01L261.286,1342.16L261.265,1342.47C261.242,1342.57 261.2,1342.7 261.131,1342.87C260.411,1344.53 257.808,1346.82 256.327,1347.99C255.201,1347.08 252.777,1345.03 251.735,1343.31L251.717,1343.28L251.704,1343.26L251.654,1343.17L251.604,1343.08L251.594,1343.06L251.587,1343.05C251.537,1342.96 251.491,1342.86 251.444,1342.74C251.352,1342.51 251.325,1342.36 251.32,1342.27L251.323,1342.24L251.324,1342.21L251.326,1342.16L251.323,1342.12L251.308,1341.97C251.327,1340.76 252.315,1339.78 253.527,1339.78C254.321,1339.78 255.037,1340.2 255.441,1340.91L256.308,1342.41L257.174,1340.91C257.579,1340.2 258.294,1339.78 259.088,1339.78Z" style="fill:rgb(194,194,194);fill-rule:nonzero;"/>
        </g>
        <g transform="matrix(4.16667,0,0,4.16667,0,0)">
            <path d="M245.843,1338.78C244.648,1338.78 243.618,1339.44 243.063,1340.41C242.507,1339.44 241.476,1338.78 240.282,1338.78C238.503,1338.78 237.062,1340.22 237.062,1342L237.079,1342.17L237.074,1342.24C237.074,1342.51 237.147,1342.8 237.271,1343.11C237.324,1343.26 237.39,1343.39 237.461,1343.52L237.48,1343.56L237.635,1343.83C239.126,1346.29 243.075,1349.25 243.075,1349.25C243.075,1349.25 247.678,1345.86 248.804,1343.26L248.814,1343.24C248.964,1342.89 249.051,1342.55 249.051,1342.24L249.038,1342.24L249.062,1342C249.062,1340.22 247.621,1338.78 245.843,1338.78ZM245.843,1339.78C247.067,1339.78 248.062,1340.78 248.058,1342.01L248.041,1342.16L248.021,1342.47C247.997,1342.57 247.956,1342.7 247.886,1342.87C247.166,1344.53 244.562,1346.82 243.082,1347.99C241.955,1347.08 239.531,1345.03 238.49,1343.31L238.472,1343.28L238.458,1343.26L238.408,1343.17L238.359,1343.08L238.349,1343.06L238.341,1343.05C238.292,1342.96 238.246,1342.86 238.199,1342.74C238.106,1342.51 238.079,1342.36 238.075,1342.27L238.077,1342.24L238.078,1342.21L238.08,1342.16L238.078,1342.12L238.063,1341.97C238.082,1340.76 239.07,1339.78 240.282,1339.78C241.076,1339.78 241.791,1340.2 242.196,1340.91L243.063,1342.41L243.93,1340.91C244.333,1340.2 245.049,1339.78 245.843,1339.78Z" style="fill:rgb(194,194,194);fill-rule:nonzero;"/>
        </g>
        <g transform="matrix(4.16667,0,0,4.16667,0,0)">
            <path d="M232.598,1338.78C231.403,1338.78 230.372,1339.44 229.817,1340.41C229.261,1339.44 228.23,1338.78 227.036,1338.78C225.258,1338.78 223.816,1340.22 223.816,1342L223.833,1342.17L223.828,1342.24C223.828,1342.51 223.901,1342.8 224.025,1343.11C224.079,1343.26 224.144,1343.39 224.216,1343.52L224.234,1343.56L224.389,1343.83C225.88,1346.29 229.829,1349.25 229.829,1349.25C229.829,1349.25 234.433,1345.86 235.558,1343.26L235.569,1343.24C235.718,1342.89 235.805,1342.55 235.805,1342.24L235.792,1342.24L235.816,1342C235.816,1340.22 234.375,1338.78 232.598,1338.78ZM232.598,1339.78C233.821,1339.78 234.816,1340.78 234.813,1342.01L234.795,1342.16L234.775,1342.47C234.751,1342.57 234.709,1342.7 234.641,1342.87C233.92,1344.53 231.316,1346.82 229.835,1347.99C228.709,1347.08 226.286,1345.03 225.244,1343.31L225.226,1343.28L225.212,1343.26L225.163,1343.17L225.113,1343.08L225.103,1343.06L225.096,1343.05C225.046,1342.96 225,1342.86 224.953,1342.74C224.86,1342.51 224.833,1342.36 224.829,1342.27L224.832,1342.24L224.833,1342.21L224.834,1342.16L224.832,1342.12L224.817,1341.97C224.836,1340.76 225.824,1339.78 227.036,1339.78C227.83,1339.78 228.545,1340.2 228.95,1340.91L229.817,1342.41L230.684,1340.91C231.088,1340.2 231.803,1339.78 232.598,1339.78Z" style="fill:rgb(194,194,194);fill-rule:nonzero;"/>
        </g>
        <g transform="matrix(4.16667,0,0,4.16667,0,0)">
            <path d="M210.97,1343.52C210.898,1343.39 210.833,1343.26 210.78,1343.11C210.656,1342.8 210.583,1342.51 210.583,1342.24L210.588,1342.17L210.571,1342C210.571,1340.22 212.012,1338.78 213.791,1338.78C214.985,1338.78 216.016,1339.44 216.571,1340.41C217.126,1339.44 218.157,1338.78 219.352,1338.78C221.13,1338.78 222.571,1340.22 222.571,1342L222.547,1342.24L222.56,1342.24C222.56,1342.55 222.473,1342.89 222.323,1343.24L222.313,1343.26C221.187,1345.86 216.583,1349.25 216.583,1349.25C216.583,1349.25 212.635,1346.29 211.144,1343.83L210.989,1343.56L210.97,1343.52Z" style="fill:rgb(112,114,115);fill-rule:nonzero;"/>
        </g>
        <g transform="matrix(4.16667,0,0,4.16667,0,0)">
            <clipPath id="_clip1">
                <rect x="222.57" y="1336.94" width="7.246" height="13.31"/>
            </clipPath>
            <g clip-path="url(#_clip1)">
                <path d="M224.216,1343.52C224.144,1343.39 224.079,1343.26 224.025,1343.11C223.901,1342.8 223.828,1342.51 223.828,1342.24L223.833,1342.17L223.816,1342C223.816,1340.22 225.258,1338.78 227.036,1338.78C228.23,1338.78 229.261,1339.44 229.817,1340.41C230.372,1339.44 231.403,1338.78 232.598,1338.78C234.375,1338.78 235.816,1340.22 235.816,1342L235.792,1342.24L235.805,1342.24C235.805,1342.55 235.718,1342.89 235.569,1343.24L235.558,1343.26C234.433,1345.86 229.829,1349.25 229.829,1349.25C229.829,1349.25 225.88,1346.29 224.389,1343.83L224.234,1343.56L224.216,1343.52Z" style="fill:rgb(112,114,115);fill-rule:nonzero;"/>
            </g>
        </g>
    </g>
</svg>
