<?xml version="1.0" standalone="no"?>
<!DOCTYPE svg PUBLIC "-//W3C//DTD SVG 1.1//EN" "http://www.w3.org/Graphics/SVG/1.1/DTD/svg11.dtd">
<svg width="100%" height="100%" viewBox="0 0 413 74" version="1.1" xmlns="http://www.w3.org/2000/svg" xmlns:xlink="http://www.w3.org/1999/xlink" xml:space="preserve" style="fill-rule:evenodd;clip-rule:evenodd;stroke-linejoin:round;stroke-miterlimit:1.41421;">
    <g transform="matrix(1.33333,0,0,1.33333,-662.106,-7427.44)">
        <g transform="matrix(4.16667,0,0,4.16667,0,0)">
            <path d="M126.179,1347.1L130.505,1350.25L128.839,1345.16L133.179,1342.03L127.822,1342.04L126.179,1336.94L124.535,1342.04L119.179,1342.03L123.519,1345.16L121.853,1350.25L126.179,1347.1Z" style="fill:rgb(112,114,115);fill-rule:nonzero;"/>
        </g>
        <g transform="matrix(4.16667,0,0,4.16667,0,0)">
            <path d="M186.366,1336.94L184.723,1342.04L179.366,1342.03L183.706,1345.16L182.04,1350.25L186.366,1347.1L190.692,1350.25L189.026,1345.16L193.366,1342.03L188.01,1342.04L186.366,1336.94ZM186.366,1340.2L187.058,1342.34L187.282,1343.04L188.012,1343.04L190.268,1343.03L188.44,1344.35L187.849,1344.78L188.076,1345.48L188.777,1347.62L186.956,1346.29L186.366,1345.86L185.777,1346.29L183.955,1347.62L184.656,1345.48L184.883,1344.78L184.292,1344.35L182.465,1343.03L184.721,1343.04L185.45,1343.04L185.674,1342.34L186.366,1340.2Z" style="fill:rgb(194,194,194);fill-rule:nonzero;"/>
        </g>
        <g transform="matrix(4.16667,0,0,4.16667,0,0)">
            <path d="M171.319,1336.94L169.676,1342.04L164.319,1342.03L168.659,1345.16L166.993,1350.25L171.319,1347.1L175.646,1350.25L173.979,1345.16L178.319,1342.03L172.963,1342.04L171.319,1336.94ZM171.319,1340.2L172.011,1342.34L172.235,1343.04L172.965,1343.04L175.221,1343.03L173.394,1344.35L172.802,1344.78L173.029,1345.48L173.73,1347.62L171.909,1346.29L171.319,1345.86L170.73,1346.29L168.908,1347.62L169.609,1345.48L169.836,1344.78L169.245,1344.35L167.418,1343.03L169.674,1343.04L170.403,1343.04L170.627,1342.34L171.319,1340.2Z" style="fill:rgb(194,194,194);fill-rule:nonzero;"/>
        </g>
        <g transform="matrix(4.16667,0,0,4.16667,0,0)">
            <path d="M156.272,1336.94L154.629,1342.04L149.272,1342.03L153.612,1345.16L151.946,1350.25L156.272,1347.1L160.599,1350.25L158.933,1345.16L163.272,1342.03L157.916,1342.04L156.272,1336.94ZM156.272,1340.2L156.964,1342.34L157.188,1343.04L157.918,1343.04L160.174,1343.03L158.347,1344.35L157.755,1344.78L157.982,1345.48L158.684,1347.62L156.862,1346.29L156.272,1345.86L155.683,1346.29L153.861,1347.62L154.563,1345.48L154.79,1344.78L154.198,1344.35L152.371,1343.03L154.627,1343.04L155.356,1343.04L155.581,1342.34L156.272,1340.2Z" style="fill:rgb(194,194,194);fill-rule:nonzero;"/>
        </g>
        <g transform="matrix(4.16667,0,0,4.16667,0,0)">
            <path d="M141.226,1336.94L139.582,1342.04L134.226,1342.03L138.565,1345.16L136.899,1350.25L141.226,1347.1L145.552,1350.25L143.886,1345.16L148.226,1342.03L142.869,1342.04L141.226,1336.94ZM141.226,1340.2L141.917,1342.34L142.142,1343.04L142.871,1343.04L145.127,1343.03L143.3,1344.35L142.708,1344.78L142.936,1345.48L143.637,1347.62L141.815,1346.29L141.226,1345.86L140.636,1346.29L138.814,1347.62L139.516,1345.48L139.743,1344.78L139.151,1344.35L137.324,1343.03L139.58,1343.04L140.31,1343.04L140.534,1342.34L141.226,1340.2Z" style="fill:rgb(194,194,194);fill-rule:nonzero;"/>
        </g>
        <g transform="matrix(4.16667,0,0,4.16667,0,0)">
            <clipPath id="_clip1">
                <rect x="133.574" y="1336.37" width="7.652" height="14.77"/>
            </clipPath>
            <g clip-path="url(#_clip1)">
                <path d="M141.226,1347.1L145.552,1350.25L143.886,1345.16L148.226,1342.03L142.869,1342.04L141.226,1336.94L139.582,1342.04L134.226,1342.03L138.565,1345.16L136.899,1350.25L141.226,1347.1Z" style="fill:rgb(112,114,115);fill-rule:nonzero;"/>
            </g>
        </g>
    </g>
</svg>
