<?xml version="1.0" standalone="no"?>
<!DOCTYPE svg PUBLIC "-//W3C//DTD SVG 1.1//EN" "http://www.w3.org/Graphics/SVG/1.1/DTD/svg11.dtd">
<svg width="100%" height="100%" viewBox="0 0 225 184" version="1.1" xmlns="http://www.w3.org/2000/svg" xmlns:xlink="http://www.w3.org/1999/xlink" xml:space="preserve" style="fill-rule:evenodd;clip-rule:evenodd;stroke-linejoin:round;stroke-miterlimit:1.41421;">
    <g transform="matrix(1.33333,0,0,1.33333,-3321.02,-11470.3)">
        <g transform="matrix(4.16667,0,0,4.16667,0,0)">
            <path d="M598.284,2095.16C598.284,2096.26 599.18,2097.16 600.284,2097.16L622.478,2097.16C623.583,2097.16 625.561,2096.21 626.284,2095.16L637.561,2081.04L626.284,2067.16C625.158,2066.03 624.416,2065.16 623.311,2065.16L600.284,2065.16C599.18,2065.16 598.284,2066.05 598.284,2067.16L598.284,2095.16Z" style="fill:white;fill-rule:nonzero;"/>
        </g>
        <g transform="matrix(4.16667,0,0,4.16667,0,0)">
            <path d="M598.284,2095.16L597.784,2095.16C597.784,2096.54 598.904,2097.66 600.284,2097.66L622.478,2097.66C623.166,2097.65 623.973,2097.39 624.751,2097C625.524,2096.6 626.251,2096.08 626.696,2095.44L626.284,2095.16L626.674,2095.47L638.203,2081.04L626.656,2066.82L626.637,2066.8C626.08,2066.25 625.608,2065.74 625.095,2065.34C624.588,2064.94 624.002,2064.65 623.311,2064.66L600.284,2064.66C598.903,2064.66 597.784,2065.78 597.784,2067.16L597.784,2095.16L598.784,2095.16L598.784,2067.16C598.785,2066.33 599.457,2065.66 600.284,2065.66L623.311,2065.66C623.725,2065.66 624.062,2065.81 624.483,2066.13C624.899,2066.45 625.361,2066.94 625.93,2067.51L626.284,2067.16L625.896,2067.47L636.919,2081.05L625.882,2094.86L625.871,2094.87C625.593,2095.29 624.97,2095.77 624.297,2096.11C623.629,2096.45 622.894,2096.66 622.478,2096.66L600.284,2096.66C599.456,2096.66 598.785,2095.99 598.784,2095.16L598.284,2095.16Z" style="fill:rgb(217,217,217);fill-rule:nonzero;"/>
        </g>
        <g transform="matrix(4.16667,0,0,4.16667,0,0)">
            <path d="M612.401,2087.4L618.495,2081.07L612.389,2074.92L610.969,2076.33L615.698,2081.09L610.959,2086.01L612.401,2087.4Z" style="fill:rgb(45,46,46);fill-rule:nonzero;"/>
        </g>
    </g>
</svg>
