<?xml version="1.0" standalone="no"?>
<!DOCTYPE svg PUBLIC "-//W3C//DTD SVG 1.1//EN" "http://www.w3.org/Graphics/SVG/1.1/DTD/svg11.dtd">
<svg width="100%" height="100%" viewBox="0 0 178 178" version="1.1" xmlns="http://www.w3.org/2000/svg" xmlns:xlink="http://www.w3.org/1999/xlink" xml:space="preserve" style="fill-rule:evenodd;clip-rule:evenodd;stroke-linejoin:round;stroke-miterlimit:1.41421;">
    <g transform="matrix(1.33333,0,0,1.33333,-2279.79,-11473.1)">
        <g transform="matrix(4.16667,0,0,4.16667,0,0)">
            <path d="M410.362,2095.16C410.362,2096.26 411.258,2097.16 412.362,2097.16L440.362,2097.16C441.466,2097.16 442.362,2096.26 442.362,2095.16L442.362,2067.16C442.362,2066.05 441.466,2065.16 440.362,2065.16L412.362,2065.16C411.258,2065.16 410.362,2066.05 410.362,2067.16L410.362,2095.16Z" style="fill:white;fill-rule:nonzero;"/>
        </g>
        <g transform="matrix(4.16667,0,0,4.16667,0,0)">
            <path d="M424.479,2087.4L430.573,2081.07L424.467,2074.92L423.047,2076.33L427.776,2081.09L423.038,2086.01L424.479,2087.4Z" style="fill:rgb(45,46,46);fill-rule:nonzero;"/>
        </g>
    </g>
</svg>
