<?xml version="1.0" standalone="no"?>
<!DOCTYPE svg PUBLIC "-//W3C//DTD SVG 1.1//EN" "http://www.w3.org/Graphics/SVG/1.1/DTD/svg11.dtd">
<svg width="100%" height="100%" viewBox="0 0 178 178" version="1.1" xmlns="http://www.w3.org/2000/svg" xmlns:xlink="http://www.w3.org/1999/xlink" xml:space="preserve" style="fill-rule:evenodd;clip-rule:evenodd;stroke-linejoin:round;stroke-miterlimit:1.41421;">
    <g transform="matrix(1.33333,0,0,1.33333,-2800.57,-11473.1)">
        <g transform="matrix(4.16667,0,0,4.16667,0,0)">
            <path d="M504.102,2081.16C504.102,2089.99 511.265,2097.16 520.102,2097.16C528.939,2097.16 536.102,2089.99 536.102,2081.16C536.102,2072.32 528.939,2065.16 520.102,2065.16C511.265,2065.16 504.102,2072.32 504.102,2081.16Z" style="fill:white;fill-rule:nonzero;"/>
        </g>
        <g transform="matrix(4.16667,0,0,4.16667,0,0)">
            <path d="M518.776,2087.4L524.871,2081.07L518.765,2074.92L517.344,2076.33L522.073,2081.09L517.334,2086.01L518.776,2087.4Z" style="fill:rgb(45,46,46);fill-rule:nonzero;"/>
        </g>
    </g>
</svg>
