<?xml version="1.0" standalone="no"?>
<!DOCTYPE svg PUBLIC "-//W3C//DTD SVG 1.1//EN" "http://www.w3.org/Graphics/SVG/1.1/DTD/svg11.dtd">
<svg width="100%" height="100%" viewBox="0 0 106 2408" version="1.1" xmlns="http://www.w3.org/2000/svg" xmlns:xlink="http://www.w3.org/1999/xlink" xml:space="preserve" style="fill-rule:evenodd;clip-rule:evenodd;stroke-linejoin:round;stroke-miterlimit:1.41421;">
    <g transform="matrix(1.33333,0,0,1.33333,-4344.44,-6506.28)">
        <g transform="matrix(4.16667,0,0,4.16667,0,0)">
            <path d="M784,1603.98C783.173,1603.98 782.5,1603.31 782.5,1602.48L782.5,1173.13C782.5,1172.3 783.173,1171.63 784,1171.63L799,1171.63C799.828,1171.63 800.5,1172.3 800.5,1173.13L800.5,1602.48C800.5,1603.31 799.828,1603.98 799,1603.98L784,1603.98Z" style="fill:rgb(246,248,249);fill-rule:nonzero;"/>
        </g>
        <g transform="matrix(4.16667,0,0,4.16667,0,0)">
            <path d="M799,1171.13L784,1171.13C782.896,1171.13 782,1172.03 782,1173.13L782,1602.48C782,1603.59 782.896,1604.48 784,1604.48L799,1604.48C800.105,1604.48 801,1603.59 801,1602.48L801,1173.13C801,1172.03 800.105,1171.13 799,1171.13ZM799,1172.13C799.552,1172.13 800,1172.58 800,1173.13L800,1602.48C800,1603.03 799.552,1603.48 799,1603.48L784,1603.48C783.449,1603.48 783,1603.03 783,1602.48L783,1173.13C783,1172.58 783.449,1172.13 784,1172.13L799,1172.13Z" style="fill:rgb(225,225,225);fill-rule:nonzero;"/>
        </g>
        <g transform="matrix(4.16667,0,0,4.16667,0,0)">
            <path d="M782.5,1188.19L782.5,1173.13C782.5,1172.3 783.173,1171.63 784,1171.63L799,1171.63C799.828,1171.63 800.5,1172.3 800.5,1173.13L800.5,1188.19L782.5,1188.19Z" style="fill:url(#_Linear1);"/>
        </g>
        <g transform="matrix(4.16667,0,0,4.16667,0,0)">
            <path d="M799,1171.13L784,1171.13C782.896,1171.13 782,1172.03 782,1173.13L782,1188.69L801,1188.69L801,1173.13C801,1172.03 800.105,1171.13 799,1171.13ZM799,1172.13C799.552,1172.13 800,1172.58 800,1173.13L800,1187.69L783,1187.69L783,1173.13C783,1172.58 783.449,1172.13 784,1172.13L799,1172.13Z" style="fill:rgb(217,217,217);fill-rule:nonzero;"/>
        </g>
        <g transform="matrix(4.16667,0,0,4.16667,0,0)">
            <path d="M795.002,1181.92L791.514,1177.91L787.998,1181.92L795.002,1181.92Z" style="fill:rgb(159,159,159);fill-rule:nonzero;"/>
        </g>
        <g transform="matrix(4.16667,0,0,4.16667,0,0)">
            <path d="M784,1603.98C783.173,1603.98 782.5,1603.31 782.5,1602.48L782.5,1587.42L800.5,1587.42L800.5,1602.48C800.5,1603.31 799.828,1603.98 799,1603.98L784,1603.98Z" style="fill:url(#_Linear2);"/>
        </g>
        <g transform="matrix(4.16667,0,0,4.16667,0,0)">
            <path d="M801,1586.92L782,1586.92L782,1602.48C782,1603.59 782.896,1604.48 784,1604.48L799,1604.48C800.105,1604.48 801,1603.59 801,1602.48L801,1586.92ZM800,1587.92L800,1602.48C800,1603.03 799.552,1603.48 799,1603.48L784,1603.48C783.449,1603.48 783,1603.03 783,1602.48L783,1587.92L800,1587.92Z" style="fill:rgb(217,217,217);fill-rule:nonzero;"/>
        </g>
        <g transform="matrix(4.16667,0,0,4.16667,0,0)">
            <path d="M787.999,1593.69L791.487,1597.71L795.003,1593.69L787.999,1593.69Z" style="fill:rgb(159,159,159);fill-rule:nonzero;"/>
        </g>
        <g transform="matrix(4.16667,0,0,4.16667,0,0)">
            <path d="M784,1444.63C783.173,1444.63 782.5,1443.96 782.5,1443.13L782.5,1307.29C782.5,1306.46 783.173,1305.79 784,1305.79L799,1305.79C799.828,1305.79 800.5,1306.46 800.5,1307.29L800.5,1443.13C800.5,1443.96 799.828,1444.63 799,1444.63L784,1444.63Z" style="fill:rgb(203,203,203);fill-rule:nonzero;"/>
        </g>
        <g transform="matrix(4.16667,0,0,4.16667,0,0)">
            <path d="M799,1305.29L784,1305.29C782.896,1305.29 782,1306.18 782,1307.29L782,1443.13C782,1444.24 782.896,1445.13 784,1445.13L799,1445.13C800.105,1445.13 801,1444.24 801,1443.13L801,1307.29C801,1306.18 800.105,1305.29 799,1305.29ZM799,1306.29C799.552,1306.29 800,1306.74 800,1307.29L800,1443.13C800,1443.68 799.552,1444.13 799,1444.13L784,1444.13C783.449,1444.13 783,1443.68 783,1443.13L783,1307.29C783,1306.74 783.449,1306.29 784,1306.29L799,1306.29Z" style="fill:rgb(183,183,184);fill-rule:nonzero;"/>
        </g>
        <g transform="matrix(4.16667,0,0,4.16667,0,0)">
            <path d="M786.87,1368.63L796.13,1368.63C796.406,1368.63 796.63,1368.4 796.63,1368.13C796.63,1367.85 796.406,1367.63 796.13,1367.63L786.87,1367.63C786.593,1367.63 786.37,1367.85 786.37,1368.13C786.37,1368.4 786.593,1368.63 786.87,1368.63Z" style="fill:rgb(183,183,184);fill-rule:nonzero;"/>
        </g>
        <g transform="matrix(4.16667,0,0,4.16667,0,0)">
            <path d="M786.87,1372.17L796.13,1372.17C796.406,1372.17 796.63,1371.94 796.63,1371.67C796.63,1371.39 796.406,1371.17 796.13,1371.17L786.87,1371.17C786.593,1371.17 786.37,1371.39 786.37,1371.67C786.37,1371.94 786.593,1372.17 786.87,1372.17Z" style="fill:rgb(183,183,184);fill-rule:nonzero;"/>
        </g>
        <g transform="matrix(4.16667,0,0,4.16667,0,0)">
            <path d="M786.87,1375.71L796.13,1375.71C796.406,1375.71 796.63,1375.48 796.63,1375.21C796.63,1374.93 796.406,1374.71 796.13,1374.71L786.87,1374.71C786.593,1374.71 786.37,1374.93 786.37,1375.21C786.37,1375.48 786.593,1375.71 786.87,1375.71Z" style="fill:rgb(183,183,184);fill-rule:nonzero;"/>
        </g>
    </g>
    <defs>
        <linearGradient id="_Linear1" x1="0" y1="0" x2="1" y2="0" gradientUnits="userSpaceOnUse" gradientTransform="matrix(-6.87544e-07,15.7292,-15.7292,-6.87544e-07,791.5,1171.72)"><stop offset="0%" style="stop-color:rgb(246,248,249);stop-opacity:1"/><stop offset="100%" style="stop-color:rgb(243,243,244);stop-opacity:1"/></linearGradient>
        <linearGradient id="_Linear2" x1="0" y1="0" x2="1" y2="0" gradientUnits="userSpaceOnUse" gradientTransform="matrix(-6.87544e-07,15.7292,-15.7292,-6.87544e-07,791.5,1587.51)"><stop offset="0%" style="stop-color:rgb(246,248,249);stop-opacity:1"/><stop offset="100%" style="stop-color:rgb(243,243,244);stop-opacity:1"/></linearGradient>
    </defs>
</svg>
