<?xml version="1.0" standalone="no"?>
<!DOCTYPE svg PUBLIC "-//W3C//DTD SVG 1.1//EN" "http://www.w3.org/Graphics/SVG/1.1/DTD/svg11.dtd">
<svg width="100%" height="100%" viewBox="0 0 1584 162" version="1.1" xmlns="http://www.w3.org/2000/svg" xmlns:xlink="http://www.w3.org/1999/xlink" xml:space="preserve" style="fill-rule:evenodd;clip-rule:evenodd;stroke-linejoin:round;stroke-miterlimit:1.41421;">
    <g transform="matrix(1.33333,0,0,1.33333,-2151.55,-6204.06)">
        <g transform="matrix(4.16667,0,0,4.16667,0,0)">
            <path d="M388.279,1145.23C388.003,1145.23 387.779,1145.01 387.779,1144.73L387.779,1117.73C387.779,1117.46 388.003,1117.23 388.279,1117.23L671.219,1117.23C671.495,1117.23 671.719,1117.46 671.719,1117.73L671.719,1144.73C671.719,1145.01 671.495,1145.23 671.219,1145.23L388.279,1145.23Z" style="fill:url(#_Linear1);"/>
        </g>
        <g transform="matrix(4.16667,0,0,4.16667,0,0)">
            <path d="M671.219,1116.73L388.279,1116.73C387.727,1116.73 387.279,1117.18 387.279,1117.73L387.279,1144.73C387.279,1145.29 387.727,1145.73 388.279,1145.73L671.219,1145.73C671.772,1145.73 672.219,1145.29 672.219,1144.73L672.219,1117.73C672.219,1117.18 671.772,1116.73 671.219,1116.73ZM671.219,1117.73L671.219,1144.73L388.279,1144.73L388.279,1117.73L671.219,1117.73Z" style="fill:rgb(217,217,217);fill-rule:nonzero;"/>
        </g>
        <g transform="matrix(4.16667,0,0,4.16667,0,0)">
            <path d="M400.686,1135.22C401.31,1135.64 402.102,1135.85 403.074,1135.85C403.71,1135.85 404.286,1135.75 404.79,1135.53C405.282,1135.31 405.678,1135.01 405.966,1134.62C406.242,1134.23 406.386,1133.8 406.386,1133.33C406.386,1132.96 406.302,1132.63 406.134,1132.33C405.966,1132.04 405.726,1131.79 405.414,1131.58C405.186,1131.43 404.754,1131.21 404.142,1130.93C403.386,1130.6 402.906,1130.37 402.702,1130.26C402.414,1130.09 402.222,1129.94 402.114,1129.77C402.006,1129.6 401.946,1129.41 401.946,1129.21C401.946,1128.85 402.078,1128.56 402.342,1128.34C402.69,1128.07 403.17,1127.92 403.794,1127.92C404.154,1127.92 404.466,1127.97 404.754,1128.07C405.042,1128.17 405.27,1128.31 405.426,1128.46C405.594,1128.63 405.714,1128.83 405.798,1129.07C405.834,1129.21 405.858,1129.4 405.858,1129.64L406.974,1129.55C406.974,1129.47 406.974,1129.41 406.974,1129.37C406.974,1129.03 406.866,1128.65 406.65,1128.26C406.434,1127.87 406.086,1127.56 405.606,1127.32C405.126,1127.09 404.538,1126.97 403.83,1126.97C403.254,1126.97 402.726,1127.07 402.258,1127.25C401.79,1127.44 401.43,1127.72 401.19,1128.07C400.95,1128.43 400.83,1128.82 400.83,1129.27C400.83,1129.65 400.926,1129.99 401.106,1130.29C401.286,1130.59 401.574,1130.86 401.958,1131.11C402.21,1131.27 402.666,1131.5 403.338,1131.79C404.214,1132.16 404.742,1132.46 404.934,1132.67C405.126,1132.9 405.222,1133.15 405.222,1133.42C405.222,1133.8 405.042,1134.15 404.682,1134.45C404.322,1134.75 403.794,1134.91 403.11,1134.91C402.63,1134.91 402.21,1134.83 401.862,1134.68C401.514,1134.53 401.262,1134.32 401.106,1134.04C400.95,1133.77 400.878,1133.47 400.878,1133.13L400.89,1132.83L399.762,1132.94C399.762,1134.04 400.074,1134.8 400.686,1135.22Z" style="fill:rgb(159,159,159);fill-rule:nonzero;"/>
        </g>
        <g transform="matrix(4.16667,0,0,4.16667,0,0)">
            <path d="M411.09,1134.62C410.73,1134.86 410.37,1134.98 410.01,1134.98C409.614,1134.98 409.29,1134.82 409.026,1134.52C408.75,1134.21 408.618,1133.77 408.618,1133.18C408.618,1133.08 408.63,1132.97 408.642,1132.85L413.238,1132.85C413.298,1132.53 413.322,1132.22 413.322,1131.92C413.322,1131.13 413.094,1130.5 412.65,1130.03C412.206,1129.58 411.618,1129.35 410.874,1129.35C410.286,1129.35 409.746,1129.51 409.242,1129.82C408.75,1130.13 408.342,1130.6 408.018,1131.23C407.706,1131.87 407.55,1132.53 407.55,1133.21C407.55,1133.73 407.646,1134.19 407.85,1134.59C408.054,1135 408.342,1135.31 408.738,1135.52C409.122,1135.73 409.542,1135.84 410.01,1135.84C410.742,1135.84 411.378,1135.61 411.918,1135.15C412.446,1134.69 412.794,1134.21 412.938,1133.69L411.906,1133.6C411.714,1134.04 411.438,1134.39 411.09,1134.62ZM409.65,1130.63C410.022,1130.32 410.442,1130.17 410.898,1130.17C411.318,1130.17 411.654,1130.31 411.93,1130.59C412.194,1130.87 412.326,1131.27 412.326,1131.81C412.326,1131.85 412.326,1131.93 412.326,1132.04L408.81,1132.04C409.002,1131.41 409.278,1130.95 409.65,1130.63Z" style="fill:rgb(159,159,159);fill-rule:nonzero;"/>
        </g>
        <g transform="matrix(4.16667,0,0,4.16667,0,0)">
            <path d="M418.314,1135.71L419.394,1135.71C419.31,1135.34 419.262,1135.06 419.262,1134.87C419.262,1134.56 419.322,1134.16 419.43,1133.67L419.766,1132.12C419.862,1131.68 419.91,1131.29 419.91,1130.97C419.91,1130.53 419.742,1130.18 419.394,1129.9C418.95,1129.53 418.338,1129.35 417.57,1129.35C416.85,1129.35 416.25,1129.52 415.782,1129.84C415.302,1130.17 414.954,1130.65 414.738,1131.26L415.806,1131.35C415.938,1130.99 416.142,1130.71 416.43,1130.51C416.706,1130.31 417.078,1130.21 417.522,1130.21C418.002,1130.21 418.362,1130.31 418.602,1130.5C418.782,1130.65 418.878,1130.84 418.878,1131.09C418.878,1131.28 418.842,1131.52 418.758,1131.81C418.458,1131.92 417.978,1131.99 417.318,1132.01C416.646,1132.05 416.19,1132.09 415.95,1132.13C415.578,1132.19 415.254,1132.31 414.99,1132.48C414.726,1132.64 414.522,1132.85 414.366,1133.12C414.21,1133.38 414.126,1133.69 414.126,1134.04C414.126,1134.57 414.306,1135 414.654,1135.34C415.002,1135.67 415.47,1135.84 416.046,1135.84C416.43,1135.84 416.79,1135.77 417.138,1135.63C417.474,1135.48 417.822,1135.25 418.194,1134.94C418.218,1135.25 418.254,1135.51 418.314,1135.71ZM418.146,1133.97C417.966,1134.31 417.702,1134.56 417.378,1134.75C417.054,1134.93 416.718,1135.03 416.37,1135.03C415.986,1135.03 415.698,1134.93 415.494,1134.74C415.29,1134.55 415.182,1134.31 415.182,1134.01C415.182,1133.79 415.242,1133.59 415.374,1133.39C415.506,1133.21 415.698,1133.08 415.95,1133C416.202,1132.91 416.634,1132.84 417.258,1132.79C417.654,1132.76 417.942,1132.72 418.11,1132.69C418.278,1132.66 418.446,1132.61 418.59,1132.55C418.482,1133.17 418.338,1133.63 418.146,1133.97Z" style="fill:rgb(159,159,159);fill-rule:nonzero;"/>
        </g>
        <g transform="matrix(4.16667,0,0,4.16667,0,0)">
            <path d="M421.686,1135.71L422.202,1133.21C422.43,1132.13 422.742,1131.39 423.138,1130.98C423.522,1130.56 423.906,1130.36 424.278,1130.36C424.494,1130.36 424.698,1130.43 424.878,1130.56L425.322,1129.58C425.01,1129.42 424.746,1129.35 424.542,1129.35C424.218,1129.35 423.906,1129.47 423.594,1129.7C423.294,1129.93 422.97,1130.27 422.658,1130.75L422.922,1129.48L421.974,1129.48L420.678,1135.71L421.686,1135.71Z" style="fill:rgb(159,159,159);fill-rule:nonzero;"/>
        </g>
        <g transform="matrix(4.16667,0,0,4.16667,0,0)">
            <path d="M428.214,1134.63C427.902,1134.89 427.566,1135.03 427.23,1135.03C426.882,1135.03 426.594,1134.89 426.354,1134.63C426.126,1134.37 426.006,1133.97 426.006,1133.43C426.006,1132.93 426.09,1132.4 426.27,1131.86C426.45,1131.31 426.702,1130.9 427.014,1130.63C427.326,1130.36 427.698,1130.23 428.118,1130.23C428.49,1130.23 428.79,1130.33 429.006,1130.56C429.234,1130.78 429.354,1131.09 429.354,1131.49L430.398,1131.41C430.398,1130.79 430.206,1130.3 429.81,1129.91C429.426,1129.54 428.886,1129.35 428.226,1129.35C427.578,1129.35 427.002,1129.52 426.498,1129.87C425.994,1130.2 425.61,1130.71 425.346,1131.35C425.07,1132.01 424.938,1132.67 424.938,1133.36C424.938,1134.14 425.154,1134.75 425.574,1135.18C425.994,1135.63 426.534,1135.84 427.218,1135.84C427.842,1135.84 428.394,1135.65 428.886,1135.28C429.378,1134.91 429.762,1134.33 430.026,1133.55L428.958,1133.44C428.778,1133.97 428.526,1134.38 428.214,1134.63Z" style="fill:rgb(159,159,159);fill-rule:nonzero;"/>
        </g>
        <g transform="matrix(4.16667,0,0,4.16667,0,0)">
            <path d="M431.73,1135.71L432.282,1133.03C432.45,1132.27 432.63,1131.7 432.822,1131.35C433.014,1131.01 433.278,1130.73 433.614,1130.53C433.962,1130.32 434.322,1130.23 434.694,1130.23C434.958,1130.23 435.15,1130.29 435.294,1130.42C435.426,1130.55 435.498,1130.72 435.498,1130.92C435.498,1131.05 435.438,1131.4 435.318,1131.94L434.49,1135.71L435.546,1135.71L436.362,1132.04C436.494,1131.45 436.554,1131.05 436.554,1130.84C436.554,1130.38 436.422,1130.03 436.134,1129.76C435.858,1129.48 435.462,1129.35 434.958,1129.35C434.598,1129.35 434.25,1129.43 433.926,1129.6C433.59,1129.77 433.23,1130.03 432.834,1130.42L433.53,1127.12L432.474,1127.12L430.674,1135.71L431.73,1135.71Z" style="fill:rgb(159,159,159);fill-rule:nonzero;"/>
        </g>
        <g transform="matrix(4.16667,0,0,4.16667,0,0)">
            <path d="M438.834,1135.71L439.086,1134.51L437.886,1134.51L437.634,1135.71L438.834,1135.71Z" style="fill:rgb(159,159,159);fill-rule:nonzero;"/>
        </g>
        <g transform="matrix(4.16667,0,0,4.16667,0,0)">
            <path d="M442.17,1135.71L442.422,1134.51L441.222,1134.51L440.97,1135.71L442.17,1135.71Z" style="fill:rgb(159,159,159);fill-rule:nonzero;"/>
        </g>
        <g transform="matrix(4.16667,0,0,4.16667,0,0)">
            <path d="M445.506,1135.71L445.758,1134.51L444.558,1134.51L444.306,1135.71L445.506,1135.71Z" style="fill:rgb(159,159,159);fill-rule:nonzero;"/>
        </g>
        <g transform="matrix(4.16667,0,0,4.16667,0,0)">
            <path d="M653.152,1124.72C650.636,1124.72 648.589,1126.77 648.589,1129.28C648.589,1131.8 650.636,1133.84 653.152,1133.84C655.667,1133.84 657.714,1131.8 657.714,1129.28C657.714,1126.77 655.667,1124.72 653.152,1124.72ZM653.152,1126.22C654.843,1126.22 656.214,1127.59 656.214,1129.28C656.214,1130.97 654.843,1132.34 653.152,1132.34C651.46,1132.34 650.089,1130.97 650.089,1129.28C650.089,1127.59 651.46,1126.22 653.152,1126.22Z" style="fill:rgb(159,159,159);fill-rule:nonzero;"/>
        </g>
        <g transform="matrix(4.16667,0,0,4.16667,0,0)">
            <path d="M660.246,1137.75C659.925,1137.75 659.606,1137.63 659.362,1137.38L657.143,1135.16C656.655,1134.68 656.655,1133.89 657.143,1133.4C657.631,1132.91 658.422,1132.91 658.911,1133.4L661.129,1135.62C661.618,1136.1 661.618,1136.9 661.129,1137.38C660.885,1137.63 660.566,1137.75 660.246,1137.75Z" style="fill:rgb(159,159,159);fill-rule:nonzero;"/>
        </g>
        <g transform="matrix(4.16667,0,0,4.16667,0,0)">
            <path d="M656.84,1134.16L655.622,1132.94L656.682,1131.88L657.901,1133.09L656.84,1134.16Z" style="fill:rgb(159,159,159);fill-rule:nonzero;"/>
        </g>
        <g transform="matrix(4.16667,0,0,4.16667,0,0)">
            <path d="M629.792,1131.01L633.28,1135.02L636.796,1131.01L629.792,1131.01Z" style="fill:rgb(159,159,159);fill-rule:nonzero;"/>
        </g>
    </g>
    <defs>
        <linearGradient id="_Linear1" x1="0" y1="0" x2="1" y2="0" gradientUnits="userSpaceOnUse" gradientTransform="matrix(-1.1559e-06,-26.444,26.444,-1.1559e-06,529.749,1144.51)"><stop offset="0%" style="stop-color:white;stop-opacity:1"/><stop offset="100%" style="stop-color:rgb(243,243,244);stop-opacity:1"/></linearGradient>
    </defs>
</svg>
