<?xml version="1.0" standalone="no"?>
<!DOCTYPE svg PUBLIC "-//W3C//DTD SVG 1.1//EN" "http://www.w3.org/Graphics/SVG/1.1/DTD/svg11.dtd">
<svg width="100%" height="100%" viewBox="0 0 1698 267" version="1.1" xmlns="http://www.w3.org/2000/svg" xmlns:xlink="http://www.w3.org/1999/xlink" xml:space="preserve" style="fill-rule:evenodd;clip-rule:evenodd;stroke-linejoin:round;stroke-miterlimit:1.41421;">
    <g transform="matrix(1.33333,0,0,1.33333,-1107.99,-10720.8)">
        <g transform="matrix(4.16667,0,0,4.16667,0,0)">
            <path d="M202.438,1977.24C201.06,1977.24 199.938,1976.12 199.938,1974.74L199.938,1932.74C199.938,1931.36 201.06,1930.24 202.438,1930.24L502.039,1930.24C503.417,1930.24 504.539,1931.36 504.539,1932.74L504.539,1974.74C504.539,1976.12 503.417,1977.24 502.039,1977.24L202.438,1977.24Z" style="fill:url(#_Linear1);"/>
        </g>
        <g transform="matrix(4.16667,0,0,4.16667,0,0)">
            <path d="M502.039,1929.74L202.438,1929.74C200.784,1929.74 199.438,1931.08 199.438,1932.74L199.438,1974.74C199.438,1976.39 200.784,1977.74 202.438,1977.74L502.039,1977.74C503.693,1977.74 505.039,1976.39 505.039,1974.74L505.039,1932.74C505.039,1931.08 503.693,1929.74 502.039,1929.74ZM502.039,1930.74C503.143,1930.74 504.039,1931.63 504.039,1932.74L504.039,1974.74C504.039,1975.84 503.143,1976.74 502.039,1976.74L202.438,1976.74C201.334,1976.74 200.438,1975.84 200.438,1974.74L200.438,1932.74C200.438,1931.63 201.334,1930.74 202.438,1930.74L502.039,1930.74Z" style="fill:rgb(217,217,217);fill-rule:nonzero;"/>
        </g>
        <g transform="matrix(4.16667,0,0,4.16667,0,0)">
            <path d="M294.525,1977.29L307.654,1952.37L294.525,1930.33L395.71,1930.34L408.44,1952.37L395.721,1977.29L294.525,1977.29Z" style="fill:url(#_Linear2);"/>
        </g>
        <g transform="matrix(4.16667,0,0,4.16667,0,0)">
            <path d="M224.175,1951.94C224.943,1952.61 226.063,1952.95 227.503,1952.95C228.511,1952.95 229.327,1952.8 229.999,1952.53C230.671,1952.24 231.183,1951.83 231.551,1951.25C231.919,1950.68 232.095,1950.07 232.095,1949.41C232.095,1948.68 231.951,1948.07 231.647,1947.59C231.343,1947.09 230.911,1946.71 230.383,1946.42C229.839,1946.13 229.007,1945.86 227.887,1945.59C226.767,1945.33 226.063,1945.08 225.759,1944.82C225.535,1944.63 225.423,1944.4 225.423,1944.13C225.423,1943.83 225.551,1943.59 225.791,1943.41C226.159,1943.14 226.687,1943 227.359,1943C227.999,1943 228.479,1943.12 228.815,1943.38C229.135,1943.64 229.343,1944.07 229.439,1944.66L231.759,1944.58C231.727,1943.52 231.343,1942.66 230.623,1942.04C229.887,1941.4 228.815,1941.08 227.375,1941.08C226.511,1941.08 225.759,1941.2 225.135,1941.48C224.511,1941.75 224.047,1942.13 223.711,1942.64C223.375,1943.16 223.215,1943.7 223.215,1944.28C223.215,1945.19 223.567,1945.96 224.271,1946.6C224.767,1947.04 225.631,1947.43 226.863,1947.73C227.823,1947.97 228.447,1948.13 228.703,1948.23C229.103,1948.37 229.375,1948.53 229.535,1948.72C229.695,1948.92 229.775,1949.16 229.775,1949.41C229.775,1949.84 229.583,1950.21 229.215,1950.52C228.831,1950.84 228.271,1951 227.535,1951C226.831,1951 226.271,1950.82 225.855,1950.47C225.455,1950.12 225.167,1949.56 225.039,1948.8L222.783,1949.03C222.927,1950.31 223.391,1951.28 224.175,1951.94Z" style="fill:rgb(110,110,111);fill-rule:nonzero;"/>
        </g>
        <g transform="matrix(4.16667,0,0,4.16667,0,0)">
            <path d="M236.335,1944.44L236.335,1941.49L234.143,1942.79L234.143,1944.44L233.135,1944.44L233.135,1946.18L234.143,1946.18L234.143,1949.81C234.143,1950.6 234.159,1951.11 234.207,1951.36C234.271,1951.73 234.367,1952.02 234.527,1952.23C234.671,1952.44 234.895,1952.61 235.215,1952.74C235.535,1952.88 235.887,1952.95 236.287,1952.95C236.927,1952.95 237.503,1952.84 238.015,1952.61L237.839,1950.92C237.439,1951.06 237.151,1951.12 236.943,1951.12C236.799,1951.12 236.671,1951.09 236.575,1951.01C236.479,1950.95 236.399,1950.85 236.383,1950.74C236.351,1950.63 236.335,1950.23 236.335,1949.54L236.335,1946.18L237.839,1946.18L237.839,1944.44L236.335,1944.44Z" style="fill:rgb(110,110,111);fill-rule:nonzero;"/>
        </g>
        <g transform="matrix(4.16667,0,0,4.16667,0,0)">
            <path d="M243.647,1951.01C243.407,1951.2 243.119,1951.3 242.783,1951.3C242.271,1951.3 241.855,1951.12 241.519,1950.76C241.183,1950.39 241.007,1949.89 240.991,1949.24L246.479,1949.24C246.511,1947.56 246.175,1946.31 245.455,1945.49C244.751,1944.68 243.775,1944.26 242.543,1944.26C241.439,1944.26 240.527,1944.64 239.807,1945.43C239.087,1946.21 238.735,1947.28 238.735,1948.66C238.735,1949.81 239.007,1950.77 239.551,1951.52C240.255,1952.47 241.311,1952.95 242.751,1952.95C243.663,1952.95 244.431,1952.74 245.039,1952.32C245.647,1951.89 246.079,1951.28 246.367,1950.48L244.175,1950.12C244.063,1950.53 243.887,1950.84 243.647,1951.01ZM241.023,1947.89C241.023,1947.28 241.183,1946.82 241.487,1946.47C241.807,1946.12 242.191,1945.94 242.671,1945.94C243.119,1945.94 243.503,1946.1 243.807,1946.44C244.127,1946.77 244.287,1947.25 244.303,1947.89L241.023,1947.89Z" style="fill:rgb(110,110,111);fill-rule:nonzero;"/>
        </g>
        <g transform="matrix(4.16667,0,0,4.16667,0,0)">
            <path d="M248.207,1955.89L250.399,1955.89L250.399,1951.73C250.815,1952.18 251.199,1952.5 251.583,1952.68C251.951,1952.85 252.367,1952.95 252.831,1952.95C253.791,1952.95 254.607,1952.56 255.279,1951.8C255.967,1951.03 256.303,1949.94 256.303,1948.56C256.303,1947.2 255.967,1946.15 255.295,1945.4C254.623,1944.64 253.807,1944.26 252.847,1944.26C252.287,1944.26 251.791,1944.39 251.327,1944.64C250.879,1944.9 250.527,1945.24 250.255,1945.65L250.255,1944.44L248.207,1944.44L248.207,1955.89ZM250.895,1946.61C251.247,1946.2 251.695,1945.99 252.223,1945.99C252.751,1945.99 253.183,1946.2 253.519,1946.63C253.871,1947.04 254.047,1947.7 254.047,1948.56C254.047,1949.51 253.871,1950.18 253.535,1950.6C253.199,1951 252.783,1951.2 252.271,1951.2C251.743,1951.2 251.295,1950.98 250.927,1950.53C250.559,1950.08 250.367,1949.4 250.367,1948.45C250.367,1947.64 250.543,1947.03 250.895,1946.61Z" style="fill:rgb(110,110,111);fill-rule:nonzero;"/>
        </g>
        <g transform="matrix(4.16667,0,0,4.16667,0,0)">
            <path d="M263.135,1942.39C262.383,1943.35 262.015,1944.9 262.015,1947.06C262.015,1949.27 262.351,1950.8 263.039,1951.65C263.727,1952.52 264.623,1952.95 265.743,1952.95C266.847,1952.95 267.711,1952.56 268.335,1951.78C269.087,1950.82 269.455,1949.27 269.455,1947.09C269.455,1944.92 269.087,1943.35 268.335,1942.4C267.711,1941.62 266.847,1941.22 265.743,1941.22C264.623,1941.22 263.759,1941.6 263.135,1942.39ZM266.431,1943.3C266.639,1943.48 266.799,1943.81 266.943,1944.31C267.071,1944.82 267.135,1945.73 267.135,1947.09C267.135,1948.44 267.055,1949.4 266.911,1949.96C266.799,1950.39 266.639,1950.69 266.431,1950.87C266.223,1951.04 265.999,1951.12 265.743,1951.12C265.471,1951.12 265.247,1951.04 265.039,1950.87C264.831,1950.71 264.671,1950.37 264.543,1949.86C264.399,1949.36 264.335,1948.44 264.335,1947.09C264.335,1945.73 264.415,1944.79 264.559,1944.21C264.671,1943.78 264.831,1943.48 265.039,1943.3C265.247,1943.12 265.471,1943.04 265.743,1943.04C265.999,1943.04 266.223,1943.12 266.431,1943.3Z" style="fill:rgb(110,110,111);fill-rule:nonzero;"/>
        </g>
        <g transform="matrix(4.16667,0,0,4.16667,0,0)">
            <path d="M276.527,1941.22L274.751,1941.22C274.495,1941.92 274.031,1942.53 273.375,1943.04C272.703,1943.57 272.079,1943.92 271.503,1944.12L271.503,1946.12C272.591,1945.75 273.535,1945.2 274.335,1944.45L274.335,1952.74L276.527,1952.74L276.527,1941.22Z" style="fill:rgb(110,110,111);fill-rule:nonzero;"/>
        </g>
        <g transform="matrix(4.16667,0,0,4.16667,0,0)">
            <path d="M225.493,1965.66L226.823,1959.31L229.153,1959.31L229.323,1958.5L223.643,1958.5L223.473,1959.31L225.873,1959.31L224.543,1965.66L225.493,1965.66Z" style="fill:rgb(110,110,111);fill-rule:nonzero;"/>
        </g>
        <g transform="matrix(4.16667,0,0,4.16667,0,0)">
            <path d="M230.883,1964.75C230.583,1964.95 230.283,1965.05 229.983,1965.05C229.653,1965.05 229.383,1964.92 229.163,1964.67C228.933,1964.41 228.823,1964.04 228.823,1963.55C228.823,1963.47 228.833,1963.38 228.843,1963.28L232.673,1963.28C232.723,1963.01 232.743,1962.75 232.743,1962.5C232.743,1961.84 232.553,1961.32 232.183,1960.93C231.813,1960.55 231.323,1960.36 230.703,1960.36C230.213,1960.36 229.763,1960.49 229.343,1960.75C228.933,1961.01 228.593,1961.4 228.323,1961.93C228.063,1962.46 227.933,1963.01 227.933,1963.58C227.933,1964.01 228.013,1964.39 228.183,1964.73C228.353,1965.07 228.593,1965.33 228.923,1965.5C229.243,1965.68 229.593,1965.77 229.983,1965.77C230.593,1965.77 231.123,1965.58 231.573,1965.19C232.013,1964.81 232.303,1964.41 232.423,1963.98L231.563,1963.9C231.403,1964.27 231.173,1964.56 230.883,1964.75ZM229.683,1961.43C229.993,1961.17 230.343,1961.04 230.723,1961.04C231.073,1961.04 231.353,1961.16 231.583,1961.39C231.803,1961.63 231.913,1961.96 231.913,1962.41C231.913,1962.44 231.913,1962.51 231.913,1962.6L228.983,1962.6C229.143,1962.08 229.373,1961.69 229.683,1961.43Z" style="fill:rgb(110,110,111);fill-rule:nonzero;"/>
        </g>
        <g transform="matrix(4.16667,0,0,4.16667,0,0)">
            <path d="M234.074,1965.66L235.624,1963.78C235.764,1964.11 235.884,1964.38 235.994,1964.6L236.524,1965.66L237.504,1965.66L236.194,1963.09L238.354,1960.47L237.274,1960.47L235.784,1962.37C235.664,1962.06 235.514,1961.73 235.354,1961.39L234.904,1960.47L233.924,1960.47L235.214,1963.03L232.964,1965.66L234.074,1965.66Z" style="fill:rgb(110,110,111);fill-rule:nonzero;"/>
        </g>
        <g transform="matrix(4.16667,0,0,4.16667,0,0)">
            <path d="M239.844,1965C239.714,1965 239.614,1964.97 239.554,1964.92C239.494,1964.86 239.464,1964.78 239.464,1964.68C239.464,1964.61 239.504,1964.39 239.574,1964.02L240.174,1961.15L241.034,1961.15L241.184,1960.47L240.314,1960.47L240.714,1958.59L239.704,1959.2L239.434,1960.47L238.734,1960.47L238.594,1961.15L239.294,1961.15L238.664,1964.17C238.584,1964.58 238.534,1964.84 238.534,1964.96C238.534,1965.18 238.614,1965.36 238.774,1965.49C238.974,1965.66 239.254,1965.75 239.604,1965.75C239.804,1965.75 240.014,1965.72 240.224,1965.67L240.374,1964.94C240.214,1964.98 240.044,1965 239.844,1965Z" style="fill:rgb(110,110,111);fill-rule:nonzero;"/>
        </g>
        <g transform="matrix(4.16667,0,0,4.16667,0,0)">
            <path d="M247.001,1964.75C246.701,1964.95 246.401,1965.05 246.101,1965.05C245.771,1965.05 245.501,1964.92 245.281,1964.67C245.051,1964.41 244.941,1964.04 244.941,1963.55C244.941,1963.47 244.951,1963.38 244.961,1963.28L248.791,1963.28C248.841,1963.01 248.861,1962.75 248.861,1962.5C248.861,1961.84 248.671,1961.32 248.301,1960.93C247.931,1960.55 247.441,1960.36 246.821,1960.36C246.331,1960.36 245.881,1960.49 245.461,1960.75C245.051,1961.01 244.711,1961.4 244.441,1961.93C244.181,1962.46 244.051,1963.01 244.051,1963.58C244.051,1964.01 244.131,1964.39 244.301,1964.73C244.471,1965.07 244.711,1965.33 245.041,1965.5C245.361,1965.68 245.711,1965.77 246.101,1965.77C246.711,1965.77 247.241,1965.58 247.691,1965.19C248.131,1964.81 248.421,1964.41 248.541,1963.98L247.681,1963.9C247.521,1964.27 247.291,1964.56 247.001,1964.75ZM245.801,1961.43C246.111,1961.17 246.461,1961.04 246.841,1961.04C247.191,1961.04 247.471,1961.16 247.701,1961.39C247.921,1961.63 248.031,1961.96 248.031,1962.41C248.031,1962.44 248.031,1962.51 248.031,1962.6L245.101,1962.6C245.261,1962.08 245.491,1961.69 245.801,1961.43Z" style="fill:rgb(110,110,111);fill-rule:nonzero;"/>
        </g>
        <g transform="matrix(4.16667,0,0,4.16667,0,0)">
            <path d="M250.193,1965.66L251.743,1963.78C251.883,1964.11 252.003,1964.38 252.113,1964.6L252.643,1965.66L253.623,1965.66L252.313,1963.09L254.473,1960.47L253.393,1960.47L251.903,1962.37C251.783,1962.06 251.633,1961.73 251.473,1961.39L251.023,1960.47L250.043,1960.47L251.333,1963.03L249.083,1965.66L250.193,1965.66Z" style="fill:rgb(110,110,111);fill-rule:nonzero;"/>
        </g>
        <g transform="matrix(4.16667,0,0,4.16667,0,0)">
            <path d="M258.023,1965.66L258.923,1965.66C258.853,1965.35 258.813,1965.12 258.813,1964.96C258.813,1964.7 258.863,1964.37 258.953,1963.96L259.233,1962.67C259.313,1962.3 259.353,1961.98 259.353,1961.71C259.353,1961.34 259.213,1961.05 258.923,1960.82C258.553,1960.51 258.043,1960.36 257.403,1960.36C256.803,1960.36 256.303,1960.5 255.913,1960.77C255.513,1961.04 255.223,1961.44 255.043,1961.95L255.933,1962.03C256.043,1961.73 256.213,1961.49 256.453,1961.33C256.683,1961.16 256.993,1961.08 257.363,1961.08C257.763,1961.08 258.063,1961.16 258.263,1961.32C258.413,1961.44 258.493,1961.6 258.493,1961.81C258.493,1961.97 258.463,1962.17 258.393,1962.41C258.143,1962.5 257.743,1962.56 257.193,1962.58C256.633,1962.61 256.253,1962.64 256.053,1962.68C255.743,1962.73 255.473,1962.83 255.253,1962.97C255.033,1963.1 254.863,1963.28 254.733,1963.5C254.603,1963.72 254.533,1963.98 254.533,1964.27C254.533,1964.71 254.683,1965.07 254.973,1965.35C255.263,1965.63 255.653,1965.77 256.133,1965.77C256.453,1965.77 256.753,1965.71 257.043,1965.59C257.323,1965.47 257.613,1965.28 257.923,1965.02C257.943,1965.28 257.973,1965.49 258.023,1965.66ZM257.883,1964.21C257.733,1964.49 257.513,1964.7 257.243,1964.86C256.973,1965.01 256.693,1965.09 256.403,1965.09C256.083,1965.09 255.843,1965.01 255.673,1964.85C255.503,1964.69 255.413,1964.49 255.413,1964.24C255.413,1964.06 255.463,1963.89 255.573,1963.73C255.683,1963.58 255.843,1963.47 256.053,1963.4C256.263,1963.33 256.623,1963.27 257.143,1963.23C257.473,1963.2 257.713,1963.17 257.853,1963.14C257.993,1963.12 258.133,1963.08 258.253,1963.03C258.163,1963.54 258.043,1963.93 257.883,1964.21Z" style="fill:rgb(110,110,111);fill-rule:nonzero;"/>
        </g>
        <g transform="matrix(4.16667,0,0,4.16667,0,0)">
            <path d="M260.864,1965.66L261.374,1963.21C261.484,1962.68 261.624,1962.28 261.804,1961.99C261.974,1961.71 262.194,1961.49 262.474,1961.33C262.754,1961.17 263.014,1961.09 263.264,1961.09C263.434,1961.09 263.574,1961.14 263.674,1961.25C263.784,1961.35 263.834,1961.49 263.834,1961.66C263.834,1961.76 263.814,1961.93 263.754,1962.16L263.024,1965.66L263.904,1965.66L264.434,1963.14C264.544,1962.61 264.674,1962.21 264.834,1961.95C264.984,1961.7 265.194,1961.49 265.464,1961.33C265.744,1961.17 266.014,1961.09 266.274,1961.09C266.474,1961.09 266.624,1961.14 266.734,1961.24C266.844,1961.33 266.894,1961.47 266.894,1961.64C266.894,1961.76 266.864,1961.96 266.804,1962.24L266.084,1965.66L266.964,1965.66L267.674,1962.32C267.744,1961.95 267.784,1961.69 267.784,1961.53C267.784,1961.16 267.674,1960.87 267.464,1960.67C267.244,1960.46 266.924,1960.36 266.484,1960.36C266.164,1960.36 265.854,1960.44 265.564,1960.6C265.274,1960.76 264.994,1961.01 264.734,1961.33C264.664,1961.03 264.524,1960.79 264.304,1960.62C264.084,1960.45 263.814,1960.36 263.494,1960.36C263.194,1960.36 262.914,1960.43 262.654,1960.57C262.394,1960.71 262.094,1960.96 261.764,1961.33L261.944,1960.47L261.074,1960.47L259.984,1965.66L260.864,1965.66Z" style="fill:rgb(110,110,111);fill-rule:nonzero;"/>
        </g>
        <g transform="matrix(4.16667,0,0,4.16667,0,0)">
            <path d="M268.784,1967.65L269.374,1964.82C269.714,1965.45 270.194,1965.77 270.814,1965.77C271.104,1965.77 271.374,1965.71 271.644,1965.58C271.904,1965.45 272.174,1965.25 272.434,1964.99C272.694,1964.72 272.914,1964.36 273.094,1963.92C273.274,1963.47 273.364,1962.98 273.364,1962.44C273.364,1961.77 273.204,1961.26 272.874,1960.9C272.554,1960.54 272.134,1960.36 271.644,1960.36C271.374,1960.36 271.124,1960.42 270.884,1960.54C270.644,1960.66 270.374,1960.88 270.074,1961.2L270.224,1960.47L269.404,1960.47L267.904,1967.65L268.784,1967.65ZM269.804,1962.65C269.914,1962.31 270.054,1962.02 270.214,1961.78C270.384,1961.55 270.564,1961.37 270.754,1961.25C270.944,1961.13 271.154,1961.07 271.384,1961.07C271.694,1961.07 271.954,1961.19 272.164,1961.43C272.374,1961.67 272.484,1962.01 272.484,1962.45C272.484,1963.04 272.324,1963.62 272.014,1964.19C271.704,1964.76 271.284,1965.05 270.774,1965.05C270.534,1965.05 270.314,1964.99 270.134,1964.86C269.944,1964.73 269.814,1964.56 269.734,1964.35C269.674,1964.2 269.644,1963.93 269.644,1963.54C269.644,1963.29 269.704,1962.99 269.804,1962.65Z" style="fill:rgb(110,110,111);fill-rule:nonzero;"/>
        </g>
        <g transform="matrix(4.16667,0,0,4.16667,0,0)">
            <path d="M274.696,1965.66L276.196,1958.5L275.316,1958.5L273.826,1965.66L274.696,1965.66Z" style="fill:rgb(110,110,111);fill-rule:nonzero;"/>
        </g>
        <g transform="matrix(4.16667,0,0,4.16667,0,0)">
            <path d="M279.238,1964.75C278.938,1964.95 278.638,1965.05 278.338,1965.05C278.008,1965.05 277.738,1964.92 277.518,1964.67C277.288,1964.41 277.178,1964.04 277.178,1963.55C277.178,1963.47 277.188,1963.38 277.198,1963.28L281.028,1963.28C281.078,1963.01 281.098,1962.75 281.098,1962.5C281.098,1961.84 280.908,1961.32 280.538,1960.93C280.168,1960.55 279.678,1960.36 279.058,1960.36C278.568,1960.36 278.118,1960.49 277.698,1960.75C277.288,1961.01 276.948,1961.4 276.678,1961.93C276.418,1962.46 276.288,1963.01 276.288,1963.58C276.288,1964.01 276.368,1964.39 276.538,1964.73C276.708,1965.07 276.948,1965.33 277.278,1965.5C277.598,1965.68 277.948,1965.77 278.338,1965.77C278.948,1965.77 279.478,1965.58 279.928,1965.19C280.368,1964.81 280.658,1964.41 280.778,1963.98L279.918,1963.9C279.758,1964.27 279.528,1964.56 279.238,1964.75ZM278.038,1961.43C278.348,1961.17 278.698,1961.04 279.078,1961.04C279.428,1961.04 279.708,1961.16 279.938,1961.39C280.158,1961.63 280.268,1961.96 280.268,1962.41C280.268,1962.44 280.268,1962.51 280.268,1962.6L277.338,1962.6C277.498,1962.08 277.728,1961.69 278.038,1961.43Z" style="fill:rgb(110,110,111);fill-rule:nonzero;"/>
        </g>
        <g transform="matrix(4.16667,0,0,4.16667,0,0)">
            <path d="M325.341,1951.94C326.109,1952.61 327.229,1952.95 328.669,1952.95C329.677,1952.95 330.493,1952.8 331.165,1952.53C331.837,1952.24 332.349,1951.83 332.717,1951.25C333.085,1950.68 333.261,1950.07 333.261,1949.41C333.261,1948.68 333.117,1948.07 332.813,1947.59C332.509,1947.09 332.077,1946.71 331.549,1946.42C331.005,1946.13 330.173,1945.86 329.053,1945.59C327.933,1945.33 327.229,1945.08 326.925,1944.82C326.701,1944.63 326.589,1944.4 326.589,1944.13C326.589,1943.83 326.717,1943.59 326.957,1943.41C327.325,1943.14 327.853,1943 328.525,1943C329.165,1943 329.645,1943.12 329.981,1943.38C330.301,1943.64 330.509,1944.07 330.605,1944.66L332.925,1944.58C332.893,1943.52 332.509,1942.66 331.789,1942.04C331.053,1941.4 329.981,1941.08 328.541,1941.08C327.677,1941.08 326.925,1941.2 326.301,1941.48C325.677,1941.75 325.213,1942.13 324.877,1942.64C324.541,1943.16 324.381,1943.7 324.381,1944.28C324.381,1945.19 324.733,1945.96 325.437,1946.6C325.933,1947.04 326.797,1947.43 328.029,1947.73C328.989,1947.97 329.613,1948.13 329.869,1948.23C330.269,1948.37 330.541,1948.53 330.701,1948.72C330.861,1948.92 330.941,1949.16 330.941,1949.41C330.941,1949.84 330.749,1950.21 330.381,1950.52C329.997,1950.84 329.437,1951 328.701,1951C327.997,1951 327.437,1950.82 327.021,1950.47C326.621,1950.12 326.333,1949.56 326.205,1948.8L323.949,1949.03C324.093,1950.31 324.557,1951.28 325.341,1951.94Z" style="fill:rgb(110,110,111);fill-rule:nonzero;"/>
        </g>
        <g transform="matrix(4.16667,0,0,4.16667,0,0)">
            <path d="M337.501,1944.44L337.501,1941.49L335.309,1942.79L335.309,1944.44L334.301,1944.44L334.301,1946.18L335.309,1946.18L335.309,1949.81C335.309,1950.6 335.325,1951.11 335.373,1951.36C335.437,1951.73 335.533,1952.02 335.693,1952.23C335.837,1952.44 336.061,1952.61 336.381,1952.74C336.701,1952.88 337.053,1952.95 337.453,1952.95C338.093,1952.95 338.669,1952.84 339.181,1952.61L339.005,1950.92C338.605,1951.06 338.317,1951.12 338.109,1951.12C337.965,1951.12 337.837,1951.09 337.741,1951.01C337.645,1950.95 337.565,1950.85 337.549,1950.74C337.517,1950.63 337.501,1950.23 337.501,1949.54L337.501,1946.18L339.005,1946.18L339.005,1944.44L337.501,1944.44Z" style="fill:rgb(110,110,111);fill-rule:nonzero;"/>
        </g>
        <g transform="matrix(4.16667,0,0,4.16667,0,0)">
            <path d="M344.813,1951.01C344.573,1951.2 344.285,1951.3 343.949,1951.3C343.437,1951.3 343.021,1951.12 342.685,1950.76C342.349,1950.39 342.173,1949.89 342.157,1949.24L347.645,1949.24C347.677,1947.56 347.341,1946.31 346.621,1945.49C345.917,1944.68 344.941,1944.26 343.709,1944.26C342.605,1944.26 341.693,1944.64 340.973,1945.43C340.253,1946.21 339.901,1947.28 339.901,1948.66C339.901,1949.81 340.173,1950.77 340.717,1951.52C341.421,1952.47 342.477,1952.95 343.917,1952.95C344.829,1952.95 345.597,1952.74 346.205,1952.32C346.813,1951.89 347.245,1951.28 347.533,1950.48L345.341,1950.12C345.229,1950.53 345.053,1950.84 344.813,1951.01ZM342.189,1947.89C342.189,1947.28 342.349,1946.82 342.653,1946.47C342.973,1946.12 343.357,1945.94 343.837,1945.94C344.285,1945.94 344.669,1946.1 344.973,1946.44C345.293,1946.77 345.453,1947.25 345.469,1947.89L342.189,1947.89Z" style="fill:rgb(110,110,111);fill-rule:nonzero;"/>
        </g>
        <g transform="matrix(4.16667,0,0,4.16667,0,0)">
            <path d="M349.373,1955.89L351.565,1955.89L351.565,1951.73C351.981,1952.18 352.365,1952.5 352.749,1952.68C353.117,1952.85 353.533,1952.95 353.997,1952.95C354.957,1952.95 355.773,1952.56 356.445,1951.8C357.133,1951.03 357.469,1949.94 357.469,1948.56C357.469,1947.2 357.133,1946.15 356.461,1945.4C355.789,1944.64 354.973,1944.26 354.013,1944.26C353.453,1944.26 352.957,1944.39 352.493,1944.64C352.045,1944.9 351.693,1945.24 351.421,1945.65L351.421,1944.44L349.373,1944.44L349.373,1955.89ZM352.061,1946.61C352.413,1946.2 352.861,1945.99 353.389,1945.99C353.917,1945.99 354.349,1946.2 354.685,1946.63C355.037,1947.04 355.213,1947.7 355.213,1948.56C355.213,1949.51 355.037,1950.18 354.701,1950.6C354.365,1951 353.949,1951.2 353.437,1951.2C352.909,1951.2 352.461,1950.98 352.093,1950.53C351.725,1950.08 351.533,1949.4 351.533,1948.45C351.533,1947.64 351.709,1947.03 352.061,1946.61Z" style="fill:rgb(110,110,111);fill-rule:nonzero;"/>
        </g>
        <g transform="matrix(4.16667,0,0,4.16667,0,0)">
            <path d="M364.301,1942.39C363.549,1943.35 363.181,1944.9 363.181,1947.06C363.181,1949.27 363.517,1950.8 364.205,1951.65C364.893,1952.52 365.789,1952.95 366.909,1952.95C368.013,1952.95 368.877,1952.56 369.501,1951.78C370.253,1950.82 370.621,1949.27 370.621,1947.09C370.621,1944.92 370.253,1943.35 369.501,1942.4C368.877,1941.62 368.013,1941.22 366.909,1941.22C365.789,1941.22 364.925,1941.6 364.301,1942.39ZM367.597,1943.3C367.805,1943.48 367.965,1943.81 368.109,1944.31C368.237,1944.82 368.301,1945.73 368.301,1947.09C368.301,1948.44 368.221,1949.4 368.077,1949.96C367.965,1950.39 367.805,1950.69 367.597,1950.87C367.389,1951.04 367.165,1951.12 366.909,1951.12C366.637,1951.12 366.413,1951.04 366.205,1950.87C365.997,1950.71 365.837,1950.37 365.709,1949.86C365.565,1949.36 365.501,1948.44 365.501,1947.09C365.501,1945.73 365.581,1944.79 365.725,1944.21C365.837,1943.78 365.997,1943.48 366.205,1943.3C366.413,1943.12 366.637,1943.04 366.909,1943.04C367.165,1943.04 367.389,1943.12 367.597,1943.3Z" style="fill:rgb(110,110,111);fill-rule:nonzero;"/>
        </g>
        <g transform="matrix(4.16667,0,0,4.16667,0,0)">
            <path d="M375.133,1950.71C375.245,1950.52 375.405,1950.31 375.581,1950.1C375.773,1949.89 376.205,1949.46 376.909,1948.82C377.597,1948.2 378.077,1947.7 378.349,1947.36C378.749,1946.85 379.037,1946.36 379.229,1945.89C379.405,1945.43 379.501,1944.93 379.501,1944.42C379.501,1943.51 379.181,1942.74 378.525,1942.13C377.885,1941.52 377.005,1941.22 375.869,1941.22C374.829,1941.22 373.981,1941.48 373.293,1942C372.605,1942.53 372.189,1943.41 372.061,1944.61L374.253,1944.84C374.301,1944.2 374.445,1943.73 374.717,1943.46C374.989,1943.19 375.357,1943.04 375.805,1943.04C376.269,1943.04 376.637,1943.17 376.893,1943.44C377.165,1943.7 377.293,1944.08 377.293,1944.56C377.293,1945.01 377.149,1945.46 376.845,1945.91C376.621,1946.24 376.013,1946.87 375.021,1947.8C373.789,1948.93 372.973,1949.86 372.557,1950.55C372.141,1951.24 371.885,1951.97 371.805,1952.74L379.501,1952.74L379.501,1950.71L375.133,1950.71Z" style="fill:rgb(110,110,111);fill-rule:nonzero;"/>
        </g>
        <g transform="matrix(4.16667,0,0,4.16667,0,0)">
            <path d="M326.659,1965.66L327.989,1959.31L330.319,1959.31L330.489,1958.5L324.809,1958.5L324.639,1959.31L327.039,1959.31L325.709,1965.66L326.659,1965.66Z" style="fill:rgb(110,110,111);fill-rule:nonzero;"/>
        </g>
        <g transform="matrix(4.16667,0,0,4.16667,0,0)">
            <path d="M332.049,1964.75C331.749,1964.95 331.449,1965.05 331.149,1965.05C330.819,1965.05 330.549,1964.92 330.329,1964.67C330.099,1964.41 329.989,1964.04 329.989,1963.55C329.989,1963.47 329.999,1963.38 330.009,1963.28L333.839,1963.28C333.889,1963.01 333.909,1962.75 333.909,1962.5C333.909,1961.84 333.719,1961.32 333.349,1960.93C332.979,1960.55 332.489,1960.36 331.869,1960.36C331.379,1960.36 330.929,1960.49 330.509,1960.75C330.099,1961.01 329.759,1961.4 329.489,1961.93C329.229,1962.46 329.099,1963.01 329.099,1963.58C329.099,1964.01 329.179,1964.39 329.349,1964.73C329.519,1965.07 329.759,1965.33 330.089,1965.5C330.409,1965.68 330.759,1965.77 331.149,1965.77C331.759,1965.77 332.289,1965.58 332.739,1965.19C333.179,1964.81 333.469,1964.41 333.589,1963.98L332.729,1963.9C332.569,1964.27 332.339,1964.56 332.049,1964.75ZM330.849,1961.43C331.159,1961.17 331.509,1961.04 331.889,1961.04C332.239,1961.04 332.519,1961.16 332.749,1961.39C332.969,1961.63 333.079,1961.96 333.079,1962.41C333.079,1962.44 333.079,1962.51 333.079,1962.6L330.149,1962.6C330.309,1962.08 330.539,1961.69 330.849,1961.43Z" style="fill:rgb(110,110,111);fill-rule:nonzero;"/>
        </g>
        <g transform="matrix(4.16667,0,0,4.16667,0,0)">
            <path d="M335.241,1965.66L336.791,1963.78C336.931,1964.11 337.051,1964.38 337.161,1964.6L337.691,1965.66L338.671,1965.66L337.361,1963.09L339.521,1960.47L338.441,1960.47L336.951,1962.37C336.831,1962.06 336.681,1961.73 336.521,1961.39L336.071,1960.47L335.091,1960.47L336.381,1963.03L334.131,1965.66L335.241,1965.66Z" style="fill:rgb(110,110,111);fill-rule:nonzero;"/>
        </g>
        <g transform="matrix(4.16667,0,0,4.16667,0,0)">
            <path d="M341.011,1965C340.881,1965 340.781,1964.97 340.721,1964.92C340.661,1964.86 340.631,1964.78 340.631,1964.68C340.631,1964.61 340.671,1964.39 340.741,1964.02L341.341,1961.15L342.201,1961.15L342.351,1960.47L341.481,1960.47L341.881,1958.59L340.871,1959.2L340.601,1960.47L339.901,1960.47L339.761,1961.15L340.461,1961.15L339.831,1964.17C339.751,1964.58 339.701,1964.84 339.701,1964.96C339.701,1965.18 339.781,1965.36 339.941,1965.49C340.141,1965.66 340.421,1965.75 340.771,1965.75C340.971,1965.75 341.181,1965.72 341.391,1965.67L341.541,1964.94C341.381,1964.98 341.211,1965 341.011,1965Z" style="fill:rgb(110,110,111);fill-rule:nonzero;"/>
        </g>
        <g transform="matrix(4.16667,0,0,4.16667,0,0)">
            <path d="M348.167,1964.75C347.867,1964.95 347.567,1965.05 347.267,1965.05C346.937,1965.05 346.667,1964.92 346.447,1964.67C346.217,1964.41 346.107,1964.04 346.107,1963.55C346.107,1963.47 346.117,1963.38 346.127,1963.28L349.957,1963.28C350.007,1963.01 350.027,1962.75 350.027,1962.5C350.027,1961.84 349.837,1961.32 349.467,1960.93C349.097,1960.55 348.607,1960.36 347.987,1960.36C347.497,1960.36 347.047,1960.49 346.627,1960.75C346.217,1961.01 345.877,1961.4 345.607,1961.93C345.347,1962.46 345.217,1963.01 345.217,1963.58C345.217,1964.01 345.297,1964.39 345.467,1964.73C345.637,1965.07 345.877,1965.33 346.207,1965.5C346.527,1965.68 346.877,1965.77 347.267,1965.77C347.877,1965.77 348.407,1965.58 348.857,1965.19C349.297,1964.81 349.587,1964.41 349.707,1963.98L348.847,1963.9C348.687,1964.27 348.457,1964.56 348.167,1964.75ZM346.967,1961.43C347.277,1961.17 347.627,1961.04 348.007,1961.04C348.357,1961.04 348.637,1961.16 348.867,1961.39C349.087,1961.63 349.197,1961.96 349.197,1962.41C349.197,1962.44 349.197,1962.51 349.197,1962.6L346.267,1962.6C346.427,1962.08 346.657,1961.69 346.967,1961.43Z" style="fill:rgb(110,110,111);fill-rule:nonzero;"/>
        </g>
        <g transform="matrix(4.16667,0,0,4.16667,0,0)">
            <path d="M351.359,1965.66L352.909,1963.78C353.049,1964.11 353.169,1964.38 353.279,1964.6L353.809,1965.66L354.789,1965.66L353.479,1963.09L355.639,1960.47L354.559,1960.47L353.069,1962.37C352.949,1962.06 352.799,1961.73 352.639,1961.39L352.189,1960.47L351.209,1960.47L352.499,1963.03L350.249,1965.66L351.359,1965.66Z" style="fill:rgb(110,110,111);fill-rule:nonzero;"/>
        </g>
        <g transform="matrix(4.16667,0,0,4.16667,0,0)">
            <path d="M359.189,1965.66L360.089,1965.66C360.019,1965.35 359.979,1965.12 359.979,1964.96C359.979,1964.7 360.029,1964.37 360.119,1963.96L360.399,1962.67C360.479,1962.3 360.519,1961.98 360.519,1961.71C360.519,1961.34 360.379,1961.05 360.089,1960.82C359.719,1960.51 359.209,1960.36 358.569,1960.36C357.969,1960.36 357.469,1960.5 357.079,1960.77C356.679,1961.04 356.389,1961.44 356.209,1961.95L357.099,1962.03C357.209,1961.73 357.379,1961.49 357.619,1961.33C357.849,1961.16 358.159,1961.08 358.529,1961.08C358.929,1961.08 359.229,1961.16 359.429,1961.32C359.579,1961.44 359.659,1961.6 359.659,1961.81C359.659,1961.97 359.629,1962.17 359.559,1962.41C359.309,1962.5 358.909,1962.56 358.359,1962.58C357.799,1962.61 357.419,1962.64 357.219,1962.68C356.909,1962.73 356.639,1962.83 356.419,1962.97C356.199,1963.1 356.029,1963.28 355.899,1963.5C355.769,1963.72 355.699,1963.98 355.699,1964.27C355.699,1964.71 355.849,1965.07 356.139,1965.35C356.429,1965.63 356.819,1965.77 357.299,1965.77C357.619,1965.77 357.919,1965.71 358.209,1965.59C358.489,1965.47 358.779,1965.28 359.089,1965.02C359.109,1965.28 359.139,1965.49 359.189,1965.66ZM359.049,1964.21C358.899,1964.49 358.679,1964.7 358.409,1964.86C358.139,1965.01 357.859,1965.09 357.569,1965.09C357.249,1965.09 357.009,1965.01 356.839,1964.85C356.669,1964.69 356.579,1964.49 356.579,1964.24C356.579,1964.06 356.629,1963.89 356.739,1963.73C356.849,1963.58 357.009,1963.47 357.219,1963.4C357.429,1963.33 357.789,1963.27 358.309,1963.23C358.639,1963.2 358.879,1963.17 359.019,1963.14C359.159,1963.12 359.299,1963.08 359.419,1963.03C359.329,1963.54 359.209,1963.93 359.049,1964.21Z" style="fill:rgb(110,110,111);fill-rule:nonzero;"/>
        </g>
        <g transform="matrix(4.16667,0,0,4.16667,0,0)">
            <path d="M362.03,1965.66L362.54,1963.21C362.65,1962.68 362.79,1962.28 362.97,1961.99C363.14,1961.71 363.36,1961.49 363.64,1961.33C363.92,1961.17 364.18,1961.09 364.43,1961.09C364.6,1961.09 364.74,1961.14 364.84,1961.25C364.95,1961.35 365,1961.49 365,1961.66C365,1961.76 364.98,1961.93 364.92,1962.16L364.19,1965.66L365.07,1965.66L365.6,1963.14C365.71,1962.61 365.84,1962.21 366,1961.95C366.15,1961.7 366.36,1961.49 366.63,1961.33C366.91,1961.17 367.18,1961.09 367.44,1961.09C367.64,1961.09 367.79,1961.14 367.9,1961.24C368.01,1961.33 368.06,1961.47 368.06,1961.64C368.06,1961.76 368.03,1961.96 367.97,1962.24L367.25,1965.66L368.13,1965.66L368.84,1962.32C368.91,1961.95 368.95,1961.69 368.95,1961.53C368.95,1961.16 368.84,1960.87 368.63,1960.67C368.41,1960.46 368.09,1960.36 367.65,1960.36C367.33,1960.36 367.02,1960.44 366.73,1960.6C366.44,1960.76 366.16,1961.01 365.9,1961.33C365.83,1961.03 365.69,1960.79 365.47,1960.62C365.25,1960.45 364.98,1960.36 364.66,1960.36C364.36,1960.36 364.08,1960.43 363.82,1960.57C363.56,1960.71 363.26,1960.96 362.93,1961.33L363.11,1960.47L362.24,1960.47L361.15,1965.66L362.03,1965.66Z" style="fill:rgb(110,110,111);fill-rule:nonzero;"/>
        </g>
        <g transform="matrix(4.16667,0,0,4.16667,0,0)">
            <path d="M369.95,1967.65L370.54,1964.82C370.88,1965.45 371.36,1965.77 371.98,1965.77C372.27,1965.77 372.54,1965.71 372.81,1965.58C373.07,1965.45 373.34,1965.25 373.6,1964.99C373.86,1964.72 374.08,1964.36 374.26,1963.92C374.44,1963.47 374.53,1962.98 374.53,1962.44C374.53,1961.77 374.37,1961.26 374.04,1960.9C373.72,1960.54 373.3,1960.36 372.81,1960.36C372.54,1960.36 372.29,1960.42 372.05,1960.54C371.81,1960.66 371.54,1960.88 371.24,1961.2L371.39,1960.47L370.57,1960.47L369.07,1967.65L369.95,1967.65ZM370.97,1962.65C371.08,1962.31 371.22,1962.02 371.38,1961.78C371.55,1961.55 371.73,1961.37 371.92,1961.25C372.11,1961.13 372.32,1961.07 372.55,1961.07C372.86,1961.07 373.12,1961.19 373.33,1961.43C373.54,1961.67 373.65,1962.01 373.65,1962.45C373.65,1963.04 373.49,1963.62 373.18,1964.19C372.87,1964.76 372.45,1965.05 371.94,1965.05C371.7,1965.05 371.48,1964.99 371.3,1964.86C371.11,1964.73 370.98,1964.56 370.9,1964.35C370.84,1964.2 370.81,1963.93 370.81,1963.54C370.81,1963.29 370.87,1962.99 370.97,1962.65Z" style="fill:rgb(110,110,111);fill-rule:nonzero;"/>
        </g>
        <g transform="matrix(4.16667,0,0,4.16667,0,0)">
            <path d="M375.862,1965.66L377.362,1958.5L376.482,1958.5L374.992,1965.66L375.862,1965.66Z" style="fill:rgb(110,110,111);fill-rule:nonzero;"/>
        </g>
        <g transform="matrix(4.16667,0,0,4.16667,0,0)">
            <path d="M380.404,1964.75C380.104,1964.95 379.804,1965.05 379.504,1965.05C379.174,1965.05 378.904,1964.92 378.684,1964.67C378.454,1964.41 378.344,1964.04 378.344,1963.55C378.344,1963.47 378.354,1963.38 378.364,1963.28L382.194,1963.28C382.244,1963.01 382.264,1962.75 382.264,1962.5C382.264,1961.84 382.074,1961.32 381.704,1960.93C381.334,1960.55 380.844,1960.36 380.224,1960.36C379.734,1960.36 379.284,1960.49 378.864,1960.75C378.454,1961.01 378.114,1961.4 377.844,1961.93C377.584,1962.46 377.454,1963.01 377.454,1963.58C377.454,1964.01 377.534,1964.39 377.704,1964.73C377.874,1965.07 378.114,1965.33 378.444,1965.5C378.764,1965.68 379.114,1965.77 379.504,1965.77C380.114,1965.77 380.644,1965.58 381.094,1965.19C381.534,1964.81 381.824,1964.41 381.944,1963.98L381.084,1963.9C380.924,1964.27 380.694,1964.56 380.404,1964.75ZM379.204,1961.43C379.514,1961.17 379.864,1961.04 380.244,1961.04C380.594,1961.04 380.874,1961.16 381.104,1961.39C381.324,1961.63 381.434,1961.96 381.434,1962.41C381.434,1962.44 381.434,1962.51 381.434,1962.6L378.504,1962.6C378.664,1962.08 378.894,1961.69 379.204,1961.43Z" style="fill:rgb(110,110,111);fill-rule:nonzero;"/>
        </g>
        <g transform="matrix(4.16667,0,0,4.16667,0,0)">
            <path d="M426.609,1951.94C427.377,1952.61 428.497,1952.95 429.937,1952.95C430.945,1952.95 431.761,1952.8 432.433,1952.53C433.105,1952.24 433.617,1951.83 433.985,1951.25C434.353,1950.68 434.529,1950.07 434.529,1949.41C434.529,1948.68 434.385,1948.07 434.081,1947.59C433.777,1947.09 433.345,1946.71 432.817,1946.42C432.273,1946.13 431.441,1945.86 430.321,1945.59C429.201,1945.33 428.497,1945.08 428.193,1944.82C427.969,1944.63 427.857,1944.4 427.857,1944.13C427.857,1943.83 427.985,1943.59 428.225,1943.41C428.593,1943.14 429.121,1943 429.793,1943C430.433,1943 430.913,1943.12 431.249,1943.38C431.569,1943.64 431.777,1944.07 431.873,1944.66L434.193,1944.58C434.161,1943.52 433.777,1942.66 433.057,1942.04C432.321,1941.4 431.249,1941.08 429.809,1941.08C428.945,1941.08 428.193,1941.2 427.569,1941.48C426.945,1941.75 426.481,1942.13 426.145,1942.64C425.809,1943.16 425.649,1943.7 425.649,1944.28C425.649,1945.19 426.001,1945.96 426.705,1946.6C427.201,1947.04 428.065,1947.43 429.297,1947.73C430.257,1947.97 430.881,1948.13 431.137,1948.23C431.537,1948.37 431.809,1948.53 431.969,1948.72C432.129,1948.92 432.209,1949.16 432.209,1949.41C432.209,1949.84 432.017,1950.21 431.649,1950.52C431.265,1950.84 430.705,1951 429.969,1951C429.265,1951 428.705,1950.82 428.289,1950.47C427.889,1950.12 427.601,1949.56 427.473,1948.8L425.217,1949.03C425.361,1950.31 425.825,1951.28 426.609,1951.94Z" style="fill:rgb(110,110,111);fill-rule:nonzero;"/>
        </g>
        <g transform="matrix(4.16667,0,0,4.16667,0,0)">
            <path d="M438.769,1944.44L438.769,1941.49L436.577,1942.79L436.577,1944.44L435.569,1944.44L435.569,1946.18L436.577,1946.18L436.577,1949.81C436.577,1950.6 436.593,1951.11 436.641,1951.36C436.705,1951.73 436.801,1952.02 436.961,1952.23C437.105,1952.44 437.329,1952.61 437.649,1952.74C437.969,1952.88 438.321,1952.95 438.721,1952.95C439.361,1952.95 439.937,1952.84 440.449,1952.61L440.273,1950.92C439.873,1951.06 439.585,1951.12 439.377,1951.12C439.233,1951.12 439.105,1951.09 439.009,1951.01C438.913,1950.95 438.833,1950.85 438.817,1950.74C438.785,1950.63 438.769,1950.23 438.769,1949.54L438.769,1946.18L440.273,1946.18L440.273,1944.44L438.769,1944.44Z" style="fill:rgb(110,110,111);fill-rule:nonzero;"/>
        </g>
        <g transform="matrix(4.16667,0,0,4.16667,0,0)">
            <path d="M446.081,1951.01C445.841,1951.2 445.553,1951.3 445.217,1951.3C444.705,1951.3 444.289,1951.12 443.953,1950.76C443.617,1950.39 443.441,1949.89 443.425,1949.24L448.913,1949.24C448.945,1947.56 448.609,1946.31 447.889,1945.49C447.185,1944.68 446.209,1944.26 444.977,1944.26C443.873,1944.26 442.961,1944.64 442.241,1945.43C441.521,1946.21 441.169,1947.28 441.169,1948.66C441.169,1949.81 441.441,1950.77 441.985,1951.52C442.689,1952.47 443.745,1952.95 445.185,1952.95C446.097,1952.95 446.865,1952.74 447.473,1952.32C448.081,1951.89 448.513,1951.28 448.801,1950.48L446.609,1950.12C446.497,1950.53 446.321,1950.84 446.081,1951.01ZM443.457,1947.89C443.457,1947.28 443.617,1946.82 443.921,1946.47C444.241,1946.12 444.625,1945.94 445.105,1945.94C445.553,1945.94 445.937,1946.1 446.241,1946.44C446.561,1946.77 446.721,1947.25 446.737,1947.89L443.457,1947.89Z" style="fill:rgb(110,110,111);fill-rule:nonzero;"/>
        </g>
        <g transform="matrix(4.16667,0,0,4.16667,0,0)">
            <path d="M450.641,1955.89L452.833,1955.89L452.833,1951.73C453.249,1952.18 453.633,1952.5 454.017,1952.68C454.385,1952.85 454.801,1952.95 455.265,1952.95C456.225,1952.95 457.041,1952.56 457.713,1951.8C458.401,1951.03 458.737,1949.94 458.737,1948.56C458.737,1947.2 458.401,1946.15 457.729,1945.4C457.057,1944.64 456.241,1944.26 455.281,1944.26C454.721,1944.26 454.225,1944.39 453.761,1944.64C453.313,1944.9 452.961,1945.24 452.689,1945.65L452.689,1944.44L450.641,1944.44L450.641,1955.89ZM453.329,1946.61C453.681,1946.2 454.129,1945.99 454.657,1945.99C455.185,1945.99 455.617,1946.2 455.953,1946.63C456.305,1947.04 456.481,1947.7 456.481,1948.56C456.481,1949.51 456.305,1950.18 455.969,1950.6C455.633,1951 455.217,1951.2 454.705,1951.2C454.177,1951.2 453.729,1950.98 453.361,1950.53C452.993,1950.08 452.801,1949.4 452.801,1948.45C452.801,1947.64 452.977,1947.03 453.329,1946.61Z" style="fill:rgb(110,110,111);fill-rule:nonzero;"/>
        </g>
        <g transform="matrix(4.16667,0,0,4.16667,0,0)">
            <path d="M465.569,1942.39C464.817,1943.35 464.449,1944.9 464.449,1947.06C464.449,1949.27 464.785,1950.8 465.473,1951.65C466.161,1952.52 467.057,1952.95 468.177,1952.95C469.281,1952.95 470.145,1952.56 470.769,1951.78C471.521,1950.82 471.889,1949.27 471.889,1947.09C471.889,1944.92 471.521,1943.35 470.769,1942.4C470.145,1941.62 469.281,1941.22 468.177,1941.22C467.057,1941.22 466.193,1941.6 465.569,1942.39ZM468.865,1943.3C469.073,1943.48 469.233,1943.81 469.377,1944.31C469.505,1944.82 469.569,1945.73 469.569,1947.09C469.569,1948.44 469.489,1949.4 469.345,1949.96C469.233,1950.39 469.073,1950.69 468.865,1950.87C468.657,1951.04 468.433,1951.12 468.177,1951.12C467.905,1951.12 467.681,1951.04 467.473,1950.87C467.265,1950.71 467.105,1950.37 466.977,1949.86C466.833,1949.36 466.769,1948.44 466.769,1947.09C466.769,1945.73 466.849,1944.79 466.993,1944.21C467.105,1943.78 467.265,1943.48 467.473,1943.3C467.681,1943.12 467.905,1943.04 468.177,1943.04C468.433,1943.04 468.657,1943.12 468.865,1943.3Z" style="fill:rgb(110,110,111);fill-rule:nonzero;"/>
        </g>
        <g transform="matrix(4.16667,0,0,4.16667,0,0)">
            <path d="M474.465,1952.05C475.153,1952.64 476.001,1952.95 477.041,1952.95C478.129,1952.95 479.041,1952.6 479.777,1951.89C480.513,1951.17 480.881,1950.32 480.881,1949.32C480.881,1948.61 480.689,1948.02 480.289,1947.54C479.905,1947.04 479.377,1946.72 478.721,1946.6C479.825,1945.99 480.369,1945.19 480.369,1944.16C480.369,1943.46 480.097,1942.82 479.569,1942.26C478.913,1941.57 478.049,1941.22 476.977,1941.22C476.337,1941.22 475.777,1941.33 475.265,1941.57C474.753,1941.81 474.369,1942.15 474.081,1942.56C473.793,1942.98 473.585,1943.54 473.441,1944.23L475.457,1944.58C475.521,1944.08 475.681,1943.7 475.937,1943.43C476.209,1943.17 476.529,1943.04 476.897,1943.04C477.281,1943.04 477.585,1943.16 477.825,1943.4C478.049,1943.62 478.161,1943.92 478.161,1944.31C478.161,1944.77 478.001,1945.14 477.697,1945.41C477.377,1945.68 476.929,1945.81 476.337,1945.8L476.097,1947.57C476.481,1947.46 476.817,1947.41 477.105,1947.41C477.521,1947.41 477.889,1947.57 478.177,1947.89C478.481,1948.23 478.625,1948.66 478.625,1949.22C478.625,1949.8 478.465,1950.26 478.161,1950.61C477.857,1950.95 477.473,1951.12 477.025,1951.12C476.609,1951.12 476.241,1950.98 475.953,1950.69C475.665,1950.4 475.473,1949.99 475.409,1949.44L473.281,1949.7C473.393,1950.68 473.793,1951.46 474.465,1952.05Z" style="fill:rgb(110,110,111);fill-rule:nonzero;"/>
        </g>
        <g transform="matrix(4.16667,0,0,4.16667,0,0)">
            <path d="M427.927,1965.66L429.257,1959.31L431.587,1959.31L431.757,1958.5L426.077,1958.5L425.907,1959.31L428.307,1959.31L426.977,1965.66L427.927,1965.66Z" style="fill:rgb(110,110,111);fill-rule:nonzero;"/>
        </g>
        <g transform="matrix(4.16667,0,0,4.16667,0,0)">
            <path d="M433.317,1964.75C433.017,1964.95 432.717,1965.05 432.417,1965.05C432.087,1965.05 431.817,1964.92 431.597,1964.67C431.367,1964.41 431.257,1964.04 431.257,1963.55C431.257,1963.47 431.267,1963.38 431.277,1963.28L435.107,1963.28C435.157,1963.01 435.177,1962.75 435.177,1962.5C435.177,1961.84 434.987,1961.32 434.617,1960.93C434.247,1960.55 433.757,1960.36 433.137,1960.36C432.647,1960.36 432.197,1960.49 431.777,1960.75C431.367,1961.01 431.027,1961.4 430.757,1961.93C430.497,1962.46 430.367,1963.01 430.367,1963.58C430.367,1964.01 430.447,1964.39 430.617,1964.73C430.787,1965.07 431.027,1965.33 431.357,1965.5C431.677,1965.68 432.027,1965.77 432.417,1965.77C433.027,1965.77 433.557,1965.58 434.007,1965.19C434.447,1964.81 434.737,1964.41 434.857,1963.98L433.997,1963.9C433.837,1964.27 433.607,1964.56 433.317,1964.75ZM432.117,1961.43C432.427,1961.17 432.777,1961.04 433.157,1961.04C433.507,1961.04 433.787,1961.16 434.017,1961.39C434.237,1961.63 434.347,1961.96 434.347,1962.41C434.347,1962.44 434.347,1962.51 434.347,1962.6L431.417,1962.6C431.577,1962.08 431.807,1961.69 432.117,1961.43Z" style="fill:rgb(110,110,111);fill-rule:nonzero;"/>
        </g>
        <g transform="matrix(4.16667,0,0,4.16667,0,0)">
            <path d="M436.509,1965.66L438.059,1963.78C438.199,1964.11 438.319,1964.38 438.429,1964.6L438.959,1965.66L439.939,1965.66L438.629,1963.09L440.789,1960.47L439.709,1960.47L438.219,1962.37C438.099,1962.06 437.949,1961.73 437.789,1961.39L437.339,1960.47L436.359,1960.47L437.649,1963.03L435.399,1965.66L436.509,1965.66Z" style="fill:rgb(110,110,111);fill-rule:nonzero;"/>
        </g>
        <g transform="matrix(4.16667,0,0,4.16667,0,0)">
            <path d="M442.279,1965C442.149,1965 442.049,1964.97 441.989,1964.92C441.929,1964.86 441.899,1964.78 441.899,1964.68C441.899,1964.61 441.939,1964.39 442.009,1964.02L442.609,1961.15L443.469,1961.15L443.619,1960.47L442.749,1960.47L443.149,1958.59L442.139,1959.2L441.869,1960.47L441.169,1960.47L441.029,1961.15L441.729,1961.15L441.099,1964.17C441.019,1964.58 440.969,1964.84 440.969,1964.96C440.969,1965.18 441.049,1965.36 441.209,1965.49C441.409,1965.66 441.689,1965.75 442.039,1965.75C442.239,1965.75 442.449,1965.72 442.659,1965.67L442.809,1964.94C442.649,1964.98 442.479,1965 442.279,1965Z" style="fill:rgb(110,110,111);fill-rule:nonzero;"/>
        </g>
        <g transform="matrix(4.16667,0,0,4.16667,0,0)">
            <path d="M449.435,1964.75C449.135,1964.95 448.835,1965.05 448.535,1965.05C448.205,1965.05 447.935,1964.92 447.715,1964.67C447.485,1964.41 447.375,1964.04 447.375,1963.55C447.375,1963.47 447.385,1963.38 447.395,1963.28L451.225,1963.28C451.275,1963.01 451.295,1962.75 451.295,1962.5C451.295,1961.84 451.105,1961.32 450.735,1960.93C450.365,1960.55 449.875,1960.36 449.255,1960.36C448.765,1960.36 448.315,1960.49 447.895,1960.75C447.485,1961.01 447.145,1961.4 446.875,1961.93C446.615,1962.46 446.485,1963.01 446.485,1963.58C446.485,1964.01 446.565,1964.39 446.735,1964.73C446.905,1965.07 447.145,1965.33 447.475,1965.5C447.795,1965.68 448.145,1965.77 448.535,1965.77C449.145,1965.77 449.675,1965.58 450.125,1965.19C450.565,1964.81 450.855,1964.41 450.975,1963.98L450.115,1963.9C449.955,1964.27 449.725,1964.56 449.435,1964.75ZM448.235,1961.43C448.545,1961.17 448.895,1961.04 449.275,1961.04C449.625,1961.04 449.905,1961.16 450.135,1961.39C450.355,1961.63 450.465,1961.96 450.465,1962.41C450.465,1962.44 450.465,1962.51 450.465,1962.6L447.535,1962.6C447.695,1962.08 447.925,1961.69 448.235,1961.43Z" style="fill:rgb(110,110,111);fill-rule:nonzero;"/>
        </g>
        <g transform="matrix(4.16667,0,0,4.16667,0,0)">
            <path d="M452.627,1965.66L454.177,1963.78C454.317,1964.11 454.437,1964.38 454.547,1964.6L455.077,1965.66L456.057,1965.66L454.747,1963.09L456.907,1960.47L455.827,1960.47L454.337,1962.37C454.217,1962.06 454.067,1961.73 453.907,1961.39L453.457,1960.47L452.477,1960.47L453.767,1963.03L451.517,1965.66L452.627,1965.66Z" style="fill:rgb(110,110,111);fill-rule:nonzero;"/>
        </g>
        <g transform="matrix(4.16667,0,0,4.16667,0,0)">
            <path d="M460.457,1965.66L461.357,1965.66C461.287,1965.35 461.247,1965.12 461.247,1964.96C461.247,1964.7 461.297,1964.37 461.387,1963.96L461.667,1962.67C461.747,1962.3 461.787,1961.98 461.787,1961.71C461.787,1961.34 461.647,1961.05 461.357,1960.82C460.987,1960.51 460.477,1960.36 459.837,1960.36C459.237,1960.36 458.737,1960.5 458.347,1960.77C457.947,1961.04 457.657,1961.44 457.477,1961.95L458.367,1962.03C458.477,1961.73 458.647,1961.49 458.887,1961.33C459.117,1961.16 459.427,1961.08 459.797,1961.08C460.197,1961.08 460.497,1961.16 460.697,1961.32C460.847,1961.44 460.927,1961.6 460.927,1961.81C460.927,1961.97 460.897,1962.17 460.827,1962.41C460.577,1962.5 460.177,1962.56 459.627,1962.58C459.067,1962.61 458.687,1962.64 458.487,1962.68C458.177,1962.73 457.907,1962.83 457.687,1962.97C457.467,1963.1 457.297,1963.28 457.167,1963.5C457.037,1963.72 456.967,1963.98 456.967,1964.27C456.967,1964.71 457.117,1965.07 457.407,1965.35C457.697,1965.63 458.087,1965.77 458.567,1965.77C458.887,1965.77 459.187,1965.71 459.477,1965.59C459.757,1965.47 460.047,1965.28 460.357,1965.02C460.377,1965.28 460.407,1965.49 460.457,1965.66ZM460.317,1964.21C460.167,1964.49 459.947,1964.7 459.677,1964.86C459.407,1965.01 459.127,1965.09 458.837,1965.09C458.517,1965.09 458.277,1965.01 458.107,1964.85C457.937,1964.69 457.847,1964.49 457.847,1964.24C457.847,1964.06 457.897,1963.89 458.007,1963.73C458.117,1963.58 458.277,1963.47 458.487,1963.4C458.697,1963.33 459.057,1963.27 459.577,1963.23C459.907,1963.2 460.147,1963.17 460.287,1963.14C460.427,1963.12 460.567,1963.08 460.687,1963.03C460.597,1963.54 460.477,1963.93 460.317,1964.21Z" style="fill:rgb(110,110,111);fill-rule:nonzero;"/>
        </g>
        <g transform="matrix(4.16667,0,0,4.16667,0,0)">
            <path d="M463.298,1965.66L463.808,1963.21C463.918,1962.68 464.058,1962.28 464.238,1961.99C464.408,1961.71 464.628,1961.49 464.908,1961.33C465.188,1961.17 465.448,1961.09 465.698,1961.09C465.868,1961.09 466.008,1961.14 466.108,1961.25C466.218,1961.35 466.268,1961.49 466.268,1961.66C466.268,1961.76 466.248,1961.93 466.188,1962.16L465.458,1965.66L466.338,1965.66L466.868,1963.14C466.978,1962.61 467.108,1962.21 467.268,1961.95C467.418,1961.7 467.628,1961.49 467.898,1961.33C468.178,1961.17 468.448,1961.09 468.708,1961.09C468.908,1961.09 469.058,1961.14 469.168,1961.24C469.278,1961.33 469.328,1961.47 469.328,1961.64C469.328,1961.76 469.298,1961.96 469.238,1962.24L468.518,1965.66L469.398,1965.66L470.108,1962.32C470.178,1961.95 470.218,1961.69 470.218,1961.53C470.218,1961.16 470.108,1960.87 469.898,1960.67C469.678,1960.46 469.358,1960.36 468.918,1960.36C468.598,1960.36 468.288,1960.44 467.998,1960.6C467.708,1960.76 467.428,1961.01 467.168,1961.33C467.098,1961.03 466.958,1960.79 466.738,1960.62C466.518,1960.45 466.248,1960.36 465.928,1960.36C465.628,1960.36 465.348,1960.43 465.088,1960.57C464.828,1960.71 464.528,1960.96 464.198,1961.33L464.378,1960.47L463.508,1960.47L462.418,1965.66L463.298,1965.66Z" style="fill:rgb(110,110,111);fill-rule:nonzero;"/>
        </g>
        <g transform="matrix(4.16667,0,0,4.16667,0,0)">
            <path d="M471.218,1967.65L471.808,1964.82C472.148,1965.45 472.628,1965.77 473.248,1965.77C473.538,1965.77 473.808,1965.71 474.078,1965.58C474.338,1965.45 474.608,1965.25 474.868,1964.99C475.128,1964.72 475.348,1964.36 475.528,1963.92C475.708,1963.47 475.798,1962.98 475.798,1962.44C475.798,1961.77 475.638,1961.26 475.308,1960.9C474.988,1960.54 474.568,1960.36 474.078,1960.36C473.808,1960.36 473.558,1960.42 473.318,1960.54C473.078,1960.66 472.808,1960.88 472.508,1961.2L472.658,1960.47L471.838,1960.47L470.338,1967.65L471.218,1967.65ZM472.238,1962.65C472.348,1962.31 472.488,1962.02 472.648,1961.78C472.818,1961.55 472.998,1961.37 473.188,1961.25C473.378,1961.13 473.588,1961.07 473.818,1961.07C474.128,1961.07 474.388,1961.19 474.598,1961.43C474.808,1961.67 474.918,1962.01 474.918,1962.45C474.918,1963.04 474.758,1963.62 474.448,1964.19C474.138,1964.76 473.718,1965.05 473.208,1965.05C472.968,1965.05 472.748,1964.99 472.568,1964.86C472.378,1964.73 472.248,1964.56 472.168,1964.35C472.108,1964.2 472.078,1963.93 472.078,1963.54C472.078,1963.29 472.138,1962.99 472.238,1962.65Z" style="fill:rgb(110,110,111);fill-rule:nonzero;"/>
        </g>
        <g transform="matrix(4.16667,0,0,4.16667,0,0)">
            <path d="M477.13,1965.66L478.63,1958.5L477.75,1958.5L476.26,1965.66L477.13,1965.66Z" style="fill:rgb(110,110,111);fill-rule:nonzero;"/>
        </g>
        <g transform="matrix(4.16667,0,0,4.16667,0,0)">
            <path d="M481.672,1964.75C481.372,1964.95 481.072,1965.05 480.772,1965.05C480.442,1965.05 480.172,1964.92 479.952,1964.67C479.722,1964.41 479.612,1964.04 479.612,1963.55C479.612,1963.47 479.622,1963.38 479.632,1963.28L483.462,1963.28C483.512,1963.01 483.532,1962.75 483.532,1962.5C483.532,1961.84 483.342,1961.32 482.972,1960.93C482.602,1960.55 482.112,1960.36 481.492,1960.36C481.002,1960.36 480.552,1960.49 480.132,1960.75C479.722,1961.01 479.382,1961.4 479.112,1961.93C478.852,1962.46 478.722,1963.01 478.722,1963.58C478.722,1964.01 478.802,1964.39 478.972,1964.73C479.142,1965.07 479.382,1965.33 479.712,1965.5C480.032,1965.68 480.382,1965.77 480.772,1965.77C481.382,1965.77 481.912,1965.58 482.362,1965.19C482.802,1964.81 483.092,1964.41 483.212,1963.98L482.352,1963.9C482.192,1964.27 481.962,1964.56 481.672,1964.75ZM480.472,1961.43C480.782,1961.17 481.132,1961.04 481.512,1961.04C481.862,1961.04 482.142,1961.16 482.372,1961.39C482.592,1961.63 482.702,1961.96 482.702,1962.41C482.702,1962.44 482.702,1962.51 482.702,1962.6L479.772,1962.6C479.932,1962.08 480.162,1961.69 480.472,1961.43Z" style="fill:rgb(110,110,111);fill-rule:nonzero;"/>
        </g>
        <g transform="matrix(4.16667,0,0,4.16667,0,0)">
            <path d="M294.093,1930.58L307.082,1952.77L294.494,1976.5L295.377,1976.97L308.227,1952.75L294.956,1930.07L294.093,1930.58Z" style="fill:rgb(217,217,217);fill-rule:nonzero;"/>
        </g>
        <g transform="matrix(4.16667,0,0,4.16667,0,0)">
            <path d="M395.084,1930.78L407.868,1952.77L395.279,1976.5L396.163,1976.97L409.012,1952.75L395.948,1930.28L395.084,1930.78Z" style="fill:rgb(217,217,217);fill-rule:nonzero;"/>
        </g>
        <g transform="matrix(4.16667,0,0,4.16667,0,0)">
            <path d="M218.693,1946.74C218.693,1949.5 216.455,1951.74 213.693,1951.74C210.932,1951.74 208.693,1949.5 208.693,1946.74C208.693,1943.98 210.932,1941.74 213.693,1941.74C216.455,1941.74 218.693,1943.98 218.693,1946.74Z" style="fill:rgb(112,114,115);fill-rule:nonzero;"/>
        </g>
        <g transform="matrix(4.16667,0,0,4.16667,0,0)">
            <path d="M216.915,1945.41L216.031,1944.53L213.127,1947.44L211.708,1946.01L210.824,1946.9L213.125,1949.2L213.163,1949.16L213.165,1949.16L216.915,1945.41Z" style="fill:white;fill-rule:nonzero;"/>
        </g>
    </g>
    <defs>
        <linearGradient id="_Linear1" x1="0" y1="0" x2="1" y2="0" gradientUnits="userSpaceOnUse" gradientTransform="matrix(-2.02416e-06,46.3074,-46.3074,-2.02416e-06,352.238,1930.71)"><stop offset="0%" style="stop-color:rgb(246,248,249);stop-opacity:1"/><stop offset="100%" style="stop-color:rgb(243,243,244);stop-opacity:1"/></linearGradient>
        <linearGradient id="_Linear2" x1="0" y1="0" x2="1" y2="0" gradientUnits="userSpaceOnUse" gradientTransform="matrix(-2.07863e-06,47.5534,-47.5534,-2.07863e-06,351.482,1932.08)"><stop offset="0%" style="stop-color:rgb(217,217,217);stop-opacity:1"/><stop offset="100%" style="stop-color:rgb(220,219,219);stop-opacity:1"/></linearGradient>
    </defs>
</svg>
