<?xml version="1.0" standalone="no"?>
<!DOCTYPE svg PUBLIC "-//W3C//DTD SVG 1.1//EN" "http://www.w3.org/Graphics/SVG/1.1/DTD/svg11.dtd">
<svg width="100%" height="100%" viewBox="0 0 1510 215" version="1.1" xmlns="http://www.w3.org/2000/svg" xmlns:xlink="http://www.w3.org/1999/xlink" xml:space="preserve" style="fill-rule:evenodd;clip-rule:evenodd;stroke-linejoin:round;stroke-miterlimit:1.41421;">
    <g transform="matrix(1.33333,0,0,1.33333,-2930.12,-10757.1)">
        <g transform="matrix(4.16667,0,0,4.16667,0,0)">
            <path d="M771.749,1967.35L671.831,1967.35C671.969,1966.7 672.042,1966.04 672.042,1965.35C672.042,1963.92 671.726,1962.57 671.161,1961.35L772.419,1961.35C771.854,1962.57 771.539,1963.92 771.539,1965.35C771.539,1966.04 771.611,1966.7 771.749,1967.35ZM653.252,1967.35L553.391,1967.35C553.529,1966.7 553.602,1966.04 553.602,1965.35C553.602,1963.92 553.287,1962.57 552.722,1961.35L653.922,1961.35C653.357,1962.57 653.042,1963.92 653.042,1965.35C653.042,1966.04 653.114,1966.7 653.252,1967.35Z" style="fill:url(#_Linear1);"/>
        </g>
        <g transform="matrix(4.16667,0,0,4.16667,0,0)">
            <path d="M782.292,1960.35L542.79,1960.35C541.136,1960.35 539.79,1961.7 539.79,1963.35L539.79,1965.35C539.79,1967 541.136,1968.35 542.79,1968.35L782.292,1968.35C783.946,1968.35 785.291,1967 785.291,1965.35L785.291,1963.35C785.291,1961.7 783.946,1960.35 782.292,1960.35ZM782.292,1961.35C783.396,1961.35 784.291,1962.24 784.291,1963.35L784.291,1965.35C784.291,1966.45 783.396,1967.35 782.292,1967.35L542.79,1967.35C541.686,1967.35 540.791,1966.45 540.791,1965.35L540.791,1963.35C540.791,1962.24 541.686,1961.35 542.79,1961.35L782.292,1961.35Z" style="fill:rgb(225,225,225);fill-rule:nonzero;"/>
        </g>
        <g transform="matrix(4.16667,0,0,4.16667,0,0)">
            <path d="M544.102,1973.85C541.753,1973.85 539.631,1972.9 538.091,1971.36C536.552,1969.82 535.603,1967.7 535.602,1965.35C535.603,1963 536.552,1960.88 538.091,1959.34C539.631,1957.8 541.753,1956.85 544.102,1956.85C546.452,1956.85 548.573,1957.8 550.113,1959.34C550.426,1959.65 550.716,1959.99 550.977,1960.35L542.79,1960.35C541.136,1960.35 539.79,1961.7 539.79,1963.35L539.79,1965.35C539.79,1967 541.136,1968.35 542.79,1968.35L552.058,1968.35C551.628,1969.49 550.959,1970.51 550.113,1971.36C548.573,1972.9 546.452,1973.85 544.102,1973.85Z" style="fill:rgb(229,229,229);fill-rule:nonzero;"/>
        </g>
        <g transform="matrix(4.16667,0,0,4.16667,0,0)">
            <path d="M552.366,1967.35L542.79,1967.35C541.686,1967.35 540.791,1966.45 540.791,1965.35L540.791,1963.35C540.791,1962.24 541.686,1961.35 542.79,1961.35L551.605,1961.35C552.241,1962.54 552.602,1963.9 552.602,1965.35C552.602,1966.04 552.52,1966.71 552.366,1967.35Z" style="fill:url(#_Linear2);"/>
        </g>
        <g transform="matrix(4.16667,0,0,4.16667,0,0)">
            <path d="M552.058,1968.35L542.79,1968.35C541.136,1968.35 539.79,1967 539.79,1965.35L539.79,1963.35C539.79,1961.7 541.136,1960.35 542.79,1960.35L550.977,1960.35C551.209,1960.67 551.418,1961 551.605,1961.35L542.79,1961.35C541.686,1961.35 540.791,1962.24 540.791,1963.35L540.791,1965.35C540.791,1966.45 541.686,1967.35 542.79,1967.35L552.366,1967.35C552.283,1967.69 552.18,1968.03 552.058,1968.35Z" style="fill:rgb(202,202,202);fill-rule:nonzero;"/>
        </g>
        <g transform="matrix(4.16667,0,0,4.16667,0,0)">
            <path d="M544.102,1974.85C538.854,1974.85 534.602,1970.6 534.602,1965.35C534.602,1960.1 538.854,1955.85 544.102,1955.85C547.515,1955.85 550.507,1957.65 552.182,1960.35L550.977,1960.35C550.716,1959.99 550.426,1959.65 550.113,1959.34C548.573,1957.8 546.452,1956.85 544.102,1956.85C541.753,1956.85 539.631,1957.8 538.091,1959.34C536.552,1960.88 535.603,1963 535.602,1965.35C535.603,1967.7 536.552,1969.82 538.091,1971.36C539.631,1972.9 541.753,1973.85 544.102,1973.85C546.452,1973.85 548.573,1972.9 550.113,1971.36C550.959,1970.51 551.628,1969.49 552.058,1968.35L553.119,1968.35C551.863,1972.13 548.301,1974.85 544.102,1974.85Z" style="fill:rgb(229,229,229);fill-rule:nonzero;"/>
        </g>
        <g transform="matrix(4.16667,0,0,4.16667,0,0)">
            <path d="M553.391,1967.35L552.366,1967.35C552.52,1966.71 552.602,1966.04 552.602,1965.35C552.602,1963.9 552.241,1962.54 551.605,1961.35L552.722,1961.35C553.287,1962.57 553.602,1963.92 553.602,1965.35C553.602,1966.04 553.529,1966.7 553.391,1967.35Z" style="fill:url(#_Linear3);"/>
        </g>
        <g transform="matrix(4.16667,0,0,4.16667,0,0)">
            <path d="M553.119,1968.35L552.058,1968.35C552.18,1968.03 552.283,1967.69 552.366,1967.35L553.391,1967.35C553.318,1967.69 553.227,1968.02 553.119,1968.35ZM552.722,1961.35L551.605,1961.35C551.418,1961 551.209,1960.67 550.977,1960.35L552.182,1960.35C552.381,1960.67 552.561,1961 552.722,1961.35Z" style="fill:rgb(202,202,202);fill-rule:nonzero;"/>
        </g>
        <g transform="matrix(4.16667,0,0,4.16667,0,0)">
            <path d="M553.102,1964.35C553.102,1969.32 549.074,1973.35 544.102,1973.35C539.13,1973.35 535.102,1969.32 535.102,1964.35C535.102,1959.38 539.13,1955.35 544.102,1955.35C549.074,1955.35 553.102,1959.38 553.102,1964.35Z" style="fill:url(#_Linear4);"/>
        </g>
        <g transform="matrix(4.16667,0,0,4.16667,0,0)">
            <path d="M553.102,1964.35L552.602,1964.35C552.602,1966.7 551.652,1968.82 550.113,1970.36C548.573,1971.9 546.451,1972.85 544.102,1972.85C541.753,1972.85 539.631,1971.9 538.091,1970.36C536.552,1968.82 535.602,1966.7 535.602,1964.35C535.602,1962 536.552,1959.88 538.091,1958.34C539.631,1956.8 541.753,1955.85 544.102,1955.85C546.451,1955.85 548.573,1956.8 550.113,1958.34C551.652,1959.88 552.602,1962 552.602,1964.35L553.602,1964.35C553.602,1959.1 549.35,1954.85 544.102,1954.85C538.854,1954.85 534.602,1959.1 534.602,1964.35C534.602,1969.6 538.854,1973.85 544.102,1973.85C549.35,1973.85 553.602,1969.6 553.602,1964.35L553.102,1964.35Z" style="fill:rgb(196,196,196);fill-rule:nonzero;"/>
        </g>
        <g transform="matrix(4.16667,0,0,4.16667,0,0)">
            <path d="M548.602,1965.35C548.602,1967.83 546.587,1969.85 544.102,1969.85C541.617,1969.85 539.602,1967.83 539.602,1965.35C539.602,1962.86 541.617,1960.85 544.102,1960.85C546.587,1960.85 548.602,1962.86 548.602,1965.35Z" style="fill:white;fill-rule:nonzero;"/>
        </g>
        <g transform="matrix(4.16667,0,0,4.16667,0,0)">
            <path d="M548.602,1964.35C548.602,1966.83 546.587,1968.85 544.102,1968.85C541.617,1968.85 539.602,1966.83 539.602,1964.35C539.602,1961.86 541.617,1959.85 544.102,1959.85C546.587,1959.85 548.602,1961.86 548.602,1964.35Z" style="fill:rgb(110,110,111);fill-rule:nonzero;"/>
        </g>
        <g transform="matrix(4.16667,0,0,4.16667,0,0)">
            <path d="M781.038,1973.85C778.689,1973.85 776.567,1972.9 775.028,1971.36C774.181,1970.51 773.513,1969.49 773.083,1968.35L782.292,1968.35C783.946,1968.35 785.291,1967 785.291,1965.35L785.291,1963.35C785.291,1961.7 783.946,1960.35 782.292,1960.35L774.163,1960.35C774.425,1959.99 774.714,1959.65 775.028,1959.34C776.567,1957.8 778.689,1956.85 781.038,1956.85C783.388,1956.85 785.51,1957.8 787.049,1959.34C788.588,1960.88 789.538,1963 789.539,1965.35C789.538,1967.7 788.588,1969.82 787.049,1971.36C785.51,1972.9 783.388,1973.85 781.038,1973.85Z" style="fill:rgb(229,229,229);fill-rule:nonzero;"/>
        </g>
        <g transform="matrix(4.16667,0,0,4.16667,0,0)">
            <path d="M782.292,1967.35L772.775,1967.35C772.621,1966.71 772.539,1966.04 772.539,1965.35C772.539,1963.9 772.899,1962.54 773.536,1961.35L782.292,1961.35C783.396,1961.35 784.291,1962.24 784.291,1963.35L784.291,1965.35C784.291,1966.45 783.396,1967.35 782.292,1967.35Z" style="fill:url(#_Linear5);"/>
        </g>
        <g transform="matrix(4.16667,0,0,4.16667,0,0)">
            <path d="M782.292,1968.35L773.083,1968.35C772.96,1968.03 772.857,1967.69 772.775,1967.35L782.292,1967.35C783.396,1967.35 784.291,1966.45 784.291,1965.35L784.291,1963.35C784.291,1962.24 783.396,1961.35 782.292,1961.35L773.536,1961.35C773.722,1961 773.932,1960.67 774.163,1960.35L782.292,1960.35C783.946,1960.35 785.291,1961.7 785.291,1963.35L785.291,1965.35C785.291,1967 783.946,1968.35 782.292,1968.35Z" style="fill:rgb(202,202,202);fill-rule:nonzero;"/>
        </g>
        <g transform="matrix(4.16667,0,0,4.16667,0,0)">
            <path d="M781.038,1974.85C776.839,1974.85 773.277,1972.13 772.022,1968.35L773.083,1968.35C773.513,1969.49 774.181,1970.51 775.028,1971.36C776.567,1972.9 778.689,1973.85 781.038,1973.85C783.388,1973.85 785.51,1972.9 787.049,1971.36C788.588,1969.82 789.538,1967.7 789.539,1965.35C789.538,1963 788.588,1960.88 787.049,1959.34C785.51,1957.8 783.388,1956.85 781.038,1956.85C778.689,1956.85 776.567,1957.8 775.028,1959.34C774.714,1959.65 774.425,1959.99 774.163,1960.35L772.959,1960.35C774.634,1957.65 777.625,1955.85 781.038,1955.85C786.287,1955.85 790.538,1960.1 790.538,1965.35C790.538,1970.6 786.287,1974.85 781.038,1974.85Z" style="fill:rgb(229,229,229);fill-rule:nonzero;"/>
        </g>
        <g transform="matrix(4.16667,0,0,4.16667,0,0)">
            <path d="M772.775,1967.35L771.749,1967.35C771.611,1966.7 771.539,1966.04 771.539,1965.35C771.539,1963.92 771.854,1962.57 772.419,1961.35L773.536,1961.35C772.899,1962.54 772.539,1963.9 772.539,1965.35C772.539,1966.04 772.621,1966.71 772.775,1967.35Z" style="fill:url(#_Linear6);"/>
        </g>
        <g transform="matrix(4.16667,0,0,4.16667,0,0)">
            <path d="M773.083,1968.35L772.022,1968.35C771.914,1968.02 771.822,1967.69 771.749,1967.35L772.775,1967.35C772.857,1967.69 772.96,1968.03 773.083,1968.35ZM773.536,1961.35L772.419,1961.35C772.579,1961 772.76,1960.67 772.959,1960.35L774.163,1960.35C773.932,1960.67 773.722,1961 773.536,1961.35Z" style="fill:rgb(202,202,202);fill-rule:nonzero;"/>
        </g>
        <g transform="matrix(4.16667,0,0,4.16667,0,0)">
            <path d="M790.039,1964.35C790.039,1969.32 786.01,1973.35 781.039,1973.35C776.067,1973.35 772.039,1969.32 772.039,1964.35C772.039,1959.38 776.067,1955.35 781.039,1955.35C786.01,1955.35 790.039,1959.38 790.039,1964.35Z" style="fill:url(#_Linear7);"/>
        </g>
        <g transform="matrix(4.16667,0,0,4.16667,0,0)">
            <path d="M790.039,1964.35L789.539,1964.35C789.538,1966.7 788.588,1968.82 787.049,1970.36C785.51,1971.9 783.388,1972.85 781.039,1972.85C778.689,1972.85 776.567,1971.9 775.028,1970.36C773.489,1968.82 772.539,1966.7 772.539,1964.35C772.539,1962 773.489,1959.88 775.028,1958.34C776.567,1956.8 778.689,1955.85 781.039,1955.85C783.388,1955.85 785.51,1956.8 787.049,1958.34C788.588,1959.88 789.538,1962 789.539,1964.35L790.539,1964.35C790.538,1959.1 786.286,1954.85 781.039,1954.85C775.791,1954.85 771.539,1959.1 771.539,1964.35C771.539,1969.6 775.791,1973.85 781.039,1973.85C786.286,1973.85 790.538,1969.6 790.539,1964.35L790.039,1964.35Z" style="fill:rgb(196,196,196);fill-rule:nonzero;"/>
        </g>
        <g transform="matrix(4.16667,0,0,4.16667,0,0)">
            <path d="M781.039,1969.35C778.833,1969.35 777.039,1967.56 777.039,1965.35C777.039,1963.14 778.833,1961.35 781.039,1961.35C783.245,1961.35 785.039,1963.14 785.039,1965.35C785.039,1967.56 783.245,1969.35 781.039,1969.35Z" style="fill:white;fill-rule:nonzero;"/>
        </g>
        <g transform="matrix(4.16667,0,0,4.16667,0,0)">
            <path d="M781.039,1960.85C778.553,1960.85 776.539,1962.86 776.539,1965.35C776.539,1967.83 778.553,1969.85 781.039,1969.85C783.524,1969.85 785.539,1967.83 785.539,1965.35C785.539,1962.86 783.524,1960.85 781.039,1960.85ZM781.039,1961.85C782.968,1961.85 784.539,1963.42 784.539,1965.35C784.539,1967.28 782.968,1968.85 781.039,1968.85C779.109,1968.85 777.539,1967.28 777.539,1965.35C777.539,1963.42 779.109,1961.85 781.039,1961.85Z" style="fill:white;fill-rule:nonzero;"/>
        </g>
        <g transform="matrix(4.16667,0,0,4.16667,0,0)">
            <path d="M781.039,1968.35C778.833,1968.35 777.039,1966.56 777.039,1964.35C777.039,1962.14 778.833,1960.35 781.039,1960.35C783.245,1960.35 785.039,1962.14 785.039,1964.35C785.039,1966.56 783.245,1968.35 781.039,1968.35Z" style="fill:url(#_Linear8);"/>
        </g>
        <g transform="matrix(4.16667,0,0,4.16667,0,0)">
            <path d="M781.039,1959.85C778.553,1959.85 776.539,1961.86 776.539,1964.35C776.539,1966.83 778.553,1968.85 781.039,1968.85C783.524,1968.85 785.539,1966.83 785.539,1964.35C785.539,1961.86 783.524,1959.85 781.039,1959.85ZM781.039,1960.85C782.968,1960.85 784.539,1962.42 784.539,1964.35C784.539,1966.28 782.968,1967.85 781.039,1967.85C779.109,1967.85 777.539,1966.28 777.539,1964.35C777.539,1962.42 779.109,1960.85 781.039,1960.85Z" style="fill:rgb(205,204,204);fill-rule:nonzero;"/>
        </g>
        <g transform="matrix(4.16667,0,0,4.16667,0,0)">
            <path d="M662.541,1973.85C660.192,1973.85 658.07,1972.9 656.531,1971.36C655.684,1970.51 655.016,1969.49 654.586,1968.35L670.497,1968.35C670.067,1969.49 669.399,1970.51 668.553,1971.36C667.013,1972.9 664.891,1973.85 662.541,1973.85ZM669.417,1960.35L655.666,1960.35C655.928,1959.99 656.217,1959.65 656.531,1959.34C658.07,1957.8 660.192,1956.85 662.541,1956.85C664.891,1956.85 667.013,1957.8 668.553,1959.34C668.866,1959.65 669.155,1959.99 669.417,1960.35Z" style="fill:rgb(229,229,229);fill-rule:nonzero;"/>
        </g>
        <g transform="matrix(4.16667,0,0,4.16667,0,0)">
            <path d="M670.805,1967.35L654.278,1967.35C654.123,1966.71 654.042,1966.04 654.042,1965.35C654.042,1963.9 654.402,1962.54 655.039,1961.35L670.044,1961.35C670.681,1962.54 671.041,1963.9 671.042,1965.35C671.041,1966.04 670.959,1966.71 670.805,1967.35Z" style="fill:url(#_Linear9);"/>
        </g>
        <g transform="matrix(4.16667,0,0,4.16667,0,0)">
            <path d="M670.497,1968.35L654.586,1968.35C654.463,1968.03 654.36,1967.69 654.278,1967.35L670.805,1967.35C670.723,1967.69 670.62,1968.03 670.497,1968.35ZM670.044,1961.35L655.039,1961.35C655.225,1961 655.435,1960.67 655.666,1960.35L669.417,1960.35C669.648,1960.67 669.858,1961 670.044,1961.35Z" style="fill:rgb(202,202,202);fill-rule:nonzero;"/>
        </g>
        <g transform="matrix(4.16667,0,0,4.16667,0,0)">
            <path d="M662.541,1974.85C658.342,1974.85 654.78,1972.13 653.525,1968.35L654.586,1968.35C655.016,1969.49 655.684,1970.51 656.531,1971.36C658.07,1972.9 660.192,1973.85 662.541,1973.85C664.891,1973.85 667.013,1972.9 668.553,1971.36C669.399,1970.51 670.067,1969.49 670.497,1968.35L671.558,1968.35C670.303,1972.13 666.741,1974.85 662.541,1974.85ZM670.621,1960.35L669.417,1960.35C669.155,1959.99 668.866,1959.65 668.553,1959.34C667.013,1957.8 664.891,1956.85 662.541,1956.85C660.192,1956.85 658.07,1957.8 656.531,1959.34C656.217,1959.65 655.928,1959.99 655.666,1960.35L654.462,1960.35C656.136,1957.65 659.128,1955.85 662.541,1955.85C665.955,1955.85 668.946,1957.65 670.621,1960.35Z" style="fill:rgb(229,229,229);fill-rule:nonzero;"/>
        </g>
        <g transform="matrix(4.16667,0,0,4.16667,0,0)">
            <path d="M671.831,1967.35L670.805,1967.35C670.959,1966.71 671.041,1966.04 671.042,1965.35C671.041,1963.9 670.681,1962.54 670.044,1961.35L671.161,1961.35C671.726,1962.57 672.042,1963.92 672.042,1965.35C672.042,1966.04 671.969,1966.7 671.831,1967.35ZM654.278,1967.35L653.252,1967.35C653.114,1966.7 653.042,1966.04 653.042,1965.35C653.042,1963.92 653.357,1962.57 653.922,1961.35L655.039,1961.35C654.402,1962.54 654.042,1963.9 654.042,1965.35C654.042,1966.04 654.123,1966.71 654.278,1967.35Z" style="fill:url(#_Linear10);"/>
        </g>
        <g transform="matrix(4.16667,0,0,4.16667,0,0)">
            <path d="M671.558,1968.35L670.497,1968.35C670.62,1968.03 670.723,1967.69 670.805,1967.35L671.831,1967.35C671.758,1967.69 671.667,1968.02 671.558,1968.35ZM654.586,1968.35L653.525,1968.35C653.416,1968.02 653.325,1967.69 653.252,1967.35L654.278,1967.35C654.36,1967.69 654.463,1968.03 654.586,1968.35ZM671.161,1961.35L670.044,1961.35C669.858,1961 669.648,1960.67 669.417,1960.35L670.621,1960.35C670.82,1960.67 671.001,1961 671.161,1961.35ZM655.039,1961.35L653.922,1961.35C654.082,1961 654.262,1960.67 654.462,1960.35L655.666,1960.35C655.435,1960.67 655.225,1961 655.039,1961.35Z" style="fill:rgb(202,202,202);fill-rule:nonzero;"/>
        </g>
        <g transform="matrix(4.16667,0,0,4.16667,0,0)">
            <path d="M671.542,1964.35C671.542,1969.32 667.513,1973.35 662.542,1973.35C657.57,1973.35 653.542,1969.32 653.542,1964.35C653.542,1959.38 657.57,1955.35 662.542,1955.35C667.513,1955.35 671.542,1959.38 671.542,1964.35Z" style="fill:url(#_Linear11);"/>
        </g>
        <g transform="matrix(4.16667,0,0,4.16667,0,0)">
            <path d="M671.542,1964.35L671.042,1964.35C671.041,1966.7 670.091,1968.82 668.552,1970.36C667.013,1971.9 664.891,1972.85 662.542,1972.85C660.192,1972.85 658.07,1971.9 656.531,1970.36C654.992,1968.82 654.042,1966.7 654.041,1964.35C654.042,1962 654.992,1959.88 656.531,1958.34C658.07,1956.8 660.192,1955.85 662.542,1955.85C664.891,1955.85 667.013,1956.8 668.552,1958.34C670.091,1959.88 671.041,1962 671.042,1964.35L672.041,1964.35C672.041,1959.1 667.789,1954.85 662.542,1954.85C657.294,1954.85 653.042,1959.1 653.042,1964.35C653.042,1969.6 657.294,1973.85 662.542,1973.85C667.789,1973.85 672.041,1969.6 672.041,1964.35L671.542,1964.35Z" style="fill:rgb(196,196,196);fill-rule:nonzero;"/>
        </g>
        <g transform="matrix(4.16667,0,0,4.16667,0,0)">
            <path d="M662.542,1969.35C660.335,1969.35 658.542,1967.56 658.542,1965.35C658.542,1963.14 660.335,1961.35 662.542,1961.35C664.748,1961.35 666.542,1963.14 666.542,1965.35C666.542,1967.56 664.748,1969.35 662.542,1969.35Z" style="fill:white;fill-rule:nonzero;"/>
        </g>
        <g transform="matrix(4.16667,0,0,4.16667,0,0)">
            <path d="M662.542,1960.85C660.056,1960.85 658.042,1962.86 658.042,1965.35C658.042,1967.83 660.056,1969.85 662.542,1969.85C665.027,1969.85 667.042,1967.83 667.042,1965.35C667.042,1962.86 665.027,1960.85 662.542,1960.85ZM662.542,1961.85C664.471,1961.85 666.042,1963.42 666.042,1965.35C666.042,1967.28 664.471,1968.85 662.542,1968.85C660.612,1968.85 659.042,1967.28 659.042,1965.35C659.042,1963.42 660.612,1961.85 662.542,1961.85Z" style="fill:white;fill-rule:nonzero;"/>
        </g>
        <g transform="matrix(4.16667,0,0,4.16667,0,0)">
            <path d="M662.542,1968.35C660.335,1968.35 658.542,1966.56 658.542,1964.35C658.542,1962.14 660.335,1960.35 662.542,1960.35C664.748,1960.35 666.542,1962.14 666.542,1964.35C666.542,1966.56 664.748,1968.35 662.542,1968.35Z" style="fill:url(#_Linear12);"/>
        </g>
        <g transform="matrix(4.16667,0,0,4.16667,0,0)">
            <path d="M662.542,1959.85C660.056,1959.85 658.042,1961.86 658.042,1964.35C658.042,1966.83 660.056,1968.85 662.542,1968.85C665.027,1968.85 667.042,1966.83 667.042,1964.35C667.042,1961.86 665.027,1959.85 662.542,1959.85ZM662.542,1960.85C664.471,1960.85 666.042,1962.42 666.042,1964.35C666.042,1966.28 664.471,1967.85 662.542,1967.85C660.612,1967.85 659.042,1966.28 659.042,1964.35C659.042,1962.42 660.612,1960.85 662.542,1960.85Z" style="fill:rgb(205,204,204);fill-rule:nonzero;"/>
        </g>
        <g transform="matrix(4.16667,0,0,4.16667,0,0)">
            <path d="M528.465,1944.43C529.041,1944.93 529.881,1945.19 530.961,1945.19C531.717,1945.19 532.329,1945.08 532.833,1944.87C533.337,1944.66 533.721,1944.35 533.997,1943.91C534.273,1943.48 534.405,1943.03 534.405,1942.53C534.405,1941.98 534.297,1941.53 534.069,1941.17C533.841,1940.79 533.517,1940.51 533.121,1940.29C532.713,1940.07 532.089,1939.87 531.249,1939.67C530.409,1939.47 529.881,1939.28 529.653,1939.09C529.485,1938.95 529.401,1938.78 529.401,1938.57C529.401,1938.35 529.497,1938.17 529.677,1938.03C529.953,1937.83 530.349,1937.72 530.853,1937.72C531.333,1937.72 531.693,1937.82 531.945,1938.01C532.185,1938.2 532.341,1938.53 532.413,1938.97L534.153,1938.91C534.129,1938.12 533.841,1937.47 533.301,1937C532.749,1936.52 531.945,1936.28 530.865,1936.28C530.217,1936.28 529.653,1936.38 529.185,1936.58C528.717,1936.79 528.369,1937.07 528.117,1937.46C527.865,1937.84 527.745,1938.25 527.745,1938.68C527.745,1939.37 528.009,1939.94 528.537,1940.42C528.909,1940.76 529.557,1941.05 530.481,1941.27C531.201,1941.45 531.669,1941.57 531.861,1941.65C532.161,1941.75 532.365,1941.87 532.485,1942.02C532.605,1942.16 532.665,1942.34 532.665,1942.53C532.665,1942.86 532.521,1943.13 532.245,1943.36C531.957,1943.6 531.537,1943.72 530.985,1943.72C530.457,1943.72 530.037,1943.59 529.725,1943.33C529.425,1943.06 529.209,1942.64 529.113,1942.08L527.421,1942.25C527.529,1943.21 527.877,1943.94 528.465,1944.43Z" style="fill:rgb(110,110,111);fill-rule:nonzero;"/>
        </g>
        <g transform="matrix(4.16667,0,0,4.16667,0,0)">
            <path d="M537.585,1938.8L537.585,1936.59L535.941,1937.57L535.941,1938.8L535.185,1938.8L535.185,1940.11L535.941,1940.11L535.941,1942.83C535.941,1943.42 535.953,1943.81 535.989,1944C536.037,1944.27 536.109,1944.49 536.229,1944.65C536.337,1944.8 536.505,1944.93 536.745,1945.03C536.985,1945.14 537.249,1945.19 537.549,1945.19C538.029,1945.19 538.461,1945.1 538.845,1944.93L538.713,1943.66C538.413,1943.77 538.197,1943.82 538.041,1943.82C537.933,1943.82 537.837,1943.79 537.765,1943.73C537.693,1943.69 537.633,1943.61 537.621,1943.53C537.597,1943.45 537.585,1943.15 537.585,1942.63L537.585,1940.11L538.713,1940.11L538.713,1938.8L537.585,1938.8Z" style="fill:rgb(110,110,111);fill-rule:nonzero;"/>
        </g>
        <g transform="matrix(4.16667,0,0,4.16667,0,0)">
            <path d="M543.069,1943.73C542.889,1943.88 542.673,1943.95 542.421,1943.95C542.037,1943.95 541.725,1943.82 541.473,1943.54C541.221,1943.27 541.089,1942.89 541.077,1942.4L545.193,1942.4C545.217,1941.14 544.965,1940.21 544.425,1939.59C543.897,1938.98 543.165,1938.67 542.241,1938.67C541.413,1938.67 540.729,1938.96 540.189,1939.55C539.649,1940.13 539.385,1940.94 539.385,1941.97C539.385,1942.83 539.589,1943.55 539.997,1944.12C540.525,1944.83 541.317,1945.19 542.397,1945.19C543.081,1945.19 543.657,1945.03 544.113,1944.72C544.569,1944.39 544.893,1943.94 545.109,1943.34L543.465,1943.06C543.381,1943.37 543.249,1943.6 543.069,1943.73ZM541.101,1941.39C541.101,1940.94 541.221,1940.59 541.449,1940.33C541.689,1940.06 541.977,1939.93 542.337,1939.93C542.673,1939.93 542.961,1940.05 543.189,1940.3C543.429,1940.55 543.549,1940.91 543.561,1941.39L541.101,1941.39Z" style="fill:rgb(110,110,111);fill-rule:nonzero;"/>
        </g>
        <g transform="matrix(4.16667,0,0,4.16667,0,0)">
            <path d="M546.489,1947.39L548.133,1947.39L548.133,1944.27C548.445,1944.61 548.733,1944.85 549.021,1944.98C549.297,1945.11 549.609,1945.19 549.957,1945.19C550.677,1945.19 551.289,1944.9 551.793,1944.32C552.309,1943.75 552.561,1942.93 552.561,1941.9C552.561,1940.88 552.309,1940.09 551.805,1939.52C551.301,1938.96 550.689,1938.67 549.969,1938.67C549.549,1938.67 549.177,1938.77 548.829,1938.96C548.493,1939.15 548.229,1939.4 548.025,1939.71L548.025,1938.8L546.489,1938.8L546.489,1947.39ZM548.505,1940.43C548.769,1940.12 549.105,1939.97 549.501,1939.97C549.897,1939.97 550.221,1940.12 550.473,1940.45C550.737,1940.76 550.869,1941.25 550.869,1941.9C550.869,1942.61 550.737,1943.11 550.485,1943.42C550.233,1943.72 549.921,1943.88 549.537,1943.88C549.141,1943.88 548.805,1943.71 548.529,1943.37C548.253,1943.04 548.109,1942.52 548.109,1941.81C548.109,1941.2 548.241,1940.75 548.505,1940.43Z" style="fill:rgb(110,110,111);fill-rule:nonzero;"/>
        </g>
        <g transform="matrix(4.16667,0,0,4.16667,0,0)">
            <path d="M557.685,1937.27C557.121,1937.99 556.845,1939.15 556.845,1940.77C556.845,1942.43 557.097,1943.58 557.613,1944.21C558.129,1944.86 558.801,1945.19 559.641,1945.19C560.469,1945.19 561.117,1944.9 561.585,1944.31C562.149,1943.59 562.425,1942.43 562.425,1940.79C562.425,1939.16 562.149,1937.99 561.585,1937.28C561.117,1936.69 560.469,1936.39 559.641,1936.39C558.801,1936.39 558.153,1936.68 557.685,1937.27ZM560.157,1937.95C560.313,1938.08 560.433,1938.33 560.541,1938.71C560.637,1939.09 560.685,1939.77 560.685,1940.79C560.685,1941.8 560.625,1942.52 560.517,1942.94C560.433,1943.27 560.313,1943.49 560.157,1943.63C560.001,1943.76 559.833,1943.82 559.641,1943.82C559.437,1943.82 559.269,1943.76 559.113,1943.63C558.957,1943.51 558.837,1943.25 558.741,1942.87C558.633,1942.5 558.585,1941.8 558.585,1940.79C558.585,1939.77 558.645,1939.07 558.753,1938.63C558.837,1938.31 558.957,1938.08 559.113,1937.95C559.269,1937.82 559.437,1937.76 559.641,1937.76C559.833,1937.76 560.001,1937.82 560.157,1937.95Z" style="fill:rgb(110,110,111);fill-rule:nonzero;"/>
        </g>
        <g transform="matrix(4.16667,0,0,4.16667,0,0)">
            <path d="M567.729,1936.39L566.397,1936.39C566.205,1936.92 565.857,1937.37 565.365,1937.76C564.861,1938.15 564.393,1938.42 563.961,1938.56L563.961,1940.06C564.777,1939.79 565.485,1939.38 566.085,1938.81L566.085,1945.03L567.729,1945.03L567.729,1936.39Z" style="fill:rgb(110,110,111);fill-rule:nonzero;"/>
        </g>
        <g transform="matrix(4.16667,0,0,4.16667,0,0)">
            <path d="M644.187,1943.82C644.487,1944.26 644.895,1944.61 645.423,1944.84C645.951,1945.07 646.599,1945.17 647.379,1945.17C647.991,1945.17 648.543,1945.07 649.023,1944.84C649.515,1944.61 649.899,1944.3 650.151,1943.9C650.415,1943.49 650.547,1943.06 650.547,1942.61C650.547,1942.15 650.427,1941.74 650.187,1941.38C649.947,1941.03 649.587,1940.75 649.083,1940.52C648.747,1940.36 648.111,1940.17 647.187,1939.97C646.263,1939.76 645.687,1939.56 645.471,1939.35C645.243,1939.15 645.135,1938.9 645.135,1938.59C645.135,1938.24 645.291,1937.94 645.603,1937.69C645.927,1937.43 646.419,1937.3 647.115,1937.3C647.775,1937.3 648.267,1937.45 648.603,1937.72C648.951,1938 649.143,1938.41 649.203,1938.95L650.295,1938.86C650.271,1938.36 650.139,1937.9 649.875,1937.51C649.611,1937.11 649.239,1936.81 648.747,1936.61C648.267,1936.4 647.703,1936.29 647.067,1936.29C646.491,1936.29 645.963,1936.39 645.495,1936.58C645.015,1936.79 644.655,1937.07 644.415,1937.45C644.163,1937.83 644.043,1938.23 644.043,1938.67C644.043,1939.07 644.139,1939.41 644.343,1939.74C644.547,1940.05 644.847,1940.33 645.255,1940.54C645.579,1940.71 646.131,1940.89 646.923,1941.07C647.703,1941.26 648.219,1941.41 648.447,1941.49C648.807,1941.63 649.059,1941.8 649.215,1941.99C649.371,1942.2 649.455,1942.44 649.455,1942.7C649.455,1942.97 649.371,1943.22 649.215,1943.43C649.047,1943.66 648.807,1943.84 648.471,1943.97C648.135,1944.11 647.751,1944.17 647.319,1944.17C646.839,1944.17 646.395,1944.08 646.011,1943.91C645.615,1943.73 645.327,1943.52 645.147,1943.24C644.955,1942.97 644.835,1942.61 644.787,1942.17L643.719,1942.27C643.731,1942.85 643.887,1943.36 644.187,1943.82Z" style="fill:rgb(110,110,111);fill-rule:nonzero;"/>
        </g>
        <g transform="matrix(4.16667,0,0,4.16667,0,0)">
            <path d="M653.799,1944.13C653.643,1944.13 653.523,1944.11 653.439,1944.06C653.355,1944 653.295,1943.94 653.259,1943.84C653.223,1943.76 653.199,1943.57 653.199,1943.27L653.199,1939.62L654.255,1939.62L654.255,1938.8L653.199,1938.8L653.199,1936.63L652.143,1937.27L652.143,1938.8L651.363,1938.8L651.363,1939.62L652.143,1939.62L652.143,1943.21C652.143,1943.84 652.191,1944.25 652.275,1944.45C652.359,1944.65 652.503,1944.81 652.719,1944.93C652.923,1945.05 653.223,1945.11 653.607,1945.11C653.835,1945.11 654.099,1945.08 654.399,1945.02L654.255,1944.09C654.063,1944.12 653.907,1944.13 653.799,1944.13Z" style="fill:rgb(110,110,111);fill-rule:nonzero;"/>
        </g>
        <g transform="matrix(4.16667,0,0,4.16667,0,0)">
            <path d="M658.899,1943.99C658.623,1944.19 658.299,1944.3 657.915,1944.3C657.387,1944.3 656.955,1944.12 656.607,1943.76C656.259,1943.39 656.067,1942.87 656.031,1942.19L660.675,1942.19C660.675,1942.07 660.675,1941.97 660.675,1941.91C660.675,1940.88 660.411,1940.09 659.883,1939.52C659.355,1938.96 658.683,1938.67 657.855,1938.67C656.991,1938.67 656.295,1938.96 655.755,1939.53C655.215,1940.11 654.951,1940.93 654.951,1941.97C654.951,1942.98 655.215,1943.76 655.755,1944.32C656.283,1944.89 657.003,1945.16 657.915,1945.16C658.635,1945.16 659.223,1944.98 659.691,1944.63C660.147,1944.29 660.471,1943.79 660.639,1943.16L659.547,1943.01C659.391,1943.46 659.175,1943.78 658.899,1943.99ZM656.643,1940.03C656.967,1939.7 657.375,1939.53 657.855,1939.53C658.395,1939.53 658.827,1939.74 659.163,1940.15C659.379,1940.41 659.511,1940.79 659.559,1941.32L656.091,1941.32C656.127,1940.78 656.307,1940.35 656.643,1940.03Z" style="fill:rgb(110,110,111);fill-rule:nonzero;"/>
        </g>
        <g transform="matrix(4.16667,0,0,4.16667,0,0)">
            <path d="M663.027,1947.42L663.027,1944.38C663.207,1944.61 663.435,1944.79 663.711,1944.95C663.999,1945.09 664.311,1945.16 664.659,1945.16C665.139,1945.16 665.595,1945.03 666.039,1944.75C666.471,1944.49 666.795,1944.09 667.023,1943.59C667.251,1943.07 667.371,1942.51 667.371,1941.87C667.371,1941.27 667.263,1940.73 667.059,1940.23C666.855,1939.74 666.543,1939.35 666.147,1939.08C665.739,1938.8 665.271,1938.67 664.731,1938.67C664.335,1938.67 663.987,1938.75 663.699,1938.91C663.411,1939.07 663.159,1939.31 662.931,1939.62L662.931,1938.8L661.971,1938.8L661.971,1947.42L663.027,1947.42ZM663.447,1940.12C663.795,1939.7 664.191,1939.5 664.635,1939.5C665.091,1939.5 665.475,1939.69 665.799,1940.09C666.123,1940.48 666.291,1941.07 666.291,1941.86C666.291,1942.7 666.123,1943.31 665.787,1943.71C665.463,1944.11 665.055,1944.3 664.587,1944.3C664.131,1944.3 663.735,1944.11 663.411,1943.72C663.087,1943.34 662.931,1942.75 662.931,1941.96C662.931,1941.15 663.099,1940.54 663.447,1940.12Z" style="fill:rgb(110,110,111);fill-rule:nonzero;"/>
        </g>
        <g transform="matrix(4.16667,0,0,4.16667,0,0)">
            <path d="M672.543,1944.29C673.011,1944.87 673.659,1945.17 674.487,1945.17C675.111,1945.17 675.639,1945.01 676.047,1944.67C676.455,1944.33 676.767,1943.85 676.971,1943.23C677.175,1942.62 677.283,1941.8 677.283,1940.79C677.283,1939.94 677.223,1939.26 677.091,1938.77C676.959,1938.26 676.779,1937.83 676.563,1937.48C676.335,1937.13 676.047,1936.87 675.699,1936.68C675.351,1936.5 674.943,1936.4 674.487,1936.4C673.863,1936.4 673.347,1936.57 672.939,1936.91C672.519,1937.24 672.207,1937.71 672.003,1938.33C671.799,1938.96 671.691,1939.77 671.691,1940.79C671.691,1942.4 671.979,1943.57 672.543,1944.29ZM673.311,1937.89C673.599,1937.48 673.995,1937.28 674.475,1937.28C674.967,1937.28 675.375,1937.51 675.711,1937.97C676.035,1938.44 676.203,1939.38 676.203,1940.79C676.203,1942.21 676.035,1943.15 675.711,1943.61C675.375,1944.08 674.967,1944.31 674.487,1944.31C674.007,1944.31 673.599,1944.08 673.263,1943.61C672.939,1943.15 672.771,1942.21 672.771,1940.79C672.771,1939.38 672.951,1938.42 673.311,1937.89Z" style="fill:rgb(110,110,111);fill-rule:nonzero;"/>
        </g>
        <g transform="matrix(4.16667,0,0,4.16667,0,0)">
            <path d="M679.671,1944.02C679.791,1943.83 679.947,1943.64 680.127,1943.45C680.307,1943.27 680.715,1942.89 681.339,1942.37C682.107,1941.73 682.647,1941.23 682.971,1940.85C683.295,1940.48 683.535,1940.13 683.667,1939.81C683.811,1939.47 683.883,1939.14 683.883,1938.79C683.883,1938.12 683.643,1937.54 683.163,1937.09C682.683,1936.63 682.023,1936.4 681.207,1936.4C680.391,1936.4 679.731,1936.62 679.251,1937.04C678.759,1937.46 678.483,1938.08 678.411,1938.89L679.491,1938.99C679.491,1938.45 679.647,1938.03 679.959,1937.73C680.259,1937.43 680.667,1937.28 681.183,1937.28C681.663,1937.28 682.059,1937.42 682.359,1937.71C682.659,1938 682.803,1938.35 682.803,1938.77C682.803,1939.16 682.635,1939.59 682.311,1940.04C681.975,1940.48 681.339,1941.09 680.415,1941.86C679.815,1942.34 679.359,1942.77 679.035,1943.16C678.711,1943.53 678.483,1943.91 678.327,1944.3C678.243,1944.53 678.195,1944.78 678.207,1945.03L683.895,1945.03L683.895,1944.02L679.671,1944.02Z" style="fill:rgb(110,110,111);fill-rule:nonzero;"/>
        </g>
        <g transform="matrix(4.16667,0,0,4.16667,0,0)">
            <path d="M759.343,1943.82C759.643,1944.26 760.051,1944.61 760.579,1944.84C761.107,1945.07 761.755,1945.17 762.535,1945.17C763.147,1945.17 763.699,1945.07 764.179,1944.84C764.671,1944.61 765.055,1944.3 765.307,1943.9C765.571,1943.49 765.703,1943.06 765.703,1942.61C765.703,1942.15 765.583,1941.74 765.343,1941.38C765.103,1941.03 764.743,1940.75 764.239,1940.52C763.903,1940.36 763.267,1940.17 762.343,1939.97C761.419,1939.76 760.843,1939.56 760.627,1939.35C760.399,1939.15 760.291,1938.9 760.291,1938.59C760.291,1938.24 760.447,1937.94 760.759,1937.69C761.083,1937.43 761.575,1937.3 762.271,1937.3C762.931,1937.3 763.423,1937.45 763.759,1937.72C764.107,1938 764.299,1938.41 764.359,1938.95L765.451,1938.86C765.427,1938.36 765.295,1937.9 765.031,1937.51C764.767,1937.11 764.395,1936.81 763.903,1936.61C763.423,1936.4 762.859,1936.29 762.223,1936.29C761.647,1936.29 761.119,1936.39 760.651,1936.58C760.171,1936.79 759.811,1937.07 759.571,1937.45C759.319,1937.83 759.199,1938.23 759.199,1938.67C759.199,1939.07 759.295,1939.41 759.499,1939.74C759.703,1940.05 760.003,1940.33 760.411,1940.54C760.735,1940.71 761.287,1940.89 762.079,1941.07C762.859,1941.26 763.375,1941.41 763.603,1941.49C763.963,1941.63 764.215,1941.8 764.371,1941.99C764.527,1942.2 764.611,1942.44 764.611,1942.7C764.611,1942.97 764.527,1943.22 764.371,1943.43C764.203,1943.66 763.963,1943.84 763.627,1943.97C763.291,1944.11 762.907,1944.17 762.475,1944.17C761.995,1944.17 761.551,1944.08 761.167,1943.91C760.771,1943.73 760.483,1943.52 760.303,1943.24C760.111,1942.97 759.991,1942.61 759.943,1942.17L758.875,1942.27C758.887,1942.85 759.043,1943.36 759.343,1943.82Z" style="fill:rgb(110,110,111);fill-rule:nonzero;"/>
        </g>
        <g transform="matrix(4.16667,0,0,4.16667,0,0)">
            <path d="M768.955,1944.13C768.799,1944.13 768.679,1944.11 768.595,1944.06C768.511,1944 768.451,1943.94 768.415,1943.84C768.379,1943.76 768.355,1943.57 768.355,1943.27L768.355,1939.62L769.411,1939.62L769.411,1938.8L768.355,1938.8L768.355,1936.63L767.299,1937.27L767.299,1938.8L766.519,1938.8L766.519,1939.62L767.299,1939.62L767.299,1943.21C767.299,1943.84 767.347,1944.25 767.431,1944.45C767.515,1944.65 767.659,1944.81 767.875,1944.93C768.079,1945.05 768.379,1945.11 768.763,1945.11C768.991,1945.11 769.255,1945.08 769.555,1945.02L769.411,1944.09C769.219,1944.12 769.063,1944.13 768.955,1944.13Z" style="fill:rgb(110,110,111);fill-rule:nonzero;"/>
        </g>
        <g transform="matrix(4.16667,0,0,4.16667,0,0)">
            <path d="M774.055,1943.99C773.779,1944.19 773.455,1944.3 773.071,1944.3C772.543,1944.3 772.111,1944.12 771.763,1943.76C771.415,1943.39 771.223,1942.87 771.187,1942.19L775.831,1942.19C775.831,1942.07 775.831,1941.97 775.831,1941.91C775.831,1940.88 775.567,1940.09 775.039,1939.52C774.511,1938.96 773.839,1938.67 773.011,1938.67C772.147,1938.67 771.451,1938.96 770.911,1939.53C770.371,1940.11 770.107,1940.93 770.107,1941.97C770.107,1942.98 770.371,1943.76 770.911,1944.32C771.439,1944.89 772.159,1945.16 773.071,1945.16C773.791,1945.16 774.379,1944.98 774.847,1944.63C775.303,1944.29 775.627,1943.79 775.795,1943.16L774.703,1943.01C774.547,1943.46 774.331,1943.78 774.055,1943.99ZM771.799,1940.03C772.123,1939.7 772.531,1939.53 773.011,1939.53C773.551,1939.53 773.983,1939.74 774.319,1940.15C774.535,1940.41 774.667,1940.79 774.715,1941.32L771.247,1941.32C771.283,1940.78 771.463,1940.35 771.799,1940.03Z" style="fill:rgb(110,110,111);fill-rule:nonzero;"/>
        </g>
        <g transform="matrix(4.16667,0,0,4.16667,0,0)">
            <path d="M778.183,1947.42L778.183,1944.38C778.363,1944.61 778.591,1944.79 778.867,1944.95C779.155,1945.09 779.467,1945.16 779.815,1945.16C780.295,1945.16 780.751,1945.03 781.195,1944.75C781.627,1944.49 781.951,1944.09 782.179,1943.59C782.407,1943.07 782.527,1942.51 782.527,1941.87C782.527,1941.27 782.419,1940.73 782.215,1940.23C782.011,1939.74 781.699,1939.35 781.303,1939.08C780.895,1938.8 780.427,1938.67 779.887,1938.67C779.491,1938.67 779.143,1938.75 778.855,1938.91C778.567,1939.07 778.315,1939.31 778.087,1939.62L778.087,1938.8L777.127,1938.8L777.127,1947.42L778.183,1947.42ZM778.603,1940.12C778.951,1939.7 779.347,1939.5 779.791,1939.5C780.247,1939.5 780.631,1939.69 780.955,1940.09C781.279,1940.48 781.447,1941.07 781.447,1941.86C781.447,1942.7 781.279,1943.31 780.943,1943.71C780.619,1944.11 780.211,1944.3 779.743,1944.3C779.287,1944.3 778.891,1944.11 778.567,1943.72C778.243,1943.34 778.087,1942.75 778.087,1941.96C778.087,1941.15 778.255,1940.54 778.603,1940.12Z" style="fill:rgb(110,110,111);fill-rule:nonzero;"/>
        </g>
        <g transform="matrix(4.16667,0,0,4.16667,0,0)">
            <path d="M787.699,1944.29C788.167,1944.87 788.815,1945.17 789.643,1945.17C790.267,1945.17 790.795,1945.01 791.203,1944.67C791.611,1944.33 791.923,1943.85 792.127,1943.23C792.331,1942.62 792.439,1941.8 792.439,1940.79C792.439,1939.94 792.379,1939.26 792.247,1938.77C792.115,1938.26 791.935,1937.83 791.719,1937.48C791.491,1937.13 791.203,1936.87 790.855,1936.68C790.507,1936.5 790.099,1936.4 789.643,1936.4C789.019,1936.4 788.503,1936.57 788.095,1936.91C787.675,1937.24 787.363,1937.71 787.159,1938.33C786.955,1938.96 786.847,1939.77 786.847,1940.79C786.847,1942.4 787.135,1943.57 787.699,1944.29ZM788.467,1937.89C788.755,1937.48 789.151,1937.28 789.631,1937.28C790.123,1937.28 790.531,1937.51 790.867,1937.97C791.191,1938.44 791.359,1939.38 791.359,1940.79C791.359,1942.21 791.191,1943.15 790.867,1943.61C790.531,1944.08 790.123,1944.31 789.643,1944.31C789.163,1944.31 788.755,1944.08 788.419,1943.61C788.095,1943.15 787.927,1942.21 787.927,1940.79C787.927,1939.38 788.107,1938.42 788.467,1937.89Z" style="fill:rgb(110,110,111);fill-rule:nonzero;"/>
        </g>
        <g transform="matrix(4.16667,0,0,4.16667,0,0)">
            <path d="M794.371,1944.5C794.875,1944.95 795.499,1945.17 796.255,1945.17C797.083,1945.17 797.779,1944.91 798.331,1944.39C798.871,1943.87 799.147,1943.23 799.147,1942.49C799.147,1941.92 799.003,1941.47 798.727,1941.09C798.451,1940.72 798.055,1940.48 797.539,1940.36C797.935,1940.18 798.223,1939.94 798.427,1939.64C798.631,1939.34 798.727,1938.99 798.727,1938.63C798.727,1938.24 798.619,1937.87 798.415,1937.53C798.199,1937.18 797.899,1936.91 797.503,1936.7C797.107,1936.5 796.687,1936.4 796.207,1936.4C795.535,1936.4 794.959,1936.59 794.503,1936.99C794.047,1937.37 793.759,1937.93 793.627,1938.63L794.683,1938.83C794.767,1938.31 794.935,1937.91 795.211,1937.65C795.487,1937.4 795.823,1937.27 796.243,1937.27C796.651,1937.27 796.987,1937.4 797.251,1937.65C797.515,1937.9 797.647,1938.21 797.647,1938.61C797.647,1939.09 797.467,1939.45 797.107,1939.69C796.747,1939.92 796.339,1940.04 795.895,1940.04C795.847,1940.04 795.787,1940.04 795.715,1940.03L795.607,1940.95C795.895,1940.87 796.147,1940.83 796.351,1940.83C796.831,1940.83 797.239,1940.99 797.551,1941.31C797.875,1941.62 798.031,1942.02 798.031,1942.5C798.031,1943.01 797.863,1943.43 797.515,1943.78C797.179,1944.13 796.759,1944.3 796.255,1944.3C795.835,1944.3 795.475,1944.17 795.187,1943.9C794.899,1943.64 794.695,1943.21 794.575,1942.61L793.519,1942.75C793.591,1943.47 793.879,1944.05 794.371,1944.5Z" style="fill:rgb(110,110,111);fill-rule:nonzero;"/>
        </g>
    </g>
    <defs>
        <linearGradient id="_Linear1" x1="0" y1="0" x2="1" y2="0" gradientUnits="userSpaceOnUse" gradientTransform="matrix(-3.54885e-07,-8.11881,8.11881,-3.54885e-07,662.542,1968.09)"><stop offset="0%" style="stop-color:rgb(244,245,246);stop-opacity:1"/><stop offset="100%" style="stop-color:white;stop-opacity:1"/></linearGradient>
        <linearGradient id="_Linear2" x1="0" y1="0" x2="1" y2="0" gradientUnits="userSpaceOnUse" gradientTransform="matrix(-3.54885e-07,-8.11881,8.11881,-3.54885e-07,662.542,1968.09)"><stop offset="0%" style="stop-color:rgb(217,217,217);stop-opacity:1"/><stop offset="100%" style="stop-color:rgb(229,229,229);stop-opacity:1"/></linearGradient>
        <linearGradient id="_Linear3" x1="0" y1="0" x2="1" y2="0" gradientUnits="userSpaceOnUse" gradientTransform="matrix(-3.54885e-07,-8.11881,8.11881,-3.54885e-07,662.542,1968.09)"><stop offset="0%" style="stop-color:rgb(217,217,217);stop-opacity:1"/><stop offset="100%" style="stop-color:rgb(229,229,229);stop-opacity:1"/></linearGradient>
        <linearGradient id="_Linear4" x1="0" y1="0" x2="1" y2="0" gradientUnits="userSpaceOnUse" gradientTransform="matrix(-6.39759e-07,-14.636,14.636,-6.39759e-07,544.102,1972.38)"><stop offset="0%" style="stop-color:rgb(246,248,249);stop-opacity:1"/><stop offset="100%" style="stop-color:rgb(228,228,228);stop-opacity:1"/></linearGradient>
        <linearGradient id="_Linear5" x1="0" y1="0" x2="1" y2="0" gradientUnits="userSpaceOnUse" gradientTransform="matrix(-3.54885e-07,-8.11881,8.11881,-3.54885e-07,662.542,1968.09)"><stop offset="0%" style="stop-color:rgb(217,217,217);stop-opacity:1"/><stop offset="100%" style="stop-color:rgb(229,229,229);stop-opacity:1"/></linearGradient>
        <linearGradient id="_Linear6" x1="0" y1="0" x2="1" y2="0" gradientUnits="userSpaceOnUse" gradientTransform="matrix(-3.54885e-07,-8.11881,8.11881,-3.54885e-07,662.542,1968.09)"><stop offset="0%" style="stop-color:rgb(217,217,217);stop-opacity:1"/><stop offset="100%" style="stop-color:rgb(229,229,229);stop-opacity:1"/></linearGradient>
        <linearGradient id="_Linear7" x1="0" y1="0" x2="1" y2="0" gradientUnits="userSpaceOnUse" gradientTransform="matrix(-6.39759e-07,-14.636,14.636,-6.39759e-07,781.039,1972.38)"><stop offset="0%" style="stop-color:rgb(246,248,249);stop-opacity:1"/><stop offset="100%" style="stop-color:rgb(228,228,228);stop-opacity:1"/></linearGradient>
        <linearGradient id="_Linear8" x1="0" y1="0" x2="1" y2="0" gradientUnits="userSpaceOnUse" gradientTransform="matrix(-3.34716e-07,7.6574,-7.6574,-3.34716e-07,781.039,1962.07)"><stop offset="0%" style="stop-color:rgb(183,183,184);stop-opacity:1"/><stop offset="100%" style="stop-color:rgb(243,243,244);stop-opacity:1"/></linearGradient>
        <linearGradient id="_Linear9" x1="0" y1="0" x2="1" y2="0" gradientUnits="userSpaceOnUse" gradientTransform="matrix(-3.54885e-07,-8.11881,8.11881,-3.54885e-07,662.542,1968.09)"><stop offset="0%" style="stop-color:rgb(217,217,217);stop-opacity:1"/><stop offset="100%" style="stop-color:rgb(229,229,229);stop-opacity:1"/></linearGradient>
        <linearGradient id="_Linear10" x1="0" y1="0" x2="1" y2="0" gradientUnits="userSpaceOnUse" gradientTransform="matrix(-3.54885e-07,-8.11881,8.11881,-3.54885e-07,662.542,1968.09)"><stop offset="0%" style="stop-color:rgb(217,217,217);stop-opacity:1"/><stop offset="100%" style="stop-color:rgb(229,229,229);stop-opacity:1"/></linearGradient>
        <linearGradient id="_Linear11" x1="0" y1="0" x2="1" y2="0" gradientUnits="userSpaceOnUse" gradientTransform="matrix(-6.39759e-07,-14.636,14.636,-6.39759e-07,662.542,1972.38)"><stop offset="0%" style="stop-color:rgb(246,248,249);stop-opacity:1"/><stop offset="100%" style="stop-color:rgb(228,228,228);stop-opacity:1"/></linearGradient>
        <linearGradient id="_Linear12" x1="0" y1="0" x2="1" y2="0" gradientUnits="userSpaceOnUse" gradientTransform="matrix(-3.34716e-07,7.6574,-7.6574,-3.34716e-07,662.542,1962.07)"><stop offset="0%" style="stop-color:rgb(183,183,184);stop-opacity:1"/><stop offset="100%" style="stop-color:rgb(243,243,244);stop-opacity:1"/></linearGradient>
    </defs>
</svg>
