<?xml version="1.0" standalone="no"?>
<!DOCTYPE svg PUBLIC "-//W3C//DTD SVG 1.1//EN" "http://www.w3.org/Graphics/SVG/1.1/DTD/svg11.dtd">
<svg width="100%" height="100%" viewBox="0 0 1900 835" version="1.1" xmlns="http://www.w3.org/2000/svg" xmlns:xlink="http://www.w3.org/1999/xlink" xml:space="preserve" style="fill-rule:evenodd;clip-rule:evenodd;stroke-linejoin:round;stroke-miterlimit:1.41421;">
    <g transform="matrix(1.33333,0,0,1.33333,-1106.95,-11984.4)">
        <g transform="matrix(4.16667,0,0,4.16667,0,0)">
            <clipPath id="_clip1">
                <path d="M310.069,2206.7C309.242,2206.7 308.569,2206.03 308.569,2205.2L308.569,2163.2C308.569,2162.37 309.242,2161.7 310.069,2161.7L407.236,2161.7C408.063,2161.7 408.736,2162.37 408.736,2163.2L408.736,2205.2C408.736,2206.03 408.063,2206.7 407.236,2206.7L310.069,2206.7Z"/>
            </clipPath>
            <g clip-path="url(#_clip1)">
                <rect x="308.569" y="2161.7" width="100.167" height="36.03" style="fill:url(#_Linear2);fill-rule:nonzero;"/>
            </g>
        </g>
        <g transform="matrix(4.16667,0,0,4.16667,0,0)">
            <clipPath id="_clip3">
                <rect x="202.074" y="2153.26" width="353.668" height="44.47"/>
            </clipPath>
            <g clip-path="url(#_clip3)">
                <path d="M407.236,2161.2L310.069,2161.2C308.964,2161.2 308.069,2162.09 308.069,2163.2L308.069,2205.2C308.069,2206.3 308.964,2207.2 310.069,2207.2L407.236,2207.2C408.339,2207.2 409.236,2206.3 409.236,2205.2L409.236,2163.2C409.236,2162.09 408.339,2161.2 407.236,2161.2ZM407.236,2162.2C407.788,2162.2 408.236,2162.65 408.236,2163.2L408.236,2205.2C408.236,2205.75 407.788,2206.2 407.236,2206.2L310.069,2206.2C309.518,2206.2 309.069,2205.75 309.069,2205.2L309.069,2163.2C309.069,2162.65 309.518,2162.2 310.069,2162.2L407.236,2162.2Z" style="fill:rgb(217,217,217);fill-rule:nonzero;"/>
            </g>
        </g>
        <g transform="matrix(4.16667,0,0,4.16667,0,0)">
            <clipPath id="_clip4">
                <path d="M413.19,2206.7C412.363,2206.7 411.69,2206.03 411.69,2205.2L411.69,2163.2C411.69,2162.37 412.363,2161.7 413.19,2161.7L510.357,2161.7C511.184,2161.7 511.857,2162.37 511.857,2163.2L511.857,2205.2C511.857,2206.03 511.184,2206.7 510.357,2206.7L413.19,2206.7Z"/>
            </clipPath>
            <g clip-path="url(#_clip4)">
                <rect x="411.69" y="2161.7" width="100.167" height="36.03" style="fill:url(#_Linear5);fill-rule:nonzero;"/>
            </g>
        </g>
        <g transform="matrix(4.16667,0,0,4.16667,0,0)">
            <clipPath id="_clip6">
                <rect x="202.074" y="2153.26" width="353.668" height="44.47"/>
            </clipPath>
            <g clip-path="url(#_clip6)">
                <path d="M510.357,2161.2L413.19,2161.2C412.085,2161.2 411.19,2162.09 411.19,2163.2L411.19,2205.2C411.19,2206.3 412.085,2207.2 413.19,2207.2L510.357,2207.2C511.46,2207.2 512.357,2206.3 512.357,2205.2L512.357,2163.2C512.357,2162.09 511.46,2161.2 510.357,2161.2ZM510.357,2162.2C510.909,2162.2 511.357,2162.65 511.357,2163.2L511.357,2205.2C511.357,2205.75 510.909,2206.2 510.357,2206.2L413.19,2206.2C412.638,2206.2 412.19,2205.75 412.19,2205.2L412.19,2163.2C412.19,2162.65 412.638,2162.2 413.19,2162.2L510.357,2162.2Z" style="fill:rgb(217,217,217);fill-rule:nonzero;"/>
                <path d="M349.267,2186.33L349.267,2178.75L352.099,2178.75L352.099,2177.74L345.295,2177.74L345.295,2178.75L348.127,2178.75L348.127,2186.33L349.267,2186.33Z" style="fill:rgb(159,159,159);fill-rule:nonzero;"/>
                <path d="M356.083,2186.33L357.187,2186.33C357.055,2186.09 356.971,2185.84 356.923,2185.57C356.887,2185.32 356.863,2184.7 356.863,2183.73L356.863,2182.32C356.863,2181.85 356.851,2181.53 356.815,2181.35C356.743,2181.06 356.635,2180.82 356.479,2180.63C356.323,2180.44 356.083,2180.28 355.747,2180.16C355.411,2180.03 354.979,2179.97 354.451,2179.97C353.911,2179.97 353.443,2180.04 353.035,2180.19C352.627,2180.34 352.315,2180.55 352.099,2180.82C351.883,2181.09 351.727,2181.45 351.631,2181.89L352.663,2182.03C352.771,2181.59 352.951,2181.28 353.191,2181.11C353.431,2180.93 353.791,2180.85 354.295,2180.85C354.823,2180.85 355.231,2180.97 355.495,2181.21C355.699,2181.37 355.795,2181.67 355.795,2182.11C355.795,2182.14 355.795,2182.24 355.795,2182.38C355.387,2182.53 354.763,2182.65 353.899,2182.74C353.491,2182.79 353.179,2182.85 352.963,2182.9C352.687,2182.98 352.435,2183.09 352.207,2183.25C351.979,2183.4 351.799,2183.61 351.655,2183.86C351.523,2184.1 351.451,2184.39 351.451,2184.69C351.451,2185.2 351.631,2185.63 352.003,2185.96C352.375,2186.29 352.903,2186.46 353.587,2186.46C353.995,2186.46 354.391,2186.39 354.751,2186.26C355.111,2186.11 355.483,2185.89 355.879,2185.55C355.915,2185.85 355.975,2186.1 356.083,2186.33ZM355.795,2183.59C355.795,2184.06 355.735,2184.41 355.615,2184.64C355.471,2184.95 355.243,2185.19 354.919,2185.37C354.607,2185.55 354.247,2185.63 353.839,2185.63C353.419,2185.63 353.107,2185.54 352.903,2185.36C352.687,2185.17 352.579,2184.94 352.579,2184.65C352.579,2184.47 352.627,2184.3 352.723,2184.16C352.819,2184 352.963,2183.89 353.143,2183.81C353.323,2183.74 353.635,2183.67 354.067,2183.61C354.835,2183.5 355.411,2183.37 355.795,2183.21L355.795,2183.59Z" style="fill:rgb(159,159,159);fill-rule:nonzero;"/>
                <path d="M359.456,2185.55C359.876,2186.16 360.452,2186.46 361.184,2186.46C361.916,2186.46 362.552,2186.17 363.08,2185.59C363.608,2185.01 363.872,2184.18 363.872,2183.13C363.872,2182.67 363.812,2182.25 363.68,2181.85C363.56,2181.47 363.392,2181.13 363.164,2180.85C362.948,2180.57 362.66,2180.35 362.324,2180.2C361.976,2180.04 361.616,2179.97 361.232,2179.97C360.548,2179.97 359.972,2180.25 359.528,2180.81L359.528,2177.74L358.472,2177.74L358.472,2186.33L359.456,2186.33L359.456,2185.55ZM359.948,2181.43C360.284,2181.04 360.68,2180.83 361.136,2180.83C361.592,2180.83 361.988,2181.03 362.312,2181.41C362.636,2181.79 362.792,2182.39 362.792,2183.21C362.792,2184 362.624,2184.6 362.288,2185C361.952,2185.39 361.556,2185.6 361.1,2185.6C360.524,2185.6 360.08,2185.32 359.744,2184.78C359.54,2184.46 359.444,2183.92 359.444,2183.17C359.444,2182.42 359.612,2181.83 359.948,2181.43Z" style="fill:rgb(159,159,159);fill-rule:nonzero;"/>
                <path d="M369.512,2185.32C369.632,2185.13 369.788,2184.94 369.968,2184.75C370.148,2184.57 370.556,2184.19 371.18,2183.67C371.948,2183.03 372.488,2182.53 372.812,2182.15C373.136,2181.78 373.376,2181.43 373.508,2181.11C373.652,2180.77 373.724,2180.44 373.724,2180.09C373.724,2179.42 373.484,2178.84 373.004,2178.39C372.524,2177.93 371.864,2177.7 371.048,2177.7C370.232,2177.7 369.572,2177.92 369.092,2178.34C368.6,2178.76 368.324,2179.38 368.252,2180.19L369.332,2180.29C369.332,2179.75 369.488,2179.33 369.8,2179.03C370.1,2178.73 370.508,2178.58 371.024,2178.58C371.504,2178.58 371.9,2178.72 372.2,2179.01C372.5,2179.3 372.644,2179.65 372.644,2180.07C372.644,2180.46 372.476,2180.89 372.152,2181.34C371.816,2181.78 371.18,2182.39 370.256,2183.16C369.656,2183.64 369.2,2184.07 368.876,2184.46C368.552,2184.83 368.324,2185.21 368.168,2185.6C368.084,2185.83 368.036,2186.08 368.048,2186.33L373.736,2186.33L373.736,2185.32L369.512,2185.32Z" style="fill:rgb(159,159,159);fill-rule:nonzero;"/>
                <path d="M449.655,2186.33L449.655,2178.75L452.487,2178.75L452.487,2177.74L445.683,2177.74L445.683,2178.75L448.515,2178.75L448.515,2186.33L449.655,2186.33Z" style="fill:rgb(159,159,159);fill-rule:nonzero;"/>
                <path d="M456.471,2186.33L457.575,2186.33C457.443,2186.09 457.359,2185.84 457.311,2185.57C457.275,2185.32 457.251,2184.7 457.251,2183.73L457.251,2182.32C457.251,2181.85 457.239,2181.53 457.203,2181.35C457.131,2181.06 457.023,2180.82 456.867,2180.63C456.711,2180.44 456.471,2180.28 456.135,2180.16C455.799,2180.03 455.367,2179.97 454.839,2179.97C454.299,2179.97 453.831,2180.04 453.423,2180.19C453.015,2180.34 452.703,2180.55 452.487,2180.82C452.271,2181.09 452.115,2181.45 452.019,2181.89L453.051,2182.03C453.159,2181.59 453.339,2181.28 453.579,2181.11C453.819,2180.93 454.179,2180.85 454.683,2180.85C455.211,2180.85 455.619,2180.97 455.883,2181.21C456.087,2181.37 456.183,2181.67 456.183,2182.11C456.183,2182.14 456.183,2182.24 456.183,2182.38C455.775,2182.53 455.151,2182.65 454.287,2182.74C453.879,2182.79 453.567,2182.85 453.351,2182.9C453.075,2182.98 452.823,2183.09 452.595,2183.25C452.367,2183.4 452.187,2183.61 452.043,2183.86C451.911,2184.1 451.839,2184.39 451.839,2184.69C451.839,2185.2 452.019,2185.63 452.391,2185.96C452.763,2186.29 453.291,2186.46 453.975,2186.46C454.383,2186.46 454.779,2186.39 455.139,2186.26C455.499,2186.11 455.871,2185.89 456.267,2185.55C456.303,2185.85 456.363,2186.1 456.471,2186.33ZM456.183,2183.59C456.183,2184.06 456.123,2184.41 456.003,2184.64C455.859,2184.95 455.631,2185.19 455.307,2185.37C454.995,2185.55 454.635,2185.63 454.227,2185.63C453.807,2185.63 453.495,2185.54 453.291,2185.36C453.075,2185.17 452.967,2184.94 452.967,2184.65C452.967,2184.47 453.015,2184.3 453.111,2184.16C453.207,2184 453.351,2183.89 453.531,2183.81C453.711,2183.74 454.023,2183.67 454.455,2183.61C455.223,2183.5 455.799,2183.37 456.183,2183.21L456.183,2183.59Z" style="fill:rgb(159,159,159);fill-rule:nonzero;"/>
                <path d="M459.844,2185.55C460.264,2186.16 460.84,2186.46 461.572,2186.46C462.304,2186.46 462.94,2186.17 463.468,2185.59C463.996,2185.01 464.26,2184.18 464.26,2183.13C464.26,2182.67 464.2,2182.25 464.068,2181.85C463.948,2181.47 463.78,2181.13 463.552,2180.85C463.336,2180.57 463.048,2180.35 462.712,2180.2C462.364,2180.04 462.004,2179.97 461.62,2179.97C460.936,2179.97 460.36,2180.25 459.916,2180.81L459.916,2177.74L458.86,2177.74L458.86,2186.33L459.844,2186.33L459.844,2185.55ZM460.336,2181.43C460.672,2181.04 461.068,2180.83 461.524,2180.83C461.98,2180.83 462.376,2181.03 462.7,2181.41C463.024,2181.79 463.18,2182.39 463.18,2183.21C463.18,2184 463.012,2184.6 462.676,2185C462.34,2185.39 461.944,2185.6 461.488,2185.6C460.912,2185.6 460.468,2185.32 460.132,2184.78C459.928,2184.46 459.832,2183.92 459.832,2183.17C459.832,2182.42 460,2181.83 460.336,2181.43Z" style="fill:rgb(159,159,159);fill-rule:nonzero;"/>
                <path d="M469.444,2185.8C469.948,2186.25 470.572,2186.47 471.328,2186.47C472.156,2186.47 472.852,2186.21 473.404,2185.69C473.944,2185.17 474.22,2184.53 474.22,2183.79C474.22,2183.22 474.076,2182.77 473.8,2182.39C473.524,2182.02 473.128,2181.78 472.612,2181.66C473.008,2181.48 473.296,2181.24 473.5,2180.94C473.704,2180.64 473.8,2180.29 473.8,2179.93C473.8,2179.54 473.692,2179.17 473.488,2178.83C473.272,2178.48 472.972,2178.21 472.576,2178C472.18,2177.8 471.76,2177.7 471.28,2177.7C470.608,2177.7 470.032,2177.89 469.576,2178.29C469.12,2178.67 468.832,2179.23 468.7,2179.93L469.756,2180.13C469.84,2179.61 470.008,2179.21 470.284,2178.95C470.56,2178.7 470.896,2178.57 471.316,2178.57C471.724,2178.57 472.06,2178.7 472.324,2178.95C472.588,2179.2 472.72,2179.51 472.72,2179.91C472.72,2180.39 472.54,2180.75 472.18,2180.99C471.82,2181.22 471.412,2181.34 470.968,2181.34C470.92,2181.34 470.86,2181.34 470.788,2181.33L470.68,2182.25C470.968,2182.17 471.22,2182.13 471.424,2182.13C471.904,2182.13 472.312,2182.29 472.624,2182.61C472.948,2182.92 473.104,2183.32 473.104,2183.8C473.104,2184.31 472.936,2184.73 472.588,2185.08C472.252,2185.43 471.832,2185.6 471.328,2185.6C470.908,2185.6 470.548,2185.47 470.26,2185.2C469.972,2184.94 469.768,2184.51 469.648,2183.91L468.592,2184.05C468.664,2184.77 468.952,2185.35 469.444,2185.8Z" style="fill:rgb(159,159,159);fill-rule:nonzero;"/>
            </g>
        </g>
        <g transform="matrix(4.16667,0,0,4.16667,0,0)">
            <rect x="199.751" y="2197.23" width="340.896" height="109.64" style="fill:url(#_Linear7);"/>
        </g>
        <g transform="matrix(4.16667,0,0,4.16667,0,0)">
            <path d="M540.647,2197.23L540.647,2196.73L199.251,2196.73L199.251,2307.37L541.147,2307.37L541.147,2196.73L540.647,2196.73L540.647,2197.23L540.147,2197.23L540.147,2306.37L200.251,2306.37L200.251,2197.73L540.647,2197.73L540.647,2197.23L540.147,2197.23L540.647,2197.23Z" style="fill:rgb(217,217,217);fill-rule:nonzero;"/>
        </g>
        <g transform="matrix(4.16667,0,0,4.16667,0,0)">
            <clipPath id="_clip8">
                <rect x="201.288" y="2153.26" width="108.621" height="44.47"/>
            </clipPath>
            <g clip-path="url(#_clip8)">
                <path d="M207.099,2202.7C206.272,2202.7 205.599,2202.03 205.599,2201.2L205.599,2159.2C205.599,2158.37 206.272,2157.7 207.099,2157.7L304.266,2157.7C305.093,2157.7 305.766,2158.37 305.766,2159.2L305.766,2201.2C305.766,2202.03 305.093,2202.7 304.266,2202.7L207.099,2202.7Z" style="fill:white;fill-rule:nonzero;"/>
                <path d="M304.266,2157.2L207.099,2157.2C205.995,2157.2 205.099,2158.09 205.099,2159.2L205.099,2201.2C205.099,2202.3 205.995,2203.2 207.099,2203.2L304.266,2203.2C305.37,2203.2 306.266,2202.3 306.266,2201.2L306.266,2159.2C306.266,2158.09 305.37,2157.2 304.266,2157.2ZM304.266,2158.2C304.818,2158.2 305.266,2158.65 305.266,2159.2L305.266,2201.2C305.266,2201.75 304.818,2202.2 304.266,2202.2L207.099,2202.2C206.547,2202.2 206.099,2201.75 206.099,2201.2L206.099,2159.2C206.099,2158.65 206.547,2158.2 207.099,2158.2L304.266,2158.2Z" style="fill:rgb(217,217,217);fill-rule:nonzero;"/>
                <path d="M243.335,2183.33L243.335,2176.19L245.867,2176.19L245.867,2174.74L239.051,2174.74L239.051,2176.19L241.595,2176.19L241.595,2183.33L243.335,2183.33Z" style="fill:rgb(110,110,111);fill-rule:nonzero;"/>
                <path d="M247.71,2178.41C247.878,2178.29 248.106,2178.23 248.406,2178.23C248.838,2178.23 249.126,2178.3 249.282,2178.43C249.438,2178.57 249.522,2178.79 249.522,2179.12L249.522,2179.29C249.222,2179.41 248.694,2179.55 247.926,2179.69C247.35,2179.8 246.918,2179.92 246.618,2180.08C246.318,2180.22 246.078,2180.43 245.91,2180.7C245.742,2180.98 245.658,2181.29 245.658,2181.65C245.658,2182.18 245.838,2182.62 246.21,2182.97C246.582,2183.32 247.086,2183.49 247.722,2183.49C248.082,2183.49 248.418,2183.41 248.742,2183.28C249.066,2183.14 249.366,2182.93 249.642,2182.66C249.654,2182.69 249.678,2182.75 249.702,2182.85C249.762,2183.07 249.81,2183.22 249.858,2183.33L251.49,2183.33C251.346,2183.03 251.25,2182.75 251.202,2182.49C251.142,2182.24 251.118,2181.83 251.118,2181.29L251.142,2179.37C251.142,2178.65 251.07,2178.16 250.926,2177.89C250.77,2177.63 250.518,2177.4 250.158,2177.23C249.798,2177.05 249.258,2176.97 248.526,2176.97C247.71,2176.97 247.098,2177.11 246.69,2177.41C246.282,2177.7 245.994,2178.15 245.826,2178.76L247.314,2179.02C247.41,2178.73 247.554,2178.52 247.71,2178.41ZM249.522,2180.68C249.522,2181.07 249.498,2181.34 249.462,2181.48C249.39,2181.7 249.27,2181.88 249.066,2182.03C248.79,2182.23 248.514,2182.32 248.214,2182.32C247.95,2182.32 247.734,2182.24 247.554,2182.07C247.386,2181.9 247.302,2181.7 247.302,2181.47C247.302,2181.24 247.41,2181.05 247.626,2180.89C247.77,2180.8 248.058,2180.7 248.526,2180.61C248.982,2180.51 249.306,2180.43 249.522,2180.35L249.522,2180.68Z" style="fill:rgb(110,110,111);fill-rule:nonzero;"/>
                <path d="M254.216,2183.33L254.216,2182.42C254.468,2182.77 254.768,2183.03 255.104,2183.21C255.452,2183.39 255.812,2183.49 256.16,2183.49C256.88,2183.49 257.504,2183.2 258.008,2182.62C258.512,2182.05 258.764,2181.23 258.764,2180.16C258.764,2179.13 258.512,2178.35 258.02,2177.8C257.528,2177.25 256.892,2176.97 256.136,2176.97C255.44,2176.97 254.84,2177.26 254.336,2177.83L254.336,2174.74L252.692,2174.74L252.692,2183.33L254.216,2183.33ZM254.708,2178.69C254.972,2178.39 255.296,2178.23 255.692,2178.23C256.1,2178.23 256.424,2178.39 256.688,2178.7C256.94,2179.02 257.072,2179.54 257.072,2180.25C257.072,2180.92 256.94,2181.41 256.688,2181.72C256.436,2182.03 256.124,2182.19 255.752,2182.19C255.284,2182.19 254.9,2181.97 254.612,2181.53C254.408,2181.22 254.312,2180.74 254.312,2180.09C254.312,2179.47 254.444,2179 254.708,2178.69Z" style="fill:rgb(110,110,111);fill-rule:nonzero;"/>
                <path d="M267.28,2174.69L265.948,2174.69C265.756,2175.22 265.408,2175.67 264.916,2176.06C264.412,2176.45 263.944,2176.72 263.512,2176.86L263.512,2178.36C264.328,2178.09 265.036,2177.68 265.636,2177.11L265.636,2183.33L267.28,2183.33L267.28,2174.69Z" style="fill:rgb(110,110,111);fill-rule:nonzero;"/>
            </g>
        </g>
    </g>
    <defs>
        <linearGradient id="_Linear2" x1="0" y1="0" x2="1" y2="0" gradientUnits="userSpaceOnUse" gradientTransform="matrix(-1.65442e-06,37.8488,-37.8488,-1.65442e-06,358.652,2161.56)"><stop offset="0%" style="stop-color:rgb(246,248,249);stop-opacity:1"/><stop offset="100%" style="stop-color:rgb(243,243,244);stop-opacity:1"/></linearGradient>
        <linearGradient id="_Linear5" x1="0" y1="0" x2="1" y2="0" gradientUnits="userSpaceOnUse" gradientTransform="matrix(-1.65442e-06,37.8488,-37.8488,-1.65442e-06,461.774,2161.56)"><stop offset="0%" style="stop-color:rgb(246,248,249);stop-opacity:1"/><stop offset="100%" style="stop-color:rgb(243,243,244);stop-opacity:1"/></linearGradient>
        <linearGradient id="_Linear7" x1="0" y1="0" x2="1" y2="0" gradientUnits="userSpaceOnUse" gradientTransform="matrix(-4.67197e-06,106.882,-106.882,-4.67197e-06,370.199,2200.49)"><stop offset="0%" style="stop-color:white;stop-opacity:1"/><stop offset="100%" style="stop-color:rgb(246,249,248);stop-opacity:1"/></linearGradient>
    </defs>
</svg>
