<?xml version="1.0" standalone="no"?>
<!DOCTYPE svg PUBLIC "-//W3C//DTD SVG 1.1//EN" "http://www.w3.org/Graphics/SVG/1.1/DTD/svg11.dtd">
<svg width="100%" height="100%" viewBox="0 0 3329 231" version="1.1" xmlns="http://www.w3.org/2000/svg" xmlns:xlink="http://www.w3.org/1999/xlink" xml:space="preserve" style="fill-rule:evenodd;clip-rule:evenodd;stroke-linejoin:round;stroke-miterlimit:1.41421;">
    <g transform="matrix(1.33333,0,0,1.33333,-1106.27,-11125.2)">
        <g transform="matrix(4.16667,0,0,4.16667,0,0)">
            <rect x="199.629" y="2003.03" width="598.163" height="40.4" style="fill:rgb(244,245,246);fill-rule:nonzero;"/>
        </g>
        <g transform="matrix(4.16667,0,0,4.16667,0,0)">
            <path d="M798.292,2002.53L199.129,2002.53L199.129,2043.93L798.292,2043.93L798.292,2002.53ZM797.292,2003.53L797.292,2042.93L200.129,2042.93L200.129,2003.53L797.292,2003.53Z" style="fill:rgb(229,229,229);fill-rule:nonzero;"/>
        </g>
        <g transform="matrix(4.16667,0,0,4.16667,0,0)">
            <path d="M229.62,2028.32L229.62,2017.61L233.418,2017.61L233.418,2015.43L223.194,2015.43L223.194,2017.61L227.01,2017.61L227.01,2028.32L229.62,2028.32Z" style="fill:rgb(112,114,115);fill-rule:nonzero;"/>
        </g>
        <g transform="matrix(4.16667,0,0,4.16667,0,0)">
            <path d="M237.229,2017.72L237.229,2015.43L234.763,2015.43L234.763,2017.72L237.229,2017.72ZM237.229,2028.32L237.229,2018.98L234.763,2018.98L234.763,2028.32L237.229,2028.32Z" style="fill:rgb(112,114,115);fill-rule:nonzero;"/>
        </g>
        <g transform="matrix(4.16667,0,0,4.16667,0,0)">
            <path d="M242.338,2018.98L242.338,2015.67L239.872,2017.12L239.872,2018.98L238.738,2018.98L238.738,2020.94L239.872,2020.94L239.872,2025.03C239.872,2025.91 239.89,2026.48 239.944,2026.77C240.016,2027.19 240.124,2027.51 240.304,2027.74C240.466,2027.98 240.718,2028.18 241.078,2028.32C241.438,2028.48 241.834,2028.55 242.284,2028.55C243.004,2028.55 243.652,2028.43 244.228,2028.18L244.03,2026.27C243.58,2026.43 243.256,2026.5 243.022,2026.5C242.86,2026.5 242.716,2026.47 242.608,2026.38C242.5,2026.3 242.41,2026.2 242.392,2026.07C242.356,2025.94 242.338,2025.49 242.338,2024.72L242.338,2020.94L244.03,2020.94L244.03,2018.98L242.338,2018.98Z" style="fill:rgb(112,114,115);fill-rule:nonzero;"/>
        </g>
        <g transform="matrix(4.16667,0,0,4.16667,0,0)">
            <rect x="245.759" y="2015.43" width="2.466" height="12.888" style="fill:rgb(112,114,115);fill-rule:nonzero;"/>
        </g>
        <g transform="matrix(4.16667,0,0,4.16667,0,0)">
            <path d="M255.566,2026.38C255.296,2026.59 254.972,2026.7 254.594,2026.7C254.018,2026.7 253.55,2026.5 253.172,2026.09C252.794,2025.67 252.596,2025.12 252.578,2024.38L258.752,2024.38C258.788,2022.49 258.41,2021.08 257.6,2020.17C256.808,2019.25 255.71,2018.78 254.324,2018.78C253.082,2018.78 252.056,2019.21 251.246,2020.09C250.436,2020.98 250.04,2022.18 250.04,2023.73C250.04,2025.03 250.346,2026.11 250.958,2026.95C251.75,2028.01 252.938,2028.55 254.558,2028.55C255.584,2028.55 256.448,2028.32 257.132,2027.85C257.816,2027.37 258.302,2026.68 258.626,2025.78L256.16,2025.37C256.034,2025.84 255.836,2026.18 255.566,2026.38ZM252.614,2022.87C252.614,2022.18 252.794,2021.66 253.136,2021.26C253.496,2020.87 253.928,2020.67 254.468,2020.67C254.972,2020.67 255.404,2020.85 255.746,2021.23C256.106,2021.61 256.286,2022.15 256.304,2022.87L252.614,2022.87Z" style="fill:rgb(112,114,115);fill-rule:nonzero;"/>
        </g>
        <g transform="matrix(4.16667,0,0,4.16667,0,0)">
            <path d="M272.467,2019.52C271.801,2019.03 270.883,2018.78 269.749,2018.78C268.363,2018.78 267.265,2019.21 266.455,2020.08C265.645,2020.92 265.231,2022.13 265.231,2023.68C265.231,2025.21 265.645,2026.39 266.455,2027.26C267.265,2028.12 268.345,2028.55 269.713,2028.55C270.919,2028.55 271.873,2028.27 272.575,2027.71C273.295,2027.13 273.781,2026.29 274.033,2025.17L271.603,2024.76C271.477,2025.4 271.261,2025.87 270.973,2026.14C270.667,2026.41 270.289,2026.54 269.821,2026.54C269.191,2026.54 268.705,2026.3 268.327,2025.85C267.949,2025.39 267.769,2024.61 267.769,2023.5C267.769,2022.51 267.949,2021.79 268.327,2021.35C268.687,2020.94 269.173,2020.72 269.785,2020.72C270.253,2020.72 270.631,2020.85 270.919,2021.08C271.207,2021.34 271.387,2021.7 271.477,2022.18L273.907,2021.75C273.619,2020.74 273.133,2020 272.467,2019.52Z" style="fill:rgb(112,114,115);fill-rule:nonzero;"/>
        </g>
        <g transform="matrix(4.16667,0,0,4.16667,0,0)">
            <path d="M278.212,2020.94C278.464,2020.76 278.806,2020.67 279.256,2020.67C279.904,2020.67 280.336,2020.78 280.57,2020.98C280.804,2021.17 280.93,2021.52 280.93,2022L280.93,2022.25C280.48,2022.43 279.688,2022.65 278.536,2022.87C277.672,2023.03 277.024,2023.21 276.574,2023.44C276.124,2023.66 275.764,2023.96 275.512,2024.38C275.26,2024.79 275.134,2025.26 275.134,2025.8C275.134,2026.59 275.404,2027.26 275.962,2027.78C276.52,2028.3 277.276,2028.55 278.23,2028.55C278.77,2028.55 279.274,2028.45 279.76,2028.25C280.246,2028.03 280.696,2027.73 281.11,2027.31C281.128,2027.37 281.164,2027.46 281.2,2027.6C281.29,2027.92 281.362,2028.16 281.434,2028.32L283.882,2028.32C283.666,2027.87 283.522,2027.46 283.45,2027.06C283.36,2026.68 283.324,2026.07 283.324,2025.26L283.36,2022.38C283.36,2021.3 283.252,2020.56 283.036,2020.17C282.802,2019.77 282.424,2019.43 281.884,2019.18C281.344,2018.91 280.534,2018.78 279.436,2018.78C278.212,2018.78 277.294,2019 276.682,2019.45C276.07,2019.88 275.638,2020.54 275.386,2021.46L277.618,2021.86C277.762,2021.43 277.978,2021.1 278.212,2020.94ZM280.93,2024.34C280.93,2024.94 280.894,2025.33 280.84,2025.55C280.732,2025.87 280.552,2026.14 280.246,2026.38C279.832,2026.66 279.418,2026.81 278.968,2026.81C278.572,2026.81 278.248,2026.68 277.978,2026.43C277.726,2026.18 277.6,2025.87 277.6,2025.53C277.6,2025.19 277.762,2024.9 278.086,2024.67C278.302,2024.52 278.734,2024.38 279.436,2024.23C280.12,2024.09 280.606,2023.96 280.93,2023.86L280.93,2024.34Z" style="fill:rgb(112,114,115);fill-rule:nonzero;"/>
        </g>
        <g transform="matrix(4.16667,0,0,4.16667,0,0)">
            <path d="M288.367,2018.98L288.367,2015.67L285.901,2017.12L285.901,2018.98L284.767,2018.98L284.767,2020.94L285.901,2020.94L285.901,2025.03C285.901,2025.91 285.919,2026.48 285.973,2026.77C286.045,2027.19 286.153,2027.51 286.333,2027.74C286.495,2027.98 286.747,2028.18 287.107,2028.32C287.467,2028.48 287.863,2028.55 288.313,2028.55C289.033,2028.55 289.681,2028.43 290.257,2028.18L290.059,2026.27C289.609,2026.43 289.285,2026.5 289.051,2026.5C288.889,2026.5 288.745,2026.47 288.637,2026.38C288.529,2026.3 288.439,2026.2 288.421,2026.07C288.385,2025.94 288.367,2025.49 288.367,2024.72L288.367,2020.94L290.059,2020.94L290.059,2018.98L288.367,2018.98Z" style="fill:rgb(112,114,115);fill-rule:nonzero;"/>
        </g>
        <g transform="matrix(4.16667,0,0,4.16667,0,0)">
            <path d="M296.593,2026.38C296.323,2026.59 295.999,2026.7 295.621,2026.7C295.045,2026.7 294.577,2026.5 294.199,2026.09C293.821,2025.67 293.623,2025.12 293.605,2024.38L299.779,2024.38C299.815,2022.49 299.437,2021.08 298.627,2020.17C297.835,2019.25 296.737,2018.78 295.351,2018.78C294.109,2018.78 293.083,2019.21 292.273,2020.09C291.463,2020.98 291.067,2022.18 291.067,2023.73C291.067,2025.03 291.373,2026.11 291.985,2026.95C292.777,2028.01 293.965,2028.55 295.585,2028.55C296.611,2028.55 297.475,2028.32 298.159,2027.85C298.843,2027.37 299.329,2026.68 299.653,2025.78L297.187,2025.37C297.061,2025.84 296.863,2026.18 296.593,2026.38ZM293.641,2022.87C293.641,2022.18 293.821,2021.66 294.163,2021.26C294.523,2020.87 294.955,2020.67 295.495,2020.67C295.999,2020.67 296.431,2020.85 296.773,2021.23C297.133,2021.61 297.313,2022.15 297.331,2022.87L293.641,2022.87Z" style="fill:rgb(112,114,115);fill-rule:nonzero;"/>
        </g>
        <g transform="matrix(4.16667,0,0,4.16667,0,0)">
            <path d="M301.564,2029.22C301.564,2030.05 301.888,2030.73 302.554,2031.29C303.22,2031.83 304.336,2032.1 305.92,2032.1C306.748,2032.1 307.45,2032.01 307.99,2031.83C308.548,2031.67 308.98,2031.42 309.304,2031.11C309.646,2030.8 309.898,2030.37 310.078,2029.83C310.258,2029.27 310.348,2028.46 310.348,2027.35L310.348,2018.98L308.044,2018.98L308.044,2020.29C307.288,2019.28 306.334,2018.78 305.182,2018.78C304.066,2018.78 303.13,2019.19 302.374,2020.02C301.618,2020.85 301.24,2022.04 301.24,2023.6C301.24,2024.85 301.528,2025.89 302.104,2026.74C302.842,2027.8 303.832,2028.32 305.092,2028.32C306.208,2028.32 307.144,2027.82 307.9,2026.79L307.882,2028.16C307.882,2028.72 307.846,2029.09 307.774,2029.29C307.648,2029.58 307.486,2029.8 307.27,2029.92C306.946,2030.12 306.46,2030.21 305.83,2030.21C305.326,2030.21 304.948,2030.12 304.714,2029.94C304.552,2029.81 304.444,2029.58 304.39,2029.26L301.564,2028.91C301.564,2029.04 301.564,2029.13 301.564,2029.22ZM304.354,2021.35C304.732,2020.9 305.218,2020.67 305.812,2020.67C306.424,2020.67 306.928,2020.9 307.324,2021.37C307.72,2021.84 307.918,2022.56 307.918,2023.51C307.918,2024.45 307.702,2025.15 307.288,2025.62C306.874,2026.09 306.37,2026.32 305.776,2026.32C305.2,2026.32 304.732,2026.09 304.354,2025.64C303.976,2025.17 303.778,2024.45 303.778,2023.46C303.778,2022.52 303.976,2021.82 304.354,2021.35Z" style="fill:rgb(112,114,115);fill-rule:nonzero;"/>
        </g>
        <g transform="matrix(4.16667,0,0,4.16667,0,0)">
            <path d="M312.829,2026.27C313.225,2027.02 313.819,2027.58 314.593,2027.98C315.367,2028.36 316.177,2028.55 317.041,2028.55C318.427,2028.55 319.561,2028.09 320.479,2027.15C321.397,2026.23 321.847,2025.06 321.847,2023.64C321.847,2022.24 321.397,2021.08 320.497,2020.17C319.597,2019.25 318.427,2018.78 317.023,2018.78C316.105,2018.78 315.277,2018.98 314.539,2019.39C313.801,2019.79 313.225,2020.38 312.829,2021.16C312.415,2021.91 312.217,2022.7 312.217,2023.53C312.217,2024.61 312.415,2025.51 312.829,2026.27ZM315.421,2021.53C315.853,2021.05 316.393,2020.8 317.041,2020.8C317.671,2020.8 318.211,2021.05 318.661,2021.53C319.093,2022.04 319.309,2022.74 319.309,2023.66C319.309,2024.59 319.093,2025.3 318.661,2025.8C318.211,2026.29 317.671,2026.54 317.041,2026.54C316.393,2026.54 315.853,2026.29 315.421,2025.8C314.971,2025.3 314.755,2024.59 314.755,2023.66C314.755,2022.74 314.971,2022.04 315.421,2021.53Z" style="fill:rgb(112,114,115);fill-rule:nonzero;"/>
        </g>
        <g transform="matrix(4.16667,0,0,4.16667,0,0)">
            <path d="M326.146,2025.44C326.146,2023.86 326.218,2022.81 326.344,2022.31C326.488,2021.82 326.686,2021.46 326.92,2021.28C327.154,2021.08 327.46,2020.99 327.802,2020.99C328.162,2020.99 328.54,2021.12 328.972,2021.39L329.728,2019.25C329.206,2018.94 328.666,2018.78 328.09,2018.78C327.694,2018.78 327.334,2018.87 327.028,2019.07C326.722,2019.27 326.362,2019.68 325.966,2020.31L325.966,2018.98L323.68,2018.98L323.68,2028.32L326.146,2028.32L326.146,2025.44Z" style="fill:rgb(112,114,115);fill-rule:nonzero;"/>
        </g>
        <g transform="matrix(4.16667,0,0,4.16667,0,0)">
            <path d="M333.169,2028.34C333.007,2028.86 332.809,2029.29 332.521,2029.63C332.251,2029.98 331.819,2030.14 331.243,2030.14C330.937,2030.14 330.595,2030.1 330.199,2030.03L330.415,2031.96C330.865,2032.05 331.333,2032.1 331.819,2032.1C332.287,2032.1 332.701,2032.05 333.079,2031.96C333.457,2031.85 333.763,2031.7 334.033,2031.54C334.285,2031.36 334.501,2031.13 334.699,2030.84C334.897,2030.55 335.113,2030.14 335.329,2029.6L335.923,2027.96L339.217,2018.98L336.661,2018.98L334.483,2025.6L332.233,2018.98L329.605,2018.98L333.169,2028.34Z" style="fill:rgb(112,114,115);fill-rule:nonzero;"/>
        </g>
    </g>
</svg>
