<?xml version="1.0" standalone="no"?>
<!DOCTYPE svg PUBLIC "-//W3C//DTD SVG 1.1//EN" "http://www.w3.org/Graphics/SVG/1.1/DTD/svg11.dtd">
<svg width="100%" height="100%" viewBox="0 0 962 256" version="1.1" xmlns="http://www.w3.org/2000/svg" xmlns:xlink="http://www.w3.org/1999/xlink" xml:space="preserve" style="fill-rule:evenodd;clip-rule:evenodd;stroke-linejoin:round;stroke-miterlimit:1.41421;">
    <g transform="matrix(1.33333,0,0,1.33333,-2442.7,-9013.61)">
        <g transform="matrix(4.16667,0,0,4.16667,0,0)">
            <path d="M441.686,1667.95C440.859,1667.95 440.186,1667.28 440.186,1666.45L440.186,1624.45C440.186,1623.63 440.859,1622.95 441.686,1622.95L606.322,1622.95C607.149,1622.95 607.822,1623.63 607.822,1624.45L607.822,1641.76L611.971,1645.45L607.822,1649.15L607.822,1666.45C607.822,1667.28 607.149,1667.95 606.322,1667.95L441.686,1667.95Z" style="fill:url(#_Linear1);"/>
        </g>
        <g transform="matrix(4.16667,0,0,4.16667,0,0)">
            <path d="M606.322,1622.45L441.686,1622.45C440.581,1622.45 439.686,1623.35 439.686,1624.45L439.686,1666.45C439.686,1667.56 440.581,1668.45 441.686,1668.45L606.322,1668.45C607.426,1668.45 608.322,1667.56 608.322,1666.45L608.322,1649.37L612.723,1645.45L608.322,1641.53L608.322,1624.45C608.322,1623.35 607.426,1622.45 606.322,1622.45ZM606.322,1623.45C606.874,1623.45 607.322,1623.9 607.322,1624.45L607.322,1641.98L607.657,1642.28L611.219,1645.45L607.657,1648.62L607.322,1648.92L607.322,1666.45C607.322,1667 606.874,1667.45 606.322,1667.45L441.686,1667.45C441.134,1667.45 440.686,1667 440.686,1666.45L440.686,1624.45C440.686,1623.9 441.134,1623.45 441.686,1623.45L606.322,1623.45Z" style="fill:rgb(217,217,217);fill-rule:nonzero;"/>
        </g>
        <g transform="matrix(4.16667,0,0,4.16667,0,0)">
            <path d="M477.896,1643.45L477.896,1635.72L480.639,1635.72L480.639,1634.14L473.255,1634.14L473.255,1635.72L476.011,1635.72L476.011,1643.45L477.896,1643.45Z" style="fill:rgb(110,110,111);fill-rule:nonzero;"/>
        </g>
        <g transform="matrix(4.16667,0,0,4.16667,0,0)">
            <path d="M480.907,1641.97C481.193,1642.51 481.622,1642.92 482.181,1643.2C482.74,1643.48 483.325,1643.62 483.949,1643.62C484.95,1643.62 485.769,1643.28 486.432,1642.61C487.095,1641.94 487.42,1641.1 487.42,1640.07C487.42,1639.06 487.095,1638.22 486.445,1637.56C485.795,1636.9 484.95,1636.56 483.936,1636.56C483.273,1636.56 482.675,1636.7 482.142,1637C481.609,1637.29 481.193,1637.72 480.907,1638.28C480.608,1638.82 480.465,1639.39 480.465,1639.99C480.465,1640.77 480.608,1641.42 480.907,1641.97ZM482.779,1638.55C483.091,1638.2 483.481,1638.02 483.949,1638.02C484.404,1638.02 484.794,1638.2 485.119,1638.55C485.431,1638.91 485.587,1639.42 485.587,1640.08C485.587,1640.76 485.431,1641.27 485.119,1641.63C484.794,1641.98 484.404,1642.16 483.949,1642.16C483.481,1642.16 483.091,1641.98 482.779,1641.63C482.454,1641.27 482.298,1640.76 482.298,1640.08C482.298,1639.42 482.454,1638.91 482.779,1638.55Z" style="fill:rgb(110,110,111);fill-rule:nonzero;"/>
        </g>
        <g transform="matrix(4.16667,0,0,4.16667,0,0)">
            <rect x="488.822" y="1634.14" width="1.781" height="9.308" style="fill:rgb(110,110,111);fill-rule:nonzero;"/>
        </g>
        <g transform="matrix(4.16667,0,0,4.16667,0,0)">
            <rect x="492.434" y="1634.14" width="1.781" height="9.308" style="fill:rgb(110,110,111);fill-rule:nonzero;"/>
        </g>
        <g transform="matrix(4.16667,0,0,4.16667,0,0)">
            <path d="M497.904,1636.7L497.904,1634.31L496.123,1635.36L496.123,1636.7L495.304,1636.7L495.304,1638.12L496.123,1638.12L496.123,1641.07C496.123,1641.71 496.136,1642.12 496.175,1642.33C496.227,1642.63 496.305,1642.87 496.435,1643.03C496.552,1643.2 496.734,1643.35 496.994,1643.45C497.254,1643.57 497.54,1643.62 497.865,1643.62C498.385,1643.62 498.853,1643.53 499.269,1643.35L499.126,1641.97C498.801,1642.09 498.567,1642.14 498.398,1642.14C498.281,1642.14 498.177,1642.11 498.099,1642.05C498.021,1641.99 497.956,1641.92 497.943,1641.83C497.917,1641.73 497.904,1641.41 497.904,1640.85L497.904,1638.12L499.126,1638.12L499.126,1636.7L497.904,1636.7Z" style="fill:rgb(110,110,111);fill-rule:nonzero;"/>
        </g>
        <g transform="matrix(4.16667,0,0,4.16667,0,0)">
            <path d="M502.155,1635.79L502.155,1634.14L500.374,1634.14L500.374,1635.79L502.155,1635.79ZM502.155,1643.45L502.155,1636.7L500.374,1636.7L500.374,1643.45L502.155,1643.45Z" style="fill:rgb(110,110,111);fill-rule:nonzero;"/>
        </g>
        <g transform="matrix(4.16667,0,0,4.16667,0,0)">
            <path d="M503.935,1646.01L505.716,1646.01L505.716,1642.63C506.054,1643 506.366,1643.26 506.678,1643.4C506.977,1643.54 507.315,1643.62 507.692,1643.62C508.472,1643.62 509.135,1643.31 509.681,1642.68C510.24,1642.06 510.513,1641.17 510.513,1640.06C510.513,1638.95 510.24,1638.09 509.694,1637.48C509.148,1636.87 508.485,1636.56 507.705,1636.56C507.25,1636.56 506.847,1636.66 506.47,1636.87C506.106,1637.08 505.82,1637.35 505.599,1637.69L505.599,1636.7L503.935,1636.7L503.935,1646.01ZM506.119,1638.47C506.405,1638.13 506.769,1637.96 507.198,1637.96C507.627,1637.96 507.978,1638.13 508.251,1638.48C508.537,1638.82 508.68,1639.36 508.68,1640.06C508.68,1640.82 508.537,1641.37 508.264,1641.71C507.991,1642.03 507.653,1642.2 507.237,1642.2C506.808,1642.2 506.444,1642.02 506.145,1641.66C505.846,1641.29 505.69,1640.73 505.69,1639.97C505.69,1639.3 505.833,1638.81 506.119,1638.47Z" style="fill:rgb(110,110,111);fill-rule:nonzero;"/>
        </g>
        <g transform="matrix(4.16667,0,0,4.16667,0,0)">
            <path d="M515.955,1643.06C516.488,1643.44 517.216,1643.62 518.139,1643.62C519.153,1643.62 519.92,1643.4 520.427,1642.96C520.947,1642.5 521.207,1641.98 521.207,1641.36C521.207,1640.79 521.025,1640.34 520.648,1640.03C520.271,1639.72 519.608,1639.45 518.646,1639.24C517.697,1639.02 517.138,1638.85 516.982,1638.73C516.865,1638.64 516.8,1638.54 516.8,1638.41C516.8,1638.26 516.865,1638.13 517.008,1638.04C517.203,1637.91 517.541,1637.85 518.022,1637.85C518.399,1637.85 518.685,1637.91 518.88,1638.06C519.088,1638.2 519.218,1638.41 519.296,1638.67L520.973,1638.35C520.804,1637.76 520.492,1637.31 520.05,1637.02C519.595,1636.72 518.906,1636.56 517.983,1636.56C517.021,1636.56 516.306,1636.76 515.838,1637.16C515.383,1637.56 515.149,1638.06 515.149,1638.64C515.149,1639.29 515.422,1639.8 515.955,1640.16C516.332,1640.42 517.242,1640.71 518.685,1641.03C518.997,1641.1 519.192,1641.17 519.283,1641.27C519.374,1641.36 519.413,1641.46 519.413,1641.6C519.413,1641.8 519.335,1641.95 519.179,1642.07C518.945,1642.24 518.594,1642.33 518.139,1642.33C517.723,1642.33 517.398,1642.24 517.164,1642.06C516.93,1641.89 516.774,1641.63 516.696,1641.28L514.902,1641.55C515.071,1642.19 515.422,1642.7 515.955,1643.06Z" style="fill:rgb(110,110,111);fill-rule:nonzero;"/>
        </g>
        <g transform="matrix(4.16667,0,0,4.16667,0,0)">
            <path d="M524.628,1636.7L524.628,1634.31L522.847,1635.36L522.847,1636.7L522.028,1636.7L522.028,1638.12L522.847,1638.12L522.847,1641.07C522.847,1641.71 522.86,1642.12 522.899,1642.33C522.951,1642.63 523.029,1642.87 523.159,1643.03C523.276,1643.2 523.458,1643.35 523.718,1643.45C523.978,1643.57 524.264,1643.62 524.589,1643.62C525.109,1643.62 525.577,1643.53 525.993,1643.35L525.85,1641.97C525.525,1642.09 525.291,1642.14 525.122,1642.14C525.005,1642.14 524.901,1642.11 524.823,1642.05C524.745,1641.99 524.68,1641.92 524.667,1641.83C524.641,1641.73 524.628,1641.41 524.628,1640.85L524.628,1638.12L525.85,1638.12L525.85,1636.7L524.628,1636.7Z" style="fill:rgb(110,110,111);fill-rule:nonzero;"/>
        </g>
        <g transform="matrix(4.16667,0,0,4.16667,0,0)">
            <path d="M528.814,1643.46C528.697,1643.84 528.554,1644.15 528.346,1644.4C528.151,1644.65 527.839,1644.76 527.423,1644.76C527.202,1644.76 526.955,1644.74 526.669,1644.68L526.825,1646.08C527.15,1646.14 527.488,1646.18 527.839,1646.18C528.177,1646.18 528.476,1646.14 528.749,1646.08C529.022,1646 529.243,1645.89 529.438,1645.78C529.62,1645.65 529.776,1645.48 529.919,1645.27C530.062,1645.06 530.218,1644.76 530.374,1644.37L530.803,1643.19L533.182,1636.7L531.336,1636.7L529.763,1641.49L528.138,1636.7L526.24,1636.7L528.814,1643.46Z" style="fill:rgb(110,110,111);fill-rule:nonzero;"/>
        </g>
        <g transform="matrix(4.16667,0,0,4.16667,0,0)">
            <rect x="534.329" y="1634.14" width="1.781" height="9.308" style="fill:rgb(110,110,111);fill-rule:nonzero;"/>
        </g>
        <g transform="matrix(4.16667,0,0,4.16667,0,0)">
            <path d="M541.411,1642.05C541.216,1642.2 540.982,1642.28 540.709,1642.28C540.293,1642.28 539.955,1642.14 539.682,1641.84C539.409,1641.54 539.266,1641.14 539.253,1640.6L543.712,1640.6C543.738,1639.24 543.465,1638.22 542.88,1637.56C542.308,1636.9 541.515,1636.56 540.514,1636.56C539.617,1636.56 538.876,1636.87 538.291,1637.51C537.706,1638.15 537.42,1639.02 537.42,1640.13C537.42,1641.07 537.641,1641.85 538.083,1642.46C538.655,1643.23 539.513,1643.62 540.683,1643.62C541.424,1643.62 542.048,1643.45 542.542,1643.11C543.036,1642.76 543.387,1642.27 543.621,1641.62L541.84,1641.32C541.749,1641.66 541.606,1641.9 541.411,1642.05ZM539.279,1639.51C539.279,1639.02 539.409,1638.64 539.656,1638.35C539.916,1638.07 540.228,1637.92 540.618,1637.92C540.982,1637.92 541.294,1638.06 541.541,1638.33C541.801,1638.6 541.931,1638.99 541.944,1639.51L539.279,1639.51Z" style="fill:rgb(110,110,111);fill-rule:nonzero;"/>
        </g>
        <g transform="matrix(4.16667,0,0,4.16667,0,0)">
            <path d="M476.962,1653.94C476.702,1654.16 476.422,1654.27 476.142,1654.27C475.852,1654.27 475.612,1654.16 475.412,1653.94C475.222,1653.72 475.122,1653.39 475.122,1652.94C475.122,1652.52 475.192,1652.08 475.342,1651.63C475.492,1651.17 475.702,1650.83 475.962,1650.61C476.222,1650.38 476.532,1650.27 476.882,1650.27C477.192,1650.27 477.442,1650.36 477.622,1650.55C477.812,1650.73 477.912,1650.99 477.912,1651.32L478.782,1651.26C478.782,1650.74 478.622,1650.33 478.292,1650.01C477.972,1649.7 477.522,1649.54 476.972,1649.54C476.432,1649.54 475.952,1649.68 475.532,1649.97C475.112,1650.25 474.792,1650.67 474.572,1651.21C474.342,1651.76 474.232,1652.31 474.232,1652.88C474.232,1653.53 474.412,1654.04 474.762,1654.4C475.112,1654.77 475.562,1654.95 476.132,1654.95C476.652,1654.95 477.112,1654.79 477.522,1654.48C477.932,1654.17 478.252,1653.69 478.472,1653.04L477.582,1652.95C477.432,1653.39 477.222,1653.73 476.962,1653.94Z" style="fill:rgb(110,110,111);fill-rule:nonzero;"/>
        </g>
        <g transform="matrix(4.16667,0,0,4.16667,0,0)">
            <path d="M479.422,1653.96C479.602,1654.28 479.852,1654.52 480.182,1654.69C480.512,1654.86 480.872,1654.95 481.282,1654.95C481.772,1654.95 482.242,1654.81 482.682,1654.54C483.132,1654.27 483.472,1653.88 483.712,1653.36C483.952,1652.85 484.072,1652.3 484.072,1651.7C484.072,1651.04 483.882,1650.51 483.502,1650.12C483.112,1649.73 482.612,1649.54 481.992,1649.54C481.192,1649.54 480.542,1649.81 480.052,1650.36C479.462,1651.02 479.162,1651.86 479.162,1652.87C479.162,1653.28 479.252,1653.65 479.422,1653.96ZM480.172,1651.88C480.262,1651.54 480.392,1651.25 480.582,1651C480.762,1650.74 480.972,1650.55 481.202,1650.42C481.432,1650.29 481.682,1650.22 481.962,1650.22C482.322,1650.22 482.622,1650.35 482.852,1650.61C483.092,1650.87 483.212,1651.23 483.212,1651.7C483.212,1651.99 483.162,1652.3 483.062,1652.63C482.992,1652.86 482.902,1653.07 482.792,1653.27C482.672,1653.47 482.542,1653.65 482.382,1653.81C482.222,1653.96 482.042,1654.08 481.862,1654.16C481.672,1654.23 481.482,1654.27 481.292,1654.27C480.932,1654.27 480.632,1654.14 480.392,1653.89C480.162,1653.64 480.042,1653.27 480.042,1652.78C480.042,1652.52 480.082,1652.22 480.172,1651.88Z" style="fill:rgb(110,110,111);fill-rule:nonzero;"/>
        </g>
        <g transform="matrix(4.16667,0,0,4.16667,0,0)">
            <path d="M485.442,1654.84L485.942,1652.43C486.112,1651.64 486.382,1651.08 486.742,1650.76C487.102,1650.43 487.512,1650.27 487.972,1650.27C488.202,1650.27 488.372,1650.32 488.492,1650.43C488.622,1650.54 488.682,1650.68 488.682,1650.85C488.682,1651 488.642,1651.24 488.572,1651.56L487.842,1654.84L488.722,1654.84L489.422,1651.71C489.512,1651.29 489.552,1650.99 489.552,1650.8C489.552,1650.42 489.432,1650.11 489.192,1649.88C488.952,1649.65 488.622,1649.54 488.192,1649.54C487.872,1649.54 487.562,1649.62 487.252,1649.78C486.952,1649.94 486.622,1650.2 486.272,1650.56L486.452,1649.65L485.652,1649.65L484.562,1654.84L485.442,1654.84Z" style="fill:rgb(110,110,111);fill-rule:nonzero;"/>
        </g>
        <g transform="matrix(4.16667,0,0,4.16667,0,0)">
            <path d="M490.812,1654.51C491.232,1654.8 491.732,1654.95 492.332,1654.95C492.772,1654.95 493.152,1654.88 493.472,1654.73C493.802,1654.58 494.042,1654.38 494.192,1654.14C494.352,1653.89 494.432,1653.64 494.432,1653.38C494.432,1653 494.292,1652.67 494.012,1652.4C493.842,1652.23 493.412,1652 492.742,1651.71C492.332,1651.53 492.082,1651.4 491.992,1651.32C491.842,1651.19 491.772,1651.05 491.772,1650.89C491.772,1650.72 491.852,1650.57 492.022,1650.43C492.192,1650.29 492.432,1650.22 492.732,1650.22C493.112,1650.22 493.402,1650.31 493.612,1650.49C493.822,1650.68 493.932,1650.93 493.942,1651.24L494.802,1651.18C494.792,1650.69 494.612,1650.29 494.272,1649.99C493.932,1649.69 493.442,1649.54 492.792,1649.54C492.212,1649.54 491.752,1649.69 491.432,1649.98C491.102,1650.27 490.942,1650.62 490.942,1651.03C490.942,1651.27 491.002,1651.47 491.112,1651.65C491.222,1651.83 491.382,1651.99 491.602,1652.12C491.732,1652.21 492.032,1652.35 492.492,1652.55C492.962,1652.74 493.252,1652.91 493.372,1653.05C493.482,1653.19 493.542,1653.33 493.542,1653.48C493.542,1653.7 493.442,1653.88 493.252,1654.04C493.052,1654.19 492.762,1654.27 492.382,1654.27C492.102,1654.27 491.852,1654.21 491.652,1654.1C491.442,1653.99 491.292,1653.84 491.222,1653.66C491.142,1653.48 491.102,1653.26 491.102,1653.01L490.212,1653.06C490.192,1653.73 490.392,1654.21 490.812,1654.51Z" style="fill:rgb(110,110,111);fill-rule:nonzero;"/>
        </g>
        <g transform="matrix(4.16667,0,0,4.16667,0,0)">
            <path d="M498.262,1653.93C497.962,1654.13 497.662,1654.23 497.362,1654.23C497.032,1654.23 496.762,1654.1 496.542,1653.85C496.312,1653.59 496.202,1653.22 496.202,1652.73C496.202,1652.65 496.212,1652.56 496.222,1652.46L500.052,1652.46C500.102,1652.19 500.122,1651.93 500.122,1651.68C500.122,1651.02 499.932,1650.5 499.562,1650.11C499.192,1649.73 498.702,1649.54 498.082,1649.54C497.592,1649.54 497.142,1649.67 496.722,1649.93C496.312,1650.19 495.972,1650.58 495.702,1651.11C495.442,1651.64 495.312,1652.19 495.312,1652.76C495.312,1653.19 495.392,1653.57 495.562,1653.91C495.732,1654.25 495.972,1654.51 496.302,1654.68C496.622,1654.86 496.972,1654.95 497.362,1654.95C497.972,1654.95 498.502,1654.76 498.952,1654.37C499.392,1653.99 499.682,1653.59 499.802,1653.16L498.942,1653.08C498.782,1653.45 498.552,1653.74 498.262,1653.93ZM497.062,1650.61C497.372,1650.35 497.722,1650.22 498.102,1650.22C498.452,1650.22 498.732,1650.34 498.962,1650.57C499.182,1650.81 499.292,1651.14 499.292,1651.59C499.292,1651.62 499.292,1651.69 499.292,1651.78L496.362,1651.78C496.522,1651.26 496.752,1650.87 497.062,1650.61Z" style="fill:rgb(110,110,111);fill-rule:nonzero;"/>
        </g>
        <g transform="matrix(4.16667,0,0,4.16667,0,0)">
            <path d="M503.642,1653.94C503.382,1654.16 503.102,1654.27 502.822,1654.27C502.532,1654.27 502.292,1654.16 502.092,1653.94C501.902,1653.72 501.802,1653.39 501.802,1652.94C501.802,1652.52 501.872,1652.08 502.022,1651.63C502.172,1651.17 502.382,1650.83 502.642,1650.61C502.902,1650.38 503.212,1650.27 503.562,1650.27C503.872,1650.27 504.122,1650.36 504.302,1650.55C504.492,1650.73 504.592,1650.99 504.592,1651.32L505.462,1651.26C505.462,1650.74 505.302,1650.33 504.972,1650.01C504.652,1649.7 504.202,1649.54 503.652,1649.54C503.112,1649.54 502.632,1649.68 502.212,1649.97C501.792,1650.25 501.472,1650.67 501.252,1651.21C501.022,1651.76 500.912,1652.31 500.912,1652.88C500.912,1653.53 501.092,1654.04 501.442,1654.4C501.792,1654.77 502.242,1654.95 502.812,1654.95C503.332,1654.95 503.792,1654.79 504.202,1654.48C504.612,1654.17 504.932,1653.69 505.152,1653.04L504.262,1652.95C504.112,1653.39 503.902,1653.73 503.642,1653.94Z" style="fill:rgb(110,110,111);fill-rule:nonzero;"/>
        </g>
        <g transform="matrix(4.16667,0,0,4.16667,0,0)">
            <path d="M507.222,1654.18C507.092,1654.18 506.992,1654.15 506.932,1654.1C506.872,1654.04 506.842,1653.96 506.842,1653.86C506.842,1653.79 506.882,1653.57 506.952,1653.2L507.552,1650.33L508.412,1650.33L508.562,1649.65L507.692,1649.65L508.092,1647.77L507.082,1648.38L506.812,1649.65L506.112,1649.65L505.972,1650.33L506.672,1650.33L506.042,1653.35C505.962,1653.76 505.912,1654.02 505.912,1654.14C505.912,1654.36 505.992,1654.54 506.152,1654.67C506.352,1654.84 506.632,1654.93 506.982,1654.93C507.182,1654.93 507.392,1654.9 507.602,1654.85L507.752,1654.12C507.592,1654.16 507.422,1654.18 507.222,1654.18Z" style="fill:rgb(110,110,111);fill-rule:nonzero;"/>
        </g>
        <g transform="matrix(4.16667,0,0,4.16667,0,0)">
            <path d="M511.602,1653.93C511.302,1654.13 511.002,1654.23 510.702,1654.23C510.372,1654.23 510.102,1654.1 509.882,1653.85C509.652,1653.59 509.542,1653.22 509.542,1652.73C509.542,1652.65 509.552,1652.56 509.562,1652.46L513.392,1652.46C513.442,1652.19 513.462,1651.93 513.462,1651.68C513.462,1651.02 513.272,1650.5 512.902,1650.11C512.532,1649.73 512.042,1649.54 511.422,1649.54C510.932,1649.54 510.482,1649.67 510.062,1649.93C509.652,1650.19 509.312,1650.58 509.042,1651.11C508.782,1651.64 508.652,1652.19 508.652,1652.76C508.652,1653.19 508.732,1653.57 508.902,1653.91C509.072,1654.25 509.312,1654.51 509.642,1654.68C509.962,1654.86 510.312,1654.95 510.702,1654.95C511.312,1654.95 511.842,1654.76 512.292,1654.37C512.732,1653.99 513.022,1653.59 513.142,1653.16L512.282,1653.08C512.122,1653.45 511.892,1653.74 511.602,1653.93ZM510.402,1650.61C510.712,1650.35 511.062,1650.22 511.442,1650.22C511.792,1650.22 512.072,1650.34 512.302,1650.57C512.522,1650.81 512.632,1651.14 512.632,1651.59C512.632,1651.62 512.632,1651.69 512.632,1651.78L509.702,1651.78C509.862,1651.26 510.092,1650.87 510.402,1650.61Z" style="fill:rgb(110,110,111);fill-rule:nonzero;"/>
        </g>
        <g transform="matrix(4.16667,0,0,4.16667,0,0)">
            <path d="M515.562,1654.18C515.432,1654.18 515.332,1654.15 515.272,1654.1C515.212,1654.04 515.182,1653.96 515.182,1653.86C515.182,1653.79 515.222,1653.57 515.292,1653.2L515.892,1650.33L516.752,1650.33L516.902,1649.65L516.032,1649.65L516.432,1647.77L515.422,1648.38L515.152,1649.65L514.452,1649.65L514.312,1650.33L515.012,1650.33L514.382,1653.35C514.302,1653.76 514.252,1654.02 514.252,1654.14C514.252,1654.36 514.332,1654.54 514.492,1654.67C514.692,1654.84 514.972,1654.93 515.322,1654.93C515.522,1654.93 515.732,1654.9 515.942,1654.85L516.092,1654.12C515.932,1654.16 515.762,1654.18 515.562,1654.18Z" style="fill:rgb(110,110,111);fill-rule:nonzero;"/>
        </g>
        <g transform="matrix(4.16667,0,0,4.16667,0,0)">
            <path d="M520.152,1654.84L520.972,1654.84L522.122,1649.65L521.242,1649.65L520.742,1651.91C520.652,1652.35 520.562,1652.66 520.492,1652.84C520.382,1653.12 520.242,1653.36 520.072,1653.57C519.892,1653.77 519.692,1653.93 519.452,1654.05C519.212,1654.17 518.962,1654.23 518.712,1654.23C518.472,1654.23 518.302,1654.18 518.182,1654.08C518.062,1653.98 517.992,1653.84 517.992,1653.66C517.992,1653.51 518.032,1653.29 518.092,1653.01L518.852,1649.65L517.962,1649.65L517.282,1652.65C517.152,1653.18 517.092,1653.55 517.092,1653.77C517.092,1654.1 517.222,1654.38 517.462,1654.61C517.712,1654.84 518.032,1654.95 518.432,1654.95C519.092,1654.95 519.722,1654.6 520.352,1653.9L520.152,1654.84Z" style="fill:rgb(110,110,111);fill-rule:nonzero;"/>
        </g>
        <g transform="matrix(4.16667,0,0,4.16667,0,0)">
            <path d="M523.212,1654.84L523.642,1652.76C523.832,1651.86 524.092,1651.24 524.422,1650.9C524.742,1650.55 525.062,1650.38 525.372,1650.38C525.552,1650.38 525.722,1650.44 525.872,1650.55L526.242,1649.73C525.982,1649.6 525.762,1649.54 525.592,1649.54C525.322,1649.54 525.062,1649.64 524.802,1649.83C524.552,1650.02 524.282,1650.31 524.022,1650.71L524.242,1649.65L523.452,1649.65L522.372,1654.84L523.212,1654.84Z" style="fill:rgb(110,110,111);fill-rule:nonzero;"/>
        </g>
        <g transform="matrix(4.16667,0,0,4.16667,0,0)">
            <path d="M532.072,1654.84L532.972,1654.84C532.902,1654.53 532.862,1654.3 532.862,1654.14C532.862,1653.88 532.912,1653.55 533.002,1653.14L533.282,1651.85C533.362,1651.48 533.402,1651.16 533.402,1650.89C533.402,1650.52 533.262,1650.23 532.972,1650C532.602,1649.69 532.092,1649.54 531.452,1649.54C530.852,1649.54 530.352,1649.68 529.962,1649.95C529.562,1650.22 529.272,1650.62 529.092,1651.13L529.982,1651.21C530.092,1650.91 530.262,1650.67 530.502,1650.51C530.732,1650.34 531.042,1650.26 531.412,1650.26C531.812,1650.26 532.112,1650.34 532.312,1650.5C532.462,1650.62 532.542,1650.78 532.542,1650.99C532.542,1651.15 532.512,1651.35 532.442,1651.59C532.192,1651.68 531.792,1651.74 531.242,1651.76C530.682,1651.79 530.302,1651.82 530.102,1651.86C529.792,1651.91 529.522,1652.01 529.302,1652.15C529.082,1652.28 528.912,1652.46 528.782,1652.68C528.652,1652.9 528.582,1653.16 528.582,1653.45C528.582,1653.89 528.732,1654.25 529.022,1654.53C529.312,1654.81 529.702,1654.95 530.182,1654.95C530.502,1654.95 530.802,1654.89 531.092,1654.77C531.372,1654.65 531.662,1654.46 531.972,1654.2C531.992,1654.46 532.022,1654.67 532.072,1654.84ZM531.932,1653.39C531.782,1653.67 531.562,1653.88 531.292,1654.04C531.022,1654.19 530.742,1654.27 530.452,1654.27C530.132,1654.27 529.892,1654.19 529.722,1654.03C529.552,1653.87 529.462,1653.67 529.462,1653.42C529.462,1653.24 529.512,1653.07 529.622,1652.91C529.732,1652.76 529.892,1652.65 530.102,1652.58C530.312,1652.51 530.672,1652.45 531.192,1652.41C531.522,1652.38 531.762,1652.35 531.902,1652.32C532.042,1652.3 532.182,1652.26 532.302,1652.21C532.212,1652.72 532.092,1653.11 531.932,1653.39Z" style="fill:rgb(110,110,111);fill-rule:nonzero;"/>
        </g>
        <g transform="matrix(4.16667,0,0,4.16667,0,0)">
            <path d="M537.372,1654.84L538.192,1654.84L539.682,1647.68L538.802,1647.68L538.212,1650.47C537.892,1649.85 537.402,1649.54 536.762,1649.54C536.372,1649.54 535.982,1649.67 535.592,1649.93C535.202,1650.19 534.882,1650.58 534.622,1651.1C534.362,1651.62 534.232,1652.2 534.232,1652.83C534.232,1653.52 534.392,1654.04 534.722,1654.41C535.052,1654.77 535.462,1654.95 535.952,1654.95C536.502,1654.95 537.022,1654.66 537.532,1654.09L537.372,1654.84ZM535.292,1651.75C535.402,1651.4 535.552,1651.12 535.722,1650.89C535.892,1650.66 536.062,1650.51 536.242,1650.41C536.412,1650.32 536.602,1650.27 536.822,1650.27C537.142,1650.27 537.412,1650.39 537.632,1650.62C537.842,1650.85 537.952,1651.17 537.952,1651.57C537.952,1652.39 537.732,1653.07 537.302,1653.62C536.972,1654.03 536.612,1654.24 536.212,1654.24C535.962,1654.24 535.762,1654.17 535.582,1654.03C535.412,1653.9 535.292,1653.72 535.222,1653.52C535.152,1653.31 535.112,1653.02 535.112,1652.66C535.112,1652.4 535.172,1652.1 535.292,1651.75Z" style="fill:rgb(110,110,111);fill-rule:nonzero;"/>
        </g>
        <g transform="matrix(4.16667,0,0,4.16667,0,0)">
            <path d="M541.752,1648.68L541.962,1647.68L541.082,1647.68L540.872,1648.68L541.752,1648.68ZM540.462,1654.84L541.552,1649.65L540.672,1649.65L539.582,1654.84L540.462,1654.84Z" style="fill:rgb(110,110,111);fill-rule:nonzero;"/>
        </g>
        <g transform="matrix(4.16667,0,0,4.16667,0,0)">
            <path d="M542.282,1656.83L542.872,1654C543.212,1654.63 543.692,1654.95 544.312,1654.95C544.602,1654.95 544.872,1654.89 545.142,1654.76C545.402,1654.63 545.672,1654.43 545.932,1654.17C546.192,1653.9 546.412,1653.54 546.592,1653.1C546.772,1652.65 546.862,1652.16 546.862,1651.62C546.862,1650.95 546.702,1650.44 546.372,1650.08C546.052,1649.72 545.632,1649.54 545.142,1649.54C544.872,1649.54 544.622,1649.6 544.382,1649.72C544.142,1649.84 543.872,1650.06 543.572,1650.38L543.722,1649.65L542.902,1649.65L541.402,1656.83L542.282,1656.83ZM543.302,1651.83C543.412,1651.49 543.552,1651.2 543.712,1650.96C543.882,1650.73 544.062,1650.55 544.252,1650.43C544.442,1650.31 544.652,1650.25 544.882,1650.25C545.192,1650.25 545.452,1650.37 545.662,1650.61C545.872,1650.85 545.982,1651.19 545.982,1651.63C545.982,1652.22 545.822,1652.8 545.512,1653.37C545.202,1653.94 544.782,1654.23 544.272,1654.23C544.032,1654.23 543.812,1654.17 543.632,1654.04C543.442,1653.91 543.312,1653.74 543.232,1653.53C543.172,1653.38 543.142,1653.11 543.142,1652.72C543.142,1652.47 543.202,1652.17 543.302,1651.83Z" style="fill:rgb(110,110,111);fill-rule:nonzero;"/>
        </g>
        <g transform="matrix(4.16667,0,0,4.16667,0,0)">
            <path d="M549.532,1648.68L549.742,1647.68L548.862,1647.68L548.652,1648.68L549.532,1648.68ZM548.242,1654.84L549.332,1649.65L548.452,1649.65L547.362,1654.84L548.242,1654.84Z" style="fill:rgb(110,110,111);fill-rule:nonzero;"/>
        </g>
        <g transform="matrix(4.16667,0,0,4.16667,0,0)">
            <path d="M550.282,1654.51C550.702,1654.8 551.202,1654.95 551.802,1654.95C552.242,1654.95 552.622,1654.88 552.942,1654.73C553.272,1654.58 553.512,1654.38 553.662,1654.14C553.822,1653.89 553.902,1653.64 553.902,1653.38C553.902,1653 553.762,1652.67 553.482,1652.4C553.312,1652.23 552.882,1652 552.212,1651.71C551.802,1651.53 551.552,1651.4 551.462,1651.32C551.312,1651.19 551.242,1651.05 551.242,1650.89C551.242,1650.72 551.322,1650.57 551.492,1650.43C551.662,1650.29 551.902,1650.22 552.202,1650.22C552.582,1650.22 552.872,1650.31 553.082,1650.49C553.292,1650.68 553.402,1650.93 553.412,1651.24L554.272,1651.18C554.262,1650.69 554.082,1650.29 553.742,1649.99C553.402,1649.69 552.912,1649.54 552.262,1649.54C551.682,1649.54 551.222,1649.69 550.902,1649.98C550.572,1650.27 550.412,1650.62 550.412,1651.03C550.412,1651.27 550.472,1651.47 550.582,1651.65C550.692,1651.83 550.852,1651.99 551.072,1652.12C551.202,1652.21 551.502,1652.35 551.962,1652.55C552.432,1652.74 552.722,1652.91 552.842,1653.05C552.952,1653.19 553.012,1653.33 553.012,1653.48C553.012,1653.7 552.912,1653.88 552.722,1654.04C552.522,1654.19 552.232,1654.27 551.852,1654.27C551.572,1654.27 551.322,1654.21 551.122,1654.1C550.912,1653.99 550.762,1653.84 550.692,1653.66C550.612,1653.48 550.572,1653.26 550.572,1653.01L549.682,1653.06C549.662,1653.73 549.862,1654.21 550.282,1654.51Z" style="fill:rgb(110,110,111);fill-rule:nonzero;"/>
        </g>
        <g transform="matrix(4.16667,0,0,4.16667,0,0)">
            <path d="M556.752,1648.68L556.962,1647.68L556.082,1647.68L555.872,1648.68L556.752,1648.68ZM555.462,1654.84L556.552,1649.65L555.672,1649.65L554.582,1654.84L555.462,1654.84Z" style="fill:rgb(110,110,111);fill-rule:nonzero;"/>
        </g>
        <g transform="matrix(4.16667,0,0,4.16667,0,0)">
            <path d="M559.772,1653.94C559.512,1654.16 559.232,1654.27 558.952,1654.27C558.662,1654.27 558.422,1654.16 558.222,1653.94C558.032,1653.72 557.932,1653.39 557.932,1652.94C557.932,1652.52 558.002,1652.08 558.152,1651.63C558.302,1651.17 558.512,1650.83 558.772,1650.61C559.032,1650.38 559.342,1650.27 559.692,1650.27C560.002,1650.27 560.252,1650.36 560.432,1650.55C560.622,1650.73 560.722,1650.99 560.722,1651.32L561.592,1651.26C561.592,1650.74 561.432,1650.33 561.102,1650.01C560.782,1649.7 560.332,1649.54 559.782,1649.54C559.242,1649.54 558.762,1649.68 558.342,1649.97C557.922,1650.25 557.602,1650.67 557.382,1651.21C557.152,1651.76 557.042,1652.31 557.042,1652.88C557.042,1653.53 557.222,1654.04 557.572,1654.4C557.922,1654.77 558.372,1654.95 558.942,1654.95C559.462,1654.95 559.922,1654.79 560.332,1654.48C560.742,1654.17 561.062,1653.69 561.282,1653.04L560.392,1652.95C560.242,1653.39 560.032,1653.73 559.772,1653.94Z" style="fill:rgb(110,110,111);fill-rule:nonzero;"/>
        </g>
        <g transform="matrix(4.16667,0,0,4.16667,0,0)">
            <path d="M563.972,1648.68L564.182,1647.68L563.302,1647.68L563.092,1648.68L563.972,1648.68ZM562.682,1654.84L563.772,1649.65L562.892,1649.65L561.802,1654.84L562.682,1654.84Z" style="fill:rgb(110,110,111);fill-rule:nonzero;"/>
        </g>
        <g transform="matrix(4.16667,0,0,4.16667,0,0)">
            <path d="M564.912,1654.84L565.412,1652.43C565.582,1651.64 565.852,1651.08 566.212,1650.76C566.572,1650.43 566.982,1650.27 567.442,1650.27C567.672,1650.27 567.842,1650.32 567.962,1650.43C568.092,1650.54 568.152,1650.68 568.152,1650.85C568.152,1651 568.112,1651.24 568.042,1651.56L567.312,1654.84L568.192,1654.84L568.892,1651.71C568.982,1651.29 569.022,1650.99 569.022,1650.8C569.022,1650.42 568.902,1650.11 568.662,1649.88C568.422,1649.65 568.092,1649.54 567.662,1649.54C567.342,1649.54 567.032,1649.62 566.722,1649.78C566.422,1649.94 566.092,1650.2 565.742,1650.56L565.922,1649.65L565.122,1649.65L564.032,1654.84L564.912,1654.84Z" style="fill:rgb(110,110,111);fill-rule:nonzero;"/>
        </g>
        <g transform="matrix(4.16667,0,0,4.16667,0,0)">
            <path d="M569.522,1655.57C569.522,1655.84 569.592,1656.08 569.742,1656.29C569.892,1656.49 570.112,1656.65 570.422,1656.76C570.722,1656.87 571.082,1656.92 571.492,1656.92C571.922,1656.92 572.312,1656.84 572.642,1656.67C572.972,1656.5 573.222,1656.26 573.412,1655.95C573.602,1655.64 573.742,1655.21 573.862,1654.66L574.912,1649.65L574.102,1649.65L573.912,1650.49C573.552,1649.86 573.022,1649.54 572.342,1649.54C571.942,1649.54 571.542,1649.66 571.162,1649.91C570.782,1650.16 570.442,1650.53 570.172,1651.02C569.892,1651.51 569.752,1652.04 569.752,1652.62C569.752,1653.33 569.932,1653.88 570.282,1654.26C570.632,1654.65 571.072,1654.84 571.592,1654.84C572.112,1654.84 572.602,1654.61 573.062,1654.14L572.972,1654.56C572.842,1655.18 572.702,1655.59 572.552,1655.77C572.312,1656.05 571.932,1656.19 571.402,1656.19C571.142,1656.19 570.942,1656.15 570.782,1656.08C570.662,1656.03 570.572,1655.95 570.512,1655.85C570.462,1655.74 570.432,1655.59 570.442,1655.39L569.542,1655.31C569.532,1655.4 569.522,1655.49 569.522,1655.57ZM570.782,1651.8C570.872,1651.47 571.012,1651.19 571.182,1650.95C571.362,1650.71 571.542,1650.54 571.752,1650.42C571.952,1650.31 572.162,1650.25 572.372,1650.25C572.722,1650.25 573.012,1650.38 573.252,1650.63C573.492,1650.88 573.612,1651.22 573.612,1651.65C573.612,1652.04 573.522,1652.44 573.342,1652.87C573.162,1653.3 572.932,1653.61 572.642,1653.81C572.352,1654.02 572.072,1654.12 571.782,1654.12C571.552,1654.12 571.352,1654.05 571.172,1653.92C570.992,1653.79 570.852,1653.6 570.752,1653.35C570.682,1653.17 570.652,1652.9 570.652,1652.55C570.652,1652.38 570.692,1652.13 570.782,1651.8Z" style="fill:rgb(110,110,111);fill-rule:nonzero;"/>
        </g>
        <g transform="matrix(4.16667,0,0,4.16667,0,0)">
            <path d="M581.072,1653.93C580.772,1654.13 580.472,1654.23 580.172,1654.23C579.842,1654.23 579.572,1654.1 579.352,1653.85C579.122,1653.59 579.012,1653.22 579.012,1652.73C579.012,1652.65 579.022,1652.56 579.032,1652.46L582.862,1652.46C582.912,1652.19 582.932,1651.93 582.932,1651.68C582.932,1651.02 582.742,1650.5 582.372,1650.11C582.002,1649.73 581.512,1649.54 580.892,1649.54C580.402,1649.54 579.952,1649.67 579.532,1649.93C579.122,1650.19 578.782,1650.58 578.512,1651.11C578.252,1651.64 578.122,1652.19 578.122,1652.76C578.122,1653.19 578.202,1653.57 578.372,1653.91C578.542,1654.25 578.782,1654.51 579.112,1654.68C579.432,1654.86 579.782,1654.95 580.172,1654.95C580.782,1654.95 581.312,1654.76 581.762,1654.37C582.202,1653.99 582.492,1653.59 582.612,1653.16L581.752,1653.08C581.592,1653.45 581.362,1653.74 581.072,1653.93ZM579.872,1650.61C580.182,1650.35 580.532,1650.22 580.912,1650.22C581.262,1650.22 581.542,1650.34 581.772,1650.57C581.992,1650.81 582.102,1651.14 582.102,1651.59C582.102,1651.62 582.102,1651.69 582.102,1651.78L579.172,1651.78C579.332,1651.26 579.562,1650.87 579.872,1650.61Z" style="fill:rgb(110,110,111);fill-rule:nonzero;"/>
        </g>
        <g transform="matrix(4.16667,0,0,4.16667,0,0)">
            <path d="M584.312,1654.84L585.812,1647.68L584.932,1647.68L583.442,1654.84L584.312,1654.84Z" style="fill:rgb(110,110,111);fill-rule:nonzero;"/>
        </g>
        <g transform="matrix(4.16667,0,0,4.16667,0,0)">
            <path d="M587.872,1648.68L588.082,1647.68L587.202,1647.68L586.992,1648.68L587.872,1648.68ZM586.582,1654.84L587.672,1649.65L586.792,1649.65L585.702,1654.84L586.582,1654.84Z" style="fill:rgb(110,110,111);fill-rule:nonzero;"/>
        </g>
        <g transform="matrix(4.16667,0,0,4.16667,0,0)">
            <path d="M589.472,1654.18C589.342,1654.18 589.242,1654.15 589.182,1654.1C589.122,1654.04 589.092,1653.96 589.092,1653.86C589.092,1653.79 589.132,1653.57 589.202,1653.2L589.802,1650.33L590.662,1650.33L590.812,1649.65L589.942,1649.65L590.342,1647.77L589.332,1648.38L589.062,1649.65L588.362,1649.65L588.222,1650.33L588.922,1650.33L588.292,1653.35C588.212,1653.76 588.162,1654.02 588.162,1654.14C588.162,1654.36 588.242,1654.54 588.402,1654.67C588.602,1654.84 588.882,1654.93 589.232,1654.93C589.432,1654.93 589.642,1654.9 589.852,1654.85L590.002,1654.12C589.842,1654.16 589.672,1654.18 589.472,1654.18Z" style="fill:rgb(110,110,111);fill-rule:nonzero;"/>
        </g>
        <g transform="matrix(4.16667,0,0,4.16667,0,0)">
            <path d="M591.962,1654.84L592.172,1653.84L591.172,1653.84L590.962,1654.84L591.962,1654.84Z" style="fill:rgb(110,110,111);fill-rule:nonzero;"/>
        </g>
        <g transform="matrix(4.16667,0,0,4.16667,0,0)">
            <path d="M465.725,1638.5C465.725,1642.37 462.592,1645.5 458.725,1645.5C454.86,1645.5 451.725,1642.37 451.725,1638.5C451.725,1634.64 454.86,1631.5 458.725,1631.5C462.592,1631.5 465.725,1634.64 465.725,1638.5Z" style="fill:rgb(112,114,115);fill-rule:nonzero;"/>
        </g>
        <g transform="matrix(4.16667,0,0,4.16667,0,0)">
            <path d="M458.04,1642.08L458.04,1636.9L459.412,1636.9L459.412,1642.08L458.04,1642.08ZM458.04,1636.19L458.04,1634.92L459.412,1634.92L459.412,1636.19L458.04,1636.19Z" style="fill:white;fill-rule:nonzero;"/>
        </g>
    </g>
    <defs>
        <linearGradient id="_Linear1" x1="0" y1="0" x2="1" y2="0" gradientUnits="userSpaceOnUse" gradientTransform="matrix(-2.01103e-06,46.0071,-46.0071,-2.01103e-06,526.079,1622.9)"><stop offset="0%" style="stop-color:rgb(246,248,249);stop-opacity:1"/><stop offset="100%" style="stop-color:rgb(243,243,244);stop-opacity:1"/></linearGradient>
    </defs>
</svg>
